<svg width="800" height="557" viewBox="0 0 800 557" fill="none" xmlns="http://www.w3.org/2000/svg">
<path d="M342.249 537.548C536.267 584.245 790.902 453.699 790.902 295.559C790.902 52.3102 625.285 93.0012 578.366 92.851C531.447 92.7009 370.125 120.626 204.283 166.495C-21.6697 228.989 1.09444 221.905 30.7315 276.984C89.2764 408.527 154.362 492.327 342.249 537.548Z" fill="#DED6F2"/>
<path d="M440.193 28.9936C259.451 8.0958 81.6929 -14.3119 24.2074 167.551C-79.2074 549.338 348.173 496.71 268.469 332.13C188.764 167.551 352.282 94.2008 593.169 257.304C754.017 366.214 765.387 243.952 746.583 178.595C719.655 85.0032 620.935 49.8915 440.193 28.9936Z" fill="#00264D"/>
</svg>
