<svg width="580" height="480" viewBox="0 0 580 480" fill="none" xmlns="http://www.w3.org/2000/svg">
<g filter="url(#filter0_ddd)">
<rect x="292" y="362" width="268" height="64" rx="4" fill="white"/>
</g>
<path d="M369.696 400H368.144V391.168L364.272 400H362.832L358.992 391.168V400H357.44V388.656H359.568L363.568 397.888L367.6 388.656H369.696V400ZM374.005 398.176C374.474 398.656 375.045 398.896 375.717 398.896C376.389 398.896 376.954 398.656 377.413 398.176C377.882 397.685 378.117 397.008 378.117 396.144C378.117 395.291 377.882 394.624 377.413 394.144C376.954 393.653 376.389 393.408 375.717 393.408C375.045 393.408 374.474 393.653 374.005 394.144C373.546 394.624 373.317 395.291 373.317 396.144C373.317 397.008 373.546 397.685 374.005 398.176ZM372.885 393.232C373.631 392.453 374.575 392.064 375.717 392.064C376.858 392.064 377.797 392.453 378.533 393.232C379.279 394 379.653 394.971 379.653 396.144C379.653 397.328 379.285 398.309 378.549 399.088C377.813 399.856 376.869 400.24 375.717 400.24C374.565 400.24 373.621 399.856 372.885 399.088C372.149 398.309 371.781 397.328 371.781 396.144C371.781 394.971 372.149 394 372.885 393.232ZM387.935 392.304L384.863 400H383.343L380.223 392.304H381.919L384.111 398.24L386.319 392.304H387.935ZM390.862 400H389.374V392.304H390.862V400ZM389.342 390.16C389.139 389.947 389.038 389.691 389.038 389.392C389.038 389.093 389.139 388.837 389.342 388.624C389.555 388.411 389.811 388.304 390.11 388.304C390.408 388.304 390.664 388.411 390.878 388.624C391.091 388.827 391.198 389.083 391.198 389.392C391.198 389.691 391.091 389.947 390.878 390.16C390.664 390.363 390.408 390.464 390.11 390.464C389.811 390.464 389.555 390.363 389.342 390.16ZM394.925 395.552V400H393.421V392.304H394.893V393.408C395.405 392.523 396.194 392.08 397.261 392.08C398.146 392.08 398.823 392.363 399.293 392.928C399.773 393.493 400.013 394.224 400.013 395.12V400H398.509V395.376C398.509 394.085 397.911 393.44 396.717 393.44C396.151 393.44 395.709 393.643 395.389 394.048C395.079 394.443 394.925 394.944 394.925 395.552ZM401.845 400.416L403.301 400.08C403.354 400.624 403.573 401.072 403.957 401.424C404.341 401.787 404.821 401.968 405.397 401.968C406.965 401.968 407.749 401.136 407.749 399.472V398.368C407.557 398.741 407.253 399.045 406.837 399.28C406.432 399.515 405.952 399.632 405.397 399.632C404.373 399.632 403.525 399.285 402.853 398.592C402.192 397.888 401.861 396.992 401.861 395.904C401.861 394.848 402.192 393.963 402.853 393.248C403.514 392.523 404.362 392.16 405.397 392.16C406.57 392.16 407.36 392.565 407.765 393.376V392.304H409.253V399.424C409.253 399.936 409.184 400.411 409.045 400.848C408.917 401.296 408.709 401.707 408.421 402.08C408.133 402.453 407.728 402.747 407.205 402.96C406.693 403.173 406.09 403.28 405.397 403.28C404.448 403.28 403.642 403.008 402.981 402.464C402.32 401.931 401.941 401.248 401.845 400.416ZM405.621 398.368C406.272 398.368 406.8 398.144 407.205 397.696C407.61 397.237 407.813 396.64 407.813 395.904C407.813 395.168 407.61 394.576 407.205 394.128C406.8 393.669 406.272 393.44 405.621 393.44C404.96 393.44 404.421 393.664 404.005 394.112C403.6 394.56 403.397 395.157 403.397 395.904C403.397 396.661 403.594 397.264 403.989 397.712C404.394 398.149 404.938 398.368 405.621 398.368ZM419.175 397.936C419.175 397.275 419.388 396.747 419.815 396.352C420.242 395.947 420.807 395.696 421.511 395.6L423.591 395.296C423.986 395.243 424.183 395.051 424.183 394.72C424.183 394.315 424.044 393.984 423.767 393.728C423.49 393.472 423.074 393.344 422.519 393.344C422.007 393.344 421.602 393.488 421.303 393.776C421.004 394.053 420.828 394.427 420.775 394.896L419.335 394.56C419.41 393.824 419.746 393.227 420.343 392.768C420.94 392.299 421.655 392.064 422.487 392.064C423.575 392.064 424.38 392.331 424.903 392.864C425.426 393.387 425.687 394.059 425.687 394.88V398.736C425.687 399.195 425.719 399.616 425.783 400H424.311C424.258 399.68 424.231 399.333 424.231 398.96C424.018 399.301 423.703 399.6 423.287 399.856C422.882 400.112 422.37 400.24 421.751 400.24C420.994 400.24 420.375 400.016 419.895 399.568C419.415 399.109 419.175 398.565 419.175 397.936ZM421.959 398.976C422.631 398.976 423.17 398.795 423.575 398.432C423.98 398.069 424.183 397.493 424.183 396.704V396.352L421.831 396.704C421.49 396.757 421.218 396.88 421.015 397.072C420.812 397.264 420.711 397.525 420.711 397.856C420.711 398.155 420.823 398.416 421.047 398.64C421.282 398.864 421.586 398.976 421.959 398.976ZM429.534 395.552V400H428.03V392.304H429.502V393.408C430.014 392.523 430.803 392.08 431.87 392.08C432.755 392.08 433.433 392.363 433.902 392.928C434.382 393.493 434.622 394.224 434.622 395.12V400H433.118V395.376C433.118 394.085 432.521 393.44 431.326 393.44C430.761 393.44 430.318 393.643 429.998 394.048C429.689 394.443 429.534 394.944 429.534 395.552ZM437.91 396.128C437.91 396.939 438.108 397.6 438.502 398.112C438.908 398.624 439.462 398.88 440.166 398.88C440.838 398.88 441.377 398.619 441.782 398.096C442.188 397.573 442.39 396.907 442.39 396.096C442.39 395.296 442.193 394.651 441.798 394.16C441.404 393.669 440.865 393.424 440.182 393.424C439.5 393.424 438.95 393.675 438.534 394.176C438.118 394.677 437.91 395.328 437.91 396.128ZM442.406 398.96V398.832C442.204 399.227 441.894 399.557 441.478 399.824C441.073 400.08 440.588 400.208 440.022 400.208C438.924 400.208 438.038 399.824 437.366 399.056C436.705 398.277 436.374 397.301 436.374 396.128C436.374 395.008 436.716 394.059 437.398 393.28C438.081 392.491 438.956 392.096 440.022 392.096C440.652 392.096 441.164 392.224 441.558 392.48C441.953 392.725 442.225 393.029 442.374 393.392V388.416H443.862V398.576C443.862 399.099 443.889 399.573 443.942 400H442.486C442.433 399.701 442.406 399.355 442.406 398.96ZM451.925 395.472V400H450.421V388.416H451.925V393.2C452.437 392.453 453.215 392.08 454.261 392.08C455.146 392.08 455.823 392.363 456.293 392.928C456.773 393.493 457.013 394.224 457.013 395.12V400H455.509V395.376C455.509 394.085 454.911 393.44 453.717 393.44C453.162 393.44 452.73 393.632 452.421 394.016C452.111 394.389 451.946 394.875 451.925 395.472ZM458.925 397.936C458.925 397.275 459.138 396.747 459.565 396.352C459.992 395.947 460.557 395.696 461.261 395.6L463.341 395.296C463.736 395.243 463.933 395.051 463.933 394.72C463.933 394.315 463.794 393.984 463.517 393.728C463.24 393.472 462.824 393.344 462.269 393.344C461.757 393.344 461.352 393.488 461.053 393.776C460.754 394.053 460.578 394.427 460.525 394.896L459.085 394.56C459.16 393.824 459.496 393.227 460.093 392.768C460.69 392.299 461.405 392.064 462.237 392.064C463.325 392.064 464.13 392.331 464.653 392.864C465.176 393.387 465.437 394.059 465.437 394.88V398.736C465.437 399.195 465.469 399.616 465.533 400H464.061C464.008 399.68 463.981 399.333 463.981 398.96C463.768 399.301 463.453 399.6 463.037 399.856C462.632 400.112 462.12 400.24 461.501 400.24C460.744 400.24 460.125 400.016 459.645 399.568C459.165 399.109 458.925 398.565 458.925 397.936ZM461.709 398.976C462.381 398.976 462.92 398.795 463.325 398.432C463.73 398.069 463.933 397.493 463.933 396.704V396.352L461.581 396.704C461.24 396.757 460.968 396.88 460.765 397.072C460.562 397.264 460.461 397.525 460.461 397.856C460.461 398.155 460.573 398.416 460.797 398.64C461.032 398.864 461.336 398.976 461.709 398.976ZM469.284 395.552V400H467.78V392.304H469.252V393.408C469.764 392.523 470.553 392.08 471.62 392.08C472.505 392.08 473.183 392.363 473.652 392.928C474.132 393.493 474.372 394.224 474.372 395.12V400H472.868V395.376C472.868 394.085 472.271 393.44 471.076 393.44C470.511 393.44 470.068 393.643 469.748 394.048C469.439 394.443 469.284 394.944 469.284 395.552ZM477.66 396.128C477.66 396.939 477.858 397.6 478.252 398.112C478.658 398.624 479.212 398.88 479.916 398.88C480.588 398.88 481.127 398.619 481.532 398.096C481.938 397.573 482.14 396.907 482.14 396.096C482.14 395.296 481.943 394.651 481.548 394.16C481.154 393.669 480.615 393.424 479.932 393.424C479.25 393.424 478.7 393.675 478.284 394.176C477.868 394.677 477.66 395.328 477.66 396.128ZM482.156 398.96V398.832C481.954 399.227 481.644 399.557 481.228 399.824C480.823 400.08 480.338 400.208 479.772 400.208C478.674 400.208 477.788 399.824 477.116 399.056C476.455 398.277 476.124 397.301 476.124 396.128C476.124 395.008 476.466 394.059 477.148 393.28C477.831 392.491 478.706 392.096 479.772 392.096C480.402 392.096 480.914 392.224 481.308 392.48C481.703 392.725 481.975 393.029 482.124 393.392V388.416H483.612V398.576C483.612 399.099 483.639 399.573 483.692 400H482.236C482.183 399.701 482.156 399.355 482.156 398.96ZM487.675 400H486.171V388.416H487.675V400ZM491.721 400H490.233V392.304H491.721V400ZM490.201 390.16C489.998 389.947 489.897 389.691 489.897 389.392C489.897 389.093 489.998 388.837 490.201 388.624C490.414 388.411 490.67 388.304 490.969 388.304C491.268 388.304 491.524 388.411 491.737 388.624C491.95 388.827 492.057 389.083 492.057 389.392C492.057 389.691 491.95 389.947 491.737 390.16C491.524 390.363 491.268 390.464 490.969 390.464C490.67 390.464 490.414 390.363 490.201 390.16ZM495.784 395.552V400H494.28V392.304H495.752V393.408C496.264 392.523 497.053 392.08 498.12 392.08C499.005 392.08 499.683 392.363 500.152 392.928C500.632 393.493 500.872 394.224 500.872 395.12V400H499.368V395.376C499.368 394.085 498.771 393.44 497.576 393.44C497.011 393.44 496.568 393.643 496.248 394.048C495.939 394.443 495.784 394.944 495.784 395.552ZM502.704 400.416L504.16 400.08C504.214 400.624 504.432 401.072 504.816 401.424C505.2 401.787 505.68 401.968 506.256 401.968C507.824 401.968 508.608 401.136 508.608 399.472V398.368C508.416 398.741 508.112 399.045 507.696 399.28C507.291 399.515 506.811 399.632 506.256 399.632C505.232 399.632 504.384 399.285 503.712 398.592C503.051 397.888 502.72 396.992 502.72 395.904C502.72 394.848 503.051 393.963 503.712 393.248C504.374 392.523 505.222 392.16 506.256 392.16C507.43 392.16 508.219 392.565 508.624 393.376V392.304H510.112V399.424C510.112 399.936 510.043 400.411 509.904 400.848C509.776 401.296 509.568 401.707 509.28 402.08C508.992 402.453 508.587 402.747 508.064 402.96C507.552 403.173 506.95 403.28 506.256 403.28C505.307 403.28 504.502 403.008 503.84 402.464C503.179 401.931 502.8 401.248 502.704 400.416ZM506.48 398.368C507.131 398.368 507.659 398.144 508.064 397.696C508.47 397.237 508.672 396.64 508.672 395.904C508.672 395.168 508.47 394.576 508.064 394.128C507.659 393.669 507.131 393.44 506.48 393.44C505.819 393.44 505.28 393.664 504.864 394.112C504.459 394.56 504.256 395.157 504.256 395.904C504.256 396.661 504.454 397.264 504.848 397.712C505.254 398.149 505.798 398.368 506.48 398.368Z" fill="#444444"/>
<path d="M327.54 384.988C329.197 384.988 330.54 383.645 330.54 381.988C330.54 380.331 329.197 378.988 327.54 378.988C325.883 378.988 324.54 380.331 324.54 381.988C324.54 383.645 325.883 384.988 327.54 384.988Z" fill="#C4C4C4" stroke="#444444" stroke-width="1.5" stroke-linecap="round" stroke-linejoin="round"/>
<path d="M333.32 396.823C333.478 396.424 333.504 395.985 333.394 395.571C333.284 395.157 333.043 394.789 332.708 394.521C332.297 394.191 332.022 393.72 331.936 393.2C331.743 392.071 331.24 391.017 330.482 390.158C329.725 389.298 328.743 388.666 327.647 388.332L323.272 387.019C321.944 386.621 320.521 386.678 319.229 387.179C317.936 387.68 316.847 388.597 316.134 389.785L314.831 391.959C314.689 392.184 314.594 392.435 314.551 392.698C314.507 392.961 314.517 393.229 314.579 393.488C314.641 393.747 314.753 393.991 314.911 394.206C315.068 394.42 315.267 394.601 315.495 394.738C315.723 394.875 315.977 394.965 316.24 395.003C316.504 395.041 316.772 395.026 317.029 394.958C317.287 394.891 317.528 394.773 317.74 394.611C317.951 394.449 318.128 394.247 318.26 394.016L319.564 391.843C319.82 391.418 320.21 391.09 320.673 390.91C321.135 390.73 321.644 390.709 322.12 390.849L316.654 406.316C316.566 406.564 316.528 406.826 316.542 407.088C316.556 407.351 316.621 407.608 316.735 407.845C316.848 408.082 317.007 408.294 317.202 408.47C317.397 408.646 317.625 408.781 317.873 408.869C318.121 408.956 318.383 408.994 318.645 408.98C318.908 408.966 319.165 408.901 319.402 408.788C319.639 408.674 319.851 408.516 320.027 408.32C320.203 408.125 320.338 407.897 320.426 407.649L323.067 400.179L326.739 407.851C326.853 408.087 327.012 408.3 327.208 408.475C327.404 408.65 327.632 408.785 327.88 408.872C328.128 408.959 328.39 408.996 328.653 408.982C328.915 408.967 329.172 408.901 329.409 408.787C329.646 408.674 329.858 408.514 330.033 408.318C330.208 408.123 330.343 407.894 330.43 407.646C330.517 407.398 330.554 407.136 330.54 406.873C330.525 406.611 330.459 406.354 330.346 406.117L324.948 394.841L325.954 391.993L326.499 392.157C326.881 392.273 327.222 392.493 327.486 392.792C327.75 393.091 327.926 393.458 327.994 393.851C328.238 395.346 329.029 396.698 330.214 397.644C330.458 397.839 330.745 397.975 331.051 398.039C331.358 398.104 331.675 398.095 331.977 398.015C332.28 397.934 332.559 397.784 332.793 397.575C333.026 397.367 333.208 397.107 333.323 396.816L333.32 396.823Z" stroke="#444444" stroke-width="1.5" stroke-linecap="round" stroke-linejoin="round"/>
<g filter="url(#filter1_ddd)">
<rect x="292" y="131" width="256" height="64" rx="4" fill="white"/>
</g>
<path d="M364.336 169H357.44V157.656H364.336V159.112H359.008V162.6H363.84V164.072H359.008V167.544H364.336V169ZM367.831 169H366.343V161.304H367.783V162.328C368.017 161.923 368.348 161.613 368.775 161.4C369.201 161.187 369.649 161.08 370.119 161.08C370.62 161.08 371.079 161.203 371.495 161.448C371.911 161.693 372.22 162.056 372.423 162.536C372.956 161.565 373.815 161.08 374.999 161.08C375.735 161.08 376.359 161.331 376.871 161.832C377.393 162.333 377.655 163.059 377.655 164.008V169H376.167V164.168C376.167 163.635 376.028 163.208 375.751 162.888C375.484 162.568 375.079 162.408 374.535 162.408C374.012 162.408 373.585 162.595 373.255 162.968C372.924 163.331 372.759 163.789 372.759 164.344V169H371.255V164.168C371.255 163.635 371.116 163.208 370.839 162.888C370.572 162.568 370.167 162.408 369.623 162.408C369.089 162.408 368.657 162.589 368.327 162.952C367.996 163.315 367.831 163.784 367.831 164.36V169ZM381.645 167.176C382.115 167.656 382.685 167.896 383.357 167.896C384.029 167.896 384.595 167.656 385.053 167.176C385.523 166.685 385.757 166.008 385.757 165.144C385.757 164.291 385.523 163.624 385.053 163.144C384.595 162.653 384.029 162.408 383.357 162.408C382.685 162.408 382.115 162.653 381.645 163.144C381.187 163.624 380.957 164.291 380.957 165.144C380.957 166.008 381.187 166.685 381.645 167.176ZM380.525 162.232C381.272 161.453 382.216 161.064 383.357 161.064C384.499 161.064 385.437 161.453 386.173 162.232C386.92 163 387.293 163.971 387.293 165.144C387.293 166.328 386.925 167.309 386.189 168.088C385.453 168.856 384.509 169.24 383.357 169.24C382.205 169.24 381.261 168.856 380.525 168.088C379.789 167.309 379.421 166.328 379.421 165.144C379.421 163.971 379.789 163 380.525 162.232ZM391.155 158.872V161.304H392.819V162.664H391.155V166.664C391.155 167.027 391.235 167.293 391.395 167.464C391.566 167.635 391.843 167.72 392.227 167.72C392.451 167.72 392.649 167.699 392.819 167.656V168.936C392.563 169.032 392.222 169.08 391.795 169.08C391.134 169.08 390.611 168.888 390.227 168.504C389.843 168.12 389.651 167.581 389.651 166.888V162.664H388.179V161.304H388.595C388.99 161.304 389.283 161.197 389.475 160.984C389.678 160.76 389.779 160.472 389.779 160.12V158.872H391.155ZM396.315 169H394.827V161.304H396.315V169ZM394.795 159.16C394.592 158.947 394.491 158.691 394.491 158.392C394.491 158.093 394.592 157.837 394.795 157.624C395.008 157.411 395.264 157.304 395.563 157.304C395.862 157.304 396.118 157.411 396.331 157.624C396.544 157.827 396.651 158.083 396.651 158.392C396.651 158.691 396.544 158.947 396.331 159.16C396.118 159.363 395.862 159.464 395.563 159.464C395.264 159.464 395.008 159.363 394.795 159.16ZM400.458 167.176C400.927 167.656 401.498 167.896 402.17 167.896C402.842 167.896 403.407 167.656 403.866 167.176C404.335 166.685 404.57 166.008 404.57 165.144C404.57 164.291 404.335 163.624 403.866 163.144C403.407 162.653 402.842 162.408 402.17 162.408C401.498 162.408 400.927 162.653 400.458 163.144C399.999 163.624 399.77 164.291 399.77 165.144C399.77 166.008 399.999 166.685 400.458 167.176ZM399.338 162.232C400.084 161.453 401.028 161.064 402.17 161.064C403.311 161.064 404.25 161.453 404.986 162.232C405.732 163 406.106 163.971 406.106 165.144C406.106 166.328 405.738 167.309 405.002 168.088C404.266 168.856 403.322 169.24 402.17 169.24C401.018 169.24 400.074 168.856 399.338 168.088C398.602 167.309 398.234 166.328 398.234 165.144C398.234 163.971 398.602 163 399.338 162.232ZM409.534 164.552V169H408.03V161.304H409.502V162.408C410.014 161.523 410.803 161.08 411.87 161.08C412.755 161.08 413.433 161.363 413.902 161.928C414.382 162.493 414.622 163.224 414.622 164.12V169H413.118V164.376C413.118 163.085 412.521 162.44 411.326 162.44C410.761 162.44 410.318 162.643 409.998 163.048C409.689 163.443 409.534 163.944 409.534 164.552ZM416.534 166.936C416.534 166.275 416.748 165.747 417.174 165.352C417.601 164.947 418.166 164.696 418.87 164.6L420.95 164.296C421.345 164.243 421.542 164.051 421.542 163.72C421.542 163.315 421.404 162.984 421.126 162.728C420.849 162.472 420.433 162.344 419.878 162.344C419.366 162.344 418.961 162.488 418.662 162.776C418.364 163.053 418.188 163.427 418.134 163.896L416.694 163.56C416.769 162.824 417.105 162.227 417.702 161.768C418.3 161.299 419.014 161.064 419.846 161.064C420.934 161.064 421.74 161.331 422.262 161.864C422.785 162.387 423.046 163.059 423.046 163.88V167.736C423.046 168.195 423.078 168.616 423.142 169H421.67C421.617 168.68 421.59 168.333 421.59 167.96C421.377 168.301 421.062 168.6 420.646 168.856C420.241 169.112 419.729 169.24 419.11 169.24C418.353 169.24 417.734 169.016 417.254 168.568C416.774 168.109 416.534 167.565 416.534 166.936ZM419.318 167.976C419.99 167.976 420.529 167.795 420.934 167.432C421.34 167.069 421.542 166.493 421.542 165.704V165.352L419.19 165.704C418.849 165.757 418.577 165.88 418.374 166.072C418.172 166.264 418.07 166.525 418.07 166.856C418.07 167.155 418.182 167.416 418.406 167.64C418.641 167.864 418.945 167.976 419.318 167.976ZM426.893 169H425.389V157.416H426.893V169ZM432.732 167L434.092 166.52C434.145 166.936 434.327 167.283 434.636 167.56C434.945 167.827 435.361 167.96 435.884 167.96C436.289 167.96 436.609 167.864 436.844 167.672C437.079 167.469 437.196 167.224 437.196 166.936C437.196 166.424 436.865 166.093 436.204 165.944L434.892 165.656C434.295 165.528 433.825 165.272 433.484 164.888C433.143 164.504 432.972 164.04 432.972 163.496C432.972 162.835 433.239 162.264 433.772 161.784C434.316 161.304 434.961 161.064 435.708 161.064C436.199 161.064 436.636 161.139 437.02 161.288C437.404 161.427 437.703 161.613 437.916 161.848C438.129 162.083 438.289 162.301 438.396 162.504C438.503 162.707 438.583 162.915 438.636 163.128L437.308 163.624C437.287 163.496 437.249 163.373 437.196 163.256C437.143 163.128 437.057 162.989 436.94 162.84C436.833 162.691 436.673 162.573 436.46 162.488C436.247 162.392 435.996 162.344 435.708 162.344C435.335 162.344 435.025 162.445 434.78 162.648C434.545 162.851 434.428 163.091 434.428 163.368C434.428 163.859 434.721 164.168 435.308 164.296L436.556 164.568C437.239 164.717 437.761 164.995 438.124 165.4C438.497 165.795 438.684 166.28 438.684 166.856C438.684 167.464 438.433 168.013 437.932 168.504C437.441 168.995 436.753 169.24 435.868 169.24C434.919 169.24 434.177 169.005 433.644 168.536C433.111 168.056 432.807 167.544 432.732 167ZM445.68 168.072C445.477 168.456 445.168 168.749 444.752 168.952C444.336 169.144 443.888 169.24 443.408 169.24C442.533 169.24 441.835 168.952 441.312 168.376C440.789 167.789 440.528 167.048 440.528 166.152V161.304H442.032V165.928C442.032 166.504 442.171 166.979 442.448 167.352C442.736 167.725 443.179 167.912 443.776 167.912C444.373 167.912 444.827 167.736 445.136 167.384C445.445 167.021 445.6 166.541 445.6 165.944V161.304H447.104V167.576C447.104 168.077 447.131 168.552 447.184 169H445.744C445.701 168.765 445.68 168.456 445.68 168.072ZM451.159 172.04H449.671V161.304H451.127V162.504C451.351 162.099 451.687 161.768 452.135 161.512C452.583 161.256 453.105 161.128 453.703 161.128C454.812 161.128 455.676 161.507 456.295 162.264C456.924 163.021 457.239 163.981 457.239 165.144C457.239 166.317 456.913 167.288 456.263 168.056C455.623 168.824 454.753 169.208 453.655 169.208C453.089 169.208 452.588 169.091 452.151 168.856C451.713 168.621 451.383 168.323 451.159 167.96V172.04ZM455.703 165.144C455.703 164.365 455.495 163.725 455.079 163.224C454.673 162.712 454.124 162.456 453.431 162.456C452.748 162.456 452.193 162.712 451.767 163.224C451.351 163.725 451.143 164.365 451.143 165.144C451.143 165.944 451.351 166.6 451.767 167.112C452.193 167.613 452.748 167.864 453.431 167.864C454.113 167.864 454.663 167.613 455.079 167.112C455.495 166.6 455.703 165.944 455.703 165.144ZM460.643 172.04H459.155V161.304H460.611V162.504C460.835 162.099 461.171 161.768 461.619 161.512C462.067 161.256 462.59 161.128 463.187 161.128C464.296 161.128 465.16 161.507 465.779 162.264C466.408 163.021 466.723 163.981 466.723 165.144C466.723 166.317 466.398 167.288 465.747 168.056C465.107 168.824 464.238 169.208 463.139 169.208C462.574 169.208 462.072 169.091 461.635 168.856C461.198 168.621 460.867 168.323 460.643 167.96V172.04ZM465.187 165.144C465.187 164.365 464.979 163.725 464.563 163.224C464.158 162.712 463.608 162.456 462.915 162.456C462.232 162.456 461.678 162.712 461.251 163.224C460.835 163.725 460.627 164.365 460.627 165.144C460.627 165.944 460.835 166.6 461.251 167.112C461.678 167.613 462.232 167.864 462.915 167.864C463.598 167.864 464.147 167.613 464.563 167.112C464.979 166.6 465.187 165.944 465.187 165.144ZM470.223 167.176C470.693 167.656 471.263 167.896 471.935 167.896C472.607 167.896 473.173 167.656 473.631 167.176C474.101 166.685 474.335 166.008 474.335 165.144C474.335 164.291 474.101 163.624 473.631 163.144C473.173 162.653 472.607 162.408 471.935 162.408C471.263 162.408 470.693 162.653 470.223 163.144C469.765 163.624 469.535 164.291 469.535 165.144C469.535 166.008 469.765 166.685 470.223 167.176ZM469.103 162.232C469.85 161.453 470.794 161.064 471.935 161.064C473.077 161.064 474.015 161.453 474.751 162.232C475.498 163 475.871 163.971 475.871 165.144C475.871 166.328 475.503 167.309 474.767 168.088C474.031 168.856 473.087 169.24 471.935 169.24C470.783 169.24 469.839 168.856 469.103 168.088C468.367 167.309 467.999 166.328 467.999 165.144C467.999 163.971 468.367 163 469.103 162.232ZM482.068 161.224V162.824C481.844 162.792 481.625 162.776 481.412 162.776C480.004 162.776 479.3 163.565 479.3 165.144V169H477.796V161.304H479.268V162.648C479.737 161.667 480.505 161.176 481.572 161.176C481.742 161.176 481.908 161.192 482.068 161.224ZM486.093 158.872V161.304H487.757V162.664H486.093V166.664C486.093 167.027 486.173 167.293 486.333 167.464C486.504 167.635 486.781 167.72 487.165 167.72C487.389 167.72 487.586 167.699 487.757 167.656V168.936C487.501 169.032 487.16 169.08 486.733 169.08C486.072 169.08 485.549 168.888 485.165 168.504C484.781 168.12 484.589 167.581 484.589 166.888V162.664H483.117V161.304H483.533C483.928 161.304 484.221 161.197 484.413 160.984C484.616 160.76 484.717 160.472 484.717 160.12V158.872H486.093Z" fill="#444444"/>
<path d="M338.332 178C337.717 176.249 336.574 174.732 335.061 173.657C333.548 172.582 331.739 172.004 329.883 172H329.875C328.019 172.003 326.21 172.582 324.697 173.657C323.184 174.732 322.041 176.249 321.427 178" stroke="#444444" stroke-width="1.5" stroke-linecap="round" stroke-linejoin="round"/>
<path d="M325.135 161.708C326.425 163.044 328.09 163.955 329.911 164.321C331.731 164.687 333.62 164.49 335.325 163.756" stroke="#444444" stroke-width="1.5" stroke-linecap="round" stroke-linejoin="round"/>
<path d="M329.875 170C332.912 170 335.375 167.538 335.375 164.5C335.375 161.462 332.912 159 329.875 159C326.837 159 324.375 161.462 324.375 164.5C324.375 167.538 326.837 170 329.875 170Z" fill="#C4C4C4" stroke="#444444" stroke-width="1.5" stroke-linecap="round" stroke-linejoin="round"/>
<path d="M322.875 158H320.875V161L316.875 158H310.875C310.344 158 309.835 157.789 309.46 157.414C309.085 157.039 308.875 156.53 308.875 156V150C308.875 149.47 309.085 148.961 309.46 148.586C309.835 148.211 310.344 148 310.875 148H322.875C323.405 148 323.914 148.211 324.289 148.586C324.664 148.961 324.875 149.47 324.875 150V156C324.875 156.53 324.664 157.039 324.289 157.414C323.914 157.789 323.405 158 322.875 158Z" fill="#D2F9D2" stroke="#444444" stroke-width="1.5" stroke-linecap="round" stroke-linejoin="round"/>
<path d="M317.875 151H312.875" stroke="#444444" stroke-width="1.5" stroke-linecap="round" stroke-linejoin="round"/>
<path d="M320.875 154H312.875" stroke="#444444" stroke-width="1.5" stroke-linecap="round" stroke-linejoin="round"/>
<path d="M315.332 172C317.541 172 319.332 170.209 319.332 168C319.332 165.791 317.541 164 315.332 164C313.123 164 311.332 165.791 311.332 168C311.332 170.209 313.123 172 315.332 172Z" fill="#E4E4E4" stroke="#444444" stroke-width="1.5" stroke-linecap="round" stroke-linejoin="round"/>
<path d="M318.883 175.176C317.858 174.411 316.613 173.998 315.334 174C314.096 174.002 312.89 174.388 311.881 175.105C310.872 175.821 310.11 176.833 309.7 178" stroke="#444444" stroke-width="1.5" stroke-linecap="round" stroke-linejoin="round"/>
<path d="M329.875 172V178" stroke="#444444" stroke-width="1.5" stroke-linecap="round" stroke-linejoin="round"/>
<g filter="url(#filter2_ddd)">
<rect x="292" y="208" width="268" height="64" rx="4" fill="white"/>
</g>
<path d="M366.768 246H365.136L359.008 236.752V246H357.44V234.656H359.536L365.2 243.36V234.656H366.768V246ZM374.555 245.072C374.352 245.456 374.043 245.749 373.627 245.952C373.211 246.144 372.763 246.24 372.283 246.24C371.408 246.24 370.71 245.952 370.187 245.376C369.664 244.789 369.403 244.048 369.403 243.152V238.304H370.907V242.928C370.907 243.504 371.046 243.979 371.323 244.352C371.611 244.725 372.054 244.912 372.651 244.912C373.248 244.912 373.702 244.736 374.011 244.384C374.32 244.021 374.475 243.541 374.475 242.944V238.304H375.979V244.576C375.979 245.077 376.006 245.552 376.059 246H374.619C374.576 245.765 374.555 245.456 374.555 245.072ZM380.562 235.872V238.304H382.226V239.664H380.562V243.664C380.562 244.027 380.642 244.293 380.802 244.464C380.972 244.635 381.25 244.72 381.634 244.72C381.858 244.72 382.055 244.699 382.226 244.656V245.936C381.97 246.032 381.628 246.08 381.202 246.08C380.54 246.08 380.018 245.888 379.634 245.504C379.25 245.12 379.058 244.581 379.058 243.888V239.664H377.586V238.304H378.002C378.396 238.304 378.69 238.197 378.882 237.984C379.084 237.76 379.186 237.472 379.186 237.12V235.872H380.562ZM388.349 238.224V239.824C388.125 239.792 387.906 239.776 387.693 239.776C386.285 239.776 385.581 240.565 385.581 242.144V246H384.077V238.304H385.549V239.648C386.018 238.667 386.786 238.176 387.853 238.176C388.024 238.176 388.189 238.192 388.349 238.224ZM391.44 246H389.952V238.304H391.44V246ZM389.92 236.16C389.717 235.947 389.616 235.691 389.616 235.392C389.616 235.093 389.717 234.837 389.92 234.624C390.133 234.411 390.389 234.304 390.688 234.304C390.987 234.304 391.243 234.411 391.456 234.624C391.669 234.827 391.776 235.083 391.776 235.392C391.776 235.691 391.669 235.947 391.456 236.16C391.243 236.363 390.987 236.464 390.688 236.464C390.389 236.464 390.133 236.363 389.92 236.16ZM396.015 235.872V238.304H397.679V239.664H396.015V243.664C396.015 244.027 396.095 244.293 396.255 244.464C396.425 244.635 396.703 244.72 397.087 244.72C397.311 244.72 397.508 244.699 397.679 244.656V245.936C397.423 246.032 397.081 246.08 396.655 246.08C395.993 246.08 395.471 245.888 395.087 245.504C394.703 245.12 394.511 244.581 394.511 243.888V239.664H393.039V238.304H393.455C393.849 238.304 394.143 238.197 394.335 237.984C394.537 237.76 394.639 237.472 394.639 237.12V235.872H396.015ZM401.174 246H399.686V238.304H401.174V246ZM399.654 236.16C399.452 235.947 399.35 235.691 399.35 235.392C399.35 235.093 399.452 234.837 399.654 234.624C399.868 234.411 400.124 234.304 400.422 234.304C400.721 234.304 400.977 234.411 401.19 234.624C401.404 234.827 401.51 235.083 401.51 235.392C401.51 235.691 401.404 235.947 401.19 236.16C400.977 236.363 400.721 236.464 400.422 236.464C400.124 236.464 399.868 236.363 399.654 236.16ZM405.317 244.176C405.786 244.656 406.357 244.896 407.029 244.896C407.701 244.896 408.266 244.656 408.725 244.176C409.194 243.685 409.429 243.008 409.429 242.144C409.429 241.291 409.194 240.624 408.725 240.144C408.266 239.653 407.701 239.408 407.029 239.408C406.357 239.408 405.786 239.653 405.317 240.144C404.858 240.624 404.629 241.291 404.629 242.144C404.629 243.008 404.858 243.685 405.317 244.176ZM404.197 239.232C404.944 238.453 405.888 238.064 407.029 238.064C408.17 238.064 409.109 238.453 409.845 239.232C410.592 240 410.965 240.971 410.965 242.144C410.965 243.328 410.597 244.309 409.861 245.088C409.125 245.856 408.181 246.24 407.029 246.24C405.877 246.24 404.933 245.856 404.197 245.088C403.461 244.309 403.093 243.328 403.093 242.144C403.093 240.971 403.461 240 404.197 239.232ZM414.393 241.552V246H412.889V238.304H414.361V239.408C414.873 238.523 415.663 238.08 416.729 238.08C417.615 238.08 418.292 238.363 418.761 238.928C419.241 239.493 419.481 240.224 419.481 241.12V246H417.977V241.376C417.977 240.085 417.38 239.44 416.185 239.44C415.62 239.44 415.177 239.643 414.857 240.048C414.548 240.443 414.393 240.944 414.393 241.552ZM425.394 243.936C425.394 243.275 425.607 242.747 426.034 242.352C426.46 241.947 427.026 241.696 427.73 241.6L429.81 241.296C430.204 241.243 430.402 241.051 430.402 240.72C430.402 240.315 430.263 239.984 429.986 239.728C429.708 239.472 429.292 239.344 428.738 239.344C428.226 239.344 427.82 239.488 427.522 239.776C427.223 240.053 427.047 240.427 426.994 240.896L425.554 240.56C425.628 239.824 425.964 239.227 426.562 238.768C427.159 238.299 427.874 238.064 428.706 238.064C429.794 238.064 430.599 238.331 431.122 238.864C431.644 239.387 431.906 240.059 431.906 240.88V244.736C431.906 245.195 431.938 245.616 432.002 246H430.53C430.476 245.68 430.45 245.333 430.45 244.96C430.236 245.301 429.922 245.6 429.506 245.856C429.1 246.112 428.588 246.24 427.97 246.24C427.212 246.24 426.594 246.016 426.114 245.568C425.634 245.109 425.394 244.565 425.394 243.936ZM428.178 244.976C428.85 244.976 429.388 244.795 429.794 244.432C430.199 244.069 430.402 243.493 430.402 242.704V242.352L428.05 242.704C427.708 242.757 427.436 242.88 427.234 243.072C427.031 243.264 426.93 243.525 426.93 243.856C426.93 244.155 427.042 244.416 427.266 244.64C427.5 244.864 427.804 244.976 428.178 244.976ZM435.753 241.552V246H434.249V238.304H435.721V239.408C436.233 238.523 437.022 238.08 438.089 238.08C438.974 238.08 439.651 238.363 440.121 238.928C440.601 239.493 440.841 240.224 440.841 241.12V246H439.337V241.376C439.337 240.085 438.739 239.44 437.545 239.44C436.979 239.44 436.537 239.643 436.217 240.048C435.907 240.443 435.753 240.944 435.753 241.552ZM444.129 242.128C444.129 242.939 444.326 243.6 444.721 244.112C445.126 244.624 445.681 244.88 446.385 244.88C447.057 244.88 447.596 244.619 448.001 244.096C448.406 243.573 448.609 242.907 448.609 242.096C448.609 241.296 448.412 240.651 448.017 240.16C447.622 239.669 447.084 239.424 446.401 239.424C445.718 239.424 445.169 239.675 444.753 240.176C444.337 240.677 444.129 241.328 444.129 242.128ZM448.625 244.96V244.832C448.422 245.227 448.113 245.557 447.697 245.824C447.292 246.08 446.806 246.208 446.241 246.208C445.142 246.208 444.257 245.824 443.585 245.056C442.924 244.277 442.593 243.301 442.593 242.128C442.593 241.008 442.934 240.059 443.617 239.28C444.3 238.491 445.174 238.096 446.241 238.096C446.87 238.096 447.382 238.224 447.777 238.48C448.172 238.725 448.444 239.029 448.593 239.392V234.416H450.081V244.576C450.081 245.099 450.108 245.573 450.161 246H448.705C448.652 245.701 448.625 245.355 448.625 244.96ZM458.143 241.472V246H456.639V234.416H458.143V239.2C458.655 238.453 459.434 238.08 460.479 238.08C461.365 238.08 462.042 238.363 462.511 238.928C462.991 239.493 463.231 240.224 463.231 241.12V246H461.727V241.376C461.727 240.085 461.13 239.44 459.935 239.44C459.381 239.44 458.949 239.632 458.639 240.016C458.33 240.389 458.165 240.875 458.143 241.472ZM467.544 249.216H465.896L467.816 245.152L464.504 238.304H466.232L468.632 243.616L470.936 238.304H472.552L467.544 249.216ZM474.582 242.128C474.582 242.939 474.78 243.6 475.174 244.112C475.58 244.624 476.134 244.88 476.838 244.88C477.51 244.88 478.049 244.619 478.454 244.096C478.86 243.573 479.062 242.907 479.062 242.096C479.062 241.296 478.865 240.651 478.47 240.16C478.076 239.669 477.537 239.424 476.854 239.424C476.172 239.424 475.622 239.675 475.206 240.176C474.79 240.677 474.582 241.328 474.582 242.128ZM479.078 244.96V244.832C478.876 245.227 478.566 245.557 478.15 245.824C477.745 246.08 477.26 246.208 476.694 246.208C475.596 246.208 474.71 245.824 474.038 245.056C473.377 244.277 473.046 243.301 473.046 242.128C473.046 241.008 473.388 240.059 474.07 239.28C474.753 238.491 475.628 238.096 476.694 238.096C477.324 238.096 477.836 238.224 478.23 238.48C478.625 238.725 478.897 239.029 479.046 239.392V234.416H480.534V244.576C480.534 245.099 480.561 245.573 480.614 246H479.158C479.105 245.701 479.078 245.355 479.078 244.96ZM487.365 238.224V239.824C487.141 239.792 486.922 239.776 486.709 239.776C485.301 239.776 484.597 240.565 484.597 242.144V246H483.093V238.304H484.565V239.648C485.034 238.667 485.802 238.176 486.869 238.176C487.039 238.176 487.205 238.192 487.365 238.224ZM488.488 243.936C488.488 243.275 488.701 242.747 489.128 242.352C489.554 241.947 490.12 241.696 490.824 241.6L492.904 241.296C493.298 241.243 493.496 241.051 493.496 240.72C493.496 240.315 493.357 239.984 493.08 239.728C492.802 239.472 492.386 239.344 491.832 239.344C491.32 239.344 490.914 239.488 490.616 239.776C490.317 240.053 490.141 240.427 490.088 240.896L488.648 240.56C488.722 239.824 489.058 239.227 489.656 238.768C490.253 238.299 490.968 238.064 491.799 238.064C492.888 238.064 493.693 238.331 494.216 238.864C494.738 239.387 495 240.059 495 240.88V244.736C495 245.195 495.032 245.616 495.096 246H493.624C493.57 245.68 493.544 245.333 493.544 244.96C493.33 245.301 493.016 245.6 492.6 245.856C492.194 246.112 491.682 246.24 491.064 246.24C490.306 246.24 489.688 246.016 489.208 245.568C488.728 245.109 488.488 244.565 488.488 243.936ZM491.272 244.976C491.944 244.976 492.482 244.795 492.888 244.432C493.293 244.069 493.496 243.493 493.496 242.704V242.352L491.144 242.704C490.802 242.757 490.53 242.88 490.328 243.072C490.125 243.264 490.024 243.525 490.024 243.856C490.024 244.155 490.136 244.416 490.36 244.64C490.594 244.864 490.898 244.976 491.272 244.976ZM499.359 235.872V238.304H501.023V239.664H499.359V243.664C499.359 244.027 499.439 244.293 499.599 244.464C499.769 244.635 500.047 244.72 500.431 244.72C500.655 244.72 500.852 244.699 501.023 244.656V245.936C500.767 246.032 500.425 246.08 499.999 246.08C499.337 246.08 498.815 245.888 498.431 245.504C498.047 245.12 497.855 244.581 497.855 243.888V239.664H496.383V238.304H496.799C497.193 238.304 497.487 238.197 497.679 237.984C497.881 237.76 497.983 237.472 497.983 237.12V235.872H499.359ZM504.518 246H503.03V238.304H504.518V246ZM502.998 236.16C502.795 235.947 502.694 235.691 502.694 235.392C502.694 235.093 502.795 234.837 502.998 234.624C503.211 234.411 503.467 234.304 503.766 234.304C504.065 234.304 504.321 234.411 504.534 234.624C504.747 234.827 504.854 235.083 504.854 235.392C504.854 235.691 504.747 235.947 504.534 236.16C504.321 236.363 504.065 236.464 503.766 236.464C503.467 236.464 503.211 236.363 502.998 236.16ZM508.661 244.176C509.13 244.656 509.701 244.896 510.373 244.896C511.045 244.896 511.61 244.656 512.069 244.176C512.538 243.685 512.773 243.008 512.773 242.144C512.773 241.291 512.538 240.624 512.069 240.144C511.61 239.653 511.045 239.408 510.373 239.408C509.701 239.408 509.13 239.653 508.661 240.144C508.202 240.624 507.973 241.291 507.973 242.144C507.973 243.008 508.202 243.685 508.661 244.176ZM507.541 239.232C508.288 238.453 509.232 238.064 510.373 238.064C511.514 238.064 512.453 238.453 513.189 239.232C513.936 240 514.309 240.971 514.309 242.144C514.309 243.328 513.941 244.309 513.205 245.088C512.469 245.856 511.525 246.24 510.373 246.24C509.221 246.24 508.277 245.856 507.541 245.088C506.805 244.309 506.437 243.328 506.437 242.144C506.437 240.971 506.805 240 507.541 239.232ZM517.737 241.552V246H516.233V238.304H517.705V239.408C518.217 238.523 519.006 238.08 520.073 238.08C520.958 238.08 521.636 238.363 522.105 238.928C522.585 239.493 522.825 240.224 522.825 241.12V246H521.321V241.376C521.321 240.085 520.724 239.44 519.529 239.44C518.964 239.44 518.521 239.643 518.201 240.048C517.892 240.443 517.737 240.944 517.737 241.552Z" fill="#444444"/>
<path d="M323 247L318.733 242.555C318.36 242.18 318.114 241.697 318.03 241.175C317.947 240.652 318.029 240.117 318.267 239.644C318.445 239.287 318.706 238.977 319.028 238.74C319.35 238.503 319.723 238.347 320.118 238.283C320.512 238.219 320.916 238.249 321.296 238.372C321.676 238.495 322.022 238.707 322.304 238.989L323 239.685L323.696 238.989C323.978 238.707 324.324 238.495 324.704 238.372C325.084 238.249 325.488 238.219 325.882 238.283C326.277 238.347 326.65 238.503 326.972 238.74C327.294 238.977 327.555 239.287 327.733 239.644C327.97 240.117 328.052 240.653 327.967 241.176C327.882 241.698 327.636 242.18 327.261 242.555L323 247Z" fill="#FABCBB" stroke="#444444" stroke-width="1.5" stroke-linecap="round" stroke-linejoin="round"/>
<path d="M311 236V254" stroke="#444444" stroke-width="1.5" stroke-linecap="round" stroke-linejoin="round"/>
<path d="M334.996 244H338C338.265 244 338.519 243.895 338.706 243.708C338.894 243.521 338.999 243.267 339 243.003C339.011 237.895 339.037 231.725 336.921 226.617C336.833 226.403 336.673 226.227 336.469 226.118C336.265 226.009 336.029 225.974 335.802 226.019C335.575 226.064 335.371 226.187 335.224 226.365C335.078 226.544 334.997 226.769 334.997 227V254" stroke="#444444" stroke-width="1.5" stroke-linecap="round" stroke-linejoin="round"/>
<path d="M309 226V234C309 234.53 309.211 235.039 309.586 235.414C309.961 235.789 310.47 236 311 236C311.53 236 312.039 235.789 312.414 235.414C312.789 235.039 313 234.53 313 234V226" stroke="#444444" stroke-width="1.5" stroke-linecap="round" stroke-linejoin="round"/>
<path d="M330 235.42C329.105 234.459 328.021 233.693 326.817 233.169C325.613 232.645 324.313 232.375 323 232.375C321.687 232.375 320.387 232.645 319.183 233.169C317.979 233.693 316.895 234.459 316 235.42" stroke="#444444" stroke-width="1.5" stroke-linecap="round" stroke-linejoin="round"/>
<path d="M316 248.58C316.895 249.541 317.979 250.307 319.183 250.831C320.387 251.355 321.687 251.625 323 251.625C324.313 251.625 325.613 251.355 326.817 250.831C328.021 250.307 329.105 249.541 330 248.58" stroke="#444444" stroke-width="1.5" stroke-linecap="round" stroke-linejoin="round"/>
<g filter="url(#filter3_ddd)">
<rect x="292" y="285" width="212" height="64" rx="4" fill="white"/>
</g>
<path d="M359.008 316.952H361.28C361.952 316.952 362.485 316.781 362.88 316.44C363.275 316.088 363.472 315.619 363.472 315.032C363.472 314.435 363.275 313.96 362.88 313.608C362.485 313.245 361.952 313.064 361.28 313.064H359.008V316.952ZM361.568 318.36H359.008V323H357.44V311.656H361.568C362.603 311.656 363.445 311.976 364.096 312.616C364.747 313.256 365.072 314.056 365.072 315.016C365.072 315.987 364.747 316.787 364.096 317.416C363.445 318.045 362.603 318.36 361.568 318.36ZM367.162 318.36H371.37C371.349 317.784 371.157 317.315 370.794 316.952C370.432 316.579 369.92 316.392 369.258 316.392C368.661 316.392 368.17 316.589 367.786 316.984C367.402 317.368 367.194 317.827 367.162 318.36ZM371.594 320.36L372.89 320.808C372.666 321.523 372.25 322.109 371.642 322.568C371.034 323.016 370.298 323.24 369.434 323.24C368.357 323.24 367.44 322.872 366.682 322.136C365.936 321.389 365.562 320.387 365.562 319.128C365.562 317.955 365.925 316.984 366.65 316.216C367.376 315.448 368.24 315.064 369.242 315.064C370.405 315.064 371.312 315.432 371.962 316.168C372.613 316.893 372.938 317.869 372.938 319.096C372.938 319.288 372.928 319.448 372.906 319.576H367.114C367.125 320.259 367.349 320.819 367.786 321.256C368.234 321.693 368.784 321.912 369.434 321.912C370.533 321.912 371.253 321.395 371.594 320.36ZM379.13 315.224V316.824C378.906 316.792 378.687 316.776 378.474 316.776C377.066 316.776 376.362 317.565 376.362 319.144V323H374.858V315.304H376.33V316.648C376.799 315.667 377.567 315.176 378.634 315.176C378.805 315.176 378.97 315.192 379.13 315.224ZM380.013 321L381.373 320.52C381.426 320.936 381.608 321.283 381.917 321.56C382.226 321.827 382.642 321.96 383.165 321.96C383.57 321.96 383.89 321.864 384.125 321.672C384.36 321.469 384.477 321.224 384.477 320.936C384.477 320.424 384.146 320.093 383.485 319.944L382.173 319.656C381.576 319.528 381.106 319.272 380.765 318.888C380.424 318.504 380.253 318.04 380.253 317.496C380.253 316.835 380.52 316.264 381.053 315.784C381.597 315.304 382.242 315.064 382.989 315.064C383.48 315.064 383.917 315.139 384.301 315.288C384.685 315.427 384.984 315.613 385.197 315.848C385.41 316.083 385.57 316.301 385.677 316.504C385.784 316.707 385.864 316.915 385.917 317.128L384.589 317.624C384.568 317.496 384.53 317.373 384.477 317.256C384.424 317.128 384.338 316.989 384.221 316.84C384.114 316.691 383.954 316.573 383.741 316.488C383.528 316.392 383.277 316.344 382.989 316.344C382.616 316.344 382.306 316.445 382.061 316.648C381.826 316.851 381.709 317.091 381.709 317.368C381.709 317.859 382.002 318.168 382.589 318.296L383.837 318.568C384.52 318.717 385.042 318.995 385.405 319.4C385.778 319.795 385.965 320.28 385.965 320.856C385.965 321.464 385.714 322.013 385.213 322.504C384.722 322.995 384.034 323.24 383.149 323.24C382.2 323.24 381.458 323.005 380.925 322.536C380.392 322.056 380.088 321.544 380.013 321ZM389.473 321.176C389.943 321.656 390.513 321.896 391.185 321.896C391.857 321.896 392.423 321.656 392.881 321.176C393.351 320.685 393.585 320.008 393.585 319.144C393.585 318.291 393.351 317.624 392.881 317.144C392.423 316.653 391.857 316.408 391.185 316.408C390.513 316.408 389.943 316.653 389.473 317.144C389.015 317.624 388.785 318.291 388.785 319.144C388.785 320.008 389.015 320.685 389.473 321.176ZM388.353 316.232C389.1 315.453 390.044 315.064 391.185 315.064C392.327 315.064 393.265 315.453 394.001 316.232C394.748 317 395.121 317.971 395.121 319.144C395.121 320.328 394.753 321.309 394.017 322.088C393.281 322.856 392.337 323.24 391.185 323.24C390.033 323.24 389.089 322.856 388.353 322.088C387.617 321.309 387.249 320.328 387.249 319.144C387.249 317.971 387.617 317 388.353 316.232ZM398.55 318.552V323H397.046V315.304H398.518V316.408C399.03 315.523 399.819 315.08 400.886 315.08C401.771 315.08 402.448 315.363 402.918 315.928C403.398 316.493 403.638 317.224 403.638 318.12V323H402.134V318.376C402.134 317.085 401.536 316.44 400.342 316.44C399.776 316.44 399.334 316.643 399.014 317.048C398.704 317.443 398.55 317.944 398.55 318.552ZM405.55 320.936C405.55 320.275 405.763 319.747 406.19 319.352C406.617 318.947 407.182 318.696 407.886 318.6L409.966 318.296C410.361 318.243 410.558 318.051 410.558 317.72C410.558 317.315 410.419 316.984 410.142 316.728C409.865 316.472 409.449 316.344 408.894 316.344C408.382 316.344 407.977 316.488 407.678 316.776C407.379 317.053 407.203 317.427 407.15 317.896L405.71 317.56C405.785 316.824 406.121 316.227 406.718 315.768C407.315 315.299 408.03 315.064 408.862 315.064C409.95 315.064 410.755 315.331 411.278 315.864C411.801 316.387 412.062 317.059 412.062 317.88V321.736C412.062 322.195 412.094 322.616 412.158 323H410.686C410.633 322.68 410.606 322.333 410.606 321.96C410.393 322.301 410.078 322.6 409.662 322.856C409.257 323.112 408.745 323.24 408.126 323.24C407.369 323.24 406.75 323.016 406.27 322.568C405.79 322.109 405.55 321.565 405.55 320.936ZM408.334 321.976C409.006 321.976 409.545 321.795 409.95 321.432C410.355 321.069 410.558 320.493 410.558 319.704V319.352L408.206 319.704C407.865 319.757 407.593 319.88 407.39 320.072C407.187 320.264 407.086 320.525 407.086 320.856C407.086 321.155 407.198 321.416 407.422 321.64C407.657 321.864 407.961 321.976 408.334 321.976ZM415.909 323H414.405V311.416H415.909V323ZM425.7 316.456C425.049 316.456 424.494 316.691 424.036 317.16C423.588 317.629 423.364 318.291 423.364 319.144C423.364 319.987 423.588 320.648 424.036 321.128C424.494 321.608 425.054 321.848 425.716 321.848C426.356 321.848 426.841 321.688 427.172 321.368C427.513 321.048 427.742 320.68 427.86 320.264L429.188 320.84C428.974 321.48 428.569 322.04 427.972 322.52C427.385 323 426.633 323.24 425.716 323.24C424.596 323.24 423.668 322.851 422.932 322.072C422.196 321.293 421.828 320.317 421.828 319.144C421.828 317.949 422.196 316.973 422.932 316.216C423.668 315.448 424.59 315.064 425.7 315.064C426.638 315.064 427.396 315.304 427.972 315.784C428.558 316.264 428.942 316.84 429.124 317.512L427.764 318.088C427.646 317.64 427.422 317.256 427.092 316.936C426.761 316.616 426.297 316.456 425.7 316.456ZM430.394 320.936C430.394 320.275 430.607 319.747 431.034 319.352C431.46 318.947 432.026 318.696 432.73 318.6L434.81 318.296C435.204 318.243 435.402 318.051 435.402 317.72C435.402 317.315 435.263 316.984 434.986 316.728C434.708 316.472 434.292 316.344 433.738 316.344C433.226 316.344 432.82 316.488 432.522 316.776C432.223 317.053 432.047 317.427 431.994 317.896L430.554 317.56C430.628 316.824 430.964 316.227 431.562 315.768C432.159 315.299 432.874 315.064 433.706 315.064C434.794 315.064 435.599 315.331 436.122 315.864C436.644 316.387 436.906 317.059 436.906 317.88V321.736C436.906 322.195 436.938 322.616 437.002 323H435.53C435.476 322.68 435.45 322.333 435.45 321.96C435.236 322.301 434.922 322.6 434.506 322.856C434.1 323.112 433.588 323.24 432.97 323.24C432.212 323.24 431.594 323.016 431.114 322.568C430.634 322.109 430.394 321.565 430.394 320.936ZM433.178 321.976C433.85 321.976 434.388 321.795 434.794 321.432C435.199 321.069 435.402 320.493 435.402 319.704V319.352L433.05 319.704C432.708 319.757 432.436 319.88 432.234 320.072C432.031 320.264 431.93 320.525 431.93 320.856C431.93 321.155 432.042 321.416 432.266 321.64C432.5 321.864 432.804 321.976 433.178 321.976ZM443.521 315.224V316.824C443.297 316.792 443.078 316.776 442.865 316.776C441.457 316.776 440.753 317.565 440.753 319.144V323H439.249V315.304H440.721V316.648C441.19 315.667 441.958 315.176 443.025 315.176C443.195 315.176 443.361 315.192 443.521 315.224ZM446.022 318.36H450.23C450.208 317.784 450.016 317.315 449.654 316.952C449.291 316.579 448.779 316.392 448.118 316.392C447.52 316.392 447.03 316.589 446.646 316.984C446.262 317.368 446.054 317.827 446.022 318.36ZM450.454 320.36L451.75 320.808C451.526 321.523 451.11 322.109 450.502 322.568C449.894 323.016 449.158 323.24 448.294 323.24C447.216 323.24 446.299 322.872 445.542 322.136C444.795 321.389 444.422 320.387 444.422 319.128C444.422 317.955 444.784 316.984 445.51 316.216C446.235 315.448 447.099 315.064 448.102 315.064C449.264 315.064 450.171 315.432 450.822 316.168C451.472 316.893 451.798 317.869 451.798 319.096C451.798 319.288 451.787 319.448 451.766 319.576H445.974C445.984 320.259 446.208 320.819 446.646 321.256C447.094 321.693 447.643 321.912 448.294 321.912C449.392 321.912 450.112 321.395 450.454 320.36Z" fill="#444444"/>
<path d="M325 320H339L338.115 325.315C337.803 327.183 336.839 328.88 335.394 330.104C333.949 331.328 332.117 332 330.223 332H317.777C315.883 332 314.051 331.328 312.606 330.104C311.161 328.88 310.197 327.183 309.885 325.315L309 320H315" stroke="#444444" stroke-width="1.5" stroke-linecap="round" stroke-linejoin="round"/>
<path d="M324 328H316C315.735 328 315.48 327.895 315.293 327.707C315.105 327.52 315 327.265 315 327V320C315 319.47 315.211 318.961 315.586 318.586C315.961 318.211 316.47 318 317 318H323C323.53 318 324.039 318.211 324.414 318.586C324.789 318.961 325 319.47 325 320V327C325 327.265 324.895 327.52 324.707 327.707C324.52 327.895 324.265 328 324 328Z" fill="#D2E5F9" stroke="#444444" stroke-width="1.5" stroke-linecap="round" stroke-linejoin="round"/>
<path d="M329 306C329 304.939 329.421 303.922 330.172 303.172C330.922 302.421 331.939 302 333 302C334.061 302 335.078 302.421 335.828 303.172C336.579 303.922 337 304.939 337 306V320" stroke="#444444" stroke-width="1.5" stroke-linecap="round" stroke-linejoin="round"/>
<path d="M325 310C325 308.939 325.421 307.922 326.172 307.172C326.922 306.421 327.939 306 329 306C330.061 306 331.078 306.421 331.828 307.172C332.579 307.922 333 308.939 333 310H325Z" fill="#FFE0A4" stroke="#444444" stroke-width="1.5" stroke-linecap="round" stroke-linejoin="round"/>
<g filter="url(#filter4_ddd)">
<rect x="292" y="54" width="268" height="64" rx="4" fill="white"/>
</g>
<path d="M541 66C539.418 66 537.871 66.4692 536.555 67.3482C535.24 68.2273 534.214 69.4767 533.609 70.9385C533.003 72.4003 532.845 74.0089 533.154 75.5607C533.462 77.1126 534.224 78.538 535.343 79.6569C536.462 80.7757 537.887 81.5376 539.439 81.8463C540.991 82.155 542.6 81.9965 544.061 81.391C545.523 80.7855 546.773 79.7602 547.652 78.4446C548.531 77.129 549 75.5822 549 74C548.998 71.879 548.154 69.8456 546.654 68.3459C545.154 66.8461 543.121 66.0025 541 66V66ZM545.618 71.4667L541.055 77.6593C541.001 77.7308 540.933 77.7908 540.856 77.8359C540.779 77.881 540.693 77.9102 540.604 77.9219C540.516 77.9336 540.425 77.9274 540.339 77.9039C540.253 77.8803 540.172 77.8398 540.101 77.7847L536.843 75.1793C536.774 75.1246 536.717 75.057 536.675 74.9802C536.633 74.9035 536.606 74.8192 536.597 74.7322C536.577 74.5564 536.628 74.3801 536.739 74.242C536.849 74.1039 537.01 74.0154 537.186 73.9959C537.362 73.9764 537.538 74.0275 537.676 74.138L540.393 76.312L544.545 70.678C544.595 70.603 544.659 70.5389 544.735 70.4896C544.81 70.4403 544.895 70.4068 544.984 70.3912C545.072 70.3755 545.163 70.378 545.251 70.3985C545.339 70.419 545.422 70.4571 545.494 70.5105C545.567 70.5638 545.628 70.6314 545.674 70.709C545.719 70.7866 545.749 70.8727 545.761 70.9621C545.772 71.0515 545.765 71.1423 545.741 71.229C545.716 71.3157 545.675 71.3966 545.618 71.4667Z" fill="#04B404"/>
<path d="M529 143C527.418 143 525.871 143.469 524.555 144.348C523.24 145.227 522.214 146.477 521.609 147.939C521.003 149.4 520.845 151.009 521.154 152.561C521.462 154.113 522.224 155.538 523.343 156.657C524.462 157.776 525.887 158.538 527.439 158.846C528.991 159.155 530.6 158.997 532.061 158.391C533.523 157.786 534.773 156.76 535.652 155.445C536.531 154.129 537 152.582 537 151C536.998 148.879 536.154 146.846 534.654 145.346C533.154 143.846 531.121 143.002 529 143V143ZM533.618 148.467L529.055 154.659C529.001 154.731 528.933 154.791 528.856 154.836C528.779 154.881 528.693 154.91 528.604 154.922C528.516 154.934 528.425 154.927 528.339 154.904C528.253 154.88 528.172 154.84 528.101 154.785L524.843 152.179C524.774 152.125 524.717 152.057 524.675 151.98C524.633 151.904 524.606 151.819 524.597 151.732C524.577 151.556 524.628 151.38 524.739 151.242C524.849 151.104 525.01 151.015 525.186 150.996C525.362 150.976 525.538 151.027 525.676 151.138L528.393 153.312L532.545 147.678C532.595 147.603 532.659 147.539 532.735 147.49C532.81 147.44 532.895 147.407 532.984 147.391C533.072 147.376 533.163 147.378 533.251 147.399C533.339 147.419 533.422 147.457 533.494 147.51C533.567 147.564 533.628 147.631 533.674 147.709C533.719 147.787 533.749 147.873 533.761 147.962C533.772 148.051 533.765 148.142 533.741 148.229C533.716 148.316 533.675 148.397 533.618 148.467Z" fill="#04B404"/>
<path d="M542 219C540.418 219 538.871 219.469 537.555 220.348C536.24 221.227 535.214 222.477 534.609 223.939C534.003 225.4 533.845 227.009 534.154 228.561C534.462 230.113 535.224 231.538 536.343 232.657C537.462 233.776 538.887 234.538 540.439 234.846C541.991 235.155 543.6 234.997 545.061 234.391C546.523 233.786 547.773 232.76 548.652 231.445C549.531 230.129 550 228.582 550 227C549.998 224.879 549.154 222.846 547.654 221.346C546.154 219.846 544.121 219.002 542 219V219ZM546.618 224.467L542.055 230.659C542.001 230.731 541.933 230.791 541.856 230.836C541.779 230.881 541.693 230.91 541.604 230.922C541.516 230.934 541.425 230.927 541.339 230.904C541.253 230.88 541.172 230.84 541.101 230.785L537.843 228.179C537.774 228.125 537.717 228.057 537.675 227.98C537.633 227.904 537.606 227.819 537.597 227.732C537.577 227.556 537.628 227.38 537.739 227.242C537.849 227.104 538.01 227.015 538.186 226.996C538.362 226.976 538.538 227.027 538.676 227.138L541.393 229.312L545.545 223.678C545.595 223.603 545.659 223.539 545.735 223.49C545.81 223.44 545.895 223.407 545.984 223.391C546.072 223.376 546.163 223.378 546.251 223.399C546.339 223.419 546.422 223.457 546.494 223.51C546.567 223.564 546.628 223.631 546.674 223.709C546.719 223.787 546.749 223.873 546.761 223.962C546.772 224.051 546.765 224.142 546.741 224.229C546.716 224.316 546.675 224.397 546.618 224.467Z" fill="#04B404"/>
<path d="M486 295C484.418 295 482.871 295.469 481.555 296.348C480.24 297.227 479.214 298.477 478.609 299.939C478.003 301.4 477.845 303.009 478.154 304.561C478.462 306.113 479.224 307.538 480.343 308.657C481.462 309.776 482.887 310.538 484.439 310.846C485.991 311.155 487.6 310.997 489.061 310.391C490.523 309.786 491.773 308.76 492.652 307.445C493.531 306.129 494 304.582 494 303C493.998 300.879 493.154 298.846 491.654 297.346C490.154 295.846 488.121 295.002 486 295V295ZM490.618 300.467L486.055 306.659C486.001 306.731 485.933 306.791 485.856 306.836C485.779 306.881 485.693 306.91 485.604 306.922C485.516 306.934 485.425 306.927 485.339 306.904C485.253 306.88 485.172 306.84 485.101 306.785L481.843 304.179C481.774 304.125 481.717 304.057 481.675 303.98C481.633 303.904 481.606 303.819 481.597 303.732C481.577 303.556 481.628 303.38 481.739 303.242C481.849 303.104 482.01 303.015 482.186 302.996C482.362 302.976 482.538 303.027 482.676 303.138L485.393 305.312L489.545 299.678C489.595 299.603 489.659 299.539 489.735 299.49C489.81 299.44 489.895 299.407 489.984 299.391C490.072 299.376 490.163 299.378 490.251 299.399C490.339 299.419 490.422 299.457 490.494 299.51C490.567 299.564 490.628 299.631 490.674 299.709C490.719 299.787 490.749 299.873 490.761 299.962C490.772 300.051 490.765 300.142 490.741 300.229C490.716 300.316 490.675 300.397 490.618 300.467Z" fill="#04B404"/>
<path d="M540 372C538.418 372 536.871 372.469 535.555 373.348C534.24 374.227 533.214 375.477 532.609 376.939C532.003 378.4 531.845 380.009 532.154 381.561C532.462 383.113 533.224 384.538 534.343 385.657C535.462 386.776 536.887 387.538 538.439 387.846C539.991 388.155 541.6 387.997 543.061 387.391C544.523 386.786 545.773 385.76 546.652 384.445C547.531 383.129 548 381.582 548 380C547.998 377.879 547.154 375.846 545.654 374.346C544.154 372.846 542.121 372.002 540 372V372ZM544.618 377.467L540.055 383.659C540.001 383.731 539.933 383.791 539.856 383.836C539.779 383.881 539.693 383.91 539.604 383.922C539.516 383.934 539.425 383.927 539.339 383.904C539.253 383.88 539.172 383.84 539.101 383.785L535.843 381.179C535.774 381.125 535.717 381.057 535.675 380.98C535.633 380.904 535.606 380.819 535.597 380.732C535.577 380.556 535.628 380.38 535.739 380.242C535.849 380.104 536.01 380.015 536.186 379.996C536.362 379.976 536.538 380.027 536.676 380.138L539.393 382.312L543.545 376.678C543.595 376.603 543.659 376.539 543.735 376.49C543.81 376.44 543.895 376.407 543.984 376.391C544.072 376.376 544.163 376.378 544.251 376.399C544.339 376.419 544.422 376.457 544.494 376.51C544.567 376.564 544.628 376.631 544.674 376.709C544.719 376.787 544.749 376.873 544.761 376.962C544.772 377.051 544.765 377.142 544.741 377.229C544.716 377.316 544.675 377.397 544.618 377.467Z" fill="#04B404"/>
<path d="M359.008 85.952H361.28C361.952 85.952 362.485 85.7813 362.88 85.44C363.275 85.088 363.472 84.6187 363.472 84.032C363.472 83.4347 363.275 82.96 362.88 82.608C362.485 82.2453 361.952 82.064 361.28 82.064H359.008V85.952ZM361.568 87.36H359.008V92H357.44V80.656H361.568C362.603 80.656 363.445 80.976 364.096 81.616C364.747 82.256 365.072 83.056 365.072 84.016C365.072 84.9867 364.747 85.7867 364.096 86.416C363.445 87.0453 362.603 87.36 361.568 87.36ZM367.162 87.36H371.37C371.349 86.784 371.157 86.3147 370.794 85.952C370.432 85.5787 369.92 85.392 369.258 85.392C368.661 85.392 368.17 85.5893 367.786 85.984C367.402 86.368 367.194 86.8267 367.162 87.36ZM371.594 89.36L372.89 89.808C372.666 90.5227 372.25 91.1093 371.642 91.568C371.034 92.016 370.298 92.24 369.434 92.24C368.357 92.24 367.44 91.872 366.682 91.136C365.936 90.3893 365.562 89.3867 365.562 88.128C365.562 86.9547 365.925 85.984 366.65 85.216C367.376 84.448 368.24 84.064 369.242 84.064C370.405 84.064 371.312 84.432 371.962 85.168C372.613 85.8933 372.938 86.8693 372.938 88.096C372.938 88.288 372.928 88.448 372.906 88.576H367.114C367.125 89.2587 367.349 89.8187 367.786 90.256C368.234 90.6933 368.784 90.912 369.434 90.912C370.533 90.912 371.253 90.3947 371.594 89.36ZM379.13 84.224V85.824C378.906 85.792 378.687 85.776 378.474 85.776C377.066 85.776 376.362 86.5653 376.362 88.144V92H374.858V84.304H376.33V85.648C376.799 84.6667 377.567 84.176 378.634 84.176C378.805 84.176 378.97 84.192 379.13 84.224ZM380.013 90L381.373 89.52C381.426 89.936 381.608 90.2827 381.917 90.56C382.226 90.8267 382.642 90.96 383.165 90.96C383.57 90.96 383.89 90.864 384.125 90.672C384.36 90.4693 384.477 90.224 384.477 89.936C384.477 89.424 384.146 89.0933 383.485 88.944L382.173 88.656C381.576 88.528 381.106 88.272 380.765 87.888C380.424 87.504 380.253 87.04 380.253 86.496C380.253 85.8347 380.52 85.264 381.053 84.784C381.597 84.304 382.242 84.064 382.989 84.064C383.48 84.064 383.917 84.1387 384.301 84.288C384.685 84.4267 384.984 84.6133 385.197 84.848C385.41 85.0827 385.57 85.3013 385.677 85.504C385.784 85.7067 385.864 85.9147 385.917 86.128L384.589 86.624C384.568 86.496 384.53 86.3733 384.477 86.256C384.424 86.128 384.338 85.9893 384.221 85.84C384.114 85.6907 383.954 85.5733 383.741 85.488C383.528 85.392 383.277 85.344 382.989 85.344C382.616 85.344 382.306 85.4453 382.061 85.648C381.826 85.8507 381.709 86.0907 381.709 86.368C381.709 86.8587 382.002 87.168 382.589 87.296L383.837 87.568C384.52 87.7173 385.042 87.9947 385.405 88.4C385.778 88.7947 385.965 89.28 385.965 89.856C385.965 90.464 385.714 91.0133 385.213 91.504C384.722 91.9947 384.034 92.24 383.149 92.24C382.2 92.24 381.458 92.0053 380.925 91.536C380.392 91.056 380.088 90.544 380.013 90ZM389.473 90.176C389.943 90.656 390.513 90.896 391.185 90.896C391.857 90.896 392.423 90.656 392.881 90.176C393.351 89.6853 393.585 89.008 393.585 88.144C393.585 87.2907 393.351 86.624 392.881 86.144C392.423 85.6533 391.857 85.408 391.185 85.408C390.513 85.408 389.943 85.6533 389.473 86.144C389.015 86.624 388.785 87.2907 388.785 88.144C388.785 89.008 389.015 89.6853 389.473 90.176ZM388.353 85.232C389.1 84.4533 390.044 84.064 391.185 84.064C392.327 84.064 393.265 84.4533 394.001 85.232C394.748 86 395.121 86.9707 395.121 88.144C395.121 89.328 394.753 90.3093 394.017 91.088C393.281 91.856 392.337 92.24 391.185 92.24C390.033 92.24 389.089 91.856 388.353 91.088C387.617 90.3093 387.249 89.328 387.249 88.144C387.249 86.9707 387.617 86 388.353 85.232ZM398.55 87.552V92H397.046V84.304H398.518V85.408C399.03 84.5227 399.819 84.08 400.886 84.08C401.771 84.08 402.448 84.3627 402.918 84.928C403.398 85.4933 403.638 86.224 403.638 87.12V92H402.134V87.376C402.134 86.0853 401.536 85.44 400.342 85.44C399.776 85.44 399.334 85.6427 399.014 86.048C398.704 86.4427 398.55 86.944 398.55 87.552ZM405.55 89.936C405.55 89.2747 405.763 88.7467 406.19 88.352C406.617 87.9467 407.182 87.696 407.886 87.6L409.966 87.296C410.361 87.2427 410.558 87.0507 410.558 86.72C410.558 86.3147 410.419 85.984 410.142 85.728C409.865 85.472 409.449 85.344 408.894 85.344C408.382 85.344 407.977 85.488 407.678 85.776C407.379 86.0533 407.203 86.4267 407.15 86.896L405.71 86.56C405.785 85.824 406.121 85.2267 406.718 84.768C407.315 84.2987 408.03 84.064 408.862 84.064C409.95 84.064 410.755 84.3307 411.278 84.864C411.801 85.3867 412.062 86.0587 412.062 86.88V90.736C412.062 91.1947 412.094 91.616 412.158 92H410.686C410.633 91.68 410.606 91.3333 410.606 90.96C410.393 91.3013 410.078 91.6 409.662 91.856C409.257 92.112 408.745 92.24 408.126 92.24C407.369 92.24 406.75 92.016 406.27 91.568C405.79 91.1093 405.55 90.5653 405.55 89.936ZM408.334 90.976C409.006 90.976 409.545 90.7947 409.95 90.432C410.355 90.0693 410.558 89.4933 410.558 88.704V88.352L408.206 88.704C407.865 88.7573 407.593 88.88 407.39 89.072C407.187 89.264 407.086 89.5253 407.086 89.856C407.086 90.1547 407.198 90.416 407.422 90.64C407.657 90.864 407.961 90.976 408.334 90.976ZM415.909 92H414.405V80.416H415.909V92ZM423.956 92H422.468V84.304H423.956V92ZM422.436 82.16C422.233 81.9467 422.132 81.6907 422.132 81.392C422.132 81.0933 422.233 80.8373 422.436 80.624C422.649 80.4107 422.905 80.304 423.204 80.304C423.502 80.304 423.758 80.4107 423.972 80.624C424.185 80.8267 424.292 81.0827 424.292 81.392C424.292 81.6907 424.185 81.9467 423.972 82.16C423.758 82.3627 423.502 82.464 423.204 82.464C422.905 82.464 422.649 82.3627 422.436 82.16ZM428.018 87.552V92H426.514V84.304H427.986V85.408C428.498 84.5227 429.288 84.08 430.354 84.08C431.24 84.08 431.917 84.3627 432.386 84.928C432.866 85.4933 433.106 86.224 433.106 87.12V92H431.602V87.376C431.602 86.0853 431.005 85.44 429.81 85.44C429.245 85.44 428.802 85.6427 428.482 86.048C428.173 86.4427 428.018 86.944 428.018 87.552ZM439.371 85.664H437.515V92H435.963V85.664H434.539V84.304H435.963V83.008C435.963 82.1867 436.203 81.5413 436.683 81.072C437.163 80.6027 437.765 80.368 438.491 80.368C438.949 80.368 439.248 80.4213 439.387 80.528V81.872C439.227 81.808 439.008 81.776 438.731 81.776C438.4 81.776 438.112 81.8773 437.867 82.08C437.632 82.272 437.515 82.608 437.515 83.088V84.304H439.371V85.664ZM442.255 90.176C442.724 90.656 443.295 90.896 443.967 90.896C444.639 90.896 445.204 90.656 445.663 90.176C446.132 89.6853 446.367 89.008 446.367 88.144C446.367 87.2907 446.132 86.624 445.663 86.144C445.204 85.6533 444.639 85.408 443.967 85.408C443.295 85.408 442.724 85.6533 442.255 86.144C441.796 86.624 441.567 87.2907 441.567 88.144C441.567 89.008 441.796 89.6853 442.255 90.176ZM441.135 85.232C441.881 84.4533 442.825 84.064 443.967 84.064C445.108 84.064 446.047 84.4533 446.783 85.232C447.529 86 447.903 86.9707 447.903 88.144C447.903 89.328 447.535 90.3093 446.799 91.088C446.063 91.856 445.119 92.24 443.967 92.24C442.815 92.24 441.871 91.856 441.135 91.088C440.399 90.3093 440.031 89.328 440.031 88.144C440.031 86.9707 440.399 86 441.135 85.232ZM454.099 84.224V85.824C453.875 85.792 453.656 85.776 453.443 85.776C452.035 85.776 451.331 86.5653 451.331 88.144V92H449.827V84.304H451.299V85.648C451.768 84.6667 452.536 84.176 453.603 84.176C453.774 84.176 453.939 84.192 454.099 84.224ZM457.19 92H455.702V84.304H457.142V85.328C457.377 84.9227 457.707 84.6133 458.134 84.4C458.561 84.1867 459.009 84.08 459.478 84.08C459.979 84.08 460.438 84.2027 460.854 84.448C461.27 84.6933 461.579 85.056 461.782 85.536C462.315 84.5653 463.174 84.08 464.358 84.08C465.094 84.08 465.718 84.3307 466.23 84.832C466.753 85.3333 467.014 86.0587 467.014 87.008V92H465.526V87.168C465.526 86.6347 465.387 86.208 465.11 85.888C464.843 85.568 464.438 85.408 463.894 85.408C463.371 85.408 462.945 85.5947 462.614 85.968C462.283 86.3307 462.118 86.7893 462.118 87.344V92H460.614V87.168C460.614 86.6347 460.475 86.208 460.198 85.888C459.931 85.568 459.526 85.408 458.982 85.408C458.449 85.408 458.017 85.5893 457.686 85.952C457.355 86.3147 457.19 86.784 457.19 87.36V92ZM468.941 89.936C468.941 89.2747 469.154 88.7467 469.581 88.352C470.007 87.9467 470.573 87.696 471.277 87.6L473.357 87.296C473.751 87.2427 473.949 87.0507 473.949 86.72C473.949 86.3147 473.81 85.984 473.533 85.728C473.255 85.472 472.839 85.344 472.285 85.344C471.773 85.344 471.367 85.488 471.069 85.776C470.77 86.0533 470.594 86.4267 470.541 86.896L469.101 86.56C469.175 85.824 469.511 85.2267 470.109 84.768C470.706 84.2987 471.421 84.064 472.253 84.064C473.341 84.064 474.146 84.3307 474.669 84.864C475.191 85.3867 475.453 86.0587 475.453 86.88V90.736C475.453 91.1947 475.485 91.616 475.549 92H474.077C474.023 91.68 473.997 91.3333 473.997 90.96C473.783 91.3013 473.469 91.6 473.053 91.856C472.647 92.112 472.135 92.24 471.517 92.24C470.759 92.24 470.141 92.016 469.661 91.568C469.181 91.1093 468.941 90.5653 468.941 89.936ZM471.725 90.976C472.397 90.976 472.935 90.7947 473.341 90.432C473.746 90.0693 473.949 89.4933 473.949 88.704V88.352L471.597 88.704C471.255 88.7573 470.983 88.88 470.781 89.072C470.578 89.264 470.477 89.5253 470.477 89.856C470.477 90.1547 470.589 90.416 470.813 90.64C471.047 90.864 471.351 90.976 471.725 90.976ZM479.812 81.872V84.304H481.476V85.664H479.812V89.664C479.812 90.0267 479.892 90.2933 480.052 90.464C480.222 90.6347 480.5 90.72 480.884 90.72C481.108 90.72 481.305 90.6987 481.476 90.656V91.936C481.22 92.032 480.878 92.08 480.452 92.08C479.79 92.08 479.268 91.888 478.884 91.504C478.5 91.12 478.308 90.5813 478.308 89.888V85.664H476.836V84.304H477.252C477.646 84.304 477.94 84.1973 478.132 83.984C478.334 83.76 478.436 83.472 478.436 83.12V81.872H479.812ZM484.971 92H483.483V84.304H484.971V92ZM483.451 82.16C483.248 81.9467 483.147 81.6907 483.147 81.392C483.147 81.0933 483.248 80.8373 483.451 80.624C483.664 80.4107 483.92 80.304 484.219 80.304C484.518 80.304 484.774 80.4107 484.987 80.624C485.2 80.8267 485.307 81.0827 485.307 81.392C485.307 81.6907 485.2 81.9467 484.987 82.16C484.774 82.3627 484.518 82.464 484.219 82.464C483.92 82.464 483.664 82.3627 483.451 82.16ZM489.114 90.176C489.583 90.656 490.154 90.896 490.826 90.896C491.498 90.896 492.063 90.656 492.522 90.176C492.991 89.6853 493.226 89.008 493.226 88.144C493.226 87.2907 492.991 86.624 492.522 86.144C492.063 85.6533 491.498 85.408 490.826 85.408C490.154 85.408 489.583 85.6533 489.114 86.144C488.655 86.624 488.426 87.2907 488.426 88.144C488.426 89.008 488.655 89.6853 489.114 90.176ZM487.994 85.232C488.741 84.4533 489.685 84.064 490.826 84.064C491.967 84.064 492.906 84.4533 493.642 85.232C494.389 86 494.762 86.9707 494.762 88.144C494.762 89.328 494.394 90.3093 493.658 91.088C492.922 91.856 491.978 92.24 490.826 92.24C489.674 92.24 488.73 91.856 487.994 91.088C487.258 90.3093 486.89 89.328 486.89 88.144C486.89 86.9707 487.258 86 487.994 85.232ZM498.19 87.552V92H496.686V84.304H498.158V85.408C498.67 84.5227 499.46 84.08 500.526 84.08C501.412 84.08 502.089 84.3627 502.558 84.928C503.038 85.4933 503.278 86.224 503.278 87.12V92H501.774V87.376C501.774 86.0853 501.177 85.44 499.982 85.44C499.417 85.44 498.974 85.6427 498.654 86.048C498.345 86.4427 498.19 86.944 498.19 87.552Z" fill="#444444"/>
<path d="M324 90C327.866 90 331 86.866 331 83C331 79.134 327.866 76 324 76C320.134 76 317 79.134 317 83C317 86.866 320.134 90 324 90Z" fill="#E4E4E4" stroke="#444444" stroke-width="1.5" stroke-linecap="round" stroke-linejoin="round"/>
<path d="M333.217 97.8347C332.01 96.6194 330.574 95.6549 328.992 94.9968C327.41 94.3386 325.713 93.9998 324 93.9998C322.287 93.9998 320.59 94.3386 319.008 94.9968C317.427 95.6549 315.99 96.6194 314.783 97.8347" stroke="#444444" stroke-width="1.5" stroke-linecap="round" stroke-linejoin="round"/>
<path d="M324 101C332.284 101 339 94.2843 339 86C339 77.7157 332.284 71 324 71C315.716 71 309 77.7157 309 86C309 94.2843 315.716 101 324 101Z" stroke="#444444" stroke-width="1.5" stroke-linecap="round" stroke-linejoin="round"/>
<g filter="url(#filter5_ddd)">
<path d="M22 148C22 145.791 23.7909 144 26 144H266C268.209 144 270 145.791 270 148V302C270 304.209 268.209 306 266 306H26C23.7909 306 22 304.209 22 302V148Z" fill="white"/>
</g>
<rect x="119.5" y="257.5" width="102" height="31" rx="3.5" fill="url(#paint0_linear)" stroke="#C4C4C4"/>
<path d="M138.022 276.24H140.038C141.084 276.24 141.942 275.909 142.614 275.248C143.297 274.576 143.638 273.611 143.638 272.352C143.638 271.083 143.302 270.112 142.63 269.44C141.958 268.757 141.1 268.416 140.054 268.416H138.022V276.24ZM140.102 278H136.102V266.656H140.118C141.718 266.656 143.036 267.163 144.07 268.176C145.116 269.189 145.638 270.581 145.638 272.352C145.638 274.112 145.116 275.493 144.07 276.496C143.025 277.499 141.702 278 140.102 278ZM149.392 275.92C149.819 276.357 150.336 276.576 150.944 276.576C151.552 276.576 152.064 276.357 152.48 275.92C152.907 275.483 153.12 274.875 153.12 274.096C153.12 273.328 152.907 272.731 152.48 272.304C152.064 271.867 151.552 271.648 150.944 271.648C150.336 271.648 149.819 271.867 149.392 272.304C148.976 272.731 148.768 273.328 148.768 274.096C148.768 274.864 148.976 275.472 149.392 275.92ZM150.944 269.968C152.118 269.968 153.083 270.357 153.84 271.136C154.608 271.915 154.992 272.901 154.992 274.096C154.992 275.291 154.608 276.283 153.84 277.072C153.083 277.851 152.118 278.24 150.944 278.24C149.782 278.24 148.816 277.851 148.048 277.072C147.291 276.283 146.912 275.291 146.912 274.096C146.912 272.901 147.291 271.915 148.048 271.136C148.816 270.357 149.782 269.968 150.944 269.968ZM161.014 270.208H162.934L164.774 275.6L166.326 270.208H168.214L165.718 278H163.862L161.926 272.4L160.038 278H158.134L155.606 270.208H157.59L159.174 275.6L161.014 270.208ZM171.486 273.504V278H169.63V270.208H171.438V271.248C171.683 270.821 172.008 270.507 172.414 270.304C172.83 270.091 173.272 269.984 173.742 269.984C174.659 269.984 175.358 270.272 175.838 270.848C176.318 271.424 176.558 272.165 176.558 273.072V278H174.702V273.392C174.702 272.869 174.574 272.453 174.318 272.144C174.062 271.824 173.656 271.664 173.102 271.664C172.59 271.664 172.19 271.84 171.902 272.192C171.624 272.533 171.486 272.971 171.486 273.504ZM180.673 278H178.817V266.416H180.673V278ZM184.939 275.92C185.366 276.357 185.883 276.576 186.491 276.576C187.099 276.576 187.611 276.357 188.027 275.92C188.454 275.483 188.667 274.875 188.667 274.096C188.667 273.328 188.454 272.731 188.027 272.304C187.611 271.867 187.099 271.648 186.491 271.648C185.883 271.648 185.366 271.867 184.939 272.304C184.523 272.731 184.315 273.328 184.315 274.096C184.315 274.864 184.523 275.472 184.939 275.92ZM186.491 269.968C187.665 269.968 188.63 270.357 189.387 271.136C190.155 271.915 190.539 272.901 190.539 274.096C190.539 275.291 190.155 276.283 189.387 277.072C188.63 277.851 187.665 278.24 186.491 278.24C185.329 278.24 184.363 277.851 183.595 277.072C182.838 276.283 182.459 275.291 182.459 274.096C182.459 272.901 182.838 271.915 183.595 271.136C184.363 270.357 185.329 269.968 186.491 269.968ZM191.853 275.888C191.853 275.227 192.066 274.699 192.493 274.304C192.93 273.899 193.501 273.643 194.205 273.536L196.205 273.232C196.589 273.179 196.781 272.992 196.781 272.672C196.781 272.32 196.658 272.037 196.413 271.824C196.167 271.6 195.799 271.488 195.309 271.488C194.839 271.488 194.466 271.621 194.189 271.888C193.911 272.144 193.751 272.48 193.709 272.896L192.013 272.512C192.087 271.808 192.423 271.211 193.021 270.72C193.618 270.219 194.375 269.968 195.293 269.968C196.423 269.968 197.255 270.24 197.789 270.784C198.333 271.328 198.605 272.027 198.605 272.88V276.752C198.605 277.264 198.637 277.68 198.701 278H196.973C196.919 277.84 196.893 277.509 196.893 277.008C196.381 277.829 195.581 278.24 194.493 278.24C193.703 278.24 193.063 278.011 192.573 277.552C192.093 277.083 191.853 276.528 191.853 275.888ZM194.845 276.784C195.421 276.784 195.885 276.629 196.237 276.32C196.599 276 196.781 275.483 196.781 274.768V274.416L194.749 274.72C194.055 274.837 193.709 275.189 193.709 275.776C193.709 276.053 193.81 276.293 194.013 276.496C194.215 276.688 194.493 276.784 194.845 276.784ZM202.081 274.08C202.081 274.827 202.273 275.429 202.657 275.888C203.041 276.336 203.547 276.56 204.177 276.56C204.785 276.56 205.281 276.331 205.665 275.872C206.049 275.413 206.241 274.811 206.241 274.064C206.241 273.328 206.054 272.741 205.681 272.304C205.307 271.867 204.811 271.648 204.193 271.648C203.574 271.648 203.067 271.872 202.673 272.32C202.278 272.757 202.081 273.344 202.081 274.08ZM208.033 266.416V276.576C208.033 277.099 208.059 277.573 208.113 278H206.337C206.283 277.701 206.257 277.365 206.257 276.992C206.065 277.344 205.766 277.632 205.361 277.856C204.955 278.08 204.491 278.192 203.969 278.192C202.859 278.192 201.958 277.803 201.265 277.024C200.571 276.245 200.225 275.264 200.225 274.08C200.225 272.939 200.571 271.973 201.265 271.184C201.969 270.395 202.859 270 203.937 270C204.555 270 205.051 270.112 205.425 270.336C205.809 270.56 206.075 270.821 206.225 271.12V266.416H208.033Z" fill="#444444"/>
<path d="M212.448 305.009C211.773 304.109 211.098 302.534 209.748 300.509C209.073 299.384 207.048 297.134 206.373 296.234C205.923 295.334 205.923 294.884 206.148 293.984C206.373 292.634 207.723 291.509 209.298 291.509C210.423 291.509 211.548 292.409 212.448 293.084C212.898 293.534 213.573 294.434 214.023 294.884C214.473 295.334 214.473 295.559 214.923 296.009C215.373 296.684 215.598 297.134 215.373 296.234C215.148 295.109 214.923 293.309 214.473 291.509C214.248 290.159 214.023 289.934 213.798 289.034C213.573 287.909 213.348 287.234 213.123 286.109C212.898 285.434 212.673 283.634 212.448 282.734C212.223 281.609 212.223 279.584 213.123 278.684C213.798 278.009 215.148 277.784 216.048 278.234C217.173 278.909 217.848 280.484 218.073 281.159C218.523 282.284 218.973 283.859 219.198 285.659C219.648 287.909 220.323 291.284 220.323 291.959C220.323 291.059 220.098 289.484 220.323 288.584C220.548 287.909 220.998 287.009 221.898 286.784C222.573 286.559 223.248 286.559 223.923 286.559C224.598 286.784 225.273 287.234 225.723 287.684C226.623 289.034 226.623 291.959 226.623 291.734C226.848 290.834 226.848 289.034 227.298 288.134C227.523 287.684 228.423 287.234 228.873 287.009C229.548 286.784 230.448 286.784 231.123 287.009C231.573 287.009 232.473 287.684 232.698 288.134C233.148 288.809 233.373 291.059 233.598 291.959C233.598 292.184 233.823 291.059 234.273 290.384C235.173 289.034 238.323 288.584 238.548 291.734C238.548 293.309 238.548 293.084 238.548 294.209C238.548 295.334 238.548 296.009 238.548 296.909C238.548 297.809 238.323 299.834 238.098 300.734C237.873 301.409 237.198 302.984 236.523 303.884C236.523 303.884 234.048 306.584 233.823 307.934C233.598 309.284 233.598 309.284 233.598 310.184C233.598 311.084 233.823 312.209 233.823 312.209C233.823 312.209 232.023 312.434 231.123 312.209C230.223 311.984 229.098 310.409 228.873 309.734C228.423 309.059 227.748 309.059 227.298 309.734C226.848 310.634 225.723 312.209 224.823 312.209C223.248 312.434 220.098 312.209 217.848 312.209C217.848 312.209 218.298 309.959 217.398 309.059C216.723 308.384 215.598 307.259 214.923 306.584L212.448 305.009Z" fill="white"/>
<path d="M212.448 305.009C211.773 304.109 211.098 302.534 209.748 300.509C209.073 299.384 207.048 297.134 206.373 296.234C205.923 295.334 205.923 294.884 206.148 293.984C206.373 292.634 207.723 291.509 209.298 291.509C210.423 291.509 211.548 292.409 212.448 293.084C212.898 293.534 213.573 294.434 214.023 294.884C214.473 295.334 214.473 295.559 214.923 296.009C215.373 296.684 215.598 297.134 215.373 296.234C215.148 295.109 214.923 293.309 214.473 291.509C214.248 290.159 214.023 289.934 213.798 289.034C213.573 287.909 213.348 287.234 213.123 286.109C212.898 285.434 212.673 283.634 212.448 282.734C212.223 281.609 212.223 279.584 213.123 278.684C213.798 278.009 215.148 277.784 216.048 278.234C217.173 278.909 217.848 280.484 218.073 281.159C218.523 282.284 218.973 283.859 219.198 285.659C219.648 287.909 220.323 291.284 220.323 291.959C220.323 291.059 220.098 289.484 220.323 288.584C220.548 287.909 220.998 287.009 221.898 286.784C222.573 286.559 223.248 286.559 223.923 286.559C224.598 286.784 225.273 287.234 225.723 287.684C226.623 289.034 226.623 291.959 226.623 291.734C226.848 290.834 226.848 289.034 227.298 288.134C227.523 287.684 228.423 287.234 228.873 287.009C229.548 286.784 230.448 286.784 231.123 287.009C231.573 287.009 232.473 287.684 232.698 288.134C233.148 288.809 233.373 291.059 233.598 291.959C233.598 292.184 233.823 291.059 234.273 290.384C235.173 289.034 238.323 288.584 238.548 291.734C238.548 293.309 238.548 293.084 238.548 294.209C238.548 295.334 238.548 296.009 238.548 296.909C238.548 297.809 238.323 299.834 238.098 300.734C237.873 301.409 237.198 302.984 236.523 303.884C236.523 303.884 234.048 306.584 233.823 307.934C233.598 309.284 233.598 309.284 233.598 310.184C233.598 311.084 233.823 312.209 233.823 312.209C233.823 312.209 232.023 312.434 231.123 312.209C230.223 311.984 229.098 310.409 228.873 309.734C228.423 309.059 227.748 309.059 227.298 309.734C226.848 310.634 225.723 312.209 224.823 312.209C223.248 312.434 220.098 312.209 217.848 312.209C217.848 312.209 218.298 309.959 217.398 309.059C216.723 308.384 215.598 307.259 214.923 306.584L212.448 305.009Z" stroke="black" stroke-width="0.75" stroke-linecap="round" stroke-linejoin="round"/>
<path d="M231.123 305.684V298.034" stroke="black" stroke-width="0.75" stroke-linecap="round"/>
<path d="M226.623 305.684L226.398 298.034" stroke="black" stroke-width="0.75" stroke-linecap="round"/>
<path d="M222.123 298.034V305.684" stroke="black" stroke-width="0.75" stroke-linecap="round"/>
<path d="M128.296 193L127.064 189.832H122.04L120.84 193H119.16L123.672 181.656H125.48L129.992 193H128.296ZM124.536 183.288L122.6 188.376H126.504L124.536 183.288ZM132.862 188.552V193H131.358V185.304H132.83V186.408C133.342 185.523 134.131 185.08 135.198 185.08C136.083 185.08 136.761 185.363 137.23 185.928C137.71 186.493 137.95 187.224 137.95 188.12V193H136.446V188.376C136.446 187.085 135.849 186.44 134.654 186.44C134.089 186.44 133.646 186.643 133.326 187.048C133.017 187.443 132.862 187.944 132.862 188.552ZM141.847 188.552V193H140.343V185.304H141.815V186.408C142.327 185.523 143.116 185.08 144.183 185.08C145.068 185.08 145.745 185.363 146.215 185.928C146.695 186.493 146.935 187.224 146.935 188.12V193H145.431V188.376C145.431 187.085 144.833 186.44 143.639 186.44C143.073 186.44 142.631 186.643 142.311 187.048C142.001 187.443 141.847 187.944 141.847 188.552ZM150.815 193H149.327V185.304H150.815V193ZM149.295 183.16C149.092 182.947 148.991 182.691 148.991 182.392C148.991 182.093 149.092 181.837 149.295 181.624C149.508 181.411 149.764 181.304 150.063 181.304C150.362 181.304 150.618 181.411 150.831 181.624C151.044 181.827 151.151 182.083 151.151 182.392C151.151 182.691 151.044 182.947 150.831 183.16C150.618 183.363 150.362 183.464 150.063 183.464C149.764 183.464 149.508 183.363 149.295 183.16ZM154.35 188.36H158.558C158.536 187.784 158.344 187.315 157.982 186.952C157.619 186.579 157.107 186.392 156.446 186.392C155.848 186.392 155.358 186.589 154.974 186.984C154.59 187.368 154.382 187.827 154.35 188.36ZM158.782 190.36L160.078 190.808C159.854 191.523 159.438 192.109 158.83 192.568C158.222 193.016 157.486 193.24 156.622 193.24C155.544 193.24 154.627 192.872 153.87 192.136C153.123 191.389 152.75 190.387 152.75 189.128C152.75 187.955 153.112 186.984 153.838 186.216C154.563 185.448 155.427 185.064 156.43 185.064C157.592 185.064 158.499 185.432 159.15 186.168C159.8 186.893 160.126 187.869 160.126 189.096C160.126 189.288 160.115 189.448 160.094 189.576H154.302C154.312 190.259 154.536 190.819 154.974 191.256C155.422 191.693 155.971 191.912 156.622 191.912C157.72 191.912 158.44 191.395 158.782 190.36ZM160.765 182.504C160.765 182.237 160.866 182.008 161.069 181.816C161.282 181.613 161.544 181.512 161.853 181.512C162.194 181.512 162.482 181.635 162.717 181.88C162.952 182.125 163.069 182.472 163.069 182.92C163.069 183.816 162.84 184.509 162.381 185C161.933 185.491 161.426 185.768 160.861 185.832V185.064C161.213 184.989 161.501 184.797 161.725 184.488C161.96 184.168 162.082 183.821 162.093 183.448C162.018 183.501 161.912 183.528 161.773 183.528C161.485 183.528 161.245 183.437 161.053 183.256C160.861 183.064 160.765 182.813 160.765 182.504ZM163.388 191L164.748 190.52C164.801 190.936 164.983 191.283 165.292 191.56C165.601 191.827 166.017 191.96 166.54 191.96C166.945 191.96 167.265 191.864 167.5 191.672C167.735 191.469 167.852 191.224 167.852 190.936C167.852 190.424 167.521 190.093 166.86 189.944L165.548 189.656C164.951 189.528 164.481 189.272 164.14 188.888C163.799 188.504 163.628 188.04 163.628 187.496C163.628 186.835 163.895 186.264 164.428 185.784C164.972 185.304 165.617 185.064 166.364 185.064C166.855 185.064 167.292 185.139 167.676 185.288C168.06 185.427 168.359 185.613 168.572 185.848C168.785 186.083 168.945 186.301 169.052 186.504C169.159 186.707 169.239 186.915 169.292 187.128L167.964 187.624C167.943 187.496 167.905 187.373 167.852 187.256C167.799 187.128 167.713 186.989 167.596 186.84C167.489 186.691 167.329 186.573 167.116 186.488C166.903 186.392 166.652 186.344 166.364 186.344C165.991 186.344 165.681 186.445 165.436 186.648C165.201 186.851 165.084 187.091 165.084 187.368C165.084 187.859 165.377 188.168 165.964 188.296L167.212 188.568C167.895 188.717 168.417 188.995 168.78 189.4C169.153 189.795 169.34 190.28 169.34 190.856C169.34 191.464 169.089 192.013 168.588 192.504C168.097 192.995 167.409 193.24 166.524 193.24C165.575 193.24 164.833 193.005 164.3 192.536C163.767 192.056 163.463 191.544 163.388 191ZM180.415 193.24C178.868 193.24 177.54 192.707 176.431 191.64C175.332 190.573 174.783 189.133 174.783 187.32C174.783 186.104 175.06 185.037 175.615 184.12C176.169 183.203 176.868 182.525 177.711 182.088C178.553 181.64 179.455 181.416 180.415 181.416C181.695 181.416 182.772 181.741 183.647 182.392C184.532 183.032 185.119 183.907 185.407 185.016L183.951 185.528C183.737 184.675 183.327 184.019 182.719 183.56C182.111 183.091 181.343 182.856 180.415 182.856C179.305 182.856 178.356 183.251 177.567 184.04C176.777 184.819 176.383 185.912 176.383 187.32C176.383 188.728 176.777 189.827 177.567 190.616C178.356 191.405 179.305 191.8 180.415 191.8C181.343 191.8 182.116 191.555 182.735 191.064C183.353 190.563 183.785 189.901 184.031 189.08L185.423 189.592C185.113 190.691 184.516 191.576 183.631 192.248C182.756 192.909 181.684 193.24 180.415 193.24ZM186.55 190.936C186.55 190.275 186.763 189.747 187.19 189.352C187.617 188.947 188.182 188.696 188.886 188.6L190.966 188.296C191.361 188.243 191.558 188.051 191.558 187.72C191.558 187.315 191.419 186.984 191.142 186.728C190.865 186.472 190.449 186.344 189.894 186.344C189.382 186.344 188.977 186.488 188.678 186.776C188.379 187.053 188.203 187.427 188.15 187.896L186.71 187.56C186.785 186.824 187.121 186.227 187.718 185.768C188.315 185.299 189.03 185.064 189.862 185.064C190.95 185.064 191.755 185.331 192.278 185.864C192.801 186.387 193.062 187.059 193.062 187.88V191.736C193.062 192.195 193.094 192.616 193.158 193H191.686C191.633 192.68 191.606 192.333 191.606 191.96C191.393 192.301 191.078 192.6 190.662 192.856C190.257 193.112 189.745 193.24 189.126 193.24C188.369 193.24 187.75 193.016 187.27 192.568C186.79 192.109 186.55 191.565 186.55 190.936ZM189.334 191.976C190.006 191.976 190.545 191.795 190.95 191.432C191.355 191.069 191.558 190.493 191.558 189.704V189.352L189.206 189.704C188.865 189.757 188.593 189.88 188.39 190.072C188.187 190.264 188.086 190.525 188.086 190.856C188.086 191.155 188.198 191.416 188.422 191.64C188.657 191.864 188.961 191.976 189.334 191.976ZM199.677 185.224V186.824C199.453 186.792 199.234 186.776 199.021 186.776C197.613 186.776 196.909 187.565 196.909 189.144V193H195.405V185.304H196.877V186.648C197.346 185.667 198.114 185.176 199.181 185.176C199.352 185.176 199.517 185.192 199.677 185.224ZM202.178 188.36H206.386C206.365 187.784 206.173 187.315 205.81 186.952C205.447 186.579 204.935 186.392 204.274 186.392C203.677 186.392 203.186 186.589 202.802 186.984C202.418 187.368 202.21 187.827 202.178 188.36ZM206.61 190.36L207.906 190.808C207.682 191.523 207.266 192.109 206.658 192.568C206.05 193.016 205.314 193.24 204.45 193.24C203.373 193.24 202.455 192.872 201.698 192.136C200.951 191.389 200.578 190.387 200.578 189.128C200.578 187.955 200.941 186.984 201.666 186.216C202.391 185.448 203.255 185.064 204.258 185.064C205.421 185.064 206.327 185.432 206.978 186.168C207.629 186.893 207.954 187.869 207.954 189.096C207.954 189.288 207.943 189.448 207.922 189.576H202.13C202.141 190.259 202.365 190.819 202.802 191.256C203.25 191.693 203.799 191.912 204.45 191.912C205.549 191.912 206.269 191.395 206.61 190.36ZM215.362 196.04H213.874V185.304H215.33V186.504C215.554 186.099 215.89 185.768 216.338 185.512C216.786 185.256 217.308 185.128 217.906 185.128C219.015 185.128 219.879 185.507 220.498 186.264C221.127 187.021 221.442 187.981 221.442 189.144C221.442 190.317 221.116 191.288 220.466 192.056C219.826 192.824 218.956 193.208 217.858 193.208C217.292 193.208 216.791 193.091 216.354 192.856C215.916 192.621 215.586 192.323 215.362 191.96V196.04ZM219.906 189.144C219.906 188.365 219.698 187.725 219.282 187.224C218.876 186.712 218.327 186.456 217.634 186.456C216.951 186.456 216.396 186.712 215.97 187.224C215.554 187.725 215.346 188.365 215.346 189.144C215.346 189.944 215.554 190.6 215.97 191.112C216.396 191.613 216.951 191.864 217.634 191.864C218.316 191.864 218.866 191.613 219.282 191.112C219.698 190.6 219.906 189.944 219.906 189.144ZM224.862 193H223.358V181.416H224.862V193ZM226.941 190.936C226.941 190.275 227.154 189.747 227.581 189.352C228.007 188.947 228.573 188.696 229.277 188.6L231.357 188.296C231.751 188.243 231.949 188.051 231.949 187.72C231.949 187.315 231.81 186.984 231.533 186.728C231.255 186.472 230.839 186.344 230.285 186.344C229.773 186.344 229.367 186.488 229.069 186.776C228.77 187.053 228.594 187.427 228.541 187.896L227.101 187.56C227.175 186.824 227.511 186.227 228.109 185.768C228.706 185.299 229.421 185.064 230.253 185.064C231.341 185.064 232.146 185.331 232.669 185.864C233.191 186.387 233.453 187.059 233.453 187.88V191.736C233.453 192.195 233.485 192.616 233.549 193H232.077C232.023 192.68 231.997 192.333 231.997 191.96C231.783 192.301 231.469 192.6 231.053 192.856C230.647 193.112 230.135 193.24 229.517 193.24C228.759 193.24 228.141 193.016 227.661 192.568C227.181 192.109 226.941 191.565 226.941 190.936ZM229.725 191.976C230.397 191.976 230.935 191.795 231.341 191.432C231.746 191.069 231.949 190.493 231.949 189.704V189.352L229.597 189.704C229.255 189.757 228.983 189.88 228.781 190.072C228.578 190.264 228.477 190.525 228.477 190.856C228.477 191.155 228.589 191.416 228.813 191.64C229.047 191.864 229.351 191.976 229.725 191.976ZM237.3 188.552V193H235.796V185.304H237.268V186.408C237.78 185.523 238.569 185.08 239.636 185.08C240.521 185.08 241.198 185.363 241.668 185.928C242.148 186.493 242.388 187.224 242.388 188.12V193H240.884V188.376C240.884 187.085 240.286 186.44 239.092 186.44C238.526 186.44 238.084 186.643 237.764 187.048C237.454 187.443 237.3 187.944 237.3 188.552Z" fill="#444444"/>
<rect x="119" y="207" width="134.963" height="8.63538" rx="4" fill="#E4E4E4"/>
<rect x="119" y="224.271" width="110.894" height="8.63538" rx="4" fill="#E4E4E4"/>
<path d="M22 146C22 143.791 23.7909 142 26 142H266C268.209 142 270 143.791 270 146V160H22V146Z" fill="#004084"/>
<defs>
<filter id="filter0_ddd" x="272" y="343" width="308" height="104" filterUnits="userSpaceOnUse" color-interpolation-filters="sRGB">
<feFlood flood-opacity="0" result="BackgroundImageFix"/>
<feColorMatrix in="SourceAlpha" type="matrix" values="0 0 0 0 0 0 0 0 0 0 0 0 0 0 0 0 0 0 127 0"/>
<feOffset dy="1"/>
<feGaussianBlur stdDeviation="10"/>
<feColorMatrix type="matrix" values="0 0 0 0 0 0 0 0 0 0.145098 0 0 0 0 0.301961 0 0 0 0.14 0"/>
<feBlend mode="normal" in2="BackgroundImageFix" result="effect1_dropShadow"/>
<feColorMatrix in="SourceAlpha" type="matrix" values="0 0 0 0 0 0 0 0 0 0 0 0 0 0 0 0 0 0 127 0"/>
<feOffset dy="6"/>
<feGaussianBlur stdDeviation="7"/>
<feColorMatrix type="matrix" values="0 0 0 0 0 0 0 0 0 0.145098 0 0 0 0 0.301961 0 0 0 0.14 0"/>
<feBlend mode="normal" in2="effect1_dropShadow" result="effect2_dropShadow"/>
<feColorMatrix in="SourceAlpha" type="matrix" values="0 0 0 0 0 0 0 0 0 0 0 0 0 0 0 0 0 0 127 0"/>
<feOffset dy="3"/>
<feGaussianBlur stdDeviation="2.5"/>
<feColorMatrix type="matrix" values="0 0 0 0 0 0 0 0 0 0.145098 0 0 0 0 0.301961 0 0 0 0.02 0"/>
<feBlend mode="normal" in2="effect2_dropShadow" result="effect3_dropShadow"/>
<feBlend mode="normal" in="SourceGraphic" in2="effect3_dropShadow" result="shape"/>
</filter>
<filter id="filter1_ddd" x="272" y="112" width="296" height="104" filterUnits="userSpaceOnUse" color-interpolation-filters="sRGB">
<feFlood flood-opacity="0" result="BackgroundImageFix"/>
<feColorMatrix in="SourceAlpha" type="matrix" values="0 0 0 0 0 0 0 0 0 0 0 0 0 0 0 0 0 0 127 0"/>
<feOffset dy="1"/>
<feGaussianBlur stdDeviation="10"/>
<feColorMatrix type="matrix" values="0 0 0 0 0 0 0 0 0 0.145098 0 0 0 0 0.301961 0 0 0 0.14 0"/>
<feBlend mode="normal" in2="BackgroundImageFix" result="effect1_dropShadow"/>
<feColorMatrix in="SourceAlpha" type="matrix" values="0 0 0 0 0 0 0 0 0 0 0 0 0 0 0 0 0 0 127 0"/>
<feOffset dy="6"/>
<feGaussianBlur stdDeviation="7"/>
<feColorMatrix type="matrix" values="0 0 0 0 0 0 0 0 0 0.145098 0 0 0 0 0.301961 0 0 0 0.14 0"/>
<feBlend mode="normal" in2="effect1_dropShadow" result="effect2_dropShadow"/>
<feColorMatrix in="SourceAlpha" type="matrix" values="0 0 0 0 0 0 0 0 0 0 0 0 0 0 0 0 0 0 127 0"/>
<feOffset dy="3"/>
<feGaussianBlur stdDeviation="2.5"/>
<feColorMatrix type="matrix" values="0 0 0 0 0 0 0 0 0 0.145098 0 0 0 0 0.301961 0 0 0 0.02 0"/>
<feBlend mode="normal" in2="effect2_dropShadow" result="effect3_dropShadow"/>
<feBlend mode="normal" in="SourceGraphic" in2="effect3_dropShadow" result="shape"/>
</filter>
<filter id="filter2_ddd" x="272" y="189" width="308" height="104" filterUnits="userSpaceOnUse" color-interpolation-filters="sRGB">
<feFlood flood-opacity="0" result="BackgroundImageFix"/>
<feColorMatrix in="SourceAlpha" type="matrix" values="0 0 0 0 0 0 0 0 0 0 0 0 0 0 0 0 0 0 127 0"/>
<feOffset dy="1"/>
<feGaussianBlur stdDeviation="10"/>
<feColorMatrix type="matrix" values="0 0 0 0 0 0 0 0 0 0.145098 0 0 0 0 0.301961 0 0 0 0.14 0"/>
<feBlend mode="normal" in2="BackgroundImageFix" result="effect1_dropShadow"/>
<feColorMatrix in="SourceAlpha" type="matrix" values="0 0 0 0 0 0 0 0 0 0 0 0 0 0 0 0 0 0 127 0"/>
<feOffset dy="6"/>
<feGaussianBlur stdDeviation="7"/>
<feColorMatrix type="matrix" values="0 0 0 0 0 0 0 0 0 0.145098 0 0 0 0 0.301961 0 0 0 0.14 0"/>
<feBlend mode="normal" in2="effect1_dropShadow" result="effect2_dropShadow"/>
<feColorMatrix in="SourceAlpha" type="matrix" values="0 0 0 0 0 0 0 0 0 0 0 0 0 0 0 0 0 0 127 0"/>
<feOffset dy="3"/>
<feGaussianBlur stdDeviation="2.5"/>
<feColorMatrix type="matrix" values="0 0 0 0 0 0 0 0 0 0.145098 0 0 0 0 0.301961 0 0 0 0.02 0"/>
<feBlend mode="normal" in2="effect2_dropShadow" result="effect3_dropShadow"/>
<feBlend mode="normal" in="SourceGraphic" in2="effect3_dropShadow" result="shape"/>
</filter>
<filter id="filter3_ddd" x="272" y="266" width="252" height="104" filterUnits="userSpaceOnUse" color-interpolation-filters="sRGB">
<feFlood flood-opacity="0" result="BackgroundImageFix"/>
<feColorMatrix in="SourceAlpha" type="matrix" values="0 0 0 0 0 0 0 0 0 0 0 0 0 0 0 0 0 0 127 0"/>
<feOffset dy="1"/>
<feGaussianBlur stdDeviation="10"/>
<feColorMatrix type="matrix" values="0 0 0 0 0 0 0 0 0 0.145098 0 0 0 0 0.301961 0 0 0 0.14 0"/>
<feBlend mode="normal" in2="BackgroundImageFix" result="effect1_dropShadow"/>
<feColorMatrix in="SourceAlpha" type="matrix" values="0 0 0 0 0 0 0 0 0 0 0 0 0 0 0 0 0 0 127 0"/>
<feOffset dy="6"/>
<feGaussianBlur stdDeviation="7"/>
<feColorMatrix type="matrix" values="0 0 0 0 0 0 0 0 0 0.145098 0 0 0 0 0.301961 0 0 0 0.14 0"/>
<feBlend mode="normal" in2="effect1_dropShadow" result="effect2_dropShadow"/>
<feColorMatrix in="SourceAlpha" type="matrix" values="0 0 0 0 0 0 0 0 0 0 0 0 0 0 0 0 0 0 127 0"/>
<feOffset dy="3"/>
<feGaussianBlur stdDeviation="2.5"/>
<feColorMatrix type="matrix" values="0 0 0 0 0 0 0 0 0 0.145098 0 0 0 0 0.301961 0 0 0 0.02 0"/>
<feBlend mode="normal" in2="effect2_dropShadow" result="effect3_dropShadow"/>
<feBlend mode="normal" in="SourceGraphic" in2="effect3_dropShadow" result="shape"/>
</filter>
<filter id="filter4_ddd" x="272" y="35" width="308" height="104" filterUnits="userSpaceOnUse" color-interpolation-filters="sRGB">
<feFlood flood-opacity="0" result="BackgroundImageFix"/>
<feColorMatrix in="SourceAlpha" type="matrix" values="0 0 0 0 0 0 0 0 0 0 0 0 0 0 0 0 0 0 127 0"/>
<feOffset dy="1"/>
<feGaussianBlur stdDeviation="10"/>
<feColorMatrix type="matrix" values="0 0 0 0 0 0 0 0 0 0.145098 0 0 0 0 0.301961 0 0 0 0.14 0"/>
<feBlend mode="normal" in2="BackgroundImageFix" result="effect1_dropShadow"/>
<feColorMatrix in="SourceAlpha" type="matrix" values="0 0 0 0 0 0 0 0 0 0 0 0 0 0 0 0 0 0 127 0"/>
<feOffset dy="6"/>
<feGaussianBlur stdDeviation="7"/>
<feColorMatrix type="matrix" values="0 0 0 0 0 0 0 0 0 0.145098 0 0 0 0 0.301961 0 0 0 0.14 0"/>
<feBlend mode="normal" in2="effect1_dropShadow" result="effect2_dropShadow"/>
<feColorMatrix in="SourceAlpha" type="matrix" values="0 0 0 0 0 0 0 0 0 0 0 0 0 0 0 0 0 0 127 0"/>
<feOffset dy="3"/>
<feGaussianBlur stdDeviation="2.5"/>
<feColorMatrix type="matrix" values="0 0 0 0 0 0 0 0 0 0.145098 0 0 0 0 0.301961 0 0 0 0.02 0"/>
<feBlend mode="normal" in2="effect2_dropShadow" result="effect3_dropShadow"/>
<feBlend mode="normal" in="SourceGraphic" in2="effect3_dropShadow" result="shape"/>
</filter>
<filter id="filter5_ddd" x="2" y="125" width="288" height="202" filterUnits="userSpaceOnUse" color-interpolation-filters="sRGB">
<feFlood flood-opacity="0" result="BackgroundImageFix"/>
<feColorMatrix in="SourceAlpha" type="matrix" values="0 0 0 0 0 0 0 0 0 0 0 0 0 0 0 0 0 0 127 0"/>
<feOffset dy="1"/>
<feGaussianBlur stdDeviation="10"/>
<feColorMatrix type="matrix" values="0 0 0 0 0 0 0 0 0 0.145098 0 0 0 0 0.301961 0 0 0 0.14 0"/>
<feBlend mode="normal" in2="BackgroundImageFix" result="effect1_dropShadow"/>
<feColorMatrix in="SourceAlpha" type="matrix" values="0 0 0 0 0 0 0 0 0 0 0 0 0 0 0 0 0 0 127 0"/>
<feOffset dy="6"/>
<feGaussianBlur stdDeviation="7"/>
<feColorMatrix type="matrix" values="0 0 0 0 0 0 0 0 0 0.145098 0 0 0 0 0.301961 0 0 0 0.14 0"/>
<feBlend mode="normal" in2="effect1_dropShadow" result="effect2_dropShadow"/>
<feColorMatrix in="SourceAlpha" type="matrix" values="0 0 0 0 0 0 0 0 0 0 0 0 0 0 0 0 0 0 127 0"/>
<feOffset dy="3"/>
<feGaussianBlur stdDeviation="2.5"/>
<feColorMatrix type="matrix" values="0 0 0 0 0 0 0 0 0 0.145098 0 0 0 0 0.301961 0 0 0 0.02 0"/>
<feBlend mode="normal" in2="effect2_dropShadow" result="effect3_dropShadow"/>
<feBlend mode="normal" in="SourceGraphic" in2="effect3_dropShadow" result="shape"/>
</filter>
<linearGradient id="paint0_linear" x1="170.5" y1="257" x2="170.5" y2="289" gradientUnits="userSpaceOnUse">
<stop stop-color="white"/>
<stop offset="1" stop-color="#F3F3F3"/>
</linearGradient>
</defs>
</svg>
