<svg width="140" height="100" viewBox="0 0 140 100" fill="none" xmlns="http://www.w3.org/2000/svg">
<path d="M10.7608 38C4.80687 38 0 42.9137 0 49C0 55.0863 4.80687 60 10.7608 60C16.7148 60 21.5217 55.0863 21.5217 49C21.5217 42.9137 16.7148 38 10.7608 38ZM14.1475 51.9594C14.1475 52.797 14.0382 53.2995 13.3281 53.6904C12.618 54.0812 11.4709 54.1929 10.7062 54.1929C10.2146 54.1929 7.42879 54.1929 7.42879 51.5685C7.42879 49.7259 8.90363 49 10.9793 48.3299C11.2524 48.2183 11.5256 48.4416 11.5256 48.7766C11.5256 48.9442 11.4163 49.1117 11.2524 49.2233C9.9961 49.6701 9.12212 50.1726 9.12212 51.401C9.12212 51.5685 9.12212 53.2437 11.0339 53.2437C12.5088 53.2437 12.5088 52.3503 12.5088 51.8477V48.8325V47.9391V46.9898C12.5088 46.264 12.5088 44.9239 11.0886 44.9239C9.9961 44.9239 9.66836 45.7614 9.50449 46.1523C9.39524 46.4873 9.23137 46.9898 8.68513 46.9898C8.41202 46.9898 7.92041 46.8223 7.92041 46.2081C7.92041 45.0355 9.34062 43.9188 11.3071 43.9188C14.0382 43.9188 14.0929 45.9848 14.0929 46.9898V51.9594H14.1475Z" fill="#00254D"/>
<path d="M31.4631 43.8628C29.4421 43.8628 27.9672 45.0354 27.9672 46.208C27.9672 46.8222 28.4588 47.0455 28.732 47.0455C29.2782 47.0455 29.4421 46.5988 29.6059 46.208C29.7698 45.8171 30.0975 44.9237 31.19 44.9237C32.6102 44.9237 32.6102 46.2638 32.6102 46.9897V47.9948C29.5513 48.8882 27.421 49.5582 27.421 51.7917C27.421 54.4719 30.2614 54.4719 30.753 54.4719C31.5724 54.4719 32.7195 54.3603 33.4296 53.9694C34.1397 53.5785 34.2489 53.076 34.2489 52.2384V47.0455C34.3036 45.9288 34.2489 43.8628 31.4631 43.8628ZM32.6649 51.9592C32.6649 52.4618 32.6649 53.411 31.1354 53.411C29.1689 53.411 29.169 51.7359 29.169 51.5684C29.169 50.0608 30.5345 49.6141 32.6102 48.944V51.9592H32.6649Z" fill="#00254D"/>
<path d="M37.7448 39.2285H36.8162C36.5431 39.2285 36.4339 39.2285 36.4339 39.5635V53.858C36.4339 54.193 36.4885 54.193 36.8162 54.193H37.7994C38.0726 54.193 38.1818 54.1371 38.1818 53.858V39.5635C38.1272 39.2844 38.0179 39.2285 37.7448 39.2285Z" fill="#00254D"/>
<path d="M41.1861 40.2896C40.5852 40.2896 40.1483 40.7363 40.1483 41.3505C40.1483 41.9088 40.5306 42.3555 41.1861 42.3555C41.8416 42.3555 42.2239 41.853 42.2239 41.2946C42.1693 40.6804 41.7323 40.2896 41.1861 40.2896Z" fill="#00254D"/>
<path d="M41.6231 44.0864H40.6399C40.3121 44.0864 40.3121 44.1981 40.3121 44.4773V53.858C40.3121 54.1372 40.3121 54.193 40.5853 54.193H41.6231C41.8962 54.193 42.0055 54.193 42.0055 53.858V44.4215C42.0055 44.1423 41.9508 44.0864 41.6231 44.0864Z" fill="#00254D"/>
<path d="M48.2326 43.8628C48.0141 43.8628 46.2115 43.8628 44.9551 44.5328C44.2997 44.8679 44.1904 45.2029 44.1904 45.9846V53.8577C44.1904 54.1927 44.2997 54.2486 44.5728 54.2486H45.5014C45.7745 54.2486 45.8837 54.1927 45.8837 53.8577V46.5988C45.8837 46.0963 45.8837 44.8679 47.9594 44.8679C50.199 44.8679 50.199 46.3196 50.199 47.2689V53.8019C50.199 54.1369 50.3082 54.1927 50.636 54.1927H51.6738C51.8923 54.1369 51.8923 53.9694 51.8923 53.8019V47.0455C51.8923 45.9288 51.8923 43.8628 48.2326 43.8628Z" fill="#00254D"/>
<path d="M57.4639 43.8628C55.4428 43.8628 53.968 45.0354 53.968 46.208C53.968 46.8222 54.4596 47.0455 54.7327 47.0455C55.279 47.0455 55.4428 46.5988 55.6067 46.208C55.7706 45.8171 56.0983 44.9237 57.1908 44.9237C58.611 44.9237 58.611 46.2638 58.611 46.9897V47.9948C55.5521 48.8882 53.4218 49.5582 53.4218 51.7917C53.4218 54.4719 56.2622 54.4719 56.7538 54.4719C57.5732 54.4719 58.7202 54.3603 59.4304 53.9694C60.1405 53.5785 60.2497 53.076 60.2497 52.2384V47.0455C60.3043 45.9288 60.3043 43.8628 57.4639 43.8628ZM58.6656 51.9592C58.6656 52.4618 58.6656 53.411 57.1362 53.411C55.1697 53.411 55.1697 51.7359 55.1697 51.5684C55.1697 50.0608 56.5353 49.6141 58.611 48.944V51.9592H58.6656Z" fill="#00254D"/>
<path d="M70.1366 43.8629C68.4432 43.8629 67.5146 44.7563 67.1869 45.0913V39.6192C67.1869 39.34 67.1323 39.2842 66.8045 39.2842H65.7667C65.4936 39.2842 65.4389 39.3959 65.4389 39.6192V53.8019C65.4389 54.0811 65.4936 54.1928 65.7667 54.1928H66.8045C67.1323 54.1928 67.1869 54.0811 67.1869 53.7461V46.1522C67.8424 45.538 68.6071 45.0354 69.4811 45.0354C70.2458 45.0354 70.9013 45.4263 71.1744 46.0405C71.4475 46.4872 71.4475 47.0456 71.4475 47.4365V53.7461C71.4475 54.137 71.5021 54.137 71.8299 54.137H72.7585C73.0862 54.137 73.1408 54.0253 73.1408 53.6903V47.2131C73.1408 46.4314 73.1408 43.8629 70.1366 43.8629Z" fill="#00254D"/>
<path d="M79.204 43.8628C76.4182 43.8628 74.8342 46.4313 74.8342 49.1674C74.8342 51.7917 76.3636 54.4161 79.204 54.4161C82.0445 54.4161 83.5739 51.6801 83.5193 49.0557C83.5193 46.8222 82.2083 43.8628 79.204 43.8628ZM79.3133 53.2435C77.9477 53.2435 76.6367 51.6242 76.6367 48.8882C76.6367 46.543 77.62 44.9237 79.0948 44.9237C80.3511 44.9237 81.6621 46.208 81.7713 48.944C81.8806 51.6242 80.7335 53.2435 79.3133 53.2435Z" fill="#00254D"/>
<path d="M94.6079 43.8628C92.6414 43.8628 91.986 44.5887 91.549 45.0354C91.2759 44.6445 90.6204 43.8628 88.7085 43.8628C87.6161 43.8628 86.3051 44.1978 85.6496 44.6445C85.2126 44.9795 85.158 45.3146 85.158 45.9846V53.8577C85.158 54.1927 85.2673 54.2486 85.4857 54.2486H86.469C86.7967 54.2486 86.8513 54.1927 86.8513 53.8577V46.9897C86.8513 46.3196 86.906 44.8679 88.7085 44.8679C90.5111 44.8679 90.5657 46.543 90.5657 47.2689V53.8577C90.5657 54.1927 90.675 54.1927 90.9481 54.1927H91.9313C92.2045 54.1927 92.2591 54.0811 92.2591 53.8019V46.9897C92.2591 46.3755 92.2591 45.8729 92.8053 45.3704C93.0238 45.2029 93.4608 44.9237 94.1163 44.9237C95.9189 44.9237 95.9735 46.4313 95.9735 47.4364V53.8019C95.9735 54.1369 96.0827 54.1927 96.3012 54.1927H97.3391C97.6122 54.1927 97.6668 54.0811 97.6668 53.8019V46.9897C97.7214 45.9288 97.7214 43.8628 94.6079 43.8628Z" fill="#00254D"/>
<path d="M107.062 50.5633C106.844 50.5633 106.789 50.675 106.516 51.1217C105.86 52.1826 105.041 52.8526 103.894 52.8526C102.419 52.8526 101.108 51.5684 100.944 48.8323L106.789 47.9389C107.007 47.8831 107.335 47.8831 107.335 47.3247C107.335 46.543 106.68 43.8628 103.675 43.8628C101.327 43.8628 100.343 45.5938 100.125 46.0405C99.7425 46.7663 99.4694 47.7714 99.4694 49.1674C99.4694 50.0608 99.5786 51.1775 100.07 52.1826C100.944 53.9694 102.474 54.4719 103.621 54.4719C106.625 54.4719 107.444 51.5684 107.444 51.0658C107.444 50.6191 107.171 50.5633 107.062 50.5633ZM103.402 44.9795C104.495 44.9795 105.314 45.9288 105.423 47.1572L100.835 47.8831C101.053 46.1521 101.873 44.9795 103.402 44.9795Z" fill="#00254D"/>
<path d="M115.747 50.7308C115.529 50.7308 115.419 50.8425 115.201 51.2892C114.873 51.7917 114.272 52.8526 112.907 52.8526C111.487 52.8526 110.066 51.4567 110.066 48.609C110.066 46.2638 111.213 44.9795 112.524 44.9795C113.671 44.9795 114.054 45.7613 114.436 46.5988C114.6 46.9339 114.873 47.1572 115.256 47.1572C115.529 47.1572 116.02 46.9897 116.02 46.3196C116.02 45.5379 114.928 43.8628 112.743 43.8628C110.012 43.8628 108.482 46.1521 108.482 49.279C108.482 52.2384 109.957 54.4719 112.524 54.4719C115.146 54.4719 116.13 52.1268 116.13 51.2892C116.184 50.7867 115.856 50.7308 115.747 50.7308Z" fill="#00254D"/>
<path d="M121.373 43.8628C119.352 43.8628 117.878 45.0354 117.878 46.208C117.878 46.8222 118.369 47.0455 118.642 47.0455C119.188 47.0455 119.352 46.5988 119.516 46.208C119.68 45.8171 120.008 44.9237 121.1 44.9237C122.52 44.9237 122.52 46.2638 122.52 46.9897V47.9948C119.462 48.8882 117.331 49.5582 117.331 51.7917C117.331 54.4719 120.172 54.4719 120.663 54.4719C121.483 54.4719 122.63 54.3603 123.34 53.9694C124.05 53.5785 124.159 53.076 124.159 52.2384V47.0455C124.214 45.9288 124.159 43.8628 121.373 43.8628ZM122.575 51.9592C122.575 52.4618 122.575 53.411 121.046 53.411C119.079 53.411 119.079 51.7359 119.079 51.5684C119.079 50.0608 120.445 49.6141 122.52 48.944V51.9592H122.575Z" fill="#00254D"/>
<path d="M129.785 43.8628C128.529 43.8628 127.327 44.1978 126.726 44.5328C126.289 44.812 126.235 45.0354 126.235 45.7054V53.8577C126.235 54.1927 126.344 54.1927 126.617 54.1927H127.6C127.819 54.1927 127.928 54.1927 127.928 53.8577V46.1521C127.928 45.6496 127.983 44.812 129.075 44.812C129.622 44.812 129.895 45.0354 130.113 45.3146C130.441 45.7054 130.55 45.8171 130.932 45.8171C131.424 45.8171 131.697 45.4262 131.697 44.9795C131.752 44.0303 130.714 43.8628 129.785 43.8628Z" fill="#00254D"/>
<path d="M139.618 50.5633C139.399 50.5633 139.344 50.675 139.071 51.1217C138.416 52.1826 137.597 52.8526 136.449 52.8526C134.975 52.8526 133.664 51.5684 133.5 48.8323L139.344 47.9389C139.563 47.8831 139.891 47.8831 139.891 47.3247C139.891 46.543 139.235 43.8628 136.231 43.8628C133.882 43.8628 132.899 45.5938 132.68 46.0405C132.298 46.7663 132.025 47.7714 132.025 49.1674C132.025 50.0608 132.134 51.1775 132.626 52.1826C133.5 53.9694 135.029 54.4719 136.176 54.4719C139.181 54.4719 140 51.5684 140 51.0658C140 50.6191 139.727 50.5633 139.618 50.5633ZM135.958 44.9795C137.05 44.9795 137.87 45.9288 137.979 47.1572L133.391 47.8831C133.609 46.1521 134.428 44.9795 135.958 44.9795Z" fill="#00254D"/>
</svg>
