<svg width="140" height="100" viewBox="0 0 140 100" fill="none" xmlns="http://www.w3.org/2000/svg">
<g clip-path="url(#clip0)">
<path d="M31.1022 66.138C31.1022 67.6624 31.1022 68.9397 31.1854 69.5989C31.227 70.0521 31.3102 70.423 31.8092 70.4642C32.0172 70.5054 32.3915 70.5466 32.5162 70.5466C32.5994 70.5466 32.641 70.5878 32.641 70.629C32.641 70.7114 32.5578 70.7526 32.3915 70.7526C31.5181 70.7526 30.4784 70.7114 30.3952 70.7114C30.312 70.7114 29.3139 70.7526 28.8149 70.7526C28.6485 70.7526 28.5653 70.7114 28.5653 70.629C28.5653 70.5878 28.6069 70.5466 28.6901 70.5466C28.8149 70.5466 29.0228 70.5054 29.1892 70.4642C29.5219 70.3818 29.605 70.0521 29.6466 69.5989C29.7298 68.9397 29.7298 67.6624 29.7298 66.138V64.4487C29.7298 64.3663 29.6882 64.3663 29.6466 64.3663H22.8261C22.7845 64.3663 22.743 64.3663 22.743 64.4487V66.138C22.743 67.6624 22.743 68.9397 22.8261 69.5989C22.8677 70.0521 22.9509 70.423 23.45 70.4642C23.6579 70.5054 24.0322 70.5466 24.157 70.5466C24.2401 70.5466 24.2817 70.5878 24.2817 70.629C24.2817 70.7114 24.1986 70.7526 24.0322 70.7526C23.1588 70.7526 22.1191 70.7114 22.036 70.7114C21.9528 70.7114 20.9547 70.7526 20.4556 70.7526C20.2892 70.7526 20.2061 70.7114 20.2061 70.629C20.2061 70.5878 20.2477 70.5466 20.3308 70.5466C20.4556 70.5466 20.6635 70.5054 20.8299 70.4642C21.1626 70.3818 21.2458 70.0521 21.2874 69.5989C21.3705 68.9397 21.3705 67.6624 21.3705 66.138V63.3363C21.3705 60.8642 21.3705 60.411 21.329 59.8753C21.2874 59.3397 21.1626 59.0925 20.622 58.9689C20.4972 58.9277 20.2061 58.9277 20.0813 58.9277C19.9981 58.9277 19.9565 58.8865 19.9565 58.8453C19.9565 58.7629 20.0397 58.7217 20.2061 58.7217C20.9131 58.7217 21.9528 58.7629 22.036 58.7629C22.1191 58.7629 23.1173 58.7217 23.6163 58.7217C23.7827 58.7217 23.8658 58.7629 23.8658 58.8453C23.8658 58.9277 23.7827 58.9277 23.7411 58.9277C23.6163 58.9277 23.5331 58.9277 23.3252 58.9689C22.9093 59.0513 22.743 59.3397 22.743 59.8753C22.743 60.3697 22.743 60.823 22.743 63.3363V63.6659C22.743 63.7483 22.7845 63.7483 22.8261 63.7483H29.6466C29.6882 63.7483 29.7298 63.7483 29.7298 63.6659V63.3363C29.7298 60.8642 29.7298 60.411 29.6882 59.8753C29.6466 59.3397 29.5219 59.0925 28.9812 58.9689C28.8564 58.9277 28.5653 58.9277 28.4406 58.9277C28.3574 58.9277 28.3158 58.8865 28.3158 58.8453C28.3158 58.7629 28.399 58.7217 28.5653 58.7217C29.2723 58.7217 30.312 58.7629 30.3952 58.7629C30.4784 58.7629 31.4765 58.7217 31.9756 58.7217C32.1419 58.7217 32.2251 58.7629 32.2251 58.8453C32.2251 58.9277 32.1419 58.9277 32.1003 58.9277C31.9756 58.9277 31.8924 58.9277 31.6845 58.9689C31.2686 59.0513 31.1022 59.3397 31.1022 59.8753C31.0606 60.3697 31.0606 60.823 31.0606 63.3363V66.138H31.1022Z" fill="#00254D"/>
<path d="M40.9587 58.4746C44.5768 58.4746 47.2801 60.7407 47.2801 64.4489C47.2801 68.0334 44.7432 70.9587 40.8339 70.9587C36.4255 70.9587 34.5956 67.5802 34.5956 64.6961C34.5956 62.1416 36.5087 58.4746 40.9587 58.4746ZM41.2914 70.3819C42.747 70.3819 45.7413 69.5579 45.7413 64.9021C45.7413 61.0703 43.3708 59.0102 40.8339 59.0102C38.1307 59.0102 36.1344 60.7819 36.1344 64.2428C36.1344 67.9922 38.3802 70.3819 41.2914 70.3819Z" fill="#00254D"/>
<path d="M63.0005 68.6926C63.0836 69.2695 63.1668 70.1759 63.8738 70.3819C64.3313 70.5055 64.7472 70.5055 64.9135 70.5055C64.9967 70.5055 65.0383 70.5055 65.0383 70.5879C65.0383 70.6703 64.9135 70.7115 64.7056 70.7115C64.3313 70.7115 62.6262 70.6703 62.0023 70.6291C61.628 70.5879 61.5449 70.5467 61.5449 70.4643C61.5449 70.3819 61.5865 70.3819 61.6696 70.3407C61.7528 70.3407 61.7528 70.0523 61.7528 69.7639L60.9626 61.5235H60.921L56.9702 69.8051C56.6374 70.5055 56.5959 70.6703 56.4295 70.6703C56.3047 70.6703 56.2216 70.5055 55.9304 69.9287C55.5146 69.1459 54.1421 66.3853 54.059 66.2205C53.9342 65.9321 52.1043 62.1004 51.938 61.6883H51.8548L51.231 69.1047C51.231 69.3519 51.231 69.6403 51.231 69.9287C51.231 70.1759 51.3973 70.3819 51.6468 70.4231C51.938 70.5055 52.1459 70.5055 52.2707 70.5055C52.3538 70.5055 52.3954 70.5467 52.3954 70.5879C52.3954 70.7115 52.3123 70.7115 52.1043 70.7115C51.5221 70.7115 50.7319 70.6703 50.6071 70.6703C50.4824 70.6703 49.6922 70.7115 49.2347 70.7115C49.0684 70.7115 48.9436 70.6703 48.9436 70.5879C48.9436 70.5467 49.0268 70.5055 49.11 70.5055C49.2347 70.5055 49.3595 70.5055 49.609 70.4643C50.1497 70.3819 50.1913 69.7639 50.2328 69.1459L51.3973 58.763C51.3973 58.5982 51.4805 58.4746 51.5637 58.4746C51.6468 58.4746 51.73 58.557 51.8132 58.7218L56.7622 68.7338L61.5033 58.7218C61.5865 58.5982 61.6281 58.4746 61.7528 58.4746C61.8776 58.4746 61.9192 58.5982 61.9608 58.8866L63.0005 68.6926Z" fill="#00254D"/>
<path d="M67.9079 63.3363C67.9079 60.8642 67.9079 60.411 67.8663 59.8754C67.8247 59.3398 67.7 59.0926 67.1593 58.969C67.0345 58.9278 66.7434 58.9278 66.6187 58.9278C66.5355 58.9278 66.4939 58.8866 66.4939 58.8454C66.4939 58.763 66.5771 58.7217 66.7434 58.7217C67.1177 58.7217 67.5336 58.7217 67.9079 58.7217L68.5733 58.763C68.6981 58.763 71.9004 58.763 72.2747 58.763C72.5658 58.763 72.8569 58.7217 72.9817 58.6805C73.0649 58.6805 73.1064 58.5981 73.1896 58.5981C73.2312 58.5981 73.2728 58.6805 73.2728 58.7217C73.2728 58.8454 73.1896 59.0102 73.148 59.4634C73.148 59.6282 73.1064 60.3286 73.0648 60.5346C73.0648 60.617 73.0233 60.6994 72.9401 60.6994C72.8569 60.6994 72.8153 60.617 72.8153 60.4934C72.8153 60.3698 72.8153 60.1226 72.7321 59.9166C72.6074 59.6694 72.441 59.4634 71.5677 59.381C71.2766 59.3398 69.5298 59.3398 69.3635 59.3398C69.2803 59.3398 69.2803 59.381 69.2803 59.5046V63.9132C69.2803 64.0368 69.2803 64.078 69.3635 64.078C69.5714 64.078 71.5677 64.078 71.942 64.0368C72.3163 63.9956 72.5658 63.9544 72.6906 63.8308C72.8153 63.7072 72.8569 63.6248 72.9401 63.6248C72.9817 63.6248 73.0233 63.666 73.0233 63.7484C73.0233 63.8308 72.9401 64.1192 72.8985 64.6548C72.8569 64.9844 72.8153 65.5612 72.8153 65.6848C72.8153 65.8084 72.8153 65.9733 72.6906 65.9733C72.6074 65.9733 72.5658 65.8909 72.5658 65.8496C72.5658 65.6848 72.5658 65.52 72.4826 65.314C72.3994 65.108 72.2747 64.8196 71.6508 64.7372C71.235 64.696 69.613 64.6548 69.3635 64.6548C69.2803 64.6548 69.2387 64.696 69.2387 64.7784V66.1793C69.2387 66.7149 69.2387 68.569 69.2387 68.8986C69.2803 70.011 69.5298 70.217 71.1102 70.217C71.5261 70.217 72.2331 70.217 72.649 70.0522C73.0648 69.8874 73.2728 69.5578 73.356 68.8986C73.3976 68.7338 73.4391 68.6514 73.4807 68.6514C73.5639 68.6514 73.5639 68.775 73.5639 68.8986C73.5639 69.0222 73.4391 70.0934 73.356 70.4642C73.2312 70.8763 73.1064 70.8763 72.4826 70.8763C71.2766 70.8763 70.4032 70.8351 69.7794 70.8351C69.1555 70.7939 68.7813 70.7939 68.5317 70.7939C68.4901 70.7939 68.2406 70.7939 67.9079 70.7939C67.5752 70.7939 67.2009 70.8351 66.993 70.8351C66.8266 70.8351 66.7434 70.7939 66.7434 70.7115C66.7434 70.6703 66.785 70.629 66.8682 70.629C66.993 70.629 67.2009 70.5878 67.3673 70.5466C67.7 70.4642 67.7831 70.1346 67.8247 69.6814C67.9079 69.0222 67.9079 67.7449 67.9079 66.2205V63.3363V63.3363Z" fill="#00254D"/>
<path d="M77.8475 69.2695C76.2672 67.8686 75.8929 66.0557 75.8929 64.5313C75.8929 63.46 76.2672 61.6059 77.6812 60.1639C78.6377 59.2162 80.0933 58.4746 82.5886 58.4746C83.2124 58.4746 84.1274 58.5158 84.9175 58.6806C85.5414 58.8042 86.0404 58.8866 86.5811 58.9278C86.7474 58.9278 86.789 59.0102 86.789 59.0926C86.789 59.2162 86.7474 59.4223 86.7058 59.9991C86.6643 60.5347 86.6643 61.3999 86.6643 61.6471C86.6643 61.8944 86.6227 61.9768 86.5395 61.9768C86.4147 61.9768 86.4147 61.8531 86.4147 61.6471C86.4147 61.0291 86.1652 60.3699 85.7493 59.9991C85.1671 59.5047 83.961 59.0926 82.547 59.0926C80.3844 59.0926 79.3863 59.7107 78.8456 60.2463C77.6812 61.3587 77.3901 62.8008 77.3901 64.4077C77.3901 67.4566 79.7606 70.2583 83.2124 70.2583C84.4185 70.2583 85.375 70.1347 85.9988 69.4755C86.3316 69.1046 86.5395 68.4042 86.5811 68.1158C86.6227 67.951 86.6643 67.8686 86.7474 67.8686C86.8306 67.8686 86.8722 67.9922 86.8722 68.1158C86.8722 68.2394 86.6643 69.5991 86.4979 70.1759C86.4147 70.4643 86.3731 70.5055 86.082 70.6291C85.4582 70.8763 84.2105 70.9999 83.1708 70.9999C80.7587 70.9999 79.1368 70.3819 77.8475 69.2695Z" fill="#00254D"/>
<path d="M93.0272 59.0926C93.2352 58.557 93.2768 58.4746 93.4015 58.4746C93.5263 58.4746 93.5679 58.557 93.7758 59.0514C94.0254 59.6695 96.5623 66.2617 97.5188 68.6926C98.101 70.0935 98.5585 70.3819 98.8912 70.4643C99.1407 70.5467 99.3903 70.5467 99.515 70.5467C99.5982 70.5467 99.6814 70.5467 99.6814 70.6291C99.6814 70.7115 99.5566 70.7527 99.3487 70.7527C99.0991 70.7527 97.9347 70.7527 96.8118 70.7115C96.5207 70.7115 96.3127 70.7115 96.3127 70.5879C96.3127 70.5055 96.3543 70.5055 96.4375 70.4643C96.5207 70.4231 96.6454 70.2995 96.5207 70.0523L95.0235 66.1381C94.9819 66.0557 94.9403 66.0557 94.8987 66.0557H91.4469C91.3637 66.0557 91.3221 66.0969 91.2805 66.1793L90.324 69.0222C90.1992 69.4343 90.1161 69.8051 90.1161 70.0935C90.1161 70.4231 90.4488 70.5467 90.7399 70.5467H90.9062C91.031 70.5467 91.0726 70.5879 91.0726 70.6291C91.0726 70.7115 90.9894 70.7527 90.8231 70.7527C90.4488 70.7527 89.7418 70.7115 89.5754 70.7115C89.4091 70.7115 88.4941 70.7527 87.7455 70.7527C87.5376 70.7527 87.4544 70.7115 87.4544 70.6291C87.4544 70.5467 87.5376 70.5467 87.5792 70.5467C87.7039 70.5467 87.9119 70.5467 88.0366 70.5055C88.7852 70.4231 89.1179 69.8051 89.4091 69.0222L93.0272 59.0926ZM94.7324 65.4789C94.8155 65.4789 94.8155 65.4377 94.8155 65.3553L93.2768 61.0291C93.1936 60.7819 93.1104 60.7819 93.0272 61.0291L91.6132 65.3553C91.5717 65.4377 91.6132 65.4789 91.6548 65.4789H94.7324Z" fill="#00254D"/>
<path d="M102.01 63.3363C102.01 60.8642 102.01 60.411 101.969 59.8753C101.927 59.3397 101.802 59.0925 101.262 58.9689C101.137 58.9277 100.846 58.9277 100.721 58.9277C100.638 58.9277 100.596 58.8865 100.596 58.8453C100.596 58.7629 100.679 58.7217 100.846 58.7217C101.553 58.7217 102.593 58.7629 102.676 58.7629C102.842 58.7629 104.09 58.7217 104.589 58.7217C105.587 58.7217 106.668 58.8041 107.542 59.4221C107.957 59.7105 108.664 60.4934 108.664 61.6058C108.664 62.8006 108.165 63.9543 106.71 65.2728C108.041 66.962 109.122 68.3629 110.078 69.3517C110.952 70.2582 111.659 70.423 112.033 70.5054C112.324 70.5466 112.574 70.5466 112.657 70.5466C112.74 70.5466 112.782 70.5878 112.782 70.629C112.782 70.7114 112.699 70.7526 112.407 70.7526H111.243C110.328 70.7526 109.954 70.6702 109.538 70.4642C108.831 70.0933 108.29 69.3105 107.375 68.1157C106.71 67.2504 105.961 66.1792 105.629 65.7672C105.545 65.6848 105.504 65.6848 105.421 65.6848L103.424 65.6436C103.341 65.6436 103.3 65.6848 103.3 65.7672V66.138C103.3 67.6624 103.3 68.9397 103.383 69.5989C103.424 70.0521 103.507 70.423 104.007 70.4642C104.214 70.5054 104.589 70.5466 104.714 70.5466C104.797 70.5466 104.838 70.5878 104.838 70.629C104.838 70.7114 104.755 70.7526 104.589 70.7526C103.715 70.7526 102.676 70.7114 102.593 70.7114C102.593 70.7114 101.553 70.7526 101.095 70.7526C100.929 70.7526 100.846 70.7114 100.846 70.629C100.846 70.5878 100.887 70.5466 100.971 70.5466C101.095 70.5466 101.303 70.5054 101.47 70.4642C101.802 70.3818 101.886 70.0521 101.927 69.5989C102.01 68.9397 102.01 67.6624 102.01 66.138V63.3363V63.3363ZM103.3 64.6959C103.3 64.7783 103.341 64.8195 103.424 64.9019C103.674 65.0255 104.422 65.1491 105.129 65.1491C105.504 65.1491 105.961 65.1079 106.336 64.8607C106.918 64.4899 107.334 63.6247 107.334 62.3886C107.334 60.411 106.252 59.2161 104.547 59.2161C104.048 59.2161 103.632 59.2573 103.466 59.2985C103.383 59.3397 103.341 59.3809 103.341 59.5045V64.6959H103.3Z" fill="#00254D"/>
<path d="M114.154 63.3363C114.154 60.8642 114.154 60.411 114.113 59.8754C114.071 59.3398 113.946 59.0926 113.406 58.969C113.281 58.9278 112.99 58.9278 112.865 58.9278C112.782 58.9278 112.74 58.8866 112.74 58.8454C112.74 58.763 112.823 58.7217 112.99 58.7217C113.364 58.7217 113.78 58.7217 114.154 58.7217L114.82 58.763C114.944 58.763 118.147 58.763 118.521 58.763C118.812 58.763 119.103 58.7217 119.228 58.6805C119.311 58.6805 119.353 58.5981 119.436 58.5981C119.477 58.5981 119.519 58.6805 119.519 58.7217C119.519 58.8454 119.436 59.0102 119.394 59.4634C119.394 59.6282 119.353 60.3286 119.311 60.5346C119.311 60.617 119.269 60.6994 119.186 60.6994C119.103 60.6994 119.062 60.617 119.062 60.4934C119.062 60.3698 119.062 60.1226 118.978 59.9166C118.854 59.6694 118.687 59.4634 117.855 59.381C117.564 59.3398 115.818 59.3398 115.651 59.3398C115.568 59.3398 115.568 59.381 115.568 59.5046V63.9132C115.568 64.0368 115.568 64.078 115.651 64.078C115.859 64.078 117.855 64.078 118.23 64.0368C118.604 63.9956 118.854 63.9544 118.978 63.8308C119.103 63.7072 119.145 63.6248 119.228 63.6248C119.269 63.6248 119.311 63.666 119.311 63.7484C119.311 63.8308 119.228 64.1192 119.186 64.6548C119.145 64.9844 119.103 65.5612 119.103 65.6848C119.103 65.8084 119.103 65.9733 118.978 65.9733C118.895 65.9733 118.854 65.8909 118.854 65.8496C118.854 65.6848 118.854 65.52 118.77 65.314C118.687 65.108 118.562 64.8196 117.939 64.7372C117.523 64.696 115.901 64.6548 115.651 64.6548C115.568 64.6548 115.527 64.696 115.527 64.7784V66.1793C115.527 66.7149 115.527 68.569 115.527 68.8986C115.568 70.011 115.818 70.217 117.398 70.217C117.814 70.217 118.521 70.217 118.937 70.0522C119.353 69.8874 119.561 69.5578 119.644 68.8986C119.685 68.7338 119.727 68.6514 119.769 68.6514C119.852 68.6514 119.852 68.775 119.852 68.8986C119.852 69.0222 119.727 70.0934 119.644 70.4642C119.519 70.8763 119.394 70.8763 118.77 70.8763C117.564 70.8763 116.691 70.8351 116.067 70.8351C115.443 70.7939 115.069 70.7939 114.82 70.7939C114.778 70.7939 114.528 70.7939 114.196 70.7939C113.863 70.7939 113.489 70.8351 113.281 70.8351C113.114 70.8351 113.031 70.7939 113.031 70.7115C113.031 70.6703 113.073 70.629 113.156 70.629C113.281 70.629 113.489 70.5878 113.655 70.5466C113.988 70.4642 114.071 70.1346 114.113 69.6814C114.196 69.0222 114.196 67.7449 114.196 66.2205V63.3363H114.154Z" fill="#00254D"/>
<path d="M26.6107 46.8147C26.4859 46.8147 26.4027 46.8559 26.3611 47.0207L24.8224 51.0584C24.5312 51.7589 24.4065 52.4593 24.4065 52.7889C24.4065 53.2833 24.656 53.6541 25.5294 53.6541H25.9452C26.2779 53.6541 26.3611 53.6953 26.3611 53.8601C26.3611 54.0662 26.1948 54.1486 25.8621 54.1486C24.9471 54.1486 23.7411 54.0662 22.8261 54.0662C22.4934 54.0662 20.9546 54.1486 19.4575 54.1486C19.0832 54.1486 18.9168 54.1074 18.9168 53.8601C18.9168 53.6953 19.0416 53.6541 19.2495 53.6541C19.499 53.6541 19.9149 53.6129 20.1229 53.6129C21.4121 53.4481 21.9943 52.5005 22.535 51.0584L29.6882 33.3417C30.0209 32.5177 30.1872 32.2292 30.4784 32.2292C30.7279 32.2292 30.8943 32.4765 31.1854 33.1357C31.8508 34.7014 36.4255 46.1966 38.2554 50.4816C39.3367 53.0361 40.1685 53.4069 40.7507 53.5717C41.1666 53.6541 41.624 53.6953 41.9567 53.6953C42.1647 53.6953 42.331 53.7365 42.331 53.9013C42.331 54.1074 42.0815 54.1898 41.0418 54.1898C40.0021 54.1898 37.9227 54.1898 35.6769 54.1486C35.1778 54.1074 34.8036 54.1074 34.8036 53.9425C34.8036 53.7777 34.9283 53.7365 35.2194 53.6953C35.4274 53.6541 35.6353 53.3657 35.469 53.0361L33.1816 47.0619C33.14 46.9383 33.0568 46.8559 32.8905 46.8559H26.6107V46.8147ZM32.433 45.3726C32.5578 45.3726 32.5994 45.2902 32.5578 45.2078L30.0209 38.2447C29.9793 38.1211 29.9793 37.9975 29.8961 37.9975C29.813 37.9975 29.7714 38.1211 29.7298 38.2447L27.1097 45.1666C27.0681 45.2902 27.1097 45.3726 27.2345 45.3726H32.433Z" fill="#00254D"/>
<path d="M43.5787 53.819C43.1212 53.613 43.038 53.4894 43.038 52.8713C43.038 51.3057 43.1628 49.6164 43.1628 49.1632C43.2044 48.7512 43.2876 48.4216 43.4955 48.4216C43.745 48.4216 43.7866 48.6688 43.7866 48.916C43.7866 49.2868 43.9114 49.8636 44.0361 50.358C44.66 52.4593 46.3235 53.201 48.1118 53.201C50.6903 53.201 51.9379 51.4705 51.9379 49.9872C51.9379 48.5864 51.522 47.3091 49.1515 45.455L47.8623 44.425C44.7431 41.9941 43.6619 40.0164 43.6619 37.7503C43.6619 34.6602 46.2819 32.4353 50.2328 32.4353C52.1043 32.4353 53.2688 32.7237 54.0173 32.9297C54.2669 32.9709 54.4332 33.0533 54.4332 33.2593C54.4332 33.6302 54.3085 34.4542 54.3085 36.6379C54.3085 37.2559 54.2253 37.5031 53.9758 37.5031C53.7678 37.5031 53.6846 37.3383 53.6846 37.0087C53.6846 36.7615 53.5599 35.8962 52.9361 35.1546C52.5202 34.619 51.6884 33.7538 49.8169 33.7538C47.6959 33.7538 46.4483 34.9486 46.4483 36.6791C46.4483 37.9563 47.1137 38.9452 49.4842 40.758L50.2744 41.3349C53.7262 43.8894 54.9323 45.8671 54.9323 48.5452C54.9323 50.1932 54.3085 52.1297 52.2706 53.4482C50.8566 54.3546 49.2347 54.6018 47.7375 54.6018C46.074 54.5606 44.7847 54.3546 43.5787 53.819Z" fill="#00254D"/>
<path d="M64.456 34.413L60.214 34.5366C58.5505 34.5778 57.8851 34.7426 57.4692 35.3606C57.1781 35.7726 57.0533 36.1023 56.9701 36.3495C56.9285 36.5555 56.8453 36.6791 56.6374 36.6791C56.4295 36.6791 56.3879 36.5555 56.3879 36.2259C56.3879 35.7726 56.9285 33.2181 56.9701 32.9709C57.0533 32.6001 57.1365 32.4353 57.3028 32.4353C57.5108 32.4353 57.8019 32.7237 58.5089 32.7649C59.3406 32.8473 60.4219 32.8885 61.3369 32.8885H72.6073C73.5223 32.8885 74.1461 32.8061 74.562 32.7649C74.9779 32.6825 75.2274 32.6413 75.3106 32.6413C75.5185 32.6413 75.5185 32.8061 75.5185 33.2181C75.5185 33.795 75.4353 35.7726 75.4353 36.4731C75.3937 36.7615 75.3522 36.9263 75.1858 36.9263C74.9779 36.9263 74.8947 36.8027 74.8531 36.3495L74.8115 36.0199C74.7699 35.2782 73.9797 34.4954 71.4429 34.4542L67.8663 34.3718V45.9495C67.8663 48.5452 67.8663 50.7701 67.991 52.0061C68.0742 52.7889 68.2406 53.407 69.1139 53.5306C69.5298 53.5718 70.1536 53.6542 70.5695 53.6542C70.9022 53.6542 71.027 53.7366 71.027 53.8602C71.027 54.0662 70.819 54.1486 70.4863 54.1486C68.6148 54.1486 66.8265 54.0662 66.0364 54.0662C65.371 54.0662 63.5827 54.1486 62.4598 54.1486C62.0855 54.1486 61.8775 54.0662 61.8775 53.8602C61.8775 53.7366 62.0023 53.6542 62.335 53.6542C62.7509 53.6542 63.0836 53.613 63.3747 53.5306C63.957 53.407 64.1233 52.7889 64.2065 51.9649C64.3312 50.7701 64.3312 48.5452 64.3312 45.9495V34.413H64.456Z" fill="#00254D"/>
<path d="M100.846 41.0051C100.846 36.7201 100.846 35.9373 100.804 35.0309C100.763 34.0832 100.513 33.63 99.5982 33.424C99.3903 33.3828 98.8912 33.3416 98.4753 33.3416C98.1426 33.3416 97.9763 33.3004 97.9763 33.0944C97.9763 32.8884 98.1842 32.8472 98.6001 32.8472C100.097 32.8472 101.886 32.9296 102.509 32.9296C103.466 32.9296 105.629 32.8472 106.543 32.8472C108.332 32.8472 110.245 33.012 111.784 34.042C112.574 34.5776 113.738 36.0197 113.738 37.915C113.738 40.0163 112.865 41.9115 109.995 44.2188C112.532 47.3914 114.487 49.9047 116.192 51.6351C117.772 53.2832 118.937 53.4892 119.394 53.5716C119.727 53.6128 119.976 53.654 120.184 53.654C120.392 53.654 120.517 53.7364 120.517 53.86C120.517 54.066 120.309 54.1485 119.976 54.1485H117.273C115.693 54.1485 114.986 54.0248 114.237 53.6128C113.031 52.9536 111.95 51.6351 110.328 49.4515C109.205 47.8858 107.874 45.9905 107.5 45.5785C107.375 45.4137 107.167 45.3725 107.001 45.3725L104.506 45.3313C104.381 45.3313 104.298 45.3725 104.298 45.5373V45.9493C104.298 48.5862 104.298 50.8111 104.422 52.006C104.506 52.83 104.672 53.448 105.545 53.5716C105.961 53.6128 106.585 53.6952 106.959 53.6952C107.167 53.6952 107.292 53.7776 107.292 53.9012C107.292 54.1073 107.084 54.1897 106.71 54.1897C105.046 54.1897 102.967 54.1073 102.509 54.1073C101.969 54.1073 100.18 54.1897 99.016 54.1897C98.6417 54.1897 98.4337 54.1073 98.4337 53.9012C98.4337 53.7776 98.5585 53.6952 98.8912 53.6952C99.3071 53.6952 99.6398 53.654 99.9309 53.5716C100.513 53.448 100.638 52.83 100.763 52.006C100.887 50.8111 100.887 48.5862 100.887 45.9905V41.0051H100.846ZM104.173 43.23C104.173 43.5596 104.215 43.642 104.422 43.7244C105.005 43.9304 105.878 44.0128 106.585 44.0128C107.708 44.0128 108.082 43.8892 108.623 43.5184C109.496 42.9004 110.286 41.5819 110.286 39.2746C110.286 35.2781 107.625 34.1244 105.92 34.1244C105.213 34.1244 104.714 34.1656 104.422 34.248C104.215 34.2892 104.173 34.4128 104.173 34.66V43.23Z" fill="#00254D"/>
<path d="M86.3731 32.6411C86.3731 32.6411 80.8003 29.0566 65.6621 31.7347C65.2046 31.8171 77.2652 32.3115 79.0535 39.1922C78.097 45.0429 75.269 56.7853 74.8115 57.6094C77.0573 54.7253 85.4582 42.7768 86.4147 42.3235" fill="#00254D"/>
<path d="M86.3731 32.6411C86.3731 32.6411 91.9459 29.0566 107.084 31.7347C107.542 31.8171 95.4809 32.3115 93.6926 39.1922C94.6492 45.0429 97.4772 56.7853 97.9346 57.6094C95.6889 54.7253 87.288 42.7768 86.3315 42.3235" fill="#00254D"/>
<path d="M86.4147 31.2403C88.7115 31.2403 90.5735 29.3957 90.5735 27.1202C90.5735 24.8447 88.7115 23 86.4147 23C84.1178 23 82.2559 24.8447 82.2559 27.1202C82.2559 29.3957 84.1178 31.2403 86.4147 31.2403Z" fill="#00254D"/>
</g>
<defs>
<clipPath id="clip0">
<rect width="101.434" height="48" fill="white" transform="translate(19 23)"/>
</clipPath>
</defs>
</svg>
