<svg width="38" height="43" viewBox="0 0 38 43" fill="none" xmlns="http://www.w3.org/2000/svg">
<path d="M2.94324 33.7827C7.11994 42.2003 17.9872 45.4429 27.2174 41.0247C36.4459 36.6065 40.5404 26.2027 36.3637 17.7851C32.187 9.36751 16.5316 -3.52039 7.30316 0.897793C-1.9253 5.31598 -1.23346 25.3651 2.94324 33.7827V33.7827Z" fill="#FF4F4E"/>
<path d="M31.6637 32H7V10.3541C7 10.1593 7.15134 10 7.33632 10C7.52129 10 7.67263 10.1593 7.67263 10.3541V31.2919H31.6637C31.8487 31.2919 32 31.4512 32 31.6459C32 31.8407 31.8487 32 31.6637 32Z" fill="#F5D6D6"/>
<path d="M14 15H11V32H14V15Z" fill="#F5D6D6"/>
<path d="M19 19H16V32H19V19Z" fill="#F5D6D6"/>
<path d="M24 17H21V32H24V17Z" fill="#F5D6D6"/>
<path d="M29 24H26V32H29V24Z" fill="#F5D6D6"/>
</svg>
