<svg width="1125" height="363" viewBox="0 0 1125 363" fill="none" xmlns="http://www.w3.org/2000/svg">
<path d="M457.718 345.349C722.841 375.892 984.837 359.096 1080.76 243.168C1257.34 -2.38957 725.362 78.4169 661.255 78.2665C597.148 78.1162 495.529 74.6327 268.965 104.233C-39.7191 144.562 -8.62053 139.987 31.91 175.788C111.989 261.278 200.973 315.771 457.718 345.349Z" fill="#EBFFF7"/>
<path d="M618.774 14.4718C360.441 0.886963 106.373 -13.6794 24.2095 104.542C-123.6 352.727 487.251 318.516 373.33 211.529C259.409 104.542 452.704 129.361 837.421 162.888C1145.19 189.709 1134.59 135.166 1090.81 104.542C1042.68 73.6718 877.106 28.0567 618.774 14.4718Z" fill="#A6FAE8"/>
</svg>
