<svg width="79" height="70" viewBox="0 0 79 70" fill="none" xmlns="http://www.w3.org/2000/svg">
<ellipse cx="20.5" cy="56.5" rx="14.5" ry="13.5" fill="#B6E5E5"/>
<ellipse cx="57.294" cy="25.5086" rx="10.5" ry="23.5" transform="rotate(31.7481 57.294 25.5086)" fill="#B6E5E5"/>
<path d="M17.6141 38C14.139 38.0402 11.6315 38.0404 8.90534 40.0511C7.26924 41.2579 4.34964 43.3511 3.49793 45.179C2.1843 47.9982 1.16424 53.4761 2.98565 56.1903C7.04884 62.2452 16.4868 61.9985 22.2246 58.6733C28.7121 54.9137 29.4136 48.8137 25.9245 42.8579C23.2318 38.2618 18.0074 38.1807 13.0036 38.9716" stroke="#00254D" stroke-width="3" stroke-linecap="round"/>
<path d="M22 40C16.4551 45.4777 11.5883 51.5714 6 57" stroke="#00254D" stroke-width="3" stroke-linecap="round"/>
<path d="M54.0918 6.04153C48.1968 10.7228 42.581 17.9713 39.3015 24.7491C38.1601 27.1079 34.1628 33.392 36.9951 35.9882C45.9256 44.1745 57.3475 27.6931 61.853 21.3444C63.2937 19.3143 73.6184 2.08769 64.9282 2.08769C62.3651 2.08769 59.4066 1.49204 57.3867 3.40563C54.2449 6.38207 50.7346 9.19987 48.161 12.6313" stroke="#00254D" stroke-width="3" stroke-linecap="round"/>
<path d="M50.1377 13.2903C51.3497 18.78 52.7736 24.8053 52.7736 30.4236" stroke="#00254D" stroke-width="3" stroke-linecap="round"/>
</svg>
