<svg width="121" height="102" viewBox="0 0 121 102" fill="none" xmlns="http://www.w3.org/2000/svg">
<g clip-path="url(#clip0_2218_23496)">
<path d="M110.189 26.6063C126.176 43.8879 124.053 71.8508 105.447 89.068C86.8411 106.286 58.795 106.232 42.8081 88.951C26.8212 71.6689 10.6218 23.9048 29.2311 6.68983C47.8371 -10.5277 94.2058 9.32723 110.193 26.6088L110.189 26.6063Z" fill="#54C3BF"/>
<path fill-rule="evenodd" clip-rule="evenodd" d="M78.8386 22H38.382C36.0332 22 34.1104 23.9071 34.1104 26.2366V38.9842C34.1104 41.0795 35.6663 42.836 37.6904 43.1664C38.0825 43.2291 38.382 43.547 38.382 43.9402V45.9852C38.382 46.7882 39.2801 47.2734 39.959 46.8343L44.7453 43.7311C45.2555 43.4007 45.8543 43.225 46.4658 43.225H78.8386C81.1874 43.225 83.1103 41.3179 83.1103 38.9883V26.2408C83.1103 23.9113 81.1874 22.0042 78.8386 22.0042V22ZM60.4488 38.9591H40.7603C40.2964 38.9591 39.917 38.5827 39.917 38.1226C39.917 37.6626 40.2964 37.2862 40.7603 37.2862H60.4531C60.917 37.2862 61.2965 37.6626 61.2965 38.1226C61.2965 38.5827 60.917 38.9591 60.4531 38.9591H60.4488ZM70.156 35.1574H40.7603C40.2964 35.1574 39.917 34.781 39.917 34.321C39.917 33.8609 40.2964 33.4845 40.7603 33.4845H70.1603C70.6242 33.4845 71.0037 33.8609 71.0037 34.321C71.0037 34.781 70.6242 35.1574 70.1603 35.1574H70.156ZM39.9128 30.7535C39.9128 30.2934 40.2923 29.917 40.7561 29.917H64.1175C64.5813 29.917 64.9609 30.2934 64.9609 30.7535C64.9609 31.2135 64.5813 31.5899 64.1175 31.5899H40.7603C40.2964 31.5899 39.917 31.2135 39.917 30.7535H39.9128ZM74.4869 28.0225H40.7603C40.2964 28.0225 39.917 27.6461 39.917 27.186C39.917 26.726 40.2964 26.3496 40.7603 26.3496H74.491C74.9548 26.3496 75.3343 26.726 75.3343 27.186C75.3343 27.6461 74.9548 28.0225 74.491 28.0225H74.4869Z" fill="#E5FFFF"/>
<path fill-rule="evenodd" clip-rule="evenodd" d="M103.751 50.0044H62.4692C60.0725 50.0044 58.1104 51.9877 58.1104 54.4103V67.6674C58.1104 70.0901 60.0725 72.0734 62.4692 72.0734H95.503C96.127 72.0734 96.733 72.2561 97.258 72.5997L102.142 75.827C102.835 76.2837 103.751 75.7835 103.751 74.944V72.8172C103.751 72.4083 104.057 72.0778 104.457 72.0125C106.523 71.6689 108.11 69.8465 108.11 67.6631V54.406C108.11 51.9833 106.148 50 103.751 50V50.0044ZM82.5682 68.0719H65.0553C64.582 68.0719 64.1947 67.6804 64.1947 67.202C64.1947 66.7236 64.582 66.3321 65.0553 66.3321H82.5682C83.0415 66.3321 83.4288 66.7236 83.4288 67.202C83.4288 67.6804 83.0415 68.0719 82.5682 68.0719ZM91.2042 64.1183H65.0553C64.582 64.1183 64.1947 63.7268 64.1947 63.2484C64.1947 62.7699 64.582 62.3785 65.0553 62.3785H91.2042C91.6775 62.3785 92.0647 62.7699 92.0647 63.2484C92.0647 63.7268 91.6775 64.1183 91.2042 64.1183ZM64.1947 59.5383C64.1947 59.0599 64.582 58.6684 65.0553 58.6684H85.8341C86.3074 58.6684 86.6947 59.0599 86.6947 59.5383C86.6947 60.0167 86.3074 60.4082 85.8341 60.4082H65.0553C64.582 60.4082 64.1947 60.0167 64.1947 59.5383ZM95.055 56.6981H65.0553C64.582 56.6981 64.1947 56.3066 64.1947 55.8282C64.1947 55.3498 64.582 54.9583 65.0553 54.9583H95.055C95.529 54.9583 95.916 55.3498 95.916 55.8282C95.916 56.3066 95.529 56.6981 95.055 56.6981Z" fill="#E5FFFF"/>
<path d="M24 102C37.2548 102 48 91.2548 48 78C48 64.7452 37.2548 54 24 54C10.7452 54 0 64.7452 0 78C0 91.2548 10.7452 102 24 102Z" fill="#3B9592"/>
<path d="M19.4355 71.1999V67.5879H26.1835V87.9999H22.1515V71.1999H19.4355Z" fill="white"/>
</g>
<defs>
<clipPath id="clip0_2218_23496">
<rect width="121" height="102" fill="white"/>
</clipPath>
</defs>
</svg>
