<svg width="105" height="87" viewBox="0 0 105 87" fill="none" xmlns="http://www.w3.org/2000/svg">
<g clip-path="url(#clip0_2217_23488)">
<path d="M40.2481 0.575231C18.5496 0.379231 0.929891 19.4075 0.895071 43.0765C0.860241 66.7456 18.4258 86.0871 40.1244 86.2831C61.8267 86.4781 104.313 67.6725 104.345 44.0083C104.379 20.3393 61.9515 0.773932 40.2492 0.579032L40.2481 0.575231Z" fill="#54C5C1"/>
<path d="M81.4283 23H17.0363C15.9111 23 15 23.9247 15 25.0668V60.3884C15 61.5305 15.9111 62.4552 17.0363 62.4552H81.4283C82.5535 62.4552 83.4646 61.5305 83.4646 60.3884V25.0668C83.4646 23.9247 82.5535 23 81.4283 23ZM48.9598 57.7881C42.4653 57.7881 37.2012 51.1845 37.2012 43.0358C37.2012 34.8871 42.4653 28.2836 48.9598 28.2836C55.4543 28.2836 60.7184 34.8871 60.7184 43.0358C60.7184 51.1845 55.4543 57.7881 48.9598 57.7881Z" fill="#E5FFFF"/>
<path d="M51.617 42.2308C52.325 42.3628 52.907 42.7168 53.363 43.2928C53.819 43.8688 54.047 44.5288 54.047 45.2728C54.047 45.9448 53.879 46.5388 53.543 47.0548C53.219 47.5588 52.745 47.9548 52.121 48.2428C51.497 48.5308 50.759 48.6748 49.907 48.6748H44.489V36.1108H49.673C50.525 36.1108 51.257 36.2488 51.869 36.5248C52.493 36.8008 52.961 37.1848 53.273 37.6768C53.597 38.1688 53.759 38.7268 53.759 39.3508C53.759 40.0828 53.561 40.6948 53.165 41.1868C52.781 41.6788 52.265 42.0268 51.617 42.2308ZM47.009 41.2948H49.313C49.913 41.2948 50.375 41.1628 50.699 40.8988C51.023 40.6228 51.185 40.2328 51.185 39.7288C51.185 39.2248 51.023 38.8348 50.699 38.5588C50.375 38.2828 49.913 38.1448 49.313 38.1448H47.009V41.2948ZM49.547 46.6228C50.159 46.6228 50.633 46.4788 50.969 46.1908C51.317 45.9028 51.491 45.4948 51.491 44.9668C51.491 44.4268 51.311 44.0068 50.951 43.7068C50.591 43.3948 50.105 43.2388 49.493 43.2388H47.009V46.6228H49.547Z" fill="#E5FFFF"/>
<path d="M78.3511 60.0574C79.7683 60.0574 80.913 58.8916 80.913 57.4571L80.9091 52.6003C80.9091 51.1618 79.7605 50 78.3472 50H77.9851C74.1265 50 71 53.1733 71 57.0896V57.4571C71 58.8956 72.1486 60.0574 73.562 60.0574H78.3511Z" fill="#54C5C1"/>
<path d="M20.562 26C19.1448 26 18 27.1658 18 28.6003L18.0039 33.4571C18.0039 34.8956 19.1525 36.0574 20.5659 36.0574H20.928C24.7865 36.0574 27.9131 32.8841 27.9131 28.9678V28.6003C27.9131 27.1618 26.7645 26 25.3511 26H20.562Z" fill="#54C5C1"/>
</g>
<defs>
<clipPath id="clip0_2217_23488">
<rect width="105" height="87" fill="white"/>
</clipPath>
</defs>
</svg>
