<svg width="114" height="100" viewBox="0 0 114 100" fill="none" xmlns="http://www.w3.org/2000/svg">
<path d="M62.7395 91.2803C84.2218 94.3425 104.202 77.8101 107.365 54.3533C110.528 30.8966 95.6729 9.40285 74.1906 6.34064C52.7044 3.27892 8.10587 16.3039 4.94625 39.7563C1.78327 63.213 41.2528 88.2147 62.739 91.2764L62.7395 91.2803Z" fill="#54C5C1"/>
<path d="M91.3975 26.3242H27.0056C25.8803 26.3242 24.9692 27.2489 24.9692 28.391V63.7126C24.9692 64.8547 25.8803 65.7794 27.0056 65.7794H91.3975C92.5228 65.7794 93.4339 64.8547 93.4339 63.7126V28.391C93.4339 27.2489 92.5228 26.3242 91.3975 26.3242ZM58.929 61.1123C52.4345 61.1123 47.1704 54.5088 47.1704 46.3601C47.1704 38.2114 52.4345 31.6078 58.929 31.6078C65.4235 31.6078 70.6876 38.2114 70.6876 46.3601C70.6876 54.5088 65.4235 61.1123 58.929 61.1123Z" fill="#E5FFFF"/>
<path d="M88.3511 63.0574C89.7683 63.0574 90.913 61.8916 90.913 60.4571L90.9091 55.6003C90.9091 54.1618 89.7605 53 88.3472 53H87.9851C84.1265 53 81 56.1733 81 60.0896V60.4571C81 61.8956 82.1486 63.0574 83.562 63.0574H88.3511Z" fill="#54C5C1"/>
<path d="M30.562 28.9992C29.1448 28.9992 28 30.165 28 31.5995L28.0039 36.4563C28.0039 37.8948 29.1525 39.0566 30.5659 39.0566L30.928 39.0566C34.7865 39.0566 37.9131 35.8833 37.9131 31.967L37.9131 31.5995C37.9131 30.161 36.7645 28.9992 35.3511 28.9992L30.562 28.9992Z" fill="#54C5C1"/>
<path d="M61.0036 49.606H55.9996L55.1716 52H52.5256L57.0436 39.418H59.9776L64.4956 52H61.8316L61.0036 49.606ZM60.3196 47.59L58.5016 42.334L56.6836 47.59H60.3196Z" fill="#E5FFFF"/>
</svg>
