<svg width="29" height="29" viewBox="0 0 29 29" fill="none" xmlns="http://www.w3.org/2000/svg">
<rect x="6.15198" y="9.57751" width="22.1137" height="18.428" fill="#00254D" fill-opacity="0.2"/>
<path d="M1.39795 6.52356V24.5652" stroke="#00254D" stroke-width="1.22854" stroke-linecap="round"/>
<path d="M0.630005 25.3329C3.75361 25.3329 6.85697 25.6714 9.9814 25.7061C14.3534 25.7547 18.7164 25.5248 23.0861 25.5248" stroke="#00254D" stroke-width="1.22854" stroke-linecap="round"/>
<path d="M0.821899 5.94768C5.51824 5.57934 10.2305 5.49315 14.9396 5.60647C18.0441 5.68117 21.1352 6.13961 24.2377 6.13961" stroke="#00254D" stroke-width="1.22854" stroke-linecap="round"/>
<path d="M25.0055 5.94775C25.0055 12.0898 24.8136 18.2377 24.8136 24.3733" stroke="#00254D" stroke-width="1.22854" stroke-linecap="round"/>
<path d="M6.7719 7.09943C3.28312 7.02823 3.10586 2.15637 6.38803 1.38409C8.19205 0.95962 8.30736 3.89635 8.30736 5.1801" stroke="#00254D" stroke-width="1.22854" stroke-linecap="round"/>
<path d="M18.6717 7.0994C16.9625 7.05772 16.5997 6.0133 16.2725 4.50831C15.9839 3.18095 16.766 2.278 17.9039 1.72528C18.3755 1.49623 18.8192 1.53335 19.3328 1.53335C19.9717 1.53335 19.7279 2.15742 19.9192 2.57832C20.2202 3.24041 20.1476 4.91514 19.8232 5.56394" stroke="#00254D" stroke-width="1.22854" stroke-linecap="round"/>
<path d="M1.97363 9.59447C6.95719 9.78707 11.9269 9.83369 16.9124 9.69043C19.0764 9.62825 21.241 9.56681 23.4061 9.60513C23.9426 9.61462 25.4855 9.54644 25.0056 9.7864" stroke="#00254D" stroke-width="1.22854" stroke-linecap="round"/>
<path d="M5.23645 9.59448C5.47412 15.0312 5.42838 20.4681 5.42838 25.9088" stroke="#00254D" stroke-width="1.22854" stroke-linecap="round"/>
<path d="M10.0347 10.5541C10.0347 15.5414 9.88374 20.5534 10.2266 25.5248" stroke="#00254D" stroke-width="1.22854" stroke-linecap="round"/>
<path d="M15.6004 9.97815C15.6004 14.7191 15.5776 19.4441 15.4084 24.1812" stroke="#00254D" stroke-width="1.22854" stroke-linecap="round"/>
<path d="M20.3994 9.59448C20.3994 14.7873 19.8236 19.9591 19.8236 25.141" stroke="#00254D" stroke-width="1.22854" stroke-linecap="round"/>
</svg>
