<svg width="44" height="41" viewBox="0 0 44 41" fill="none" xmlns="http://www.w3.org/2000/svg">
<g clip-path="url(#clip0_518_67613)">
<path d="M36.684 34.943C44.7722 29.237 46.4037 17.4741 40.326 8.66808C34.2483 -0.136182 22.766 -2.64887 14.6778 3.05706C6.58955 8.763 -4.30992 27.0646 1.76778 35.8707C7.84548 44.6767 28.5958 40.6507 36.684 34.9448V34.943Z" fill="#54C3BF"/>
<path d="M27.5242 11.9258C25.5792 11.9258 23.8361 12.7783 22.6262 14.1286C21.2675 12.6153 19.2393 11.7252 17.0073 11.9652C13.9445 12.2929 11.461 14.8092 11.1439 17.9057C11.128 18.0562 11.1121 18.2066 11.1121 18.3553C11.1121 24.1848 19.691 31.9521 22.6262 31.9521C25.2816 31.9521 34.1475 24.2331 34.1439 18.6185C34.1421 14.922 31.1803 11.9258 27.5242 11.9258V11.9258Z" fill="#E5FFFF"/>
</g>
<defs>
<clipPath id="clip0_518_67613">
<rect width="44" height="41" fill="white"/>
</clipPath>
</defs>
</svg>
