<svg width="56" height="65" viewBox="0 0 56 65" fill="none" xmlns="http://www.w3.org/2000/svg">
<circle cx="34" cy="31" r="21" fill="#B6E5E5"/>
<path d="M24.2882 5.63321C17.0135 4.88435 12.6445 6.15111 7.88209 11.9432C3.10186 17.757 3.19603 25.387 5.39879 32.2575C7.28476 38.1399 10.0404 44.6369 16.6347 46.1803C23.4245 47.7694 30.9826 44.1052 35.9312 39.6667C45.2944 31.2688 42.9312 20.2042 36.7454 10.9255C30.3914 1.39448 17.7144 5.29048 8.89984 9.2971" stroke="#00254D" stroke-width="3" stroke-linecap="round"/>
<path d="M9.54706 41.6528C8.5927 46.544 6.3016 51.1533 3.9306 55.5305C2.64946 57.8957 0.76543 59.2267 3.12825 60.3744C5.98333 61.7611 7.56611 64.4041 9.01216 60.5824C9.82378 58.4374 12.6459 47.5367 14.8961 47.5367" stroke="#00254D" stroke-width="3" stroke-linecap="round"/>
<path d="M21.8496 21.3267C22.8165 23.2603 23.8758 27.022 25.7128 28.3398C28.6167 30.423 35.0754 19.8698 36.1434 18.5927C40.7092 13.1326 45.6872 8.23633 51.0612 3.58577C52.4755 2.36179 54.7891 0.267133 52.8739 3.14002" stroke="#00254D" stroke-width="3" stroke-linecap="round"/>
</svg>
