<svg width="74" height="71" viewBox="0 0 74 71" fill="none" xmlns="http://www.w3.org/2000/svg">
<path d="M49.4831 9.50537L18.3486 22.5741L43.3331 70.2367L73.6987 58.3211L49.4831 9.50537Z" fill="#B6E5E5"/>
<path d="M2 15.6982C11.0749 12.8156 20.4255 10.996 29.4079 7.74706C32.1049 6.77155 34.6289 5.51616 37.2563 4.39813C38.0535 4.05887 37.4551 4.38889 37.133 4.60358" stroke="#00254D" stroke-width="3" stroke-linecap="round"/>
<path d="M2.37012 16.4377C10.8017 27.8137 15.5367 41.7291 22.5459 53.9951C24.7148 57.7908 27.0483 61.4684 29.3671 65.172C29.9414 66.0893 30.5099 67.4842 31.586 67.8429" stroke="#00254D" stroke-width="3" stroke-linecap="round"/>
<path d="M31.9556 67.843C39.3449 65.4655 45.9727 61.7048 52.9532 58.392C55.4092 57.2264 57.9873 55.269 60.8016 55.269" stroke="#00254D" stroke-width="3" stroke-linecap="round"/>
<path d="M36.7627 2.75439C41.4368 8.42467 44.1826 15.5396 47.4464 22.0673C50.7865 28.7475 54.2268 35.364 57.4521 42.0993C59.0961 45.5323 60.2851 49.2057 63.02 51.9406" stroke="#00254D" stroke-width="3" stroke-linecap="round"/>
<path d="M13.4644 21.2455C14.216 23.0583 14.9488 25.1001 16.0736 22.4988C16.3578 21.8418 18.5547 17.4602 19.0117 17.9171" stroke="#00254D" stroke-width="3" stroke-linecap="round"/>
<path d="M21.9702 39.3665C23.8142 40.0412 24.0742 39.9405 24.6411 38.0927C25.1666 36.3802 25.686 34.7043 26.4081 33.0796" stroke="#00254D" stroke-width="3" stroke-linecap="round"/>
<path d="M30.4761 54.8992C30.6857 55.176 32.9327 58.3921 33.4346 57.6113C34.8579 55.3973 34.4797 52.4071 36.0234 50.0916" stroke="#00254D" stroke-width="3" stroke-linecap="round"/>
<path d="M25.6685 18.2869C27.7031 17.1276 29.7787 16.1446 31.9554 15.3284" stroke="#00254D" stroke-width="3" stroke-linecap="round"/>
<path d="M32.3252 29.3815L37.8725 27.1626" stroke="#00254D" stroke-width="3" stroke-linecap="round"/>
<path d="M42.6802 51.201C45.2622 49.7088 47.8506 48.2304 50.4464 46.7632" stroke="#00254D" stroke-width="3" stroke-linecap="round"/>
<path d="M14.5737 11.6302C14.1281 9.45177 13.1614 6.62477 14.3683 4.52141C15.4883 2.56939 17.6339 1.56624 19.8334 2.17921C22.5543 2.9375 25.1578 5.66069 26.0382 8.3018" stroke="#00254D" stroke-width="3" stroke-linecap="round"/>
</svg>
