<svg width="47" height="40" viewBox="0 0 47 40" fill="none" xmlns="http://www.w3.org/2000/svg">
<g clip-path="url(#clip0_518_67616)">
<path d="M11.5323 1.80554C2.08335 5.38332 -2.4734 16.5895 1.35623 26.8318C5.18405 37.0741 15.9476 42.4755 25.3966 38.8958C34.8455 35.3162 50.2275 20.0103 46.3997 9.76793C42.5719 -0.474388 20.9813 -1.77407 11.5323 1.80554Z" fill="#8C51E3"/>
<path d="M40.4286 18.123C39.9989 16.3633 38.4214 15.0582 36.541 15.0564H34.9526C36.3814 14.4412 37.3823 13.0137 37.3823 11.3508C37.3823 9.12381 35.589 7.32031 33.3786 7.32031C31.1683 7.32031 29.3749 9.12563 29.3749 11.3508C29.3749 13.0137 30.3759 14.4412 31.8047 15.0564H30.2181C28.3377 15.0564 26.7584 16.3615 26.3286 18.123C26.209 18.6141 26.5934 19.0887 27.0957 19.0887H39.6616C40.1639 19.0887 40.5483 18.6159 40.4286 18.123V18.123Z" fill="#F2EDFA"/>
<path d="M26.2725 28.6881C25.656 26.1654 23.3949 24.2944 20.6985 24.2944H18.4229C20.4701 23.4109 21.9062 21.3664 21.9062 18.9825C21.9062 15.7917 19.3368 13.2051 16.1672 13.2051C12.9976 13.2051 10.4282 15.7917 10.4282 18.9825C10.4282 21.3664 11.8643 23.4109 13.9114 24.2944H11.6358C8.93946 24.2944 6.6765 26.1654 6.0618 28.69C5.88954 29.3946 6.44077 30.0736 7.16064 30.0736H25.1737C25.8954 30.0736 26.4448 29.3946 26.2725 28.69V28.6881Z" fill="#F2EDFA"/>
<path d="M30.0623 27.9382C29.4349 27.9382 29.0305 27.8579 29.016 27.8543C28.9018 27.8305 28.8293 27.7174 28.8528 27.6024C28.8764 27.4874 28.9888 27.4143 29.1031 27.4381C29.3098 27.4819 34.1893 28.4366 36.2437 22.9476C36.2854 22.8381 36.4069 22.7815 36.5157 22.8235C36.6245 22.8654 36.6807 22.9877 36.639 23.0973C35.0452 27.3541 31.7504 27.9382 30.0623 27.9382V27.9382Z" fill="#F2EDFA"/>
<path d="M37.5275 24.6357C37.4532 24.6357 37.3825 24.5974 37.3426 24.5262L36.4541 22.9326L34.8167 23.8581C34.7151 23.9165 34.5864 23.88 34.5284 23.7759C34.4703 23.6737 34.5066 23.5441 34.61 23.4857L36.4323 22.4562C36.4813 22.4288 36.5393 22.4215 36.5937 22.4361C36.6481 22.4507 36.6934 22.4872 36.7206 22.5365L37.7125 24.3144C37.7705 24.4166 37.7342 24.5462 37.6309 24.6047C37.5982 24.6229 37.562 24.632 37.5275 24.632V24.6357Z" fill="#F2EDFA"/>
<path d="M18.6604 9.87219C18.6259 9.87219 18.5915 9.86489 18.5606 9.84663C18.4573 9.79005 18.4192 9.66227 18.4754 9.55822C21.4111 4.06559 26.6061 5.84536 26.6587 5.86361C26.7693 5.90377 26.8255 6.02425 26.7875 6.1356C26.7494 6.24695 26.6279 6.30353 26.5173 6.2652C26.3178 6.19401 21.6088 4.59496 18.8471 9.76084C18.8091 9.83203 18.7365 9.87219 18.6604 9.87219V9.87219Z" fill="#F2EDFA"/>
<path d="M18.5171 10.233C18.4337 10.233 18.3539 10.1819 18.3213 10.0979L17.5724 8.20313C17.5289 8.0936 17.5815 7.96947 17.6903 7.92749C17.7991 7.88368 17.9224 7.93662 17.9641 8.04614L18.635 9.74376L20.3794 9.04464C20.4881 9.00083 20.6115 9.05376 20.6532 9.16329C20.6967 9.27281 20.6441 9.39694 20.5353 9.43892L18.5933 10.2165C18.5679 10.2275 18.5407 10.2311 18.5153 10.2311L18.5171 10.233Z" fill="#F2EDFA"/>
</g>
<defs>
<clipPath id="clip0_518_67616">
<rect width="47" height="40" fill="white"/>
</clipPath>
</defs>
</svg>
