<svg width="26" height="27" viewBox="0 0 26 27" fill="none" xmlns="http://www.w3.org/2000/svg">
<circle cx="3.79" cy="3.13802" r="3.02938" fill="#EF5D56" fill-opacity="0.2"/>
<circle r="3.02938" transform="matrix(1 0 0 -1 3.79 14.2458)" fill="#EF5D56" fill-opacity="0.2"/>
<circle r="3.02938" transform="matrix(1 0 0 -1 3.79 22.9972)" fill="#EF5D56" fill-opacity="0.2"/>
<path d="M3.46436 3.00486C2.91334 3.83974 1.80377 5.61019 2.71309 6.62863C3.52251 7.53519 4.23711 7.84538 5.35357 8.27479C7.6452 9.15619 8.83371 6.70738 8.83371 4.89408C8.83371 3.55767 7.63878 2.58426 6.44733 2.05473C4.68147 1.26991 3.05238 2.94104 2.47003 4.39692" stroke="#EF5D56" stroke-width="1.00979" stroke-linecap="round"/>
<path d="M12.0156 4.79459C12.5172 4.31267 13.5432 3.0103 14.402 3.53511C14.8383 3.80174 15.4084 4.8852 16.015 4.75039C16.8719 4.55997 17.3133 3.43979 18.1694 3.22576C18.7511 3.08034 19.0684 3.99516 19.4731 4.27533C20.1096 4.71599 21.7574 4.39686 22.5113 4.39686C23.5322 4.39686 24.4682 4.44377 24.9419 5.39118" stroke="#EF5D56" stroke-width="1.00979" stroke-linecap="round"/>
<path d="M3.56332 12.9698C3.97032 12.1559 4.68792 11.9747 5.46124 11.9448C6.32738 11.0988 8.25431 12.1841 8.73382 13.0472C9.38771 14.2242 8.73864 16.2211 7.64006 16.7704C6.64023 17.2703 3.06616 17.8927 3.06616 15.9307C3.06616 14.9416 3.11078 13.8749 3.56332 12.9698Z" fill="#EF5D56" fill-opacity="0.2"/>
<path d="M6.64573 11.9534C5.49428 11.9534 4.17641 11.7437 3.56332 12.9698C3.11078 13.8749 3.06616 14.9416 3.06616 15.9307C3.06616 17.8927 6.64023 17.2703 7.64006 16.7704C8.73864 16.2211 9.38771 14.2242 8.73382 13.0472C8.2527 12.1812 6.31442 11.0915 5.45254 11.9534" stroke="#EF5D56" stroke-width="1.00979" stroke-linecap="round"/>
<path d="M13.4073 13.9424C13.8289 13.2143 14.1818 12.1133 15.1971 12.1858C16.2527 12.2612 16.2215 13.689 16.9759 14.2076C17.5911 14.6306 18.2766 13.4827 18.6773 13.1691C19.5077 12.5192 19.7562 13.2199 20.2461 13.8982C20.9875 14.9248 21.8408 11.9069 22.7098 13.5447C23.4319 14.9055 23.6969 13.1298 24.9415 13.5447" stroke="#EF5D56" stroke-width="1.00979" stroke-linecap="round"/>
<path d="M3.66306 22.0514C3.98023 21.2937 4.53119 20.9612 5.17972 20.8157C5.97019 19.9176 7.32246 19.9408 8.34743 20.5931C8.80832 20.8864 9.8965 21.1529 10.0157 21.8084C10.1969 22.8049 9.67455 23.5039 9.33071 24.3826C8.47451 26.5706 5.7105 26.0761 4.25965 24.9239C3.40827 24.2478 3.25067 23.0366 3.66306 22.0514Z" fill="#EF5D56" fill-opacity="0.2"/>
<path d="M6.64603 20.7036C5.42222 20.7036 4.20339 20.7606 3.66306 22.0514C3.25067 23.0366 3.40827 24.2478 4.25965 24.9239C5.7105 26.0761 8.47451 26.5706 9.33071 24.3826C9.67455 23.5039 10.1969 22.8049 10.0157 21.8084C9.8965 21.1529 8.80832 20.8864 8.34743 20.5931C7.16376 19.8398 5.54358 19.9255 4.85625 21.3002" stroke="#EF5D56" stroke-width="1.00979" stroke-linecap="round"/>
<path d="M14.7998 22.0957C15.3576 21.7418 16.5033 20.7776 17.1862 21.3887C17.636 21.7911 17.7966 22.4342 18.2247 22.847C19.1895 23.7773 20.6128 21.1057 20.8652 21.5544C21.5929 22.8482 21.0825 23.2828 22.5666 22.615C23.4518 22.2167 24.0227 22.7409 24.5442 21.698" stroke="#EF5D56" stroke-width="1.00979" stroke-linecap="round"/>
</svg>
