<svg data-v-423bf9ae="" xmlns="http://www.w3.org/2000/svg" viewBox="0 0 623.5580197457051 60" class="font"><!----><!----><!----><g data-v-423bf9ae="" id="2faebb24-fd03-46c7-adc8-a1350ffadc3d" fill="white" transform="matrix(5.730659401617148,0,0,5.730659401617148,2.010724981137571,-23.03725020836012)"><path d="M9.13 5.04L9.13 5.04Q9.65 5.04 9.93 5.26L9.93 5.26L9.93 5.26Q10.22 5.49 10.22 5.88L10.22 5.88L10.22 5.88Q10.22 6.08 10.16 6.26L10.16 6.26L9.80 7.56L9.80 7.56Q9.70 7.92 9.48 8.08L9.48 8.08L9.48 8.08Q9.25 8.23 8.89 8.23L8.89 8.23L8.89 8.23Q8.54 8.23 8.33 8.09L8.33 8.09L8.33 8.09Q8.12 7.94 8.02 7.60L8.02 7.60L7.80 6.80L7.80 6.80Q7.74 6.59 7.66 6.52L7.66 6.52L7.66 6.52Q7.57 6.45 7.31 6.45L7.31 6.45L5.91 6.45L5.12 9.23L5.39 9.23L5.39 9.23Q5.59 9.23 5.73 9.17L5.73 9.17L5.73 9.17Q5.88 9.11 6.05 8.96L6.05 8.96L6.48 8.60L6.48 8.60Q6.72 8.39 6.91 8.30L6.91 8.30L6.91 8.30Q7.10 8.20 7.31 8.20L7.31 8.20L7.31 8.20Q7.57 8.20 7.75 8.36L7.75 8.36L7.75 8.36Q7.92 8.51 7.92 8.79L7.92 8.79L7.92 8.79Q7.92 8.90 7.88 9.06L7.88 9.06L7.27 11.19L7.27 11.19Q7.06 11.87 6.51 11.87L6.51 11.87L6.51 11.87Q6.06 11.87 5.81 11.41L5.81 11.41L5.56 10.93L5.56 10.93Q5.46 10.74 5.38 10.68L5.38 10.68L5.38 10.68Q5.29 10.63 5.12 10.63L5.12 10.63L4.72 10.63L4.13 12.71L4.13 12.71Q4.10 12.80 4.10 12.94L4.10 12.94L4.10 12.94Q4.10 13.13 4.19 13.26L4.19 13.26L4.19 13.26Q4.28 13.38 4.47 13.52L4.47 13.52L4.47 13.52Q4.62 13.65 4.68 13.73L4.68 13.73L4.68 13.73Q4.73 13.80 4.73 13.92L4.73 13.92L4.73 13.92Q4.73 14.17 4.51 14.27L4.51 14.27L4.51 14.27Q4.28 14.36 3.85 14.36L3.85 14.36L0.34 14.36L0.34 14.36Q-0.03 14.36-0.21 14.23L-0.21 14.23L-0.21 14.23Q-0.39 14.10-0.34 13.86L-0.34 13.86L-0.34 13.86Q-0.31 13.73-0.23 13.66L-0.23 13.66L-0.23 13.66Q-0.15 13.58 0 13.48L0 13.48L0 13.48Q0.24 13.34 0.38 13.19L0.38 13.19L0.38 13.19Q0.52 13.03 0.60 12.71L0.60 12.71L2.32 6.68L2.32 6.68Q2.38 6.50 2.38 6.34L2.38 6.34L2.38 6.34Q2.38 6.17 2.33 6.06L2.33 6.06L2.33 6.06Q2.28 5.95 2.18 5.82L2.18 5.82L2.18 5.82Q2.06 5.64 2.06 5.53L2.06 5.53L2.06 5.53Q2.06 5.49 2.09 5.38L2.09 5.38L2.09 5.38Q2.14 5.19 2.34 5.12L2.34 5.12L2.34 5.12Q2.53 5.04 2.91 5.04L2.91 5.04L9.13 5.04ZM13.83 6.96L13.83 6.96Q15.44 6.96 16.41 7.55L16.41 7.55L16.41 7.55Q17.37 8.15 17.37 9.37L17.37 9.37L17.37 9.37Q17.37 9.83 17.21 10.42L17.21 10.42L16.63 12.35L16.63 12.35Q16.62 12.40 16.62 12.49L16.62 12.49L16.62 12.49Q16.62 12.71 16.80 12.71L16.80 12.71L16.80 12.71Q16.97 12.71 17.09 12.57L17.09 12.57L17.09 12.57Q17.21 12.42 17.25 12.42L17.25 12.42L17.25 12.42Q17.32 12.42 17.37 12.52L17.37 12.52L17.37 12.52Q17.42 12.61 17.42 12.74L17.42 12.74L17.42 12.74Q17.43 13.12 17.13 13.51L17.13 13.51L17.13 13.51Q16.83 13.90 16.32 14.15L16.32 14.15L16.32 14.15Q15.82 14.41 15.22 14.41L15.22 14.41L15.22 14.41Q14.49 14.41 13.97 14.14L13.97 14.14L13.97 14.14Q13.45 13.87 13.26 13.36L13.26 13.36L13.26 13.36Q12.84 13.86 12.26 14.13L12.26 14.13L12.26 14.13Q11.69 14.41 11.03 14.41L11.03 14.41L11.03 14.41Q10.29 14.41 9.79 14.12L9.79 14.12L9.79 14.12Q9.28 13.83 9.04 13.38L9.04 13.38L9.04 13.38Q8.79 12.92 8.79 12.42L8.79 12.42L8.79 12.42Q8.79 12.19 8.83 11.98L8.83 11.98L8.83 11.98Q9.06 11.02 9.81 10.53L9.81 10.53L9.81 10.53Q10.56 10.04 11.59 10.04L11.59 10.04L11.59 10.04Q12.75 10.04 13.87 10.40L13.87 10.40L14.22 9.48L14.22 9.48Q14.41 8.89 14.41 8.57L14.41 8.57L14.41 8.57Q14.39 8.23 14.18 8.06L14.18 8.06L14.18 8.06Q13.97 7.90 13.54 7.90L13.54 7.90L13.54 7.90Q13.62 8.12 13.62 8.36L13.62 8.36L13.62 8.36Q13.62 8.88 13.23 9.25L13.23 9.25L13.23 9.25Q12.84 9.63 12.11 9.63L12.11 9.63L12.11 9.63Q11.42 9.63 11.04 9.33L11.04 9.33L11.04 9.33Q10.65 9.03 10.65 8.58L10.65 8.58L10.65 8.58Q10.65 7.88 11.44 7.42L11.44 7.42L11.44 7.42Q12.22 6.96 13.83 6.96L13.83 6.96ZM13.05 11.20L13.05 11.20Q12.66 11.20 12.41 11.50L12.41 11.50L12.41 11.50Q12.17 11.80 12.17 12.15L12.17 12.15L12.17 12.15Q12.17 12.38 12.27 12.52L12.27 12.52L12.27 12.52Q12.38 12.66 12.57 12.66L12.57 12.66L12.57 12.66Q12.75 12.66 12.97 12.51L12.97 12.51L12.97 12.51Q13.19 12.36 13.29 12.07L13.29 12.07L13.58 11.24L13.58 11.24Q13.34 11.20 13.05 11.20L13.05 11.20ZM25.13 6.90L25.13 6.90Q26.17 6.90 26.79 7.64L26.79 7.64L26.79 7.64Q27.41 8.39 27.41 9.60L27.41 9.60L27.41 9.60Q27.41 10.23 27.26 10.84L27.26 10.84L27.26 10.84Q26.81 12.64 25.73 13.57L25.73 13.57L25.73 13.57Q24.64 14.49 23.23 14.49L23.23 14.49L23.23 14.49Q22.43 14.49 21.85 14.22L21.85 14.22L21.85 14.22Q21.27 13.94 20.92 13.44L20.92 13.44L20.41 13.87L20.41 13.87Q20.12 14.13 19.84 14.25L19.84 14.25L19.84 14.25Q19.56 14.36 19.19 14.36L19.19 14.36L18.58 14.36L18.58 14.36Q18.23 14.36 18.04 14.22L18.04 14.22L18.04 14.22Q17.85 14.07 17.85 13.79L17.85 13.79L17.85 13.79Q17.85 13.66 17.89 13.50L17.89 13.50L20.23 5.89L20.23 5.89Q20.27 5.77 20.27 5.68L20.27 5.68L20.27 5.68Q20.27 5.45 19.98 5.24L19.98 5.24L19.98 5.24Q19.84 5.11 19.78 5.03L19.78 5.03L19.78 5.03Q19.73 4.96 19.77 4.83L19.77 4.83L19.77 4.83Q19.87 4.51 20.66 4.26L20.66 4.26L20.66 4.26Q21.45 4.02 22.32 4.02L22.32 4.02L22.32 4.02Q23.13 4.02 23.51 4.33L23.51 4.33L23.51 4.33Q23.90 4.65 23.90 5.18L23.90 5.18L23.90 5.18Q23.90 5.47 23.80 5.77L23.80 5.77L23.21 7.67L23.21 7.67Q24.02 6.90 25.13 6.90L25.13 6.90ZM23.55 10.75L23.55 10.75Q23.83 9.80 23.83 9.21L23.83 9.21L23.83 9.21Q23.83 8.57 23.45 8.57L23.45 8.57L23.45 8.57Q23.11 8.57 22.82 8.92L22.82 8.92L21.91 11.89L21.83 12.15L21.83 12.15L21.83 12.15Q21.76 12.36 21.76 12.59L21.76 12.59L21.76 12.59Q21.76 13.08 22.22 13.08L22.22 13.08L22.22 13.08Q22.55 13.08 22.86 12.59L22.86 12.59L22.86 12.59Q23.17 12.10 23.55 10.75L23.55 10.75ZM36.90 9.67L36.05 12.43L36.05 12.43Q36.02 12.49 36.02 12.60L36.02 12.60L36.02 12.60Q36.02 12.70 36.07 12.75L36.07 12.75L36.07 12.75Q36.12 12.81 36.20 12.81L36.20 12.81L36.20 12.81Q36.37 12.81 36.49 12.66L36.49 12.66L36.49 12.66Q36.61 12.52 36.65 12.52L36.65 12.52L36.65 12.52Q36.72 12.52 36.76 12.61L36.76 12.61L36.76 12.61Q36.81 12.70 36.81 12.82L36.81 12.82L36.81 12.82Q36.82 13.23 36.54 13.62L36.54 13.62L36.54 13.62Q36.26 14 35.72 14.25L35.72 14.25L35.72 14.25Q35.18 14.49 34.43 14.49L34.43 14.49L34.43 14.49Q33.50 14.49 32.96 14.06L32.96 14.06L32.96 14.06Q32.41 13.64 32.40 12.92L32.40 12.92L32.40 12.92Q32.40 12.40 32.65 11.76L32.65 11.76L33.42 9.74L33.42 9.74Q33.49 9.56 33.49 9.45L33.49 9.45L33.49 9.45Q33.49 9.27 33.37 9.16L33.37 9.16L33.37 9.16Q33.25 9.06 33.08 9.06L33.08 9.06L33.08 9.06Q32.82 9.06 32.54 9.30L32.54 9.30L32.54 9.30Q32.27 9.55 32.10 10.09L32.10 10.09L32.10 10.07L31.22 12.91L31.22 12.91Q31.18 13.08 31.18 13.20L31.18 13.20L31.18 13.20Q31.18 13.38 31.25 13.49L31.25 13.49L31.25 13.49Q31.32 13.59 31.44 13.69L31.44 13.69L31.44 13.69Q31.54 13.79 31.58 13.85L31.58 13.85L31.58 13.85Q31.63 13.92 31.60 14.01L31.60 14.01L31.60 14.01Q31.53 14.20 31.32 14.28L31.32 14.28L31.32 14.28Q31.11 14.36 30.67 14.36L30.67 14.36L27.48 14.36L27.48 14.36Q27.12 14.36 26.95 14.25L26.95 14.25L26.95 14.25Q26.78 14.13 26.84 13.93L26.84 13.93L26.84 13.93Q26.89 13.76 27.13 13.64L27.13 13.64L27.13 13.64Q27.34 13.52 27.48 13.37L27.48 13.37L27.48 13.37Q27.62 13.22 27.72 12.88L27.72 12.88L29.85 5.89L29.85 5.89Q29.89 5.77 29.89 5.68L29.89 5.68L29.89 5.68Q29.89 5.53 29.81 5.43L29.81 5.43L29.81 5.43Q29.74 5.33 29.61 5.24L29.61 5.24L29.61 5.24Q29.47 5.12 29.41 5.04L29.41 5.04L29.41 5.04Q29.34 4.96 29.39 4.82L29.39 4.82L29.39 4.82Q29.47 4.49 30.27 4.26L30.27 4.26L30.27 4.26Q31.07 4.02 31.93 4.02L31.93 4.02L31.93 4.02Q32.75 4.02 33.13 4.33L33.13 4.33L33.13 4.33Q33.52 4.63 33.52 5.17L33.52 5.17L33.52 5.17Q33.52 5.47 33.42 5.77L33.42 5.77L32.66 8.23L32.66 8.23Q33.21 7.52 33.82 7.24L33.82 7.24L33.82 7.24Q34.43 6.96 35.14 6.96L35.14 6.96L35.14 6.96Q35.99 6.96 36.52 7.48L36.52 7.48L36.52 7.48Q37.04 7.99 37.04 8.82L37.04 8.82L37.04 8.82Q37.04 9.25 36.90 9.67L36.90 9.67ZM42.15 6.89L42.15 6.89Q43.93 6.89 44.73 7.46L44.73 7.46L44.73 7.46Q45.53 8.02 45.53 8.90L45.53 8.90L45.53 8.90Q45.53 9.17 45.47 9.39L45.47 9.39L45.47 9.39Q45.26 10.32 44.30 10.72L44.30 10.72L44.30 10.72Q43.34 11.12 42.04 11.12L42.04 11.12L42.04 11.12Q41.38 11.12 40.81 11.03L40.81 11.03L40.81 11.03Q40.80 11.76 41.20 12.05L41.20 12.05L41.20 12.05Q41.61 12.35 42.34 12.35L42.34 12.35L42.34 12.35Q42.67 12.35 42.98 12.27L42.98 12.27L42.98 12.27Q43.29 12.19 43.76 12.04L43.76 12.04L43.76 12.04Q44.16 11.90 44.30 11.90L44.30 11.90L44.30 11.90Q44.45 11.90 44.45 12.08L44.45 12.08L44.45 12.08Q44.46 12.57 44.09 13.11L44.09 13.11L44.09 13.11Q43.71 13.65 42.97 14.03L42.97 14.03L42.97 14.03Q42.22 14.41 41.17 14.41L41.17 14.41L41.17 14.41Q39.62 14.41 38.63 13.62L38.63 13.62L38.63 13.62Q37.63 12.84 37.63 11.34L37.63 11.34L37.63 11.34Q37.63 10.92 37.74 10.36L37.74 10.36L37.74 10.36Q38.09 8.64 39.28 7.76L39.28 7.76L39.28 7.76Q40.46 6.89 42.15 6.89L42.15 6.89ZM40.91 10.19L40.91 10.19Q40.96 10.21 41.06 10.21L41.06 10.21L41.06 10.21Q41.65 10.21 41.96 9.66L41.96 9.66L41.96 9.66Q42.27 9.11 42.25 8.44L42.25 8.44L42.25 8.44Q42.24 8.05 42.03 8.05L42.03 8.05L42.03 8.05Q41.87 8.05 41.66 8.30L41.66 8.30L41.66 8.30Q41.45 8.54 41.25 9.03L41.25 9.03L41.25 9.03Q41.05 9.52 40.91 10.19L40.91 10.19ZM50.25 6.96L50.25 6.96Q51.86 6.96 52.82 7.55L52.82 7.55L52.82 7.55Q53.79 8.15 53.79 9.37L53.79 9.37L53.79 9.37Q53.79 9.83 53.62 10.42L53.62 10.42L53.05 12.35L53.05 12.35Q53.03 12.40 53.03 12.49L53.03 12.49L53.03 12.49Q53.03 12.71 53.21 12.71L53.21 12.71L53.21 12.71Q53.38 12.71 53.50 12.57L53.50 12.57L53.50 12.57Q53.62 12.42 53.66 12.42L53.66 12.42L53.66 12.42Q53.73 12.42 53.78 12.52L53.78 12.52L53.78 12.52Q53.83 12.61 53.83 12.74L53.83 12.74L53.83 12.74Q53.84 13.12 53.54 13.51L53.54 13.51L53.54 13.51Q53.24 13.90 52.74 14.15L52.74 14.15L52.74 14.15Q52.23 14.41 51.63 14.41L51.63 14.41L51.63 14.41Q50.90 14.41 50.39 14.14L50.39 14.14L50.39 14.14Q49.87 13.87 49.67 13.36L49.67 13.36L49.67 13.36Q49.25 13.86 48.68 14.13L48.68 14.13L48.68 14.13Q48.10 14.41 47.45 14.41L47.45 14.41L47.45 14.41Q46.70 14.41 46.20 14.12L46.20 14.12L46.20 14.12Q45.70 13.83 45.45 13.38L45.45 13.38L45.45 13.38Q45.21 12.92 45.21 12.42L45.21 12.42L45.21 12.42Q45.21 12.19 45.25 11.98L45.25 11.98L45.25 11.98Q45.47 11.02 46.22 10.53L46.22 10.53L46.22 10.53Q46.97 10.04 48.01 10.04L48.01 10.04L48.01 10.04Q49.17 10.04 50.29 10.40L50.29 10.40L50.64 9.48L50.64 9.48Q50.82 8.89 50.82 8.57L50.82 8.57L50.82 8.57Q50.81 8.23 50.60 8.06L50.60 8.06L50.60 8.06Q50.39 7.90 49.95 7.90L49.95 7.90L49.95 7.90Q50.04 8.12 50.04 8.36L50.04 8.36L50.04 8.36Q50.04 8.88 49.64 9.25L49.64 9.25L49.64 9.25Q49.25 9.63 48.52 9.63L48.52 9.63L48.52 9.63Q47.84 9.63 47.45 9.33L47.45 9.33L47.45 9.33Q47.07 9.03 47.07 8.58L47.07 8.58L47.07 8.58Q47.07 7.88 47.85 7.42L47.85 7.42L47.85 7.42Q48.64 6.96 50.25 6.96L50.25 6.96ZM49.46 11.20L49.46 11.20Q49.07 11.20 48.83 11.50L48.83 11.50L48.83 11.50Q48.58 11.80 48.58 12.15L48.58 12.15L48.58 12.15Q48.58 12.38 48.69 12.52L48.69 12.52L48.69 12.52Q48.79 12.66 48.99 12.66L48.99 12.66L48.99 12.66Q49.17 12.66 49.39 12.51L49.39 12.51L49.39 12.51Q49.60 12.36 49.70 12.07L49.70 12.07L49.99 11.24L49.99 11.24Q49.76 11.20 49.46 11.20L49.46 11.20ZM58.87 4.02L58.87 4.02Q59.68 4.02 60.07 4.33L60.07 4.33L60.07 4.33Q60.45 4.63 60.45 5.17L60.45 5.17L60.45 5.17Q60.45 5.47 60.35 5.77L60.35 5.77L58.16 12.91L58.16 12.91Q58.11 13.08 58.11 13.20L58.11 13.20L58.11 13.20Q58.11 13.38 58.18 13.49L58.18 13.49L58.18 13.49Q58.25 13.59 58.38 13.69L58.38 13.69L58.38 13.69Q58.48 13.79 58.52 13.85L58.52 13.85L58.52 13.85Q58.56 13.92 58.53 14.01L58.53 14.01L58.53 14.01Q58.46 14.20 58.25 14.28L58.25 14.28L58.25 14.28Q58.04 14.36 57.61 14.36L57.61 14.36L54.42 14.36L54.42 14.36Q54.05 14.36 53.89 14.25L53.89 14.25L53.89 14.25Q53.72 14.13 53.77 13.93L53.77 13.93L53.77 13.93Q53.83 13.76 54.07 13.64L54.07 13.64L54.07 13.64Q54.28 13.52 54.42 13.37L54.42 13.37L54.42 13.37Q54.56 13.22 54.66 12.88L54.66 12.88L56.78 5.89L56.78 5.89Q56.83 5.77 56.83 5.68L56.83 5.68L56.83 5.68Q56.83 5.53 56.75 5.43L56.75 5.43L56.75 5.43Q56.67 5.33 56.55 5.24L56.55 5.24L56.55 5.24Q56.41 5.12 56.34 5.04L56.34 5.04L56.34 5.04Q56.28 4.96 56.32 4.82L56.32 4.82L56.32 4.82Q56.41 4.49 57.20 4.26L57.20 4.26L57.20 4.26Q58.00 4.02 58.87 4.02L58.87 4.02ZM65.79 7.14L65.79 7.14Q66.05 7.14 66.20 7.25L66.20 7.25L66.20 7.25Q66.35 7.36 66.35 7.56L66.35 7.56L66.35 7.56Q66.35 7.62 66.32 7.76L66.32 7.76L66.32 7.76Q66.14 8.37 65.48 8.37L65.48 8.37L64.67 8.37L63.62 11.83L63.62 11.83Q63.55 12.04 63.55 12.26L63.55 12.26L63.55 12.26Q63.55 12.52 63.69 12.61L63.69 12.61L63.69 12.61Q63.83 12.71 64.08 12.71L64.08 12.71L64.08 12.71Q64.30 12.71 64.64 12.66L64.64 12.66L64.64 12.66Q64.81 12.61 64.93 12.61L64.93 12.61L64.93 12.61Q65.03 12.61 65.08 12.68L65.08 12.68L65.08 12.68Q65.13 12.74 65.13 12.84L65.13 12.84L65.13 12.84Q65.14 13.12 64.72 13.52L64.72 13.52L64.72 13.52Q64.29 13.92 63.56 14.20L63.56 14.20L63.56 14.20Q62.83 14.49 61.95 14.49L61.95 14.49L61.95 14.49Q61.00 14.49 60.42 14.06L60.42 14.06L60.42 14.06Q59.85 13.62 59.85 12.87L59.85 12.87L59.85 12.87Q59.85 12.52 59.96 12.19L59.96 12.19L60.86 9.42L60.86 9.42Q60.93 9.18 60.93 9.04L60.93 9.04L60.93 9.04Q60.93 8.76 60.80 8.57L60.80 8.57L60.80 8.57Q60.66 8.37 60.42 8.16L60.42 8.16L60.42 8.16Q60.21 7.97 60.13 7.83L60.13 7.83L60.13 7.83Q60.05 7.70 60.09 7.52L60.09 7.52L60.09 7.52Q60.14 7.34 60.33 7.24L60.33 7.24L60.33 7.24Q60.51 7.14 60.90 7.14L60.90 7.14L61.68 7.14L62.57 6.26L62.57 6.26Q63.03 5.80 63.41 5.61L63.41 5.61L63.41 5.61Q63.80 5.43 64.41 5.43L64.41 5.43L64.41 5.43Q65.30 5.43 65.30 6.10L65.30 6.10L65.30 6.10Q65.30 6.31 65.24 6.50L65.24 6.50L65.04 7.14L65.79 7.14ZM74.98 9.67L74.13 12.43L74.13 12.43Q74.10 12.49 74.10 12.60L74.10 12.60L74.10 12.60Q74.10 12.70 74.15 12.75L74.15 12.75L74.15 12.75Q74.20 12.81 74.28 12.81L74.28 12.81L74.28 12.81Q74.45 12.81 74.57 12.66L74.57 12.66L74.57 12.66Q74.69 12.52 74.73 12.52L74.73 12.52L74.73 12.52Q74.80 12.52 74.84 12.61L74.84 12.61L74.84 12.61Q74.89 12.70 74.89 12.82L74.89 12.82L74.89 12.82Q74.90 13.23 74.62 13.62L74.62 13.62L74.62 13.62Q74.34 14 73.80 14.25L73.80 14.25L73.80 14.25Q73.26 14.49 72.51 14.49L72.51 14.49L72.51 14.49Q71.58 14.49 71.04 14.06L71.04 14.06L71.04 14.06Q70.49 13.64 70.48 12.92L70.48 12.92L70.48 12.92Q70.48 12.40 70.73 11.76L70.73 11.76L71.50 9.74L71.50 9.74Q71.57 9.56 71.57 9.45L71.57 9.45L71.57 9.45Q71.57 9.27 71.45 9.16L71.45 9.16L71.45 9.16Q71.33 9.06 71.16 9.06L71.16 9.06L71.16 9.06Q70.90 9.06 70.62 9.30L70.62 9.30L70.62 9.30Q70.35 9.55 70.18 10.09L70.18 10.09L70.18 10.07L69.30 12.91L69.30 12.91Q69.26 13.08 69.26 13.20L69.26 13.20L69.26 13.20Q69.26 13.38 69.33 13.49L69.33 13.49L69.33 13.49Q69.40 13.59 69.52 13.69L69.52 13.69L69.52 13.69Q69.62 13.79 69.66 13.85L69.66 13.85L69.66 13.85Q69.71 13.92 69.68 14.01L69.68 14.01L69.68 14.01Q69.61 14.20 69.40 14.28L69.40 14.28L69.40 14.28Q69.19 14.36 68.75 14.36L68.75 14.36L65.56 14.36L65.56 14.36Q65.20 14.36 65.03 14.25L65.03 14.25L65.03 14.25Q64.86 14.13 64.92 13.93L64.92 13.93L64.92 13.93Q64.97 13.76 65.21 13.64L65.21 13.64L65.21 13.64Q65.42 13.52 65.56 13.37L65.56 13.37L65.56 13.37Q65.70 13.22 65.80 12.88L65.80 12.88L67.93 5.89L67.93 5.89Q67.97 5.77 67.97 5.68L67.97 5.68L67.97 5.68Q67.97 5.53 67.89 5.43L67.89 5.43L67.89 5.43Q67.82 5.33 67.69 5.24L67.69 5.24L67.69 5.24Q67.55 5.12 67.49 5.04L67.49 5.04L67.49 5.04Q67.42 4.96 67.47 4.82L67.47 4.82L67.47 4.82Q67.55 4.49 68.35 4.26L68.35 4.26L68.35 4.26Q69.15 4.02 70.01 4.02L70.01 4.02L70.01 4.02Q70.83 4.02 71.21 4.33L71.21 4.33L71.21 4.33Q71.60 4.63 71.60 5.17L71.60 5.17L71.60 5.17Q71.60 5.47 71.50 5.77L71.50 5.77L70.74 8.23L70.74 8.23Q71.29 7.52 71.90 7.24L71.90 7.24L71.90 7.24Q72.51 6.96 73.22 6.96L73.22 6.96L73.22 6.96Q74.07 6.96 74.60 7.48L74.60 7.48L74.60 7.48Q75.12 7.99 75.12 8.82L75.12 8.82L75.12 8.82Q75.12 9.25 74.98 9.67L74.98 9.67ZM80.57 6.89L80.57 6.89Q81.42 6.89 82.07 7.13L82.07 7.13L82.07 7.13Q82.71 7.38 83.07 7.81L83.07 7.81L83.07 7.81Q83.43 8.23 83.43 8.75L83.43 8.75L83.43 8.75Q83.43 9.31 83.04 9.67L83.04 9.67L83.04 9.67Q82.66 10.04 82.00 10.04L82.00 10.04L82.00 10.04Q81.33 10.04 80.95 9.70L80.95 9.70L80.95 9.70Q80.57 9.35 80.57 8.76L80.57 8.76L80.57 8.76Q80.57 8.48 80.65 8.18L80.65 8.18L80.65 8.18Q80.07 8.33 79.61 8.79L79.61 8.79L79.61 8.79Q79.16 9.24 79.00 9.98L79.00 9.98L79.00 9.98Q78.92 10.40 78.92 10.74L78.92 10.74L78.92 10.74Q78.92 11.49 79.34 11.89L79.34 11.89L79.34 11.89Q79.76 12.28 80.54 12.28L80.54 12.28L80.54 12.28Q80.99 12.28 81.31 12.19L81.31 12.19L81.31 12.19Q81.63 12.10 81.97 11.94L81.97 11.94L81.97 11.94Q82.25 11.80 82.38 11.80L82.38 11.80L82.38 11.80Q82.46 11.80 82.49 11.84L82.49 11.84L82.49 11.84Q82.52 11.87 82.52 11.98L82.52 11.98L82.52 11.98Q82.53 12.50 82.09 13.07L82.09 13.07L82.09 13.07Q81.65 13.64 80.87 14.02L80.87 14.02L80.87 14.02Q80.09 14.41 79.13 14.41L79.13 14.41L79.13 14.41Q78.12 14.41 77.34 14.04L77.34 14.04L77.34 14.04Q76.57 13.66 76.14 12.97L76.14 12.97L76.14 12.97Q75.71 12.28 75.71 11.35L75.71 11.35L75.71 11.35Q75.71 10.92 75.82 10.39L75.82 10.39L75.82 10.39Q76.20 8.65 77.50 7.77L77.50 7.77L77.50 7.77Q78.79 6.89 80.57 6.89L80.57 6.89ZM88.07 6.96L88.07 6.96Q89.68 6.96 90.65 7.55L90.65 7.55L90.65 7.55Q91.62 8.15 91.62 9.37L91.62 9.37L91.62 9.37Q91.62 9.83 91.45 10.42L91.45 10.42L90.87 12.35L90.87 12.35Q90.86 12.40 90.86 12.49L90.86 12.49L90.86 12.49Q90.86 12.71 91.04 12.71L91.04 12.71L91.04 12.71Q91.21 12.71 91.33 12.57L91.33 12.57L91.33 12.57Q91.45 12.42 91.49 12.42L91.49 12.42L91.49 12.42Q91.56 12.42 91.61 12.52L91.61 12.52L91.61 12.52Q91.66 12.61 91.66 12.74L91.66 12.74L91.66 12.74Q91.67 13.12 91.37 13.51L91.37 13.51L91.37 13.51Q91.07 13.90 90.57 14.15L90.57 14.15L90.57 14.15Q90.06 14.41 89.46 14.41L89.46 14.41L89.46 14.41Q88.73 14.41 88.21 14.14L88.21 14.14L88.21 14.14Q87.70 13.87 87.50 13.36L87.50 13.36L87.50 13.36Q87.08 13.86 86.51 14.13L86.51 14.13L86.51 14.13Q85.93 14.41 85.27 14.41L85.27 14.41L85.27 14.41Q84.53 14.41 84.03 14.12L84.03 14.12L84.03 14.12Q83.52 13.83 83.28 13.38L83.28 13.38L83.28 13.38Q83.03 12.92 83.03 12.42L83.03 12.42L83.03 12.42Q83.03 12.19 83.08 11.98L83.08 11.98L83.08 11.98Q83.30 11.02 84.05 10.53L84.05 10.53L84.05 10.53Q84.80 10.04 85.83 10.04L85.83 10.04L85.83 10.04Q87.00 10.04 88.12 10.40L88.12 10.40L88.47 9.48L88.47 9.48Q88.65 8.89 88.65 8.57L88.65 8.57L88.65 8.57Q88.63 8.23 88.42 8.06L88.42 8.06L88.42 8.06Q88.21 7.90 87.78 7.90L87.78 7.90L87.78 7.90Q87.86 8.12 87.86 8.36L87.86 8.36L87.86 8.36Q87.86 8.88 87.47 9.25L87.47 9.25L87.47 9.25Q87.08 9.63 86.35 9.63L86.35 9.63L86.35 9.63Q85.67 9.63 85.28 9.33L85.28 9.33L85.28 9.33Q84.90 9.03 84.90 8.58L84.90 8.58L84.90 8.58Q84.90 7.88 85.68 7.42L85.68 7.42L85.68 7.42Q86.46 6.96 88.07 6.96L88.07 6.96ZM87.29 11.20L87.29 11.20Q86.90 11.20 86.65 11.50L86.65 11.50L86.65 11.50Q86.41 11.80 86.41 12.15L86.41 12.15L86.41 12.15Q86.41 12.38 86.51 12.52L86.51 12.52L86.51 12.52Q86.62 12.66 86.81 12.66L86.81 12.66L86.81 12.66Q87.00 12.66 87.21 12.51L87.21 12.51L87.21 12.51Q87.43 12.36 87.53 12.07L87.53 12.07L87.82 11.24L87.82 11.24Q87.58 11.20 87.29 11.20L87.29 11.20ZM99.11 6.96L99.11 6.96Q99.89 6.96 100.36 7.43L100.36 7.43L100.36 7.43Q100.83 7.91 100.83 8.61L100.83 8.61L100.83 8.61Q100.83 8.88 100.77 9.10L100.77 9.10L100.77 9.10Q100.63 9.67 100.24 9.98L100.24 9.98L100.24 9.98Q99.85 10.29 99.30 10.29L99.30 10.29L99.30 10.29Q98.77 10.29 98.50 10.04L98.50 10.04L98.50 10.04Q98.22 9.79 98.01 9.37L98.01 9.37L98.01 9.37Q97.90 9.13 97.80 9.02L97.80 9.02L97.80 9.02Q97.71 8.90 97.58 8.90L97.58 8.90L97.58 8.90Q97.44 8.90 97.33 9.02L97.33 9.02L97.33 9.02Q97.23 9.13 97.15 9.41L97.15 9.41L96.07 12.91L96.07 12.91Q96.04 12.98 96.04 13.12L96.04 13.12L96.04 13.12Q96.04 13.30 96.14 13.42L96.14 13.42L96.14 13.42Q96.25 13.54 96.43 13.65L96.43 13.65L96.43 13.65Q96.60 13.76 96.66 13.83L96.66 13.83L96.66 13.83Q96.71 13.90 96.70 14.01L96.70 14.01L96.70 14.01Q96.67 14.20 96.50 14.28L96.50 14.28L96.50 14.28Q96.32 14.36 95.90 14.36L95.90 14.36L92.32 14.36L92.32 14.36Q91.95 14.36 91.79 14.25L91.79 14.25L91.79 14.25Q91.63 14.13 91.67 13.93L91.67 13.93L91.67 13.93Q91.73 13.76 91.97 13.64L91.97 13.64L91.97 13.64Q92.18 13.52 92.32 13.37L92.32 13.37L92.32 13.37Q92.46 13.22 92.55 12.88L92.55 12.88L93.80 8.83L93.80 8.83Q93.83 8.76 93.83 8.64L93.83 8.64L93.83 8.64Q93.83 8.48 93.77 8.40L93.77 8.40L93.77 8.40Q93.70 8.32 93.56 8.19L93.56 8.19L93.56 8.19Q93.42 8.08 93.37 7.99L93.37 7.99L93.37 7.99Q93.31 7.91 93.35 7.77L93.35 7.77L93.35 7.77Q93.44 7.45 94.23 7.20L94.23 7.20L94.23 7.20Q95.03 6.96 95.90 6.96L95.90 6.96L95.90 6.96Q96.47 6.96 96.85 7.22L96.85 7.22L96.85 7.22Q97.23 7.48 97.34 7.95L97.34 7.95L97.34 7.95Q98.01 6.96 99.11 6.96L99.11 6.96ZM105.08 6.89L105.08 6.89Q106.86 6.89 107.66 7.46L107.66 7.46L107.66 7.46Q108.46 8.02 108.46 8.90L108.46 8.90L108.46 8.90Q108.46 9.17 108.40 9.39L108.40 9.39L108.40 9.39Q108.19 10.32 107.23 10.72L107.23 10.72L107.23 10.72Q106.27 11.12 104.97 11.12L104.97 11.12L104.97 11.12Q104.31 11.12 103.74 11.03L103.74 11.03L103.74 11.03Q103.73 11.76 104.13 12.05L104.13 12.05L104.13 12.05Q104.54 12.35 105.27 12.35L105.27 12.35L105.27 12.35Q105.60 12.35 105.91 12.27L105.91 12.27L105.91 12.27Q106.22 12.19 106.69 12.04L106.69 12.04L106.69 12.04Q107.09 11.90 107.23 11.90L107.23 11.90L107.23 11.90Q107.38 11.90 107.38 12.08L107.38 12.08L107.38 12.08Q107.39 12.57 107.02 13.11L107.02 13.11L107.02 13.11Q106.64 13.65 105.90 14.03L105.90 14.03L105.90 14.03Q105.15 14.41 104.10 14.41L104.10 14.41L104.10 14.41Q102.55 14.41 101.56 13.62L101.56 13.62L101.56 13.62Q100.56 12.84 100.56 11.34L100.56 11.34L100.56 11.34Q100.56 10.92 100.67 10.36L100.67 10.36L100.67 10.36Q101.02 8.64 102.21 7.76L102.21 7.76L102.21 7.76Q103.39 6.89 105.08 6.89L105.08 6.89ZM103.84 10.19L103.84 10.19Q103.89 10.21 103.99 10.21L103.99 10.21L103.99 10.21Q104.58 10.21 104.89 9.66L104.89 9.66L104.89 9.66Q105.20 9.11 105.18 8.44L105.18 8.44L105.18 8.44Q105.17 8.05 104.96 8.05L104.96 8.05L104.96 8.05Q104.80 8.05 104.59 8.30L104.59 8.30L104.59 8.30Q104.38 8.54 104.18 9.03L104.18 9.03L104.18 9.03Q103.98 9.52 103.84 10.19L103.84 10.19Z"></path></g><!----><!----></svg>