<svg width="142" height="143" viewBox="0 0 142 143" fill="none" xmlns="http://www.w3.org/2000/svg">
<circle cx="71" cy="71.1479" r="71" fill="#FECABF"/>
<path d="M65.636 100.972C63.196 100.972 60.884 99.9159 59.296 98.0719L46.176 83.3679H39.492C38.2 85.0159 36.26 85.9799 34.156 85.9799C34.064 85.9799 33.972 85.9799 33.876 85.9759H25.996C24.344 85.9759 23 84.6319 23 82.9759C23 81.3199 24.344 79.9759 26 79.9759H34.004C34.384 79.9759 34.672 79.8399 34.84 79.6119C34.88 79.4559 34.936 79.3039 35 79.1519V53.6399C34.984 53.3199 34.576 52.9719 34.128 52.9719L26 52.9759C24.344 52.9759 23 51.6319 23 49.9759C23 48.3199 24.344 46.9759 26 46.9759H34C34.028 46.9719 34.12 46.9719 34.208 46.9719C37.416 46.9719 40.196 49.3279 40.856 52.4119L54.688 46.8799C56.036 46.3359 57.46 46.0599 58.916 46.0599C61.368 46.0599 63.704 46.8279 65.68 48.2799L65.732 48.3199L75.376 43.4679C77.088 42.6039 79.016 42.1479 80.952 42.1479C82.412 42.1479 83.84 42.3999 85.2 42.8999L102.704 49.3039C103.984 47.8399 105.852 46.9679 107.816 46.9679C107.92 46.9679 108.028 46.9719 108.132 46.9759H116C117.656 46.9759 119 48.3199 119 49.9759C119 51.6319 117.656 52.9759 116 52.9759L107.892 52.9719C107.412 52.9719 107.016 53.3279 106.996 53.7799L107 79.3079C107.016 79.6319 107.392 79.9799 107.796 79.9799C107.828 79.9799 107.908 79.9759 107.936 79.9759H115.996C117.652 79.9759 118.996 81.3199 118.996 82.9759C118.996 84.6319 117.652 85.9759 115.996 85.9759H107.996C107.964 85.9799 107.876 85.9799 107.784 85.9799C105.84 85.9799 104.016 85.1279 102.728 83.6639L84.076 87.2279C83.884 87.2639 83.696 87.2799 83.512 87.2799C83.436 87.2799 83.364 87.2759 83.304 87.2679C83.24 87.4639 83.168 87.6599 83.092 87.8519C81.62 91.5279 78.112 93.9039 74.148 93.9039C74.064 93.9039 73.98 93.9039 73.896 93.8999C73.592 95.8439 72.608 97.6359 71.096 98.9399C69.58 100.248 67.64 100.972 65.636 100.972ZM47.52 77.3679C48.372 77.3679 49.188 77.7319 49.756 78.3679L63.804 94.1119C64.28 94.6639 64.944 94.9679 65.64 94.9679C66.204 94.9679 66.752 94.7639 67.18 94.3959C67.7 93.9439 68 93.2919 68 92.6039V91.3879L64.968 88.3559C63.8 87.1879 63.8 85.2839 64.968 84.1119C65.536 83.5439 66.288 83.2319 67.088 83.2319C67.888 83.2319 68.644 83.5439 69.208 84.1119L72.684 87.5879L72.812 87.6399C73.244 87.8119 73.692 87.8999 74.152 87.8999C75.648 87.8999 76.968 87.0039 77.524 85.6199C77.56 85.5359 77.588 85.4439 77.616 85.3519L72.792 80.5279C72.224 79.9599 71.912 79.2079 71.912 78.4079C71.912 77.6079 72.224 76.8519 72.792 76.2879C73.36 75.7239 74.112 75.4079 74.912 75.4079C75.712 75.4079 76.468 75.7199 77.032 76.2879L82.024 81.2799H82.736C84.32 81.2799 85.604 79.9879 85.604 78.4039C85.604 77.7879 85.4 77.1759 85.032 76.6879L73.812 62.3119L67.732 64.3199C66.96 64.5759 66.156 64.7039 65.352 64.7039C62.396 64.7039 59.688 62.9679 58.448 60.2839C57.148 57.4919 57.672 54.3119 59.56 52.0999C59.352 52.0759 59.14 52.0599 58.928 52.0599C58.232 52.0639 57.544 52.1999 56.928 52.4479L41 58.8159V77.3679H47.52ZM89.8 73.0439C90.972 74.6039 91.608 76.4999 91.608 78.4039C91.608 78.8399 91.576 79.2719 91.512 79.6999L101 77.8879V55.0759L83.136 48.5359C82.436 48.2799 81.7 48.1479 80.948 48.1479C79.952 48.1479 78.956 48.3839 78.076 48.8279L64.636 55.5879C63.84 55.9919 63.512 56.9439 63.892 57.7599C64.156 58.3359 64.728 58.7039 65.352 58.7039C65.52 58.7039 65.688 58.6759 65.852 58.6239L79.72 54.0399C80.024 53.9399 80.344 53.8879 80.664 53.8879C81.96 53.8879 83.104 54.7159 83.512 55.9479C83.764 56.7079 83.704 57.5199 83.344 58.2399C82.984 58.9559 82.368 59.4879 81.604 59.7399L79.864 60.3159L89.8 73.0439Z" fill="white"/>
</svg>
