<svg width="130" height="130" viewBox="0 0 130 130" fill="none" xmlns="http://www.w3.org/2000/svg">
<path d="M16.3512 81.8133C17.6512 106.773 40.4734 125.84 67.3401 124.453C94.2067 123.067 114.92 101.689 113.62 76.7578C112.32 51.7978 87.9956 4.13111 61.1579 5.51778C34.2912 6.90445 15.0512 56.8533 16.3512 81.8133Z" fill="#54BDB8"/>
<path opacity="0.9" d="M81.2646 65.1156L78.5201 46.3667C77.8557 41.7733 73.8401 38.3356 69.2179 38.3356H67.7157C69.1601 36.8622 70.1423 34.3489 70.1423 31.4889C70.1423 26.9533 67.7446 23.2845 64.769 23.2845C61.7934 23.2845 59.3957 26.9533 59.3957 31.4889C59.3957 34.3489 60.349 36.8622 61.8223 38.3356H60.4357C55.6979 38.3356 51.7112 41.86 51.1046 46.5689L48.7646 65.1733C48.5623 66.6756 49.6312 68.0333 51.1335 68.2067C52.6357 68.38 53.9934 67.34 54.1668 65.8378L56.5068 47.2333C56.5068 47.2333 56.5357 47.1178 56.5357 47.06L57.5468 67.1667V67.6C57.5468 67.9178 57.5757 68.2356 57.6335 68.5533V99.4644C57.6335 100.967 58.8468 102.18 60.349 102.18C61.8512 102.18 63.0646 100.967 63.0646 99.4644V72.9733H66.5601V99.4644C66.5601 100.967 67.7734 102.18 69.2757 102.18C70.7779 102.18 71.9912 100.967 71.9912 99.4644V67.1667C71.9912 67.1667 71.9912 67.1378 71.9912 67.1089L73.0023 46.6556C73.0601 46.8289 73.089 47.0022 73.1179 47.1756L75.8623 65.9244C76.0646 67.2822 77.2201 68.2645 78.549 68.2645C78.6934 68.2645 78.809 68.2645 78.9534 68.2356C80.4557 68.0045 81.4668 66.6467 81.2646 65.1445V65.1156Z" fill="white"/>
</svg>
