<svg width="130" height="130" viewBox="0 0 130 130" fill="none" xmlns="http://www.w3.org/2000/svg">
<path d="M16.5245 74.1578C13.9533 99.0022 33.5689 121.391 60.32 124.164C87.0711 126.938 110.847 109.027 113.418 84.1822C115.989 59.3378 99.32 8.46444 72.54 5.72C45.76 2.97556 19.0956 49.3133 16.5245 74.1578Z" fill="#54BDB8"/>
<path opacity="0.9" d="M89.9889 44.3444L68.9867 36.6311C67.9178 36.2267 66.7045 36.2267 65.6356 36.6311L44.6333 44.3444C42.7267 45.0378 41.4556 46.8578 41.4556 48.9089V76.3533C41.4556 92.6178 59.2511 101.833 65.3178 104.52C66.5889 105.069 68.0333 105.069 69.3045 104.52C75.3711 101.776 93.1956 92.3 93.1956 76.3822V48.9378C93.1956 46.9156 91.9244 45.0667 90.0178 44.3733L89.9889 44.3444Z" fill="white"/>
<path d="M83.1711 63.2667L64.7689 81.6689C64.2778 82.16 63.6422 82.42 62.9489 82.42C62.2555 82.42 61.62 82.16 61.1289 81.6689L51.4511 71.9911C50.44 70.98 50.44 69.3622 51.4511 68.3511C52.4622 67.34 54.08 67.34 55.0911 68.3511L62.92 76.18L79.4733 59.6267C80.4844 58.6156 82.1022 58.6156 83.1133 59.6267C84.1244 60.6378 84.1244 62.2556 83.1133 63.2667H83.1711Z" fill="#54BDB8"/>
</svg>
