<svg width="140" height="100" viewBox="0 0 140 100" fill="none" xmlns="http://www.w3.org/2000/svg">
<g clip-path="url(#clip0)">
<path d="M63.7404 48.7416H57.8966V54.2521H64.4266V55.8926H55.9418V40.644H64.0939V42.2846H57.8966V47.101H63.7404V48.7416Z" fill="#00254D"/>
<path d="M66.8598 39.845H68.8147V55.8928H66.8598V39.845Z" fill="#00254D"/>
<path d="M74.3256 41.864C74.3256 42.537 73.8473 43.1049 73.0778 43.1049C72.3708 43.1049 71.8925 42.537 71.8925 41.864C71.8925 41.1909 72.3916 40.623 73.1194 40.623C73.8473 40.623 74.3256 41.1699 74.3256 41.864ZM72.142 55.8926V44.9557H74.0968V55.8926H72.142Z" fill="#00254D"/>
<path d="M79.7326 41.8008V44.9557H82.5609V46.47H79.7326V52.3591C79.7326 53.7262 80.1277 54.4834 81.2091 54.4834C81.729 54.4834 82.0826 54.4203 82.3529 54.3362L82.4361 55.8505C82.0618 55.9977 81.4379 56.1239 80.6892 56.1239C79.795 56.1239 79.0255 55.8295 78.568 55.2826C78.0273 54.6727 77.7986 53.7052 77.7986 52.4222V46.47H76.1141V44.9557H77.7986V42.3266L79.7326 41.8008Z" fill="#00254D"/>
<path d="M85.7219 50.782C85.7635 53.4742 87.448 54.5889 89.4237 54.5889C90.8378 54.5889 91.6904 54.3365 92.4183 54.021L92.7719 55.4302C92.0856 55.7457 90.8794 56.1243 89.1741 56.1243C85.8467 56.1243 83.8503 53.8948 83.8503 50.6137C83.8503 47.2906 85.7843 44.7036 88.9454 44.7036C92.4807 44.7036 93.3957 47.8375 93.3957 49.8566C93.3957 50.2772 93.3749 50.5717 93.3333 50.782H85.7219V50.782ZM91.4825 49.3518C91.5033 48.0898 90.9834 46.1338 88.779 46.1338C86.7617 46.1338 85.9091 47.9637 85.7635 49.3518H91.4825Z" fill="#00254D"/>
<path d="M111.156 55.4087C110.449 55.7663 109.014 56.1449 107.163 56.1449C102.92 56.1449 99.7386 53.4317 99.7386 48.4259C99.7386 43.6516 102.92 40.4336 107.6 40.4336C109.471 40.4336 110.657 40.8332 111.176 41.1066L110.698 42.7051C109.97 42.3476 108.91 42.0741 107.662 42.0741C104.127 42.0741 101.777 44.3667 101.777 48.3628C101.777 52.0856 103.898 54.4833 107.558 54.4833C108.764 54.4833 109.97 54.2309 110.74 53.8523L111.156 55.4087Z" fill="#00254D"/>
<path d="M119.37 55.8929L119.204 54.5048H119.141C118.538 55.3671 117.374 56.1243 115.835 56.1243C113.651 56.1243 112.528 54.5469 112.528 52.9905C112.528 50.3404 114.857 48.8891 119.017 48.9101V48.6788C119.017 47.7954 118.767 46.1339 116.563 46.1549C115.564 46.1549 114.504 46.4493 113.755 46.9752L113.318 45.6501C114.213 45.0612 115.523 44.6826 116.895 44.6826C120.202 44.6826 121.013 46.9752 121.013 49.1625V53.2639C121.013 54.1893 121.055 55.1358 121.179 55.8719H119.37V55.8929ZM119.079 50.2983C116.958 50.2562 114.525 50.6348 114.525 52.7591C114.525 54.0631 115.377 54.6731 116.355 54.6731C117.769 54.6731 118.684 53.7687 118.996 52.8432C119.058 52.6329 119.079 52.4015 119.079 52.2123V50.2983Z" fill="#00254D"/>
<path d="M124.153 48.3633C124.153 47.0803 124.112 45.9656 124.07 44.956H125.796L125.879 47.1013H125.942C126.441 45.629 127.647 44.7036 128.957 44.7036C129.165 44.7036 129.332 44.7246 129.498 44.7667V46.6386C129.29 46.5965 129.103 46.5755 128.832 46.5755C127.439 46.5755 126.462 47.6271 126.191 49.1204C126.15 49.3939 126.108 49.7304 126.108 50.0459V55.8929H124.153V48.3633Z" fill="#00254D"/>
<path d="M132.347 50.782C132.389 53.4742 134.073 54.5889 136.049 54.5889C137.463 54.5889 138.316 54.3365 139.043 54.021L139.397 55.4302C138.711 55.7457 137.504 56.1243 135.799 56.1243C132.472 56.1243 130.475 53.8948 130.475 50.6137C130.475 47.2906 132.409 44.7036 135.57 44.7036C139.106 44.7036 140.021 47.8375 140.021 49.8566C140.021 50.2772 140 50.5717 139.958 50.782H132.347V50.782ZM138.108 49.3518C138.128 48.0898 137.608 46.1338 135.404 46.1338C133.387 46.1338 132.534 47.9637 132.389 49.3518H138.108Z" fill="#00254D"/>
<path d="M19.9643 31.9998C19.9643 31.9998 31.4854 39.6766 22.5222 56.0189C22.751 51.7072 22.8342 47.2483 20.817 44.1145C18.7997 40.9806 18.259 35.6804 19.9643 31.9998Z" fill="#00254D"/>
<path d="M31.9638 36.4587C31.9638 36.4587 36.227 47.5639 23.1462 56.6499C25.309 53.2847 27.0975 49.3727 27.3262 46.2389C27.555 43.105 29.6346 37.0056 31.9638 36.4587Z" fill="#00254D"/>
<path d="M38.5354 45.6914C38.5354 45.6914 37.0589 54.3778 24.5396 56.7966C27.7838 54.6933 30.8824 52.4849 31.5895 51.0757C32.2757 49.6876 34.5841 45.8597 38.5354 45.6914Z" fill="#00254D"/>
<path d="M9.35829 37.321C9.35829 37.321 22.2103 40.3708 21.732 55.7035C20.4843 51.9386 18.8622 49.3727 16.6162 47.648C14.3702 45.9233 9.04635 41.149 9.35829 37.321Z" fill="#00254D"/>
<path d="M4.49194 47.0171C4.49194 47.0171 15.1604 44.6615 21.2121 55.9349C19.0493 53.8948 15.3268 51.8756 13.3927 51.6233C11.4587 51.4129 5.65653 50.0038 4.49194 47.0171Z" fill="#00254D"/>
<path d="M4.26324 54.4628C4.26324 54.4628 15.4932 52.4227 20.817 56.6502C14.7861 57.0498 11.5211 58.2907 4.26324 54.4628Z" fill="#00254D"/>
<path d="M0 52.8223C0 52.8223 3.55615 60.6043 13.164 60.6043C22.7718 60.6043 29.4474 55.5986 36.7261 55.5986C44.0047 55.5986 45.8972 61.0039 45.8972 61.0039C45.0445 60.3309 42.0707 58.1014 36.6845 58.1014C31.2983 58.1014 21.5241 63.6119 13.164 63.6119C4.80392 63.6119 0 55.5565 0 52.8223Z" fill="#00254D"/>
<path d="M42.0083 61.1299C41.3844 60.9196 39.2216 60.2045 35.4783 60.6251C31.735 61.0668 25.1634 64.2217 19.3405 64.8947C17.8847 65.063 16.5746 64.9999 15.41 64.7895C18.0095 64.3479 21.8984 63.4645 27.243 61.7188C27.3054 61.6978 27.3678 61.6767 27.4302 61.6557C30.1961 60.7513 32.7124 59.8469 35.3951 59.5314C40.4694 58.9635 42.0083 61.1299 42.0083 61.1299Z" fill="#00254D"/>
<path d="M28.3452 61.74C28.4076 61.719 28.4908 61.6979 28.5532 61.6769C28.6572 61.6559 28.7611 61.6138 28.8443 61.5928" fill="#00254D"/>
</g>
<defs>
<clipPath id="clip0">
<rect width="140" height="33" fill="white" transform="translate(0 32)"/>
</clipPath>
</defs>
</svg>
