<svg width="547" height="41" viewBox="0 0 547 41" fill="none" xmlns="http://www.w3.org/2000/svg">
<path d="M11.0896 24.8419V27H3.94187V24.8419H11.0896ZM4.84571 13.5715V27H2.07885V13.5715H4.84571ZM10.1581 19.0407V21.1435H3.94187V19.0407H10.1581ZM11.0803 13.5715V15.7389H3.94187V13.5715H11.0803ZM14.6773 17.0209L16.3281 20.0552L18.0252 17.0209H20.8566L18.0344 21.8998L20.9857 27H18.145L16.3466 23.7905L14.5481 27H11.7075L14.6588 21.8998L11.8366 17.0209H14.6773ZM26.0859 25.1093C26.4118 25.1093 26.7008 25.0478 26.9529 24.9249C27.205 24.7957 27.4017 24.6174 27.5431 24.3899C27.6907 24.1563 27.7675 23.8827 27.7737 23.5691H30.2731C30.2669 24.27 30.0794 24.8941 29.7105 25.4413C29.3416 25.9824 28.8466 26.4097 28.2256 26.7233C27.6046 27.0307 26.9098 27.1845 26.1413 27.1845C25.3665 27.1845 24.6902 27.0553 24.1122 26.7971C23.5404 26.5389 23.0639 26.1822 22.6827 25.7272C22.3015 25.2661 22.0156 24.7312 21.825 24.1225C21.6344 23.5076 21.5391 22.8497 21.5391 22.1488V21.8813C21.5391 21.1742 21.6344 20.5163 21.825 19.9076C22.0156 19.2928 22.3015 18.7579 22.6827 18.3029C23.0639 17.8417 23.5404 17.482 24.1122 17.2238C24.684 16.9655 25.3542 16.8364 26.1228 16.8364C26.9406 16.8364 27.6569 16.9932 28.2717 17.3068C28.8927 17.6204 29.3785 18.0692 29.7289 18.6533C30.0856 19.2313 30.2669 19.9169 30.2731 20.71H27.7737C27.7675 20.378 27.6968 20.0767 27.5616 19.8062C27.4325 19.5356 27.2418 19.3204 26.9898 19.1606C26.7438 18.9946 26.4395 18.9116 26.0767 18.9116C25.6893 18.9116 25.3727 18.9946 25.1267 19.1606C24.8808 19.3204 24.6902 19.5418 24.5549 19.8246C24.4197 20.1013 24.3244 20.418 24.269 20.7746C24.2198 21.125 24.1952 21.494 24.1952 21.8813V22.1488C24.1952 22.5361 24.2198 22.9081 24.269 23.2647C24.3182 23.6214 24.4104 23.938 24.5457 24.2147C24.6871 24.4914 24.8808 24.7097 25.1267 24.8695C25.3727 25.0294 25.6924 25.1093 26.0859 25.1093ZM36.4063 27.1845C35.6316 27.1845 34.9368 27.0615 34.3219 26.8155C33.7071 26.5635 33.1844 26.2161 32.754 25.7734C32.3298 25.3307 32.0039 24.8173 31.7764 24.2331C31.5489 23.6429 31.4352 23.0157 31.4352 22.3517V21.9828C31.4352 21.2265 31.5428 20.5348 31.758 19.9076C31.9732 19.2805 32.2806 18.7363 32.6803 18.2752C33.0861 17.814 33.5779 17.4605 34.1559 17.2146C34.7339 16.9625 35.3856 16.8364 36.1112 16.8364C36.8182 16.8364 37.4454 16.9532 37.9926 17.1869C38.5398 17.4205 38.9979 17.7526 39.3668 18.183C39.7419 18.6134 40.0247 19.1298 40.2153 19.7324C40.4059 20.3288 40.5012 20.9929 40.5012 21.7245V22.8313H32.5696V21.0605H37.8912V20.8576C37.8912 20.4887 37.8235 20.1597 37.6883 19.8707C37.5591 19.5756 37.3624 19.342 37.098 19.1698C36.8336 18.9976 36.4954 18.9116 36.0835 18.9116C35.733 18.9116 35.4317 18.9884 35.1796 19.1421C34.9276 19.2959 34.7216 19.5111 34.5617 19.7877C34.408 20.0644 34.2912 20.3903 34.2112 20.7654C34.1375 21.1343 34.1006 21.5401 34.1006 21.9828V22.3517C34.1006 22.7513 34.1559 23.1203 34.2666 23.4584C34.3834 23.7966 34.5463 24.0887 34.7554 24.3346C34.9706 24.5805 35.2288 24.7711 35.5301 24.9064C35.8375 25.0417 36.1849 25.1093 36.5723 25.1093C37.0519 25.1093 37.4977 25.0171 37.9096 24.8326C38.3277 24.642 38.6874 24.3561 38.9887 23.9749L40.2799 25.3768C40.0708 25.6781 39.7849 25.967 39.4222 26.2437C39.0655 26.5204 38.6351 26.7479 38.131 26.9262C37.6268 27.0984 37.0519 27.1845 36.4063 27.1845ZM44.8175 12.8337V27H42.1521V12.8337H44.8175ZM49.8163 12.8337V27H47.1509V12.8337H49.8163ZM56.6043 27.1845C55.8296 27.1845 55.1348 27.0615 54.5199 26.8155C53.9051 26.5635 53.3825 26.2161 52.9521 25.7734C52.5278 25.3307 52.2019 24.8173 51.9744 24.2331C51.7469 23.6429 51.6332 23.0157 51.6332 22.3517V21.9828C51.6332 21.2265 51.7408 20.5348 51.956 19.9076C52.1712 19.2805 52.4786 18.7363 52.8783 18.2752C53.2841 17.814 53.776 17.4605 54.3539 17.2146C54.9319 16.9625 55.5836 16.8364 56.3092 16.8364C57.0163 16.8364 57.6434 16.9532 58.1906 17.1869C58.7379 17.4205 59.1959 17.7526 59.5648 18.183C59.9399 18.6134 60.2227 19.1298 60.4133 19.7324C60.6039 20.3288 60.6993 20.9929 60.6993 21.7245V22.8313H52.7676V21.0605H58.0892V20.8576C58.0892 20.4887 58.0216 20.1597 57.8863 19.8707C57.7572 19.5756 57.5604 19.342 57.296 19.1698C57.0316 18.9976 56.6935 18.9116 56.2815 18.9116C55.931 18.9116 55.6298 18.9884 55.3777 19.1421C55.1256 19.2959 54.9196 19.5111 54.7597 19.7877C54.606 20.0644 54.4892 20.3903 54.4093 20.7654C54.3355 21.1343 54.2986 21.5401 54.2986 21.9828V22.3517C54.2986 22.7513 54.3539 23.1203 54.4646 23.4584C54.5814 23.7966 54.7444 24.0887 54.9534 24.3346C55.1686 24.5805 55.4269 24.7711 55.7281 24.9064C56.0356 25.0417 56.383 25.1093 56.7703 25.1093C57.2499 25.1093 57.6957 25.0171 58.1076 24.8326C58.5257 24.642 58.8854 24.3561 59.1867 23.9749L60.4779 25.3768C60.2689 25.6781 59.9829 25.967 59.6202 26.2437C59.2636 26.5204 58.8332 26.7479 58.329 26.9262C57.8248 27.0984 57.2499 27.1845 56.6043 27.1845ZM64.8126 19.1514V27H62.1565V17.0209H64.6466L64.8126 19.1514ZM64.4253 21.66H63.7059C63.7059 20.9221 63.8012 20.2581 63.9918 19.6678C64.1824 19.0714 64.4499 18.5642 64.7942 18.1461C65.1385 17.7218 65.5474 17.399 66.0208 17.1777C66.5004 16.9502 67.0353 16.8364 67.6256 16.8364C68.0929 16.8364 68.5202 16.9041 68.9076 17.0393C69.2949 17.1746 69.627 17.3898 69.9037 17.6849C70.1865 17.9801 70.4017 18.3705 70.5493 18.8562C70.703 19.342 70.7798 19.9353 70.7798 20.6362V27H68.1052V20.627C68.1052 20.1843 68.0437 19.84 67.9207 19.5941C67.7978 19.3481 67.6164 19.176 67.3766 19.0776C67.1429 18.9731 66.854 18.9208 66.5096 18.9208C66.153 18.9208 65.8425 18.9915 65.5781 19.1329C65.3199 19.2743 65.1047 19.4711 64.9325 19.7232C64.7665 19.9691 64.6405 20.2581 64.5544 20.5901C64.4683 20.9221 64.4253 21.2788 64.4253 21.66ZM77.6877 17.0209V18.9023H71.8773V17.0209H77.6877ZM73.3161 14.5584H75.9723V23.9934C75.9723 24.2823 76.0092 24.5037 76.083 24.6574C76.1629 24.8111 76.2797 24.9187 76.4334 24.9802C76.5871 25.0355 76.7808 25.0632 77.0145 25.0632C77.1805 25.0632 77.328 25.0571 77.4572 25.0448C77.5924 25.0263 77.7062 25.0079 77.7984 24.9894L77.8076 26.9447C77.5801 27.0184 77.3342 27.0769 77.0698 27.1199C76.8054 27.1629 76.5134 27.1845 76.1936 27.1845C75.6095 27.1845 75.0992 27.0892 74.6626 26.8985C74.2322 26.7018 73.9002 26.3882 73.6666 25.9578C73.4329 25.5274 73.3161 24.9618 73.3161 24.2608V14.5584Z" fill="#00264D"/>
<path d="M130.125 4.72205H98.6445V36.2027H130.125V4.72205Z" fill="#219653"/>
<path d="M164.23 4.72205H132.749V36.2027H164.23V4.72205Z" fill="#219653"/>
<path d="M198.333 4.72205H166.853V36.2027H198.333V4.72205Z" fill="#219653"/>
<path d="M232.438 4.72205H200.957V36.2027H232.438V4.72205Z" fill="#219653"/>
<path d="M266.541 4.72205H235.061V36.2027H266.541V4.72205Z" fill="#219653"/>
<path d="M114.384 25.9385L119.172 24.7251L121.172 30.8901L114.384 25.9385ZM125.403 17.9699H116.975L114.384 10.0342L111.794 17.9699H103.366L110.187 22.8888L107.596 30.8245L114.417 25.9057L118.615 22.8888L125.403 17.9699Z" fill="white"/>
<path d="M148.489 25.9385L153.277 24.7251L155.277 30.8901L148.489 25.9385ZM159.507 17.9699H151.08L148.489 10.0342L145.898 17.9699H137.471L144.292 22.8888L141.701 30.8245L148.522 25.9057L152.719 22.8888L159.507 17.9699Z" fill="white"/>
<path d="M182.592 25.9385L187.38 24.7251L189.38 30.8901L182.592 25.9385ZM193.611 17.9699H185.183L182.592 10.0342L180.002 17.9699H171.574L178.395 22.8888L175.804 30.8245L182.625 25.9057L186.823 22.8888L193.611 17.9699Z" fill="white"/>
<path d="M216.697 25.9385L221.485 24.7251L223.485 30.8901L216.697 25.9385ZM227.715 17.9699H219.288L216.697 10.0342L214.106 17.9699H205.679L212.5 22.8888L209.909 30.8245L216.73 25.9057L220.927 22.8888L227.715 17.9699Z" fill="white"/>
<path d="M250.8 25.9385L255.588 24.7251L257.588 30.8901L250.8 25.9385ZM261.819 17.9699H253.391L250.8 10.0342L248.21 17.9699H239.782L246.603 22.8888L244.012 30.8245L250.833 25.9057L255.031 22.8888L261.819 17.9699Z" fill="white"/>
<path d="M294.401 13.5439V27H291.744V16.6059L288.553 17.6204V15.5268L294.115 13.5439H294.401ZM301.493 19.1329H302.913C303.368 19.1329 303.743 19.0561 304.039 18.9023C304.334 18.7425 304.552 18.5211 304.693 18.2383C304.841 17.9493 304.915 17.6142 304.915 17.233C304.915 16.8887 304.847 16.5843 304.712 16.3199C304.583 16.0494 304.383 15.8404 304.112 15.6928C303.842 15.5391 303.501 15.4622 303.089 15.4622C302.763 15.4622 302.461 15.5268 302.185 15.6559C301.908 15.785 301.687 15.9664 301.521 16.2C301.355 16.4337 301.272 16.7165 301.272 17.0486H298.606C298.606 16.3107 298.803 15.6682 299.197 15.121C299.596 14.5738 300.131 14.1464 300.801 13.839C301.471 13.5316 302.209 13.3779 303.015 13.3779C303.925 13.3779 304.721 13.5254 305.403 13.8206C306.086 14.1095 306.618 14.5369 306.999 15.1025C307.38 15.6682 307.571 16.3691 307.571 17.2053C307.571 17.6296 307.472 18.0415 307.276 18.4412C307.079 18.8347 306.796 19.1913 306.427 19.5111C306.064 19.8246 305.622 20.0767 305.099 20.2673C304.576 20.4518 303.989 20.544 303.338 20.544H301.493V19.1329ZM301.493 21.1527V19.7785H303.338C304.069 19.7785 304.712 19.8615 305.265 20.0275C305.819 20.1935 306.283 20.4333 306.658 20.7469C307.033 21.0543 307.316 21.4202 307.506 21.8444C307.697 22.2625 307.792 22.7267 307.792 23.2371C307.792 23.8642 307.672 24.4238 307.433 24.9156C307.193 25.4014 306.855 25.8133 306.418 26.1515C305.988 26.4897 305.483 26.7479 304.905 26.9262C304.327 27.0984 303.697 27.1845 303.015 27.1845C302.449 27.1845 301.893 27.1076 301.345 26.9539C300.804 26.794 300.312 26.5573 299.87 26.2437C299.433 25.924 299.083 25.5243 298.818 25.0448C298.56 24.559 298.431 23.9841 298.431 23.3201H301.096C301.096 23.6644 301.182 23.9718 301.355 24.2424C301.527 24.5129 301.764 24.725 302.065 24.8787C302.372 25.0325 302.713 25.1093 303.089 25.1093C303.513 25.1093 303.876 25.0325 304.177 24.8787C304.484 24.7189 304.718 24.4975 304.878 24.2147C305.044 23.9257 305.127 23.5906 305.127 23.2094C305.127 22.7175 305.038 22.324 304.859 22.0289C304.681 21.7276 304.426 21.5063 304.094 21.3648C303.762 21.2234 303.368 21.1527 302.913 21.1527H301.493ZM312.118 20.8853L309.996 20.378L310.762 13.5715H318.306V15.7205H312.948L312.616 18.6994C312.794 18.5949 313.065 18.4842 313.427 18.3674C313.79 18.2444 314.196 18.183 314.645 18.183C315.297 18.183 315.874 18.2844 316.379 18.4873C316.883 18.6902 317.31 18.9853 317.661 19.3727C318.017 19.7601 318.288 20.2335 318.472 20.793C318.657 21.3525 318.749 21.9858 318.749 22.6929C318.749 23.2893 318.657 23.8581 318.472 24.3992C318.288 24.9341 318.008 25.4137 317.633 25.8379C317.258 26.256 316.788 26.585 316.222 26.8248C315.656 27.0646 314.986 27.1845 314.211 27.1845C313.633 27.1845 313.074 27.0984 312.533 26.9262C311.998 26.7541 311.515 26.4989 311.085 26.1607C310.661 25.8226 310.319 25.4137 310.061 24.9341C309.809 24.4483 309.677 23.895 309.664 23.274H312.302C312.339 23.6552 312.437 23.9841 312.597 24.2608C312.763 24.5314 312.982 24.7404 313.252 24.888C313.523 25.0355 313.839 25.1093 314.202 25.1093C314.54 25.1093 314.829 25.0448 315.069 24.9156C315.309 24.7865 315.502 24.6082 315.65 24.3807C315.798 24.1471 315.905 23.8765 315.973 23.5691C316.047 23.2555 316.084 22.9174 316.084 22.5546C316.084 22.1918 316.04 21.8629 315.954 21.5677C315.868 21.2726 315.736 21.0174 315.558 20.8022C315.38 20.587 315.152 20.421 314.875 20.3042C314.605 20.1874 314.288 20.129 313.925 20.129C313.434 20.129 313.052 20.2058 312.782 20.3596C312.517 20.5133 312.296 20.6885 312.118 20.8853Z" fill="black"/>
<path d="M327.252 18.5888V27H325.546V17.0209H327.206L327.252 18.5888ZM330.37 16.9655L330.361 18.5519C330.219 18.5211 330.084 18.5027 329.955 18.4965C329.832 18.4842 329.69 18.4781 329.53 18.4781C329.137 18.4781 328.79 18.5396 328.488 18.6625C328.187 18.7855 327.932 18.9577 327.723 19.179C327.514 19.4004 327.348 19.6648 327.225 19.9722C327.108 20.2735 327.031 20.6055 326.994 20.9683L326.515 21.2449C326.515 20.6424 326.573 20.0767 326.69 19.5479C326.813 19.0192 327 18.5519 327.252 18.1461C327.504 17.7341 327.824 17.4144 328.212 17.1869C328.605 16.9532 329.072 16.8364 329.613 16.8364C329.736 16.8364 329.878 16.8518 330.038 16.8825C330.198 16.9071 330.308 16.9348 330.37 16.9655ZM335.903 27.1845C335.209 27.1845 334.578 27.0676 334.013 26.834C333.453 26.5942 332.971 26.2591 332.565 25.8287C332.165 25.3983 331.858 24.888 331.642 24.2977C331.427 23.7074 331.32 23.0618 331.32 22.3609V21.9735C331.32 21.1619 331.44 20.4395 331.679 19.8062C331.919 19.1667 332.245 18.6257 332.657 18.183C333.069 17.7403 333.536 17.4052 334.059 17.1777C334.581 16.9502 335.123 16.8364 335.682 16.8364C336.395 16.8364 337.01 16.9594 337.527 17.2053C338.049 17.4513 338.477 17.7956 338.809 18.2383C339.141 18.6748 339.387 19.1913 339.546 19.7877C339.706 20.378 339.786 21.0236 339.786 21.7245V22.49H332.334V21.0974H338.08V20.9683C338.055 20.5256 337.963 20.0952 337.803 19.6771C337.65 19.259 337.404 18.9146 337.066 18.6441C336.727 18.3736 336.266 18.2383 335.682 18.2383C335.295 18.2383 334.938 18.3213 334.612 18.4873C334.286 18.6472 334.007 18.887 333.773 19.2067C333.539 19.5264 333.358 19.9169 333.229 20.378C333.1 20.8391 333.035 21.371 333.035 21.9735V22.3609C333.035 22.8343 333.1 23.2801 333.229 23.6982C333.364 24.1102 333.558 24.4729 333.81 24.7865C334.068 25.1001 334.379 25.346 334.741 25.5243C335.11 25.7027 335.528 25.7918 335.996 25.7918C336.598 25.7918 337.109 25.6688 337.527 25.4229C337.945 25.177 338.311 24.848 338.624 24.436L339.657 25.2569C339.442 25.5828 339.168 25.8933 338.836 26.1884C338.504 26.4835 338.095 26.7233 337.61 26.9078C337.13 27.0922 336.561 27.1845 335.903 27.1845ZM344.684 25.4598L347.414 17.0209H349.157L345.569 27H344.425L344.684 25.4598ZM342.406 17.0209L345.219 25.5059L345.412 27H344.269L340.653 17.0209H342.406ZM352.652 17.0209V27H350.937V17.0209H352.652ZM350.808 14.3739C350.808 14.0972 350.891 13.8636 351.057 13.673C351.229 13.4824 351.481 13.3871 351.813 13.3871C352.139 13.3871 352.388 13.4824 352.56 13.673C352.738 13.8636 352.827 14.0972 352.827 14.3739C352.827 14.6383 352.738 14.8658 352.56 15.0564C352.388 15.2409 352.139 15.3331 351.813 15.3331C351.481 15.3331 351.229 15.2409 351.057 15.0564C350.891 14.8658 350.808 14.6383 350.808 14.3739ZM359.532 27.1845C358.838 27.1845 358.207 27.0676 357.642 26.834C357.082 26.5942 356.599 26.2591 356.194 25.8287C355.794 25.3983 355.487 24.888 355.271 24.2977C355.056 23.7074 354.949 23.0618 354.949 22.3609V21.9735C354.949 21.1619 355.069 20.4395 355.308 19.8062C355.548 19.1667 355.874 18.6257 356.286 18.183C356.698 17.7403 357.165 17.4052 357.688 17.1777C358.21 16.9502 358.751 16.8364 359.311 16.8364C360.024 16.8364 360.639 16.9594 361.156 17.2053C361.678 17.4513 362.106 17.7956 362.438 18.2383C362.77 18.6748 363.016 19.1913 363.175 19.7877C363.335 20.378 363.415 21.0236 363.415 21.7245V22.49H355.963V21.0974H361.709V20.9683C361.684 20.5256 361.592 20.0952 361.432 19.6771C361.279 19.259 361.033 18.9146 360.694 18.6441C360.356 18.3736 359.895 18.2383 359.311 18.2383C358.924 18.2383 358.567 18.3213 358.241 18.4873C357.915 18.6472 357.636 18.887 357.402 19.2067C357.168 19.5264 356.987 19.9169 356.858 20.378C356.729 20.8391 356.664 21.371 356.664 21.9735V22.3609C356.664 22.8343 356.729 23.2801 356.858 23.6982C356.993 24.1102 357.187 24.4729 357.439 24.7865C357.697 25.1001 358.008 25.346 358.37 25.5243C358.739 25.7027 359.157 25.7918 359.625 25.7918C360.227 25.7918 360.737 25.6688 361.156 25.4229C361.574 25.177 361.94 24.848 362.253 24.436L363.286 25.2569C363.071 25.5828 362.797 25.8933 362.465 26.1884C362.133 26.4835 361.724 26.7233 361.239 26.9078C360.759 27.0922 360.19 27.1845 359.532 27.1845ZM367.934 25.2292L370.498 17.0209H371.624L371.402 18.6533L368.792 27H367.695L367.934 25.2292ZM366.21 17.0209L368.396 25.3214L368.552 27H367.399L364.503 17.0209H366.21ZM374.077 25.2569L376.161 17.0209H377.858L374.962 27H373.819L374.077 25.2569ZM371.873 17.0209L374.381 25.0909L374.667 27H373.579L370.895 18.6349L370.674 17.0209H371.873ZM385.421 24.353C385.421 24.1071 385.366 23.8796 385.255 23.6706C385.15 23.4554 384.932 23.2617 384.6 23.0895C384.274 22.9112 383.782 22.7575 383.124 22.6284C382.571 22.5115 382.07 22.3732 381.621 22.2133C381.178 22.0535 380.8 21.8598 380.487 21.6323C380.179 21.4048 379.943 21.1373 379.776 20.8299C379.61 20.5225 379.527 20.1628 379.527 19.7508C379.527 19.3573 379.614 18.9853 379.786 18.6349C379.964 18.2844 380.213 17.9739 380.533 17.7034C380.859 17.4328 381.249 17.2207 381.704 17.067C382.159 16.9133 382.666 16.8364 383.226 16.8364C384.025 16.8364 384.708 16.9778 385.273 17.2607C385.839 17.5435 386.272 17.9216 386.574 18.3951C386.875 18.8624 387.026 19.3819 387.026 19.9537H385.319C385.319 19.6771 385.236 19.4096 385.07 19.1514C384.911 18.887 384.674 18.6687 384.36 18.4965C384.053 18.3244 383.675 18.2383 383.226 18.2383C382.752 18.2383 382.368 18.3121 382.073 18.4596C381.784 18.6011 381.572 18.7824 381.437 19.0038C381.307 19.2251 381.243 19.4588 381.243 19.7047C381.243 19.8892 381.274 20.0552 381.335 20.2028C381.403 20.3442 381.52 20.4764 381.686 20.5993C381.852 20.7162 382.085 20.8268 382.387 20.9314C382.688 21.0359 383.072 21.1404 383.539 21.2449C384.357 21.4294 385.03 21.6508 385.559 21.909C386.088 22.1672 386.482 22.4839 386.74 22.8589C386.998 23.234 387.127 23.689 387.127 24.2239C387.127 24.6605 387.035 25.0601 386.85 25.4229C386.672 25.7857 386.411 26.0992 386.066 26.3636C385.728 26.6219 385.323 26.8248 384.849 26.9723C384.382 27.1137 383.856 27.1845 383.272 27.1845C382.393 27.1845 381.649 27.0277 381.04 26.7141C380.431 26.4005 379.97 25.9947 379.657 25.4967C379.343 24.9986 379.186 24.4729 379.186 23.9196H380.902C380.926 24.3869 381.062 24.7588 381.307 25.0355C381.553 25.3061 381.855 25.4998 382.211 25.6166C382.568 25.7272 382.921 25.7826 383.272 25.7826C383.739 25.7826 384.13 25.7211 384.443 25.5981C384.763 25.4752 385.006 25.3061 385.172 25.0909C385.338 24.8757 385.421 24.6297 385.421 24.353ZM393.602 22.1211V21.909C393.602 21.1896 393.706 20.5225 393.915 19.9076C394.124 19.2866 394.425 18.7486 394.819 18.2936C395.212 17.8325 395.689 17.4759 396.249 17.2238C396.808 16.9655 397.435 16.8364 398.13 16.8364C398.831 16.8364 399.461 16.9655 400.021 17.2238C400.586 17.4759 401.066 17.8325 401.459 18.2936C401.859 18.7486 402.163 19.2866 402.372 19.9076C402.582 20.5225 402.686 21.1896 402.686 21.909V22.1211C402.686 22.8405 402.582 23.5076 402.372 24.1225C402.163 24.7373 401.859 25.2753 401.459 25.7365C401.066 26.1915 400.589 26.5481 400.03 26.8063C399.476 27.0584 398.849 27.1845 398.148 27.1845C397.447 27.1845 396.817 27.0584 396.258 26.8063C395.698 26.5481 395.219 26.1915 394.819 25.7365C394.425 25.2753 394.124 24.7373 393.915 24.1225C393.706 23.5076 393.602 22.8405 393.602 22.1211ZM395.308 21.909V22.1211C395.308 22.6191 395.366 23.0895 395.483 23.5322C395.6 23.9688 395.775 24.3561 396.009 24.6943C396.249 25.0325 396.547 25.2999 396.903 25.4967C397.26 25.6873 397.675 25.7826 398.148 25.7826C398.616 25.7826 399.025 25.6873 399.375 25.4967C399.732 25.2999 400.027 25.0325 400.26 24.6943C400.494 24.3561 400.669 23.9688 400.786 23.5322C400.909 23.0895 400.971 22.6191 400.971 22.1211V21.909C400.971 21.4171 400.909 20.9529 400.786 20.5163C400.669 20.0736 400.491 19.6832 400.251 19.345C400.018 19.0007 399.722 18.7302 399.366 18.5334C399.015 18.3367 398.603 18.2383 398.13 18.2383C397.663 18.2383 397.251 18.3367 396.894 18.5334C396.544 18.7302 396.249 19.0007 396.009 19.345C395.775 19.6832 395.6 20.0736 395.483 20.5163C395.366 20.9529 395.308 21.4171 395.308 21.909ZM406.532 19.1514V27H404.826V17.0209H406.44L406.532 19.1514ZM406.126 21.6323L405.416 21.6046C405.422 20.9221 405.524 20.2919 405.72 19.714C405.917 19.1298 406.194 18.6226 406.55 18.1922C406.907 17.7618 407.331 17.4298 407.823 17.1961C408.321 16.9563 408.872 16.8364 409.474 16.8364C409.966 16.8364 410.409 16.9041 410.802 17.0393C411.196 17.1684 411.531 17.3775 411.807 17.6665C412.09 17.9555 412.305 18.3305 412.453 18.7917C412.601 19.2467 412.674 19.8031 412.674 20.461V27H410.959V20.4426C410.959 19.9199 410.882 19.5018 410.728 19.1883C410.575 18.8685 410.35 18.638 410.055 18.4965C409.76 18.349 409.397 18.2752 408.967 18.2752C408.543 18.2752 408.155 18.3643 407.805 18.5427C407.46 18.721 407.162 18.9669 406.91 19.2805C406.664 19.5941 406.47 19.9537 406.329 20.3596C406.194 20.7592 406.126 21.1835 406.126 21.6323Z" fill="#00264D"/>
<path d="M445.806 25.9387L450.594 24.7254L452.594 30.8904L445.806 25.9387ZM456.825 17.9702H448.397L445.806 10.0344L443.216 17.9702H434.788L441.609 22.889L439.018 30.8248L445.839 25.9059L450.037 22.889L456.825 17.9702Z" fill="#00264D"/>
<path d="M470.324 13.5715V27H467.567V13.5715H470.324ZM474.456 13.5715V15.7389H463.499V13.5715H474.456ZM477.878 19.1975V27H475.221V17.0209H477.721L477.878 19.1975ZM480.884 16.9563L480.838 19.4188C480.709 19.4004 480.552 19.385 480.368 19.3727C480.19 19.3543 480.027 19.345 479.879 19.345C479.504 19.345 479.178 19.3942 478.901 19.4926C478.631 19.5848 478.403 19.7232 478.219 19.9076C478.041 20.0921 477.905 20.3165 477.813 20.5809C477.727 20.8453 477.678 21.1466 477.666 21.4847L477.131 21.3187C477.131 20.6731 477.195 20.0798 477.324 19.5387C477.453 18.9915 477.641 18.515 477.887 18.1092C478.139 17.7034 478.446 17.3898 478.809 17.1684C479.172 16.9471 479.587 16.8364 480.054 16.8364C480.202 16.8364 480.352 16.8487 480.506 16.8733C480.66 16.8918 480.786 16.9194 480.884 16.9563ZM488.041 24.6113V17.0209H490.697V27H488.198L488.041 24.6113ZM488.336 22.5638L489.12 22.5454C489.12 23.2094 489.043 23.8273 488.89 24.3992C488.736 24.9648 488.505 25.4567 488.198 25.8748C487.891 26.2868 487.503 26.6096 487.036 26.8432C486.569 27.0707 486.018 27.1845 485.385 27.1845C484.899 27.1845 484.45 27.1168 484.039 26.9816C483.633 26.8401 483.282 26.6219 482.987 26.3267C482.698 26.0255 482.471 25.6412 482.305 25.1739C482.145 24.7004 482.065 24.1317 482.065 23.4677V17.0209H484.721V23.4861C484.721 23.7812 484.755 24.0302 484.822 24.2331C484.896 24.436 484.998 24.6021 485.127 24.7312C485.256 24.8603 485.407 24.9525 485.579 25.0079C485.757 25.0632 485.954 25.0909 486.169 25.0909C486.716 25.0909 487.147 24.9802 487.46 24.7588C487.78 24.5375 488.004 24.2362 488.133 23.855C488.269 23.4677 488.336 23.0373 488.336 22.5638ZM498.122 24.2424C498.122 24.0518 498.066 23.8796 497.956 23.7259C497.845 23.5722 497.639 23.4308 497.338 23.3016C497.043 23.1664 496.615 23.0434 496.056 22.9327C495.552 22.8221 495.081 22.6837 494.645 22.5177C494.214 22.3455 493.839 22.1396 493.52 21.8998C493.206 21.66 492.96 21.3771 492.782 21.0513C492.603 20.7192 492.514 20.3411 492.514 19.9169C492.514 19.4988 492.603 19.1052 492.782 18.7363C492.966 18.3674 493.228 18.0415 493.566 17.7587C493.91 17.4697 494.328 17.2453 494.82 17.0854C495.318 16.9194 495.878 16.8364 496.499 16.8364C497.366 16.8364 498.109 16.9748 498.73 17.2515C499.358 17.5281 499.837 17.9093 500.169 18.3951C500.507 18.8747 500.677 19.4219 500.677 20.0368H498.02C498.02 19.7785 497.965 19.5479 497.854 19.345C497.75 19.136 497.584 18.9731 497.356 18.8562C497.135 18.7333 496.846 18.6718 496.489 18.6718C496.194 18.6718 495.939 18.724 495.724 18.8286C495.509 18.9269 495.343 19.0622 495.226 19.2344C495.115 19.4004 495.06 19.5848 495.06 19.7877C495.06 19.9414 495.091 20.0798 495.152 20.2028C495.22 20.3196 495.327 20.4272 495.475 20.5256C495.622 20.6239 495.813 20.7162 496.047 20.8022C496.286 20.8822 496.582 20.956 496.932 21.0236C497.651 21.1712 498.294 21.3648 498.86 21.6046C499.425 21.8383 499.874 22.158 500.206 22.5638C500.538 22.9635 500.704 23.4892 500.704 24.1409C500.704 24.5836 500.606 24.9894 500.409 25.3583C500.212 25.7272 499.929 26.05 499.561 26.3267C499.192 26.5973 498.749 26.8094 498.232 26.9631C497.722 27.1107 497.147 27.1845 496.508 27.1845C495.579 27.1845 494.792 27.0184 494.147 26.6864C493.507 26.3544 493.022 25.9332 492.69 25.4229C492.364 24.9064 492.201 24.3776 492.201 23.8366H494.719C494.731 24.1993 494.823 24.4914 494.995 24.7127C495.174 24.9341 495.398 25.0939 495.669 25.1923C495.945 25.2907 496.243 25.3399 496.563 25.3399C496.907 25.3399 497.193 25.2938 497.421 25.2015C497.648 25.1032 497.821 24.974 497.937 24.8142C498.06 24.6482 498.122 24.4576 498.122 24.2424ZM507.317 17.0209V18.9023H501.507V17.0209H507.317ZM502.945 14.5584H505.602V23.9934C505.602 24.2823 505.638 24.5037 505.712 24.6574C505.792 24.8111 505.909 24.9187 506.063 24.9802C506.216 25.0355 506.41 25.0632 506.644 25.0632C506.81 25.0632 506.957 25.0571 507.086 25.0448C507.222 25.0263 507.335 25.0079 507.428 24.9894L507.437 26.9447C507.209 27.0184 506.963 27.0769 506.699 27.1199C506.435 27.1629 506.143 27.1845 505.823 27.1845C505.239 27.1845 504.728 27.0892 504.292 26.8985C503.861 26.7018 503.529 26.3882 503.296 25.9578C503.062 25.5274 502.945 24.9618 502.945 24.2608V14.5584ZM511.486 18.9392V30.8367H508.83V17.0209H511.292L511.486 18.9392ZM517.803 21.8998V22.0934C517.803 22.819 517.717 23.4922 517.545 24.1132C517.379 24.7343 517.133 25.2753 516.807 25.7365C516.481 26.1915 516.076 26.5481 515.59 26.8063C515.11 27.0584 514.557 27.1845 513.93 27.1845C513.321 27.1845 512.792 27.0615 512.343 26.8155C511.895 26.5696 511.516 26.2253 511.209 25.7826C510.908 25.3337 510.665 24.8142 510.48 24.2239C510.296 23.6337 510.155 23.0004 510.056 22.324V21.8168C510.155 21.0912 510.296 20.4272 510.48 19.8246C510.665 19.2159 510.908 18.6902 511.209 18.2475C511.516 17.7987 511.891 17.4513 512.334 17.2053C512.783 16.9594 513.309 16.8364 513.911 16.8364C514.545 16.8364 515.101 16.9563 515.581 17.1961C516.066 17.4359 516.472 17.7802 516.798 18.2291C517.13 18.6779 517.379 19.2128 517.545 19.8338C517.717 20.4549 517.803 21.1435 517.803 21.8998ZM515.138 22.0934V21.8998C515.138 21.4755 515.101 21.0851 515.027 20.7285C514.96 20.3657 514.849 20.049 514.695 19.7785C514.548 19.508 514.351 19.2989 514.105 19.1514C513.865 18.9976 513.573 18.9208 513.229 18.9208C512.866 18.9208 512.556 18.9792 512.297 19.096C512.045 19.2128 511.839 19.3819 511.679 19.6033C511.52 19.8246 511.4 20.089 511.32 20.3964C511.24 20.7039 511.191 21.0513 511.172 21.4386V22.7206C511.203 23.1756 511.289 23.5845 511.43 23.9472C511.572 24.3039 511.79 24.5867 512.085 24.7957C512.38 25.0048 512.768 25.1093 513.247 25.1093C513.598 25.1093 513.893 25.0325 514.133 24.8787C514.372 24.7189 514.566 24.5006 514.714 24.2239C514.867 23.9472 514.975 23.6275 515.036 23.2647C515.104 22.902 515.138 22.5115 515.138 22.0934ZM522.258 17.0209V27H519.593V17.0209H522.258ZM519.427 14.42C519.427 14.0327 519.562 13.713 519.832 13.4609C520.103 13.2088 520.466 13.0827 520.921 13.0827C521.37 13.0827 521.729 13.2088 522 13.4609C522.276 13.713 522.415 14.0327 522.415 14.42C522.415 14.8074 522.276 15.1271 522 15.3792C521.729 15.6313 521.37 15.7574 520.921 15.7574C520.466 15.7574 520.103 15.6313 519.832 15.3792C519.562 15.1271 519.427 14.8074 519.427 14.42ZM527.257 12.8337V27H524.591V12.8337H527.257ZM529.028 22.1119V21.9182C529.028 21.1865 529.132 20.5133 529.341 19.8984C529.55 19.2774 529.855 18.7394 530.254 18.2844C530.654 17.8294 531.146 17.4759 531.73 17.2238C532.314 16.9655 532.984 16.8364 533.74 16.8364C534.497 16.8364 535.17 16.9655 535.76 17.2238C536.35 17.4759 536.845 17.8294 537.245 18.2844C537.651 18.7394 537.958 19.2774 538.167 19.8984C538.376 20.5133 538.481 21.1865 538.481 21.9182V22.1119C538.481 22.8374 538.376 23.5107 538.167 24.1317C537.958 24.7466 537.651 25.2846 537.245 25.7457C536.845 26.2007 536.354 26.5542 535.769 26.8063C535.185 27.0584 534.515 27.1845 533.759 27.1845C533.003 27.1845 532.329 27.0584 531.739 26.8063C531.155 26.5542 530.66 26.2007 530.254 25.7457C529.855 25.2846 529.55 24.7466 529.341 24.1317C529.132 23.5107 529.028 22.8374 529.028 22.1119ZM531.684 21.9182V22.1119C531.684 22.53 531.721 22.9204 531.794 23.2832C531.868 23.646 531.985 23.9657 532.145 24.2424C532.311 24.5129 532.526 24.725 532.79 24.8787C533.055 25.0325 533.378 25.1093 533.759 25.1093C534.128 25.1093 534.444 25.0325 534.709 24.8787C534.973 24.725 535.185 24.5129 535.345 24.2424C535.505 23.9657 535.622 23.646 535.696 23.2832C535.776 22.9204 535.816 22.53 535.816 22.1119V21.9182C535.816 21.5124 535.776 21.1312 535.696 20.7746C535.622 20.4118 535.502 20.0921 535.336 19.8154C535.176 19.5326 534.964 19.3112 534.7 19.1514C534.435 18.9915 534.115 18.9116 533.74 18.9116C533.365 18.9116 533.046 18.9915 532.781 19.1514C532.523 19.3112 532.311 19.5326 532.145 19.8154C531.985 20.0921 531.868 20.4118 531.794 20.7746C531.721 21.1312 531.684 21.5124 531.684 21.9182ZM545.002 17.0209V18.9023H539.191V17.0209H545.002ZM540.63 14.5584H543.286V23.9934C543.286 24.2823 543.323 24.5037 543.397 24.6574C543.477 24.8111 543.593 24.9187 543.747 24.9802C543.901 25.0355 544.095 25.0632 544.328 25.0632C544.494 25.0632 544.642 25.0571 544.771 25.0448C544.906 25.0263 545.02 25.0079 545.112 24.9894L545.121 26.9447C544.894 27.0184 544.648 27.0769 544.384 27.1199C544.119 27.1629 543.827 27.1845 543.507 27.1845C542.923 27.1845 542.413 27.0892 541.976 26.8985C541.546 26.7018 541.214 26.3882 540.98 25.9578C540.747 25.5274 540.63 24.9618 540.63 24.2608V14.5584Z" fill="#00264D"/>
</svg>
