<svg width="2420" height="61" viewBox="0 0 2420 61" fill="none" xmlns="http://www.w3.org/2000/svg">
<mask id="mask0_1829_49905" style="mask-type:alpha" maskUnits="userSpaceOnUse" x="2317" y="5" width="96" height="51">
<path d="M2317.45 5.86206H2412.56V55.1438H2317.45V5.86206Z" fill="white"/>
</mask>
<g mask="url(#mask0_1829_49905)">
<path d="M2366.85 35.5195C2367.11 35.6817 2367.38 35.8034 2367.67 35.8896L2393.93 43.3891C2395.11 43.7238 2396.22 43.2319 2396.69 42.1722L2397.19 41.0313C2397.78 39.6825 2397.85 37.2435 2396.4 37.4108C2393.43 37.7556 2392.47 37.208 2392.47 37.208L2368.18 30.2764C2366.68 29.8505 2365.36 30.7581 2365.21 32.3097C2365.1 33.5622 2365.79 34.8501 2366.85 35.5245" fill="#A3B0C2"/>
<path d="M2369.55 45.5343C2370.1 45.8791 2370.72 46.0566 2371.34 45.9907L2388.45 44.221L2384.68 50.3514C2383.92 51.5785 2384.37 53.4192 2385.67 54.4587C2386.97 55.488 2388.63 55.346 2389.39 54.1139L2396.51 42.5376C2397.07 41.635 2396.99 40.3572 2396.32 39.3075C2395.64 38.2579 2394.51 37.6444 2393.44 37.7559L2369.9 40.1949C2368.45 40.347 2367.6 41.7668 2368 43.3691C2368.23 44.292 2368.82 45.0678 2369.56 45.5394" fill="#A3B0C2"/>
<path d="M2393.09 43.0959C2393.64 43.4457 2394.28 43.6232 2394.91 43.5522L2410.58 41.7166C2412.03 41.5493 2412.86 40.1143 2412.45 38.512C2412.04 36.9097 2410.53 35.7536 2409.09 35.9209L2393.41 37.7565C2391.96 37.9238 2391.13 39.3588 2391.54 40.9611C2391.78 41.8688 2392.36 42.6344 2393.09 43.0959" fill="#A3B0C2"/>
<path d="M2319.1 11.2111C2319.35 11.3734 2319.63 11.5002 2319.91 11.5813L2346.18 19.0808C2347.36 19.4205 2348.47 18.9236 2348.93 17.8638L2349.43 16.7229C2350.02 15.3741 2350.09 12.9351 2348.65 13.1025C2345.68 13.4473 2344.71 12.8997 2344.71 12.8997L2320.42 5.96807C2318.92 5.54213 2317.6 6.44978 2317.46 8.0014C2317.34 9.25385 2318.04 10.5418 2319.1 11.2162" fill="#A3B0C2"/>
<path d="M2321.79 21.2306C2322.34 21.5754 2322.96 21.7529 2323.58 21.687L2340.7 19.9173L2336.93 26.0477C2336.17 27.2748 2336.61 29.1155 2337.91 30.155C2339.21 31.1843 2340.88 31.0373 2341.63 29.8102L2348.76 18.2338C2349.31 17.3313 2349.24 16.0535 2348.56 15.0038C2347.89 13.9542 2346.75 13.3407 2345.68 13.4522L2322.14 15.8912C2320.7 16.0433 2319.84 17.4631 2320.24 19.0654C2320.47 19.9883 2321.06 20.7641 2321.8 21.2357" fill="#A3B0C2"/>
<path d="M2345.33 18.7912C2345.89 19.141 2346.52 19.3185 2347.15 19.2475L2362.83 17.412C2364.27 17.2446 2365.1 15.8096 2364.69 14.2073C2364.27 12.605 2362.77 11.4489 2361.32 11.6162L2345.65 13.4518C2344.2 13.6191 2343.37 15.0541 2343.78 16.6564C2344.02 17.5641 2344.6 18.3297 2345.33 18.7912" fill="#A3B0C2"/>
</g>
<mask id="mask1_1829_49905" style="mask-type:alpha" maskUnits="userSpaceOnUse" x="2207" y="5" width="96" height="51">
<path d="M2207.45 5.86206H2302.56V55.1438H2207.45V5.86206Z" fill="white"/>
</mask>
<g mask="url(#mask1_1829_49905)">
<path d="M2256.85 35.5195C2257.11 35.6817 2257.38 35.8034 2257.67 35.8896L2283.93 43.3891C2285.11 43.7238 2286.22 43.2319 2286.69 42.1722L2287.19 41.0313C2287.78 39.6825 2287.85 37.2435 2286.4 37.4108C2283.43 37.7556 2282.47 37.208 2282.47 37.208L2258.18 30.2764C2256.68 29.8505 2255.36 30.7581 2255.21 32.3097C2255.1 33.5622 2255.79 34.8501 2256.85 35.5245" fill="#A3B0C2"/>
<path d="M2259.55 45.5343C2260.1 45.8791 2260.72 46.0566 2261.34 45.9907L2278.45 44.221L2274.68 50.3514C2273.92 51.5785 2274.37 53.4192 2275.67 54.4587C2276.97 55.488 2278.63 55.346 2279.39 54.1139L2286.51 42.5376C2287.07 41.635 2286.99 40.3572 2286.32 39.3075C2285.64 38.2579 2284.51 37.6444 2283.44 37.7559L2259.9 40.1949C2258.45 40.347 2257.6 41.7668 2258 43.3691C2258.23 44.292 2258.82 45.0678 2259.56 45.5394" fill="#A3B0C2"/>
<path d="M2283.09 43.0959C2283.64 43.4457 2284.28 43.6232 2284.91 43.5522L2300.58 41.7166C2302.03 41.5493 2302.86 40.1143 2302.45 38.512C2302.04 36.9097 2300.53 35.7536 2299.09 35.9209L2283.41 37.7565C2281.96 37.9238 2281.13 39.3588 2281.54 40.9611C2281.78 41.8688 2282.36 42.6344 2283.09 43.0959" fill="#A3B0C2"/>
<path d="M2209.1 11.2111C2209.35 11.3734 2209.63 11.5002 2209.91 11.5813L2236.18 19.0808C2237.36 19.4205 2238.47 18.9236 2238.93 17.8638L2239.43 16.7229C2240.02 15.3741 2240.09 12.9351 2238.65 13.1025C2235.68 13.4473 2234.71 12.8997 2234.71 12.8997L2210.42 5.96807C2208.92 5.54213 2207.6 6.44978 2207.46 8.0014C2207.34 9.25385 2208.04 10.5418 2209.1 11.2162" fill="#A3B0C2"/>
<path d="M2211.79 21.2306C2212.34 21.5754 2212.96 21.7529 2213.58 21.687L2230.7 19.9173L2226.93 26.0477C2226.17 27.2748 2226.61 29.1155 2227.91 30.155C2229.21 31.1843 2230.88 31.0373 2231.63 29.8102L2238.76 18.2338C2239.31 17.3313 2239.24 16.0535 2238.56 15.0038C2237.89 13.9542 2236.75 13.3407 2235.68 13.4522L2212.14 15.8912C2210.7 16.0433 2209.84 17.4631 2210.24 19.0654C2210.47 19.9883 2211.06 20.7641 2211.8 21.2357" fill="#A3B0C2"/>
<path d="M2235.33 18.7912C2235.89 19.141 2236.52 19.3185 2237.15 19.2475L2252.83 17.412C2254.27 17.2446 2255.1 15.8096 2254.69 14.2073C2254.27 12.605 2252.77 11.4489 2251.32 11.6162L2235.65 13.4518C2234.2 13.6191 2233.37 15.0541 2233.78 16.6564C2234.02 17.5641 2234.6 18.3297 2235.33 18.7912" fill="#A3B0C2"/>
</g>
<mask id="mask2_1829_49905" style="mask-type:alpha" maskUnits="userSpaceOnUse" x="2097" y="5" width="96" height="51">
<path d="M2097.45 5.86206H2192.56V55.1438H2097.45V5.86206Z" fill="white"/>
</mask>
<g mask="url(#mask2_1829_49905)">
<path d="M2146.85 35.5195C2147.11 35.6817 2147.38 35.8034 2147.67 35.8896L2173.93 43.3891C2175.11 43.7238 2176.22 43.2319 2176.69 42.1722L2177.19 41.0313C2177.78 39.6825 2177.85 37.2435 2176.4 37.4108C2173.43 37.7556 2172.47 37.208 2172.47 37.208L2148.18 30.2764C2146.68 29.8505 2145.36 30.7581 2145.21 32.3097C2145.1 33.5622 2145.79 34.8501 2146.85 35.5245" fill="#A3B0C2"/>
<path d="M2149.55 45.5343C2150.1 45.8791 2150.72 46.0566 2151.34 45.9907L2168.45 44.221L2164.68 50.3514C2163.92 51.5785 2164.37 53.4192 2165.67 54.4587C2166.97 55.488 2168.63 55.346 2169.39 54.1139L2176.51 42.5376C2177.07 41.635 2176.99 40.3572 2176.32 39.3075C2175.64 38.2579 2174.51 37.6444 2173.44 37.7559L2149.9 40.1949C2148.45 40.347 2147.6 41.7668 2148 43.3691C2148.23 44.292 2148.82 45.0678 2149.56 45.5394" fill="#A3B0C2"/>
<path d="M2173.09 43.0959C2173.64 43.4457 2174.28 43.6232 2174.91 43.5522L2190.58 41.7166C2192.03 41.5493 2192.86 40.1143 2192.45 38.512C2192.04 36.9097 2190.53 35.7536 2189.09 35.9209L2173.41 37.7565C2171.96 37.9238 2171.13 39.3588 2171.54 40.9611C2171.78 41.8688 2172.36 42.6344 2173.09 43.0959" fill="#A3B0C2"/>
<path d="M2099.1 11.2111C2099.35 11.3734 2099.63 11.5002 2099.91 11.5813L2126.18 19.0808C2127.36 19.4205 2128.47 18.9236 2128.93 17.8638L2129.43 16.7229C2130.02 15.3741 2130.09 12.9351 2128.65 13.1025C2125.68 13.4473 2124.71 12.8997 2124.71 12.8997L2100.42 5.96807C2098.92 5.54213 2097.6 6.44978 2097.46 8.0014C2097.34 9.25385 2098.04 10.5418 2099.1 11.2162" fill="#A3B0C2"/>
<path d="M2101.79 21.2306C2102.34 21.5754 2102.96 21.7529 2103.58 21.687L2120.7 19.9173L2116.93 26.0477C2116.17 27.2748 2116.61 29.1155 2117.91 30.155C2119.21 31.1843 2120.88 31.0373 2121.63 29.8102L2128.76 18.2338C2129.31 17.3313 2129.24 16.0535 2128.56 15.0038C2127.89 13.9542 2126.75 13.3407 2125.68 13.4522L2102.14 15.8912C2100.7 16.0433 2099.84 17.4631 2100.24 19.0654C2100.47 19.9883 2101.06 20.7641 2101.8 21.2357" fill="#A3B0C2"/>
<path d="M2125.33 18.7912C2125.89 19.141 2126.52 19.3185 2127.15 19.2475L2142.83 17.412C2144.27 17.2446 2145.1 15.8096 2144.69 14.2073C2144.27 12.605 2142.77 11.4489 2141.32 11.6162L2125.65 13.4518C2124.2 13.6191 2123.37 15.0541 2123.78 16.6564C2124.02 17.5641 2124.6 18.3297 2125.33 18.7912" fill="#A3B0C2"/>
</g>
<mask id="mask3_1829_49905" style="mask-type:alpha" maskUnits="userSpaceOnUse" x="1987" y="5" width="96" height="51">
<path d="M1987.45 5.86206H2082.56V55.1438H1987.45V5.86206Z" fill="white"/>
</mask>
<g mask="url(#mask3_1829_49905)">
<path d="M2036.85 35.5195C2037.11 35.6817 2037.38 35.8034 2037.67 35.8896L2063.93 43.3891C2065.11 43.7238 2066.22 43.2319 2066.69 42.1722L2067.19 41.0313C2067.78 39.6825 2067.85 37.2435 2066.4 37.4108C2063.43 37.7556 2062.47 37.208 2062.47 37.208L2038.18 30.2764C2036.68 29.8505 2035.36 30.7581 2035.21 32.3097C2035.1 33.5622 2035.79 34.8501 2036.85 35.5245" fill="#A3B0C2"/>
<path d="M2039.55 45.5343C2040.1 45.8791 2040.72 46.0566 2041.34 45.9907L2058.45 44.221L2054.68 50.3514C2053.92 51.5785 2054.37 53.4192 2055.67 54.4587C2056.97 55.488 2058.63 55.346 2059.39 54.1139L2066.51 42.5376C2067.07 41.635 2066.99 40.3572 2066.32 39.3075C2065.64 38.2579 2064.51 37.6444 2063.44 37.7559L2039.9 40.1949C2038.45 40.347 2037.6 41.7668 2038 43.3691C2038.23 44.292 2038.82 45.0678 2039.56 45.5394" fill="#A3B0C2"/>
<path d="M2063.09 43.0959C2063.64 43.4457 2064.28 43.6232 2064.91 43.5522L2080.58 41.7166C2082.03 41.5493 2082.86 40.1143 2082.45 38.512C2082.04 36.9097 2080.53 35.7536 2079.09 35.9209L2063.41 37.7565C2061.96 37.9238 2061.13 39.3588 2061.54 40.9611C2061.78 41.8688 2062.36 42.6344 2063.09 43.0959" fill="#A3B0C2"/>
<path d="M1989.1 11.2111C1989.35 11.3734 1989.63 11.5002 1989.91 11.5813L2016.18 19.0808C2017.36 19.4205 2018.47 18.9236 2018.93 17.8638L2019.43 16.7229C2020.02 15.3741 2020.09 12.9351 2018.65 13.1025C2015.68 13.4473 2014.71 12.8997 2014.71 12.8997L1990.42 5.96807C1988.92 5.54213 1987.6 6.44978 1987.46 8.0014C1987.34 9.25385 1988.04 10.5418 1989.1 11.2162" fill="#A3B0C2"/>
<path d="M1991.79 21.2306C1992.34 21.5754 1992.96 21.7529 1993.58 21.687L2010.7 19.9173L2006.93 26.0477C2006.17 27.2748 2006.61 29.1155 2007.91 30.155C2009.21 31.1843 2010.88 31.0373 2011.63 29.8102L2018.76 18.2338C2019.31 17.3313 2019.24 16.0535 2018.56 15.0038C2017.89 13.9542 2016.75 13.3407 2015.68 13.4522L1992.14 15.8912C1990.7 16.0433 1989.84 17.4631 1990.24 19.0654C1990.47 19.9883 1991.06 20.7641 1991.8 21.2357" fill="#A3B0C2"/>
<path d="M2015.33 18.7912C2015.89 19.141 2016.52 19.3185 2017.15 19.2475L2032.83 17.412C2034.27 17.2446 2035.1 15.8096 2034.69 14.2073C2034.27 12.605 2032.77 11.4489 2031.32 11.6162L2015.65 13.4518C2014.2 13.6191 2013.37 15.0541 2013.78 16.6564C2014.02 17.5641 2014.6 18.3297 2015.33 18.7912" fill="#A3B0C2"/>
</g>
<mask id="mask4_1829_49905" style="mask-type:alpha" maskUnits="userSpaceOnUse" x="1877" y="5" width="96" height="51">
<path d="M1877.45 5.86206H1972.56V55.1438H1877.45V5.86206Z" fill="white"/>
</mask>
<g mask="url(#mask4_1829_49905)">
<path d="M1926.85 35.5195C1927.11 35.6817 1927.38 35.8034 1927.67 35.8896L1953.93 43.3891C1955.11 43.7238 1956.22 43.2319 1956.69 42.1722L1957.19 41.0313C1957.78 39.6825 1957.85 37.2435 1956.4 37.4108C1953.43 37.7556 1952.47 37.208 1952.47 37.208L1928.18 30.2764C1926.68 29.8505 1925.36 30.7581 1925.21 32.3097C1925.1 33.5622 1925.79 34.8501 1926.85 35.5245" fill="#A3B0C2"/>
<path d="M1929.55 45.5343C1930.1 45.8791 1930.72 46.0566 1931.34 45.9907L1948.45 44.221L1944.68 50.3514C1943.92 51.5785 1944.37 53.4192 1945.67 54.4587C1946.97 55.488 1948.63 55.346 1949.39 54.1139L1956.51 42.5376C1957.07 41.635 1956.99 40.3572 1956.32 39.3075C1955.64 38.2579 1954.51 37.6444 1953.44 37.7559L1929.9 40.1949C1928.45 40.347 1927.6 41.7668 1928 43.3691C1928.23 44.292 1928.82 45.0678 1929.56 45.5394" fill="#A3B0C2"/>
<path d="M1953.09 43.0959C1953.64 43.4457 1954.28 43.6232 1954.91 43.5522L1970.58 41.7166C1972.03 41.5493 1972.86 40.1143 1972.45 38.512C1972.04 36.9097 1970.53 35.7536 1969.09 35.9209L1953.41 37.7565C1951.96 37.9238 1951.13 39.3588 1951.54 40.9611C1951.78 41.8688 1952.36 42.6344 1953.09 43.0959" fill="#A3B0C2"/>
<path d="M1879.1 11.2111C1879.35 11.3734 1879.63 11.5002 1879.91 11.5813L1906.18 19.0808C1907.36 19.4205 1908.47 18.9236 1908.93 17.8638L1909.43 16.7229C1910.02 15.3741 1910.09 12.9351 1908.65 13.1025C1905.68 13.4473 1904.71 12.8997 1904.71 12.8997L1880.42 5.96807C1878.92 5.54213 1877.6 6.44978 1877.46 8.0014C1877.34 9.25385 1878.04 10.5418 1879.1 11.2162" fill="#A3B0C2"/>
<path d="M1881.79 21.2306C1882.34 21.5754 1882.96 21.7529 1883.58 21.687L1900.7 19.9173L1896.93 26.0477C1896.17 27.2748 1896.61 29.1155 1897.91 30.155C1899.21 31.1843 1900.88 31.0373 1901.63 29.8102L1908.76 18.2338C1909.31 17.3313 1909.24 16.0535 1908.56 15.0038C1907.89 13.9542 1906.75 13.3407 1905.68 13.4522L1882.14 15.8912C1880.7 16.0433 1879.84 17.4631 1880.24 19.0654C1880.47 19.9883 1881.06 20.7641 1881.8 21.2357" fill="#A3B0C2"/>
<path d="M1905.33 18.7912C1905.89 19.141 1906.52 19.3185 1907.15 19.2475L1922.83 17.412C1924.27 17.2446 1925.1 15.8096 1924.69 14.2073C1924.27 12.605 1922.77 11.4489 1921.32 11.6162L1905.65 13.4518C1904.2 13.6191 1903.37 15.0541 1903.78 16.6564C1904.02 17.5641 1904.6 18.3297 1905.33 18.7912" fill="#A3B0C2"/>
</g>
<mask id="mask5_1829_49905" style="mask-type:alpha" maskUnits="userSpaceOnUse" x="1767" y="5" width="96" height="51">
<path d="M1767.45 5.86206H1862.56V55.1438H1767.45V5.86206Z" fill="white"/>
</mask>
<g mask="url(#mask5_1829_49905)">
<path d="M1816.85 35.5195C1817.11 35.6817 1817.38 35.8034 1817.67 35.8896L1843.93 43.3891C1845.11 43.7238 1846.22 43.2319 1846.69 42.1722L1847.19 41.0313C1847.78 39.6825 1847.85 37.2435 1846.4 37.4108C1843.43 37.7556 1842.47 37.208 1842.47 37.208L1818.18 30.2764C1816.68 29.8505 1815.36 30.7581 1815.21 32.3097C1815.1 33.5622 1815.79 34.8501 1816.85 35.5245" fill="#A3B0C2"/>
<path d="M1819.55 45.5343C1820.1 45.8791 1820.72 46.0566 1821.34 45.9907L1838.45 44.221L1834.68 50.3514C1833.92 51.5785 1834.37 53.4192 1835.67 54.4587C1836.97 55.488 1838.63 55.346 1839.39 54.1139L1846.51 42.5376C1847.07 41.635 1846.99 40.3572 1846.32 39.3075C1845.64 38.2579 1844.51 37.6444 1843.44 37.7559L1819.9 40.1949C1818.45 40.347 1817.6 41.7668 1818 43.3691C1818.23 44.292 1818.82 45.0678 1819.56 45.5394" fill="#A3B0C2"/>
<path d="M1843.09 43.0959C1843.64 43.4457 1844.28 43.6232 1844.91 43.5522L1860.58 41.7166C1862.03 41.5493 1862.86 40.1143 1862.45 38.512C1862.04 36.9097 1860.53 35.7536 1859.09 35.9209L1843.41 37.7565C1841.96 37.9238 1841.13 39.3588 1841.54 40.9611C1841.78 41.8688 1842.36 42.6344 1843.09 43.0959" fill="#A3B0C2"/>
<path d="M1769.1 11.2111C1769.35 11.3734 1769.63 11.5002 1769.91 11.5813L1796.18 19.0808C1797.36 19.4205 1798.47 18.9236 1798.93 17.8638L1799.43 16.7229C1800.02 15.3741 1800.09 12.9351 1798.65 13.1025C1795.68 13.4473 1794.71 12.8997 1794.71 12.8997L1770.42 5.96807C1768.92 5.54213 1767.6 6.44978 1767.46 8.0014C1767.34 9.25385 1768.04 10.5418 1769.1 11.2162" fill="#A3B0C2"/>
<path d="M1771.79 21.2306C1772.34 21.5754 1772.96 21.7529 1773.58 21.687L1790.7 19.9173L1786.93 26.0477C1786.17 27.2748 1786.61 29.1155 1787.91 30.155C1789.21 31.1843 1790.88 31.0373 1791.63 29.8102L1798.76 18.2338C1799.31 17.3313 1799.24 16.0535 1798.56 15.0038C1797.89 13.9542 1796.75 13.3407 1795.68 13.4522L1772.14 15.8912C1770.7 16.0433 1769.84 17.4631 1770.24 19.0654C1770.47 19.9883 1771.06 20.7641 1771.8 21.2357" fill="#A3B0C2"/>
<path d="M1795.33 18.7912C1795.89 19.141 1796.52 19.3185 1797.15 19.2475L1812.83 17.412C1814.27 17.2446 1815.1 15.8096 1814.69 14.2073C1814.27 12.605 1812.77 11.4489 1811.32 11.6162L1795.65 13.4518C1794.2 13.6191 1793.37 15.0541 1793.78 16.6564C1794.02 17.5641 1794.6 18.3297 1795.33 18.7912" fill="#A3B0C2"/>
</g>
<mask id="mask6_1829_49905" style="mask-type:alpha" maskUnits="userSpaceOnUse" x="1657" y="5" width="96" height="51">
<path d="M1657.45 5.86206H1752.56V55.1438H1657.45V5.86206Z" fill="white"/>
</mask>
<g mask="url(#mask6_1829_49905)">
<path d="M1706.85 35.5195C1707.11 35.6817 1707.38 35.8034 1707.67 35.8896L1733.93 43.3891C1735.11 43.7238 1736.22 43.2319 1736.69 42.1722L1737.19 41.0313C1737.78 39.6825 1737.85 37.2435 1736.4 37.4108C1733.43 37.7556 1732.47 37.208 1732.47 37.208L1708.18 30.2764C1706.68 29.8505 1705.36 30.7581 1705.21 32.3097C1705.1 33.5622 1705.79 34.8501 1706.85 35.5245" fill="#A3B0C2"/>
<path d="M1709.55 45.5343C1710.1 45.8791 1710.72 46.0566 1711.34 45.9907L1728.45 44.221L1724.68 50.3514C1723.92 51.5785 1724.37 53.4192 1725.67 54.4587C1726.97 55.488 1728.63 55.346 1729.39 54.1139L1736.51 42.5376C1737.07 41.635 1736.99 40.3572 1736.32 39.3075C1735.64 38.2579 1734.51 37.6444 1733.44 37.7559L1709.9 40.1949C1708.45 40.347 1707.6 41.7668 1708 43.3691C1708.23 44.292 1708.82 45.0678 1709.56 45.5394" fill="#A3B0C2"/>
<path d="M1733.09 43.0959C1733.64 43.4457 1734.28 43.6232 1734.91 43.5522L1750.58 41.7166C1752.03 41.5493 1752.86 40.1143 1752.45 38.512C1752.04 36.9097 1750.53 35.7536 1749.09 35.9209L1733.41 37.7565C1731.96 37.9238 1731.13 39.3588 1731.54 40.9611C1731.78 41.8688 1732.36 42.6344 1733.09 43.0959" fill="#A3B0C2"/>
<path d="M1659.1 11.2111C1659.35 11.3734 1659.63 11.5002 1659.91 11.5813L1686.18 19.0808C1687.36 19.4205 1688.47 18.9236 1688.93 17.8638L1689.43 16.7229C1690.02 15.3741 1690.09 12.9351 1688.65 13.1025C1685.68 13.4473 1684.71 12.8997 1684.71 12.8997L1660.42 5.96807C1658.92 5.54213 1657.6 6.44978 1657.46 8.0014C1657.34 9.25385 1658.04 10.5418 1659.1 11.2162" fill="#A3B0C2"/>
<path d="M1661.79 21.2306C1662.34 21.5754 1662.96 21.7529 1663.58 21.687L1680.7 19.9173L1676.93 26.0477C1676.17 27.2748 1676.61 29.1155 1677.91 30.155C1679.21 31.1843 1680.88 31.0373 1681.63 29.8102L1688.76 18.2338C1689.31 17.3313 1689.24 16.0535 1688.56 15.0038C1687.89 13.9542 1686.75 13.3407 1685.68 13.4522L1662.14 15.8912C1660.7 16.0433 1659.84 17.4631 1660.24 19.0654C1660.47 19.9883 1661.06 20.7641 1661.8 21.2357" fill="#A3B0C2"/>
<path d="M1685.33 18.7912C1685.89 19.141 1686.52 19.3185 1687.15 19.2475L1702.83 17.412C1704.27 17.2446 1705.1 15.8096 1704.69 14.2073C1704.27 12.605 1702.77 11.4489 1701.32 11.6162L1685.65 13.4518C1684.2 13.6191 1683.37 15.0541 1683.78 16.6564C1684.02 17.5641 1684.6 18.3297 1685.33 18.7912" fill="#A3B0C2"/>
</g>
<mask id="mask7_1829_49905" style="mask-type:alpha" maskUnits="userSpaceOnUse" x="1547" y="5" width="96" height="51">
<path d="M1547.45 5.86206H1642.56V55.1438H1547.45V5.86206Z" fill="white"/>
</mask>
<g mask="url(#mask7_1829_49905)">
<path d="M1596.85 35.5195C1597.11 35.6817 1597.38 35.8034 1597.67 35.8896L1623.93 43.3891C1625.11 43.7238 1626.22 43.2319 1626.69 42.1722L1627.19 41.0313C1627.78 39.6825 1627.85 37.2435 1626.4 37.4108C1623.43 37.7556 1622.47 37.208 1622.47 37.208L1598.18 30.2764C1596.68 29.8505 1595.36 30.7581 1595.21 32.3097C1595.1 33.5622 1595.79 34.8501 1596.85 35.5245" fill="#A3B0C2"/>
<path d="M1599.55 45.5343C1600.1 45.8791 1600.72 46.0566 1601.34 45.9907L1618.45 44.221L1614.68 50.3514C1613.92 51.5785 1614.37 53.4192 1615.67 54.4587C1616.97 55.488 1618.63 55.346 1619.39 54.1139L1626.51 42.5376C1627.07 41.635 1626.99 40.3572 1626.32 39.3075C1625.64 38.2579 1624.51 37.6444 1623.44 37.7559L1599.9 40.1949C1598.45 40.347 1597.6 41.7668 1598 43.3691C1598.23 44.292 1598.82 45.0678 1599.56 45.5394" fill="#A3B0C2"/>
<path d="M1623.09 43.0959C1623.64 43.4457 1624.28 43.6232 1624.91 43.5522L1640.58 41.7166C1642.03 41.5493 1642.86 40.1143 1642.45 38.512C1642.04 36.9097 1640.53 35.7536 1639.09 35.9209L1623.41 37.7565C1621.96 37.9238 1621.13 39.3588 1621.54 40.9611C1621.78 41.8688 1622.36 42.6344 1623.09 43.0959" fill="#A3B0C2"/>
<path d="M1549.1 11.2111C1549.35 11.3734 1549.63 11.5002 1549.91 11.5813L1576.18 19.0808C1577.36 19.4205 1578.47 18.9236 1578.93 17.8638L1579.43 16.7229C1580.02 15.3741 1580.09 12.9351 1578.65 13.1025C1575.68 13.4473 1574.71 12.8997 1574.71 12.8997L1550.42 5.96807C1548.92 5.54213 1547.6 6.44978 1547.46 8.0014C1547.34 9.25385 1548.04 10.5418 1549.1 11.2162" fill="#A3B0C2"/>
<path d="M1551.79 21.2306C1552.34 21.5754 1552.96 21.7529 1553.58 21.687L1570.7 19.9173L1566.93 26.0477C1566.17 27.2748 1566.61 29.1155 1567.91 30.155C1569.21 31.1843 1570.88 31.0373 1571.63 29.8102L1578.76 18.2338C1579.31 17.3313 1579.24 16.0535 1578.56 15.0038C1577.89 13.9542 1576.75 13.3407 1575.68 13.4522L1552.14 15.8912C1550.7 16.0433 1549.84 17.4631 1550.24 19.0654C1550.47 19.9883 1551.06 20.7641 1551.8 21.2357" fill="#A3B0C2"/>
<path d="M1575.33 18.7912C1575.89 19.141 1576.52 19.3185 1577.15 19.2475L1592.83 17.412C1594.27 17.2446 1595.1 15.8096 1594.69 14.2073C1594.27 12.605 1592.77 11.4489 1591.32 11.6162L1575.65 13.4518C1574.2 13.6191 1573.37 15.0541 1573.78 16.6564C1574.02 17.5641 1574.6 18.3297 1575.33 18.7912" fill="#A3B0C2"/>
</g>
<mask id="mask8_1829_49905" style="mask-type:alpha" maskUnits="userSpaceOnUse" x="1437" y="5" width="96" height="51">
<path d="M1437.45 5.86206H1532.56V55.1438H1437.45V5.86206Z" fill="white"/>
</mask>
<g mask="url(#mask8_1829_49905)">
<path d="M1486.85 35.5195C1487.11 35.6817 1487.38 35.8034 1487.67 35.8896L1513.93 43.3891C1515.11 43.7238 1516.22 43.2319 1516.69 42.1722L1517.19 41.0313C1517.78 39.6825 1517.85 37.2435 1516.4 37.4108C1513.43 37.7556 1512.47 37.208 1512.47 37.208L1488.18 30.2764C1486.68 29.8505 1485.36 30.7581 1485.21 32.3097C1485.1 33.5622 1485.79 34.8501 1486.85 35.5245" fill="#A3B0C2"/>
<path d="M1489.55 45.5343C1490.1 45.8791 1490.72 46.0566 1491.34 45.9907L1508.45 44.221L1504.68 50.3514C1503.92 51.5785 1504.37 53.4192 1505.67 54.4587C1506.97 55.488 1508.63 55.346 1509.39 54.1139L1516.51 42.5376C1517.07 41.635 1516.99 40.3572 1516.32 39.3075C1515.64 38.2579 1514.51 37.6444 1513.44 37.7559L1489.9 40.1949C1488.45 40.347 1487.6 41.7668 1488 43.3691C1488.23 44.292 1488.82 45.0678 1489.56 45.5394" fill="#A3B0C2"/>
<path d="M1513.09 43.0959C1513.64 43.4457 1514.28 43.6232 1514.91 43.5522L1530.58 41.7166C1532.03 41.5493 1532.86 40.1143 1532.45 38.512C1532.04 36.9097 1530.53 35.7536 1529.09 35.9209L1513.41 37.7565C1511.96 37.9238 1511.13 39.3588 1511.54 40.9611C1511.78 41.8688 1512.36 42.6344 1513.09 43.0959" fill="#A3B0C2"/>
<path d="M1439.1 11.2111C1439.35 11.3734 1439.63 11.5002 1439.91 11.5813L1466.18 19.0808C1467.36 19.4205 1468.47 18.9236 1468.93 17.8638L1469.43 16.7229C1470.02 15.3741 1470.09 12.9351 1468.65 13.1025C1465.68 13.4473 1464.71 12.8997 1464.71 12.8997L1440.42 5.96807C1438.92 5.54213 1437.6 6.44978 1437.46 8.0014C1437.34 9.25385 1438.04 10.5418 1439.1 11.2162" fill="#A3B0C2"/>
<path d="M1441.79 21.2306C1442.34 21.5754 1442.96 21.7529 1443.58 21.687L1460.7 19.9173L1456.93 26.0477C1456.17 27.2748 1456.61 29.1155 1457.91 30.155C1459.21 31.1843 1460.88 31.0373 1461.63 29.8102L1468.76 18.2338C1469.31 17.3313 1469.24 16.0535 1468.56 15.0038C1467.89 13.9542 1466.75 13.3407 1465.68 13.4522L1442.14 15.8912C1440.7 16.0433 1439.84 17.4631 1440.24 19.0654C1440.47 19.9883 1441.06 20.7641 1441.8 21.2357" fill="#A3B0C2"/>
<path d="M1465.33 18.7912C1465.89 19.141 1466.52 19.3185 1467.15 19.2475L1482.83 17.412C1484.27 17.2446 1485.1 15.8096 1484.69 14.2073C1484.27 12.605 1482.77 11.4489 1481.32 11.6162L1465.65 13.4518C1464.2 13.6191 1463.37 15.0541 1463.78 16.6564C1464.02 17.5641 1464.6 18.3297 1465.33 18.7912" fill="#A3B0C2"/>
</g>
<mask id="mask9_1829_49905" style="mask-type:alpha" maskUnits="userSpaceOnUse" x="1327" y="5" width="96" height="51">
<path d="M1327.45 5.86206H1422.56V55.1438H1327.45V5.86206Z" fill="white"/>
</mask>
<g mask="url(#mask9_1829_49905)">
<path d="M1376.85 35.5195C1377.11 35.6817 1377.38 35.8034 1377.67 35.8896L1403.93 43.3891C1405.11 43.7238 1406.22 43.2319 1406.69 42.1722L1407.19 41.0313C1407.78 39.6825 1407.85 37.2435 1406.4 37.4108C1403.43 37.7556 1402.47 37.208 1402.47 37.208L1378.18 30.2764C1376.68 29.8505 1375.36 30.7581 1375.21 32.3097C1375.1 33.5622 1375.79 34.8501 1376.85 35.5245" fill="#A3B0C2"/>
<path d="M1379.55 45.5343C1380.1 45.8791 1380.72 46.0566 1381.34 45.9907L1398.45 44.221L1394.68 50.3514C1393.92 51.5785 1394.37 53.4192 1395.67 54.4587C1396.97 55.488 1398.63 55.346 1399.39 54.1139L1406.51 42.5376C1407.07 41.635 1406.99 40.3572 1406.32 39.3075C1405.64 38.2579 1404.51 37.6444 1403.44 37.7559L1379.9 40.1949C1378.45 40.347 1377.6 41.7668 1378 43.3691C1378.23 44.292 1378.82 45.0678 1379.56 45.5394" fill="#A3B0C2"/>
<path d="M1403.09 43.0959C1403.64 43.4457 1404.28 43.6232 1404.91 43.5522L1420.58 41.7166C1422.03 41.5493 1422.86 40.1143 1422.45 38.512C1422.04 36.9097 1420.53 35.7536 1419.09 35.9209L1403.41 37.7565C1401.96 37.9238 1401.13 39.3588 1401.54 40.9611C1401.78 41.8688 1402.36 42.6344 1403.09 43.0959" fill="#A3B0C2"/>
<path d="M1329.1 11.2111C1329.35 11.3734 1329.63 11.5002 1329.91 11.5813L1356.18 19.0808C1357.36 19.4205 1358.47 18.9236 1358.93 17.8638L1359.43 16.7229C1360.02 15.3741 1360.09 12.9351 1358.65 13.1025C1355.68 13.4473 1354.71 12.8997 1354.71 12.8997L1330.42 5.96807C1328.92 5.54213 1327.6 6.44978 1327.46 8.0014C1327.34 9.25385 1328.04 10.5418 1329.1 11.2162" fill="#A3B0C2"/>
<path d="M1331.79 21.2306C1332.34 21.5754 1332.96 21.7529 1333.58 21.687L1350.7 19.9173L1346.93 26.0477C1346.17 27.2748 1346.61 29.1155 1347.91 30.155C1349.21 31.1843 1350.88 31.0373 1351.63 29.8102L1358.76 18.2338C1359.31 17.3313 1359.24 16.0535 1358.56 15.0038C1357.89 13.9542 1356.75 13.3407 1355.68 13.4522L1332.14 15.8912C1330.7 16.0433 1329.84 17.4631 1330.24 19.0654C1330.47 19.9883 1331.06 20.7641 1331.8 21.2357" fill="#A3B0C2"/>
<path d="M1355.33 18.7912C1355.89 19.141 1356.52 19.3185 1357.15 19.2475L1372.83 17.412C1374.27 17.2446 1375.1 15.8096 1374.69 14.2073C1374.27 12.605 1372.77 11.4489 1371.32 11.6162L1355.65 13.4518C1354.2 13.6191 1353.37 15.0541 1353.78 16.6564C1354.02 17.5641 1354.6 18.3297 1355.33 18.7912" fill="#A3B0C2"/>
</g>
<mask id="mask10_1829_49905" style="mask-type:alpha" maskUnits="userSpaceOnUse" x="1217" y="5" width="96" height="51">
<path d="M1217.45 5.86206H1312.56V55.1438H1217.45V5.86206Z" fill="white"/>
</mask>
<g mask="url(#mask10_1829_49905)">
<path d="M1266.85 35.5195C1267.11 35.6817 1267.38 35.8034 1267.67 35.8896L1293.93 43.3891C1295.11 43.7238 1296.22 43.2319 1296.69 42.1722L1297.19 41.0313C1297.78 39.6825 1297.85 37.2435 1296.4 37.4108C1293.43 37.7556 1292.47 37.208 1292.47 37.208L1268.18 30.2764C1266.68 29.8505 1265.36 30.7581 1265.21 32.3097C1265.1 33.5622 1265.79 34.8501 1266.85 35.5245" fill="#A3B0C2"/>
<path d="M1269.55 45.5343C1270.1 45.8791 1270.72 46.0566 1271.34 45.9907L1288.45 44.221L1284.68 50.3514C1283.92 51.5785 1284.37 53.4192 1285.67 54.4587C1286.97 55.488 1288.63 55.346 1289.39 54.1139L1296.51 42.5376C1297.07 41.635 1296.99 40.3572 1296.32 39.3075C1295.64 38.2579 1294.51 37.6444 1293.44 37.7559L1269.9 40.1949C1268.45 40.347 1267.6 41.7668 1268 43.3691C1268.23 44.292 1268.82 45.0678 1269.56 45.5394" fill="#A3B0C2"/>
<path d="M1293.09 43.0959C1293.64 43.4457 1294.28 43.6232 1294.91 43.5522L1310.58 41.7166C1312.03 41.5493 1312.86 40.1143 1312.45 38.512C1312.04 36.9097 1310.53 35.7536 1309.09 35.9209L1293.41 37.7565C1291.96 37.9238 1291.13 39.3588 1291.54 40.9611C1291.78 41.8688 1292.36 42.6344 1293.09 43.0959" fill="#A3B0C2"/>
<path d="M1219.1 11.2111C1219.35 11.3734 1219.63 11.5002 1219.91 11.5813L1246.18 19.0808C1247.36 19.4205 1248.47 18.9236 1248.93 17.8638L1249.43 16.7229C1250.02 15.3741 1250.09 12.9351 1248.65 13.1025C1245.68 13.4473 1244.71 12.8997 1244.71 12.8997L1220.42 5.96807C1218.92 5.54213 1217.6 6.44978 1217.46 8.0014C1217.34 9.25385 1218.04 10.5418 1219.1 11.2162" fill="#A3B0C2"/>
<path d="M1221.79 21.2306C1222.34 21.5754 1222.96 21.7529 1223.58 21.687L1240.7 19.9173L1236.93 26.0477C1236.17 27.2748 1236.61 29.1155 1237.91 30.155C1239.21 31.1843 1240.88 31.0373 1241.63 29.8102L1248.76 18.2338C1249.31 17.3313 1249.24 16.0535 1248.56 15.0038C1247.89 13.9542 1246.75 13.3407 1245.68 13.4522L1222.14 15.8912C1220.7 16.0433 1219.84 17.4631 1220.24 19.0654C1220.47 19.9883 1221.06 20.7641 1221.8 21.2357" fill="#A3B0C2"/>
<path d="M1245.33 18.7912C1245.89 19.141 1246.52 19.3185 1247.15 19.2475L1262.83 17.412C1264.27 17.2446 1265.1 15.8096 1264.69 14.2073C1264.27 12.605 1262.77 11.4489 1261.32 11.6162L1245.65 13.4518C1244.2 13.6191 1243.37 15.0541 1243.78 16.6564C1244.02 17.5641 1244.6 18.3297 1245.33 18.7912" fill="#A3B0C2"/>
</g>
<mask id="mask11_1829_49905" style="mask-type:alpha" maskUnits="userSpaceOnUse" x="1107" y="5" width="96" height="51">
<path d="M1107.45 5.86206H1202.56V55.1438H1107.45V5.86206Z" fill="white"/>
</mask>
<g mask="url(#mask11_1829_49905)">
<path d="M1156.85 35.5195C1157.11 35.6817 1157.38 35.8034 1157.67 35.8896L1183.93 43.3891C1185.11 43.7238 1186.22 43.2319 1186.69 42.1722L1187.19 41.0313C1187.78 39.6825 1187.85 37.2435 1186.4 37.4108C1183.43 37.7556 1182.47 37.208 1182.47 37.208L1158.18 30.2764C1156.68 29.8505 1155.36 30.7581 1155.21 32.3097C1155.1 33.5622 1155.79 34.8501 1156.85 35.5245" fill="#A3B0C2"/>
<path d="M1159.55 45.5343C1160.1 45.8791 1160.72 46.0566 1161.34 45.9907L1178.45 44.221L1174.68 50.3514C1173.92 51.5785 1174.37 53.4192 1175.67 54.4587C1176.97 55.488 1178.63 55.346 1179.39 54.1139L1186.51 42.5376C1187.07 41.635 1186.99 40.3572 1186.32 39.3075C1185.64 38.2579 1184.51 37.6444 1183.44 37.7559L1159.9 40.1949C1158.45 40.347 1157.6 41.7668 1158 43.3691C1158.23 44.292 1158.82 45.0678 1159.56 45.5394" fill="#A3B0C2"/>
<path d="M1183.09 43.0959C1183.64 43.4457 1184.28 43.6232 1184.91 43.5522L1200.58 41.7166C1202.03 41.5493 1202.86 40.1143 1202.45 38.512C1202.04 36.9097 1200.53 35.7536 1199.09 35.9209L1183.41 37.7565C1181.96 37.9238 1181.13 39.3588 1181.54 40.9611C1181.78 41.8688 1182.36 42.6344 1183.09 43.0959" fill="#A3B0C2"/>
<path d="M1109.1 11.2111C1109.35 11.3734 1109.63 11.5002 1109.91 11.5813L1136.18 19.0808C1137.36 19.4205 1138.47 18.9236 1138.93 17.8638L1139.43 16.7229C1140.02 15.3741 1140.09 12.9351 1138.65 13.1025C1135.68 13.4473 1134.71 12.8997 1134.71 12.8997L1110.42 5.96807C1108.92 5.54213 1107.6 6.44978 1107.46 8.0014C1107.34 9.25385 1108.04 10.5418 1109.1 11.2162" fill="#A3B0C2"/>
<path d="M1111.79 21.2306C1112.34 21.5754 1112.96 21.7529 1113.58 21.687L1130.7 19.9173L1126.93 26.0477C1126.17 27.2748 1126.61 29.1155 1127.91 30.155C1129.21 31.1843 1130.88 31.0373 1131.63 29.8102L1138.76 18.2338C1139.31 17.3313 1139.24 16.0535 1138.56 15.0038C1137.89 13.9542 1136.75 13.3407 1135.68 13.4522L1112.14 15.8912C1110.7 16.0433 1109.84 17.4631 1110.24 19.0654C1110.47 19.9883 1111.06 20.7641 1111.8 21.2357" fill="#A3B0C2"/>
<path d="M1135.33 18.7912C1135.89 19.141 1136.52 19.3185 1137.15 19.2475L1152.83 17.412C1154.27 17.2446 1155.1 15.8096 1154.69 14.2073C1154.27 12.605 1152.77 11.4489 1151.32 11.6162L1135.65 13.4518C1134.2 13.6191 1133.37 15.0541 1133.78 16.6564C1134.02 17.5641 1134.6 18.3297 1135.33 18.7912" fill="#A3B0C2"/>
</g>
<mask id="mask12_1829_49905" style="mask-type:alpha" maskUnits="userSpaceOnUse" x="997" y="5" width="96" height="51">
<path d="M997.447 5.86206H1092.56V55.1438H997.447V5.86206Z" fill="white"/>
</mask>
<g mask="url(#mask12_1829_49905)">
<path d="M1046.85 35.5195C1047.11 35.6817 1047.38 35.8034 1047.67 35.8896L1073.93 43.3891C1075.11 43.7238 1076.22 43.2319 1076.69 42.1722L1077.19 41.0313C1077.78 39.6825 1077.85 37.2435 1076.4 37.4108C1073.43 37.7556 1072.47 37.208 1072.47 37.208L1048.18 30.2764C1046.68 29.8505 1045.36 30.7581 1045.21 32.3097C1045.1 33.5622 1045.79 34.8501 1046.85 35.5245" fill="#A3B0C2"/>
<path d="M1049.55 45.5343C1050.1 45.8791 1050.72 46.0566 1051.34 45.9907L1068.45 44.221L1064.68 50.3514C1063.92 51.5785 1064.37 53.4192 1065.67 54.4587C1066.97 55.488 1068.63 55.346 1069.39 54.1139L1076.51 42.5376C1077.07 41.635 1076.99 40.3572 1076.32 39.3075C1075.64 38.2579 1074.51 37.6444 1073.44 37.7559L1049.9 40.1949C1048.45 40.347 1047.6 41.7668 1048 43.3691C1048.23 44.292 1048.82 45.0678 1049.56 45.5394" fill="#A3B0C2"/>
<path d="M1073.09 43.0959C1073.64 43.4457 1074.28 43.6232 1074.91 43.5522L1090.58 41.7166C1092.03 41.5493 1092.86 40.1143 1092.45 38.512C1092.04 36.9097 1090.53 35.7536 1089.09 35.9209L1073.41 37.7565C1071.96 37.9238 1071.13 39.3588 1071.54 40.9611C1071.78 41.8688 1072.36 42.6344 1073.09 43.0959" fill="#A3B0C2"/>
<path d="M999.101 11.2111C999.354 11.3734 999.627 11.5002 999.913 11.5813L1026.18 19.0808C1027.36 19.4205 1028.47 18.9236 1028.93 17.8638L1029.43 16.7229C1030.02 15.3741 1030.09 12.9351 1028.65 13.1025C1025.68 13.4473 1024.71 12.8997 1024.71 12.8997L1000.42 5.96807C998.925 5.54213 997.599 6.44978 997.456 8.0014C997.343 9.25385 998.037 10.5418 999.097 11.2162" fill="#A3B0C2"/>
<path d="M1001.79 21.2306C1002.34 21.5754 1002.96 21.7529 1003.58 21.687L1020.7 19.9173L1016.93 26.0477C1016.17 27.2748 1016.61 29.1155 1017.91 30.155C1019.21 31.1843 1020.88 31.0373 1021.63 29.8102L1028.76 18.2338C1029.31 17.3313 1029.24 16.0535 1028.56 15.0038C1027.89 13.9542 1026.75 13.3407 1025.68 13.4522L1002.14 15.8912C1000.7 16.0433 999.842 17.4631 1000.24 19.0654C1000.47 19.9883 1001.06 20.7641 1001.8 21.2357" fill="#A3B0C2"/>
<path d="M1025.33 18.7912C1025.89 19.141 1026.52 19.3185 1027.15 19.2475L1042.83 17.412C1044.27 17.2446 1045.1 15.8096 1044.69 14.2073C1044.27 12.605 1042.77 11.4489 1041.32 11.6162L1025.65 13.4518C1024.2 13.6191 1023.37 15.0541 1023.78 16.6564C1024.02 17.5641 1024.6 18.3297 1025.33 18.7912" fill="#A3B0C2"/>
</g>
<mask id="mask13_1829_49905" style="mask-type:alpha" maskUnits="userSpaceOnUse" x="887" y="5" width="96" height="51">
<path d="M887.447 5.86206H982.557V55.1438H887.447V5.86206Z" fill="white"/>
</mask>
<g mask="url(#mask13_1829_49905)">
<path d="M936.854 35.5195C937.106 35.6817 937.38 35.8034 937.666 35.8896L963.93 43.3891C965.108 43.7238 966.223 43.2319 966.69 42.1722L967.191 41.0313C967.78 39.6825 967.847 37.2435 966.404 37.4108C963.433 37.7556 962.466 37.208 962.466 37.208L938.179 30.2764C936.681 29.8505 935.356 30.7581 935.213 32.3097C935.099 33.5622 935.793 34.8501 936.854 35.5245" fill="#A3B0C2"/>
<path d="M939.551 45.5343C940.098 45.8791 940.721 46.0566 941.339 45.9907L958.452 44.221L954.682 50.3514C953.924 51.5785 954.366 53.4192 955.666 54.4587C956.966 55.488 958.633 55.346 959.39 54.1139L966.513 42.5376C967.069 41.635 966.993 40.3572 966.316 39.3075C965.642 38.2579 964.506 37.6444 963.438 37.7559L939.9 40.1949C938.453 40.347 937.599 41.7668 937.998 43.3691C938.23 44.292 938.819 45.0678 939.555 45.5394" fill="#A3B0C2"/>
<path d="M963.088 43.0959C963.644 43.4457 964.279 43.6232 964.906 43.5522L980.583 41.7166C982.031 41.5493 982.864 40.1143 982.452 38.512C982.035 36.9097 980.529 35.7536 979.086 35.9209L963.408 37.7565C961.965 37.9238 961.127 39.3588 961.544 40.9611C961.78 41.8688 962.364 42.6344 963.092 43.0959" fill="#A3B0C2"/>
<path d="M889.101 11.2111C889.354 11.3734 889.627 11.5002 889.913 11.5813L916.177 19.0808C917.356 19.4205 918.471 18.9236 918.933 17.8638L919.434 16.7229C920.023 15.3741 920.09 12.9351 918.647 13.1025C915.677 13.4473 914.709 12.8997 914.709 12.8997L890.422 5.96807C888.925 5.54213 887.599 6.44978 887.456 8.0014C887.343 9.25385 888.037 10.5418 889.097 11.2162" fill="#A3B0C2"/>
<path d="M891.794 21.2306C892.341 21.5754 892.964 21.7529 893.583 21.687L910.695 19.9173L906.925 26.0477C906.168 27.2748 906.609 29.1155 907.91 30.155C909.21 31.1843 910.876 31.0373 911.633 29.8102L918.757 18.2338C919.312 17.3313 919.237 16.0535 918.559 15.0038C917.886 13.9542 916.75 13.3407 915.681 13.4522L892.144 15.8912C890.696 16.0433 889.842 17.4631 890.242 19.0654C890.469 19.9883 891.062 20.7641 891.799 21.2357" fill="#A3B0C2"/>
<path d="M915.332 18.7912C915.887 19.141 916.522 19.3185 917.149 19.2475L932.827 17.412C934.27 17.2446 935.103 15.8096 934.691 14.2073C934.274 12.605 932.768 11.4489 931.325 11.6162L915.647 13.4518C914.204 13.6191 913.367 15.0541 913.783 16.6564C914.019 17.5641 914.604 18.3297 915.332 18.7912" fill="#A3B0C2"/>
</g>
<mask id="mask14_1829_49905" style="mask-type:alpha" maskUnits="userSpaceOnUse" x="777" y="5" width="96" height="51">
<path d="M777.447 5.86206H872.557V55.1438H777.447V5.86206Z" fill="white"/>
</mask>
<g mask="url(#mask14_1829_49905)">
<path d="M826.854 35.5195C827.106 35.6817 827.38 35.8034 827.666 35.8896L853.93 43.3891C855.108 43.7238 856.223 43.2319 856.69 42.1722L857.191 41.0313C857.78 39.6825 857.847 37.2435 856.404 37.4108C853.433 37.7556 852.466 37.208 852.466 37.208L828.179 30.2764C826.681 29.8505 825.356 30.7581 825.213 32.3097C825.099 33.5622 825.793 34.8501 826.854 35.5245" fill="#A3B0C2"/>
<path d="M829.551 45.5343C830.098 45.8791 830.721 46.0566 831.339 45.9907L848.452 44.221L844.682 50.3514C843.924 51.5785 844.366 53.4192 845.666 54.4587C846.966 55.488 848.633 55.346 849.39 54.1139L856.513 42.5376C857.069 41.635 856.993 40.3572 856.316 39.3075C855.642 38.2579 854.506 37.6444 853.438 37.7559L829.9 40.1949C828.453 40.347 827.599 41.7668 827.998 43.3691C828.23 44.292 828.819 45.0678 829.555 45.5394" fill="#A3B0C2"/>
<path d="M853.088 43.0959C853.644 43.4457 854.279 43.6232 854.906 43.5522L870.583 41.7166C872.031 41.5493 872.864 40.1143 872.452 38.512C872.035 36.9097 870.529 35.7536 869.086 35.9209L853.408 37.7565C851.965 37.9238 851.127 39.3588 851.544 40.9611C851.78 41.8688 852.364 42.6344 853.092 43.0959" fill="#A3B0C2"/>
<path d="M779.101 11.2111C779.354 11.3734 779.627 11.5002 779.913 11.5813L806.177 19.0808C807.356 19.4205 808.471 18.9236 808.933 17.8638L809.434 16.7229C810.023 15.3741 810.09 12.9351 808.647 13.1025C805.677 13.4473 804.709 12.8997 804.709 12.8997L780.422 5.96807C778.925 5.54213 777.599 6.44978 777.456 8.0014C777.343 9.25385 778.037 10.5418 779.097 11.2162" fill="#A3B0C2"/>
<path d="M781.794 21.2306C782.341 21.5754 782.964 21.7529 783.583 21.687L800.695 19.9173L796.925 26.0477C796.168 27.2748 796.609 29.1155 797.91 30.155C799.21 31.1843 800.876 31.0373 801.633 29.8102L808.757 18.2338C809.312 17.3313 809.237 16.0535 808.559 15.0038C807.886 13.9542 806.75 13.3407 805.681 13.4522L782.144 15.8912C780.696 16.0433 779.842 17.4631 780.242 19.0654C780.469 19.9883 781.062 20.7641 781.799 21.2357" fill="#A3B0C2"/>
<path d="M805.332 18.7912C805.887 19.141 806.522 19.3185 807.149 19.2475L822.827 17.412C824.27 17.2446 825.103 15.8096 824.691 14.2073C824.274 12.605 822.768 11.4489 821.325 11.6162L805.647 13.4518C804.204 13.6191 803.367 15.0541 803.783 16.6564C804.019 17.5641 804.604 18.3297 805.332 18.7912" fill="#A3B0C2"/>
</g>
<mask id="mask15_1829_49905" style="mask-type:alpha" maskUnits="userSpaceOnUse" x="667" y="5" width="96" height="51">
<path d="M667.447 5.86206H762.557V55.1438H667.447V5.86206Z" fill="white"/>
</mask>
<g mask="url(#mask15_1829_49905)">
<path d="M716.854 35.5195C717.106 35.6817 717.38 35.8034 717.666 35.8896L743.93 43.3891C745.108 43.7238 746.223 43.2319 746.69 42.1722L747.191 41.0313C747.78 39.6825 747.847 37.2435 746.404 37.4108C743.433 37.7556 742.466 37.208 742.466 37.208L718.179 30.2764C716.681 29.8505 715.356 30.7581 715.213 32.3097C715.099 33.5622 715.793 34.8501 716.854 35.5245" fill="#A3B0C2"/>
<path d="M719.551 45.5343C720.098 45.8791 720.721 46.0566 721.339 45.9907L738.452 44.221L734.682 50.3514C733.924 51.5785 734.366 53.4192 735.666 54.4587C736.966 55.488 738.633 55.346 739.39 54.1139L746.513 42.5376C747.069 41.635 746.993 40.3572 746.316 39.3075C745.642 38.2579 744.506 37.6444 743.438 37.7559L719.9 40.1949C718.453 40.347 717.599 41.7668 717.998 43.3691C718.23 44.292 718.819 45.0678 719.555 45.5394" fill="#A3B0C2"/>
<path d="M743.088 43.0959C743.644 43.4457 744.279 43.6232 744.906 43.5522L760.583 41.7166C762.031 41.5493 762.864 40.1143 762.452 38.512C762.035 36.9097 760.529 35.7536 759.086 35.9209L743.408 37.7565C741.965 37.9238 741.127 39.3588 741.544 40.9611C741.78 41.8688 742.364 42.6344 743.092 43.0959" fill="#A3B0C2"/>
<path d="M669.101 11.2111C669.354 11.3734 669.627 11.5002 669.913 11.5813L696.177 19.0808C697.356 19.4205 698.471 18.9236 698.933 17.8638L699.434 16.7229C700.023 15.3741 700.09 12.9351 698.647 13.1025C695.677 13.4473 694.709 12.8997 694.709 12.8997L670.422 5.96807C668.925 5.54213 667.599 6.44978 667.456 8.0014C667.343 9.25385 668.037 10.5418 669.097 11.2162" fill="#A3B0C2"/>
<path d="M671.794 21.2306C672.341 21.5754 672.964 21.7529 673.583 21.687L690.695 19.9173L686.925 26.0477C686.168 27.2748 686.609 29.1155 687.91 30.155C689.21 31.1843 690.876 31.0373 691.633 29.8102L698.757 18.2338C699.312 17.3313 699.237 16.0535 698.559 15.0038C697.886 13.9542 696.75 13.3407 695.681 13.4522L672.144 15.8912C670.696 16.0433 669.842 17.4631 670.242 19.0654C670.469 19.9883 671.062 20.7641 671.799 21.2357" fill="#A3B0C2"/>
<path d="M695.332 18.7912C695.887 19.141 696.522 19.3185 697.149 19.2475L712.827 17.412C714.27 17.2446 715.103 15.8096 714.691 14.2073C714.274 12.605 712.768 11.4489 711.325 11.6162L695.647 13.4518C694.204 13.6191 693.367 15.0541 693.783 16.6564C694.019 17.5641 694.604 18.3297 695.332 18.7912" fill="#A3B0C2"/>
</g>
<mask id="mask16_1829_49905" style="mask-type:alpha" maskUnits="userSpaceOnUse" x="557" y="5" width="96" height="51">
<path d="M557.447 5.86206H652.557V55.1438H557.447V5.86206Z" fill="white"/>
</mask>
<g mask="url(#mask16_1829_49905)">
<path d="M606.854 35.5195C607.106 35.6817 607.38 35.8034 607.666 35.8896L633.93 43.3891C635.108 43.7238 636.223 43.2319 636.69 42.1722L637.191 41.0313C637.78 39.6825 637.847 37.2435 636.404 37.4108C633.433 37.7556 632.466 37.208 632.466 37.208L608.179 30.2764C606.681 29.8505 605.356 30.7581 605.213 32.3097C605.099 33.5622 605.793 34.8501 606.854 35.5245" fill="#A3B0C2"/>
<path d="M609.551 45.5343C610.098 45.8791 610.721 46.0566 611.339 45.9907L628.452 44.221L624.682 50.3514C623.924 51.5785 624.366 53.4192 625.666 54.4587C626.966 55.488 628.633 55.346 629.39 54.1139L636.513 42.5376C637.069 41.635 636.993 40.3572 636.316 39.3075C635.642 38.2579 634.506 37.6444 633.438 37.7559L609.9 40.1949C608.453 40.347 607.599 41.7668 607.998 43.3691C608.23 44.292 608.819 45.0678 609.555 45.5394" fill="#A3B0C2"/>
<path d="M633.088 43.0959C633.644 43.4457 634.279 43.6232 634.906 43.5522L650.583 41.7166C652.031 41.5493 652.864 40.1143 652.452 38.512C652.035 36.9097 650.529 35.7536 649.086 35.9209L633.408 37.7565C631.965 37.9238 631.127 39.3588 631.544 40.9611C631.78 41.8688 632.364 42.6344 633.092 43.0959" fill="#A3B0C2"/>
<path d="M559.101 11.2111C559.354 11.3734 559.627 11.5002 559.913 11.5813L586.177 19.0808C587.356 19.4205 588.471 18.9236 588.933 17.8638L589.434 16.7229C590.023 15.3741 590.09 12.9351 588.647 13.1025C585.677 13.4473 584.709 12.8997 584.709 12.8997L560.422 5.96807C558.925 5.54213 557.599 6.44978 557.456 8.0014C557.343 9.25385 558.037 10.5418 559.097 11.2162" fill="#A3B0C2"/>
<path d="M561.794 21.2306C562.341 21.5754 562.964 21.7529 563.583 21.687L580.695 19.9173L576.925 26.0477C576.168 27.2748 576.609 29.1155 577.91 30.155C579.21 31.1843 580.876 31.0373 581.633 29.8102L588.757 18.2338C589.312 17.3313 589.237 16.0535 588.559 15.0038C587.886 13.9542 586.75 13.3407 585.681 13.4522L562.144 15.8912C560.696 16.0433 559.842 17.4631 560.242 19.0654C560.469 19.9883 561.062 20.7641 561.799 21.2357" fill="#A3B0C2"/>
<path d="M585.332 18.7912C585.887 19.141 586.522 19.3185 587.149 19.2475L602.827 17.412C604.27 17.2446 605.103 15.8096 604.691 14.2073C604.274 12.605 602.768 11.4489 601.325 11.6162L585.647 13.4518C584.204 13.6191 583.367 15.0541 583.783 16.6564C584.019 17.5641 584.604 18.3297 585.332 18.7912" fill="#A3B0C2"/>
</g>
<mask id="mask17_1829_49905" style="mask-type:alpha" maskUnits="userSpaceOnUse" x="447" y="5" width="96" height="51">
<path d="M447.447 5.86206H542.557V55.1438H447.447V5.86206Z" fill="white"/>
</mask>
<g mask="url(#mask17_1829_49905)">
<path d="M496.854 35.5195C497.106 35.6817 497.38 35.8034 497.666 35.8896L523.93 43.3891C525.108 43.7238 526.223 43.2319 526.69 42.1722L527.191 41.0313C527.78 39.6825 527.847 37.2435 526.404 37.4108C523.433 37.7556 522.466 37.208 522.466 37.208L498.179 30.2764C496.681 29.8505 495.356 30.7581 495.213 32.3097C495.099 33.5622 495.793 34.8501 496.854 35.5245" fill="#A3B0C2"/>
<path d="M499.551 45.5343C500.098 45.8791 500.721 46.0566 501.339 45.9907L518.452 44.221L514.682 50.3514C513.924 51.5785 514.366 53.4192 515.666 54.4587C516.966 55.488 518.633 55.346 519.39 54.1139L526.513 42.5376C527.069 41.635 526.993 40.3572 526.316 39.3075C525.642 38.2579 524.506 37.6444 523.438 37.7559L499.9 40.1949C498.453 40.347 497.599 41.7668 497.998 43.3691C498.23 44.292 498.819 45.0678 499.555 45.5394" fill="#A3B0C2"/>
<path d="M523.088 43.0959C523.644 43.4457 524.279 43.6232 524.906 43.5522L540.583 41.7166C542.031 41.5493 542.864 40.1143 542.452 38.512C542.035 36.9097 540.529 35.7536 539.086 35.9209L523.408 37.7565C521.965 37.9238 521.127 39.3588 521.544 40.9611C521.78 41.8688 522.364 42.6344 523.092 43.0959" fill="#A3B0C2"/>
<path d="M449.101 11.2111C449.354 11.3734 449.627 11.5002 449.913 11.5813L476.177 19.0808C477.356 19.4205 478.471 18.9236 478.933 17.8638L479.434 16.7229C480.023 15.3741 480.09 12.9351 478.647 13.1025C475.677 13.4473 474.709 12.8997 474.709 12.8997L450.422 5.96807C448.925 5.54213 447.599 6.44978 447.456 8.0014C447.343 9.25385 448.037 10.5418 449.097 11.2162" fill="#A3B0C2"/>
<path d="M451.794 21.2306C452.341 21.5754 452.964 21.7529 453.583 21.687L470.695 19.9173L466.925 26.0477C466.168 27.2748 466.609 29.1155 467.91 30.155C469.21 31.1843 470.876 31.0373 471.633 29.8102L478.757 18.2338C479.312 17.3313 479.237 16.0535 478.559 15.0038C477.886 13.9542 476.75 13.3407 475.681 13.4522L452.144 15.8912C450.696 16.0433 449.842 17.4631 450.242 19.0654C450.469 19.9883 451.062 20.7641 451.799 21.2357" fill="#A3B0C2"/>
<path d="M475.332 18.7912C475.887 19.141 476.522 19.3185 477.149 19.2475L492.827 17.412C494.27 17.2446 495.103 15.8096 494.691 14.2073C494.274 12.605 492.768 11.4489 491.325 11.6162L475.647 13.4518C474.204 13.6191 473.367 15.0541 473.783 16.6564C474.019 17.5641 474.604 18.3297 475.332 18.7912" fill="#A3B0C2"/>
</g>
<mask id="mask18_1829_49905" style="mask-type:alpha" maskUnits="userSpaceOnUse" x="337" y="5" width="96" height="51">
<path d="M337.447 5.86206H432.557V55.1438H337.447V5.86206Z" fill="white"/>
</mask>
<g mask="url(#mask18_1829_49905)">
<path d="M386.854 35.5195C387.106 35.6817 387.38 35.8034 387.666 35.8896L413.93 43.3891C415.108 43.7238 416.223 43.2319 416.69 42.1722L417.191 41.0313C417.78 39.6825 417.847 37.2435 416.404 37.4108C413.433 37.7556 412.466 37.208 412.466 37.208L388.179 30.2764C386.681 29.8505 385.356 30.7581 385.213 32.3097C385.099 33.5622 385.793 34.8501 386.854 35.5245" fill="#A3B0C2"/>
<path d="M389.551 45.5343C390.098 45.8791 390.721 46.0566 391.339 45.9907L408.452 44.221L404.682 50.3514C403.924 51.5785 404.366 53.4192 405.666 54.4587C406.966 55.488 408.633 55.346 409.39 54.1139L416.513 42.5376C417.069 41.635 416.993 40.3572 416.316 39.3075C415.642 38.2579 414.506 37.6444 413.438 37.7559L389.9 40.1949C388.453 40.347 387.599 41.7668 387.998 43.3691C388.23 44.292 388.819 45.0678 389.555 45.5394" fill="#A3B0C2"/>
<path d="M413.088 43.0959C413.644 43.4457 414.279 43.6232 414.906 43.5522L430.583 41.7166C432.031 41.5493 432.864 40.1143 432.452 38.512C432.035 36.9097 430.529 35.7536 429.086 35.9209L413.408 37.7565C411.965 37.9238 411.127 39.3588 411.544 40.9611C411.78 41.8688 412.364 42.6344 413.092 43.0959" fill="#A3B0C2"/>
<path d="M339.101 11.2111C339.354 11.3734 339.627 11.5002 339.913 11.5813L366.177 19.0808C367.355 19.4205 368.47 18.9236 368.933 17.8638L369.434 16.7229C370.023 15.3741 370.09 12.9351 368.647 13.1025C365.676 13.4473 364.709 12.8997 364.709 12.8997L340.422 5.96807C338.924 5.54213 337.599 6.44978 337.456 8.0014C337.342 9.25385 338.037 10.5418 339.097 11.2162" fill="#A3B0C2"/>
<path d="M341.794 21.2306C342.341 21.5754 342.964 21.7529 343.583 21.687L360.695 19.9173L356.925 26.0477C356.168 27.2748 356.609 29.1155 357.91 30.155C359.21 31.1843 360.876 31.0373 361.633 29.8102L368.757 18.2338C369.312 17.3313 369.237 16.0535 368.559 15.0038C367.886 13.9542 366.75 13.3407 365.681 13.4522L342.144 15.8912C340.696 16.0433 339.842 17.4631 340.242 19.0654C340.469 19.9883 341.062 20.7641 341.799 21.2357" fill="#A3B0C2"/>
<path d="M365.332 18.7912C365.887 19.141 366.522 19.3185 367.149 19.2475L382.827 17.412C384.27 17.2446 385.103 15.8096 384.691 14.2073C384.274 12.605 382.768 11.4489 381.325 11.6162L365.647 13.4518C364.204 13.6191 363.367 15.0541 363.783 16.6564C364.019 17.5641 364.604 18.3297 365.332 18.7912" fill="#A3B0C2"/>
</g>
<mask id="mask19_1829_49905" style="mask-type:alpha" maskUnits="userSpaceOnUse" x="227" y="5" width="96" height="51">
<path d="M227.447 5.86206H322.557V55.1438H227.447V5.86206Z" fill="white"/>
</mask>
<g mask="url(#mask19_1829_49905)">
<path d="M276.854 35.5195C277.106 35.6817 277.38 35.8034 277.666 35.8896L303.93 43.3891C305.108 43.7238 306.223 43.2319 306.69 42.1722L307.191 41.0313C307.78 39.6825 307.847 37.2435 306.404 37.4108C303.433 37.7556 302.466 37.208 302.466 37.208L278.179 30.2764C276.681 29.8505 275.356 30.7581 275.213 32.3097C275.099 33.5622 275.793 34.8501 276.854 35.5245" fill="#A3B0C2"/>
<path d="M279.551 45.5343C280.098 45.8791 280.72 46.0566 281.339 45.9907L298.451 44.221L294.681 50.3514C293.924 51.5785 294.366 53.4192 295.666 54.4587C296.966 55.488 298.632 55.346 299.39 54.1139L306.513 42.5376C307.069 41.635 306.993 40.3572 306.315 39.3075C305.642 38.2579 304.506 37.6444 303.437 37.7559L279.9 40.1949C278.453 40.347 277.598 41.7668 277.998 43.3691C278.23 44.292 278.819 45.0678 279.555 45.5394" fill="#A3B0C2"/>
<path d="M303.088 43.0959C303.644 43.4457 304.279 43.6232 304.906 43.5522L320.583 41.7166C322.031 41.5493 322.864 40.1143 322.452 38.512C322.035 36.9097 320.529 35.7536 319.086 35.9209L303.408 37.7565C301.965 37.9238 301.127 39.3588 301.544 40.9611C301.78 41.8688 302.364 42.6344 303.092 43.0959" fill="#A3B0C2"/>
<path d="M229.101 11.2111C229.354 11.3734 229.627 11.5002 229.913 11.5813L256.177 19.0808C257.355 19.4205 258.47 18.9236 258.933 17.8638L259.434 16.7229C260.023 15.3741 260.09 12.9351 258.647 13.1025C255.676 13.4473 254.709 12.8997 254.709 12.8997L230.422 5.96807C228.924 5.54213 227.599 6.44978 227.456 8.0014C227.342 9.25385 228.037 10.5418 229.097 11.2162" fill="#A3B0C2"/>
<path d="M231.794 21.2306C232.341 21.5754 232.964 21.7529 233.583 21.687L250.695 19.9173L246.925 26.0477C246.168 27.2748 246.609 29.1155 247.91 30.155C249.21 31.1843 250.876 31.0373 251.633 29.8102L258.757 18.2338C259.312 17.3313 259.237 16.0535 258.559 15.0038C257.886 13.9542 256.75 13.3407 255.681 13.4522L232.144 15.8912C230.696 16.0433 229.842 17.4631 230.242 19.0654C230.469 19.9883 231.062 20.7641 231.799 21.2357" fill="#A3B0C2"/>
<path d="M255.332 18.7912C255.887 19.141 256.522 19.3185 257.149 19.2475L272.827 17.412C274.27 17.2446 275.103 15.8096 274.691 14.2073C274.274 12.605 272.768 11.4489 271.325 11.6162L255.647 13.4518C254.204 13.6191 253.367 15.0541 253.783 16.6564C254.019 17.5641 254.604 18.3297 255.332 18.7912" fill="#A3B0C2"/>
</g>
<mask id="mask20_1829_49905" style="mask-type:alpha" maskUnits="userSpaceOnUse" x="117" y="5" width="96" height="51">
<path d="M117.447 5.86206H212.557V55.1438H117.447V5.86206Z" fill="white"/>
</mask>
<g mask="url(#mask20_1829_49905)">
<path d="M166.854 35.5195C167.106 35.6817 167.38 35.8034 167.666 35.8896L193.93 43.3891C195.108 43.7238 196.223 43.2319 196.69 42.1722L197.191 41.0313C197.78 39.6825 197.847 37.2435 196.404 37.4108C193.433 37.7556 192.466 37.208 192.466 37.208L168.179 30.2764C166.681 29.8505 165.356 30.7581 165.213 32.3097C165.099 33.5622 165.793 34.8501 166.854 35.5245" fill="#A3B0C2"/>
<path d="M169.551 45.5343C170.098 45.8791 170.72 46.0566 171.339 45.9907L188.451 44.221L184.681 50.3514C183.924 51.5785 184.366 53.4192 185.666 54.4587C186.966 55.488 188.632 55.346 189.39 54.1139L196.513 42.5376C197.069 41.635 196.993 40.3572 196.315 39.3075C195.642 38.2579 194.506 37.6444 193.437 37.7559L169.9 40.1949C168.453 40.347 167.598 41.7668 167.998 43.3691C168.23 44.292 168.819 45.0678 169.555 45.5394" fill="#A3B0C2"/>
<path d="M193.088 43.0959C193.644 43.4457 194.279 43.6232 194.906 43.5522L210.583 41.7166C212.031 41.5493 212.864 40.1143 212.452 38.512C212.035 36.9097 210.529 35.7536 209.086 35.9209L193.408 37.7565C191.965 37.9238 191.127 39.3588 191.544 40.9611C191.78 41.8688 192.364 42.6344 193.092 43.0959" fill="#A3B0C2"/>
<path d="M119.101 11.2111C119.354 11.3734 119.627 11.5002 119.913 11.5813L146.177 19.0808C147.355 19.4205 148.47 18.9236 148.933 17.8638L149.434 16.7229C150.023 15.3741 150.09 12.9351 148.647 13.1025C145.676 13.4473 144.709 12.8997 144.709 12.8997L120.422 5.96807C118.924 5.54213 117.599 6.44978 117.456 8.0014C117.342 9.25385 118.037 10.5418 119.097 11.2162" fill="#A3B0C2"/>
<path d="M121.794 21.2306C122.341 21.5754 122.964 21.7529 123.583 21.687L140.695 19.9173L136.925 26.0477C136.168 27.2748 136.609 29.1155 137.91 30.155C139.21 31.1843 140.876 31.0373 141.633 29.8102L148.757 18.2338C149.312 17.3313 149.237 16.0535 148.559 15.0038C147.886 13.9542 146.75 13.3407 145.681 13.4522L122.144 15.8912C120.696 16.0433 119.842 17.4631 120.242 19.0654C120.469 19.9883 121.062 20.7641 121.799 21.2357" fill="#A3B0C2"/>
<path d="M145.332 18.7912C145.887 19.141 146.522 19.3185 147.149 19.2475L162.827 17.412C164.27 17.2446 165.103 15.8096 164.691 14.2073C164.274 12.605 162.768 11.4489 161.325 11.6162L145.647 13.4518C144.204 13.6191 143.367 15.0541 143.783 16.6564C144.019 17.5641 144.604 18.3297 145.332 18.7912" fill="#A3B0C2"/>
</g>
<mask id="mask21_1829_49905" style="mask-type:alpha" maskUnits="userSpaceOnUse" x="7" y="5" width="96" height="51">
<path d="M7.44743 5.86206H102.557V55.1438H7.44743V5.86206Z" fill="white"/>
</mask>
<g mask="url(#mask21_1829_49905)">
<path d="M56.8537 35.5195C57.1061 35.6817 57.3796 35.8034 57.6658 35.8896L83.9298 43.3891C85.1079 43.7238 86.2229 43.2319 86.69 42.1722L87.1907 41.0313C87.7797 39.6825 87.8471 37.2435 86.4038 37.4108C83.4333 37.7556 82.4655 37.208 82.4655 37.208L58.1791 30.2764C56.6812 29.8505 55.3558 30.7581 55.2127 32.3097C55.0991 33.5622 55.7934 34.8501 56.8537 35.5245" fill="#A3B0C2"/>
<path d="M59.5507 45.5343C60.0977 45.8791 60.7205 46.0566 61.339 45.9907L78.4514 44.221L74.6814 50.3514C73.924 51.5785 74.3658 53.4192 75.6659 54.4587C76.9661 55.488 78.6323 55.346 79.3897 54.1139L86.5132 42.5376C87.0686 41.635 86.9929 40.3572 86.3154 39.3075C85.6422 38.2579 84.5062 37.6444 83.4374 37.7559L59.9 40.1949C58.4525 40.347 57.5984 41.7668 57.9981 43.3691C58.2295 44.292 58.8186 45.0678 59.5549 45.5394" fill="#A3B0C2"/>
<path d="M83.0882 43.0959C83.6436 43.4457 84.2789 43.6232 84.9059 43.5522L100.583 41.7166C102.031 41.5493 102.864 40.1143 102.452 38.512C102.035 36.9097 100.529 35.7536 99.0856 35.9209L83.408 37.7565C81.9647 37.9238 81.1274 39.3588 81.544 40.9611C81.7796 41.8688 82.3645 42.6344 83.0924 43.0959" fill="#A3B0C2"/>
<path d="M9.10105 11.2111C9.35351 11.3734 9.62701 11.5002 9.91313 11.5813L36.1771 19.0808C37.3553 19.4205 38.4703 18.9236 38.9331 17.8638L39.4338 16.7229C40.0229 15.3741 40.0902 12.9351 38.647 13.1025C35.6764 13.4473 34.7087 12.8997 34.7087 12.8997L10.4222 5.96807C8.92433 5.54213 7.59892 6.44978 7.45587 8.0014C7.34226 9.25385 8.03652 10.5418 9.09684 11.2162" fill="#A3B0C2"/>
<path d="M11.7944 21.2306C12.3414 21.5754 12.9641 21.7529 13.5826 21.687L30.695 19.9173L26.925 26.0477C26.1676 27.2748 26.6094 29.1155 27.9096 30.155C29.2097 31.1843 30.876 31.0373 31.6333 29.8102L38.7569 18.2338C39.3123 17.3313 39.2365 16.0535 38.5591 15.0038C37.8859 13.9542 36.7498 13.3407 35.6811 13.4522L12.1436 15.8912C10.6962 16.0433 9.84204 17.4631 10.2418 19.0654C10.469 19.9883 11.0622 20.7641 11.7986 21.2357" fill="#A3B0C2"/>
<path d="M35.3316 18.7912C35.887 19.141 36.5224 19.3185 37.1493 19.2475L52.8269 17.412C54.2701 17.2446 55.1033 15.8096 54.6909 14.2073C54.2744 12.605 52.768 11.4489 51.3248 11.6162L35.6472 13.4518C34.204 13.6191 33.3667 15.0541 33.7832 16.6564C34.0188 17.5641 34.6037 18.3297 35.3316 18.7912" fill="#A3B0C2"/>
</g>
</svg>
