<svg width="31" height="29" viewBox="0 0 31 29" fill="none" xmlns="http://www.w3.org/2000/svg">
<circle cx="18.7037" cy="14.0304" r="11.8718" fill="#00254D" fill-opacity="0.2"/>
<path d="M14.6161 2.38992C11.5802 2.38992 9.21447 3.0547 6.51335 4.4847C3.84127 5.89933 2.96011 8.42086 1.80009 11.0309C1.01708 12.7927 1 15.1448 1 17.0534C1 19.3807 1.73302 20.6914 2.77475 22.6977C4.63512 26.2806 9.92747 27.5273 13.5832 27.5273C17.5008 27.5273 22.2803 26.1491 24.2463 22.6104C27.382 16.9661 25.2844 10.1779 20.9004 5.79394C19.7305 4.62404 18.0733 3.71674 16.5945 3.04454C15.0771 2.35482 14.048 1.34253 12.2595 1.34253" stroke="#00254D" stroke-width="1.22811" stroke-linecap="round"/>
<path d="M13.6365 12.9418C11.3725 13.5746 10.285 14.6633 10.5575 17.1475C10.7208 18.6365 13.8457 18.835 14.7171 18.1729C15.7322 17.4015 16.8044 15.1378 15.9178 13.8803C15.6488 13.4987 15.1973 13.0124 14.7085 12.9505C14.366 12.9072 13.3198 12.645 13.1733 12.9418" stroke="#00254D" stroke-width="0.818742" stroke-linecap="round"/>
<path d="M8.06018 26.8366C8.8078 23.9611 11.4515 21.2384 14.533 21.0304C15.5273 20.9633 16.5454 21.2043 17.1764 22.0304C17.7493 22.7804 17.9358 23.8012 18.0911 24.7048C18.2077 25.3829 18.237 26.0899 18.4012 26.7591C18.4294 26.8741 18.4774 26.9522 18.5252 26.9761" stroke="#00254D" stroke-width="1.22811" stroke-linecap="round"/>
</svg>
