<svg width="24" height="24" viewBox="0 0 24 24" fill="none" xmlns="http://www.w3.org/2000/svg">
<path d="M11.9998 18C11.7968 18 11.5988 17.916 11.4588 17.769L6.98485 13.101C5.95685 12.076 5.70185 10.502 6.35485 9.19099C6.93485 8.03199 8.10085 7.31299 9.39885 7.31299C9.92885 7.31299 10.4388 7.43399 10.9138 7.67199C11.2398 7.83499 11.5368 8.04899 11.7958 8.30699L11.9988 8.50899L12.2008 8.30699C12.8418 7.66599 13.6948 7.31399 14.6028 7.31399C15.5118 7.31399 16.3648 7.66699 17.0058 8.30799C17.2638 8.56599 17.4778 8.86199 17.6408 9.18999C18.2938 10.502 18.0368 12.078 16.9998 13.112L12.5408 17.768C12.4008 17.916 12.2038 18 11.9998 18ZM9.39785 8.81299C8.67185 8.81299 8.02085 9.21499 7.69685 9.86099C7.33185 10.592 7.47685 11.472 8.05585 12.05L11.9998 16.166L15.9298 12.063C16.5178 11.475 16.6648 10.592 16.2998 9.85999C16.2088 9.67799 16.0898 9.51299 15.9458 9.36899C15.5878 9.01099 15.1108 8.81399 14.6028 8.81399C14.0948 8.81399 13.6188 9.01099 13.2608 9.36799L12.5298 10.099C12.3878 10.241 12.1998 10.319 11.9998 10.319C11.7998 10.319 11.6118 10.241 11.4708 10.1L10.7368 9.36999C10.5918 9.22499 10.4258 9.10499 10.2438 9.01399C9.97785 8.88099 9.69285 8.81299 9.39785 8.81299Z" fill="#54C5C1"/>
<path d="M12 24C5.383 24 0 18.617 0 12C0 5.383 5.383 0 12 0C18.617 0 24 5.383 24 12C24 18.617 18.617 24 12 24ZM12 1.5C6.21 1.5 1.5 6.21 1.5 12C1.5 17.79 6.21 22.5 12 22.5C17.79 22.5 22.5 17.79 22.5 12C22.5 6.21 17.79 1.5 12 1.5Z" fill="#54C5C1"/>
</svg>
