<svg width="298" height="207" viewBox="0 0 298 207" fill="none" xmlns="http://www.w3.org/2000/svg">
<path d="M151.458 207C95.7523 207 24.3412 174.224 27.2802 127.074C35.4031 -3.24127 110.838 -7.0067 175.828 37.5907C240.818 82.1881 297.685 81.0286 297.685 138.367C297.685 195.706 224.571 207 151.458 207Z" fill="#66D3FB"/>
<mask id="mask0_2086_9774" style="mask-type:alpha" maskUnits="userSpaceOnUse" x="0" y="0" width="298" height="207">
<path d="M298 137.946C298 195.075 230.198 205.775 156.584 206.973C114.671 207.655 65.1497 195.189 35.9521 157.542C28.0342 147.332 13.9996 131.369 9.62801 117.216C-39.1237 -40.6166 109.829 -7.76203 175.28 36.6721C240.73 81.1062 298 80.817 298 137.946Z" fill="#D9D9D9"/>
</mask>
<g mask="url(#mask0_2086_9774)">
<path d="M305.012 101.352H36.1973V241.15H305.012V101.352Z" fill="#F0EDF8"/>
<path d="M20.3789 123.717C28.0221 126.222 47.2908 123.717 47.2908 123.717L51.5451 149.632C51.5451 149.632 56.5969 159.502 82.1134 160.687C107.63 161.871 115.579 149.437 115.579 149.437L129.694 86.6714C129.962 77.9885 118.001 72.2626 96.7338 69.1035C75.4668 65.9445 57.1269 71.2733 46.4934 75.8151C35.8599 80.3533 37.9895 88.8412 37.9895 88.8412C37.9895 88.8412 17.5199 86.8663 10.6108 94.9607C3.70175 103.051 12.7356 121.211 20.3789 123.72V123.717ZM21.4096 97.5168C24.5943 96.329 29.5051 95.5708 36.0349 97.6648C36.7205 97.885 37.2116 98.358 37.3137 98.9067L39.842 112.344C40.0705 113.565 38.9863 114.706 37.3623 114.951C32.6801 115.651 23.7289 116.525 21.7403 113.388C20.0239 110.68 18.6188 106.066 17.8165 103.023C17.2282 100.799 18.6771 98.5349 21.4048 97.5204L21.4096 97.5168Z" fill="#BAECD6"/>
<path d="M216.187 196.945C215.551 205.016 209.603 204.444 209.603 204.444C209.603 204.444 147.567 200.483 137.952 200.058C128.337 199.634 129.774 195.673 129.774 195.673L140.637 115.332L202.727 157.107L216.187 196.949V196.945Z" fill="#627692"/>
<path d="M146.703 108.359L209.315 112.657C209.315 112.657 213.952 113.133 215.499 115.519C217.046 117.906 215.499 195.709 215.499 195.709C215.499 195.709 214.469 200.958 206.738 200.958C199.928 200.958 146.883 196.88 134.387 195.91C132.945 195.797 131.891 194.607 132.052 193.274L141.696 113.846C141.696 113.846 141.829 108.023 146.698 108.356L146.703 108.359Z" fill="#A2AFC1"/>
<path d="M148.942 198.278C148.942 198.278 147.719 203.537 148.942 206.263C150.165 208.989 149.919 211.328 149.919 211.328C149.919 211.328 152.611 210.158 153.834 211.328C155.057 212.497 157.749 204.342 157.749 204.342V198.278C157.749 198.278 152.129 196.444 148.942 198.278Z" fill="#A2AFC1"/>
<path d="M256.903 222.568L239.562 163.744L245.487 155.524L252.34 160.601L269.95 220.444C269.95 220.444 267.521 230.059 256.903 222.564V222.568Z" fill="#7A231F"/>
<path d="M232.55 132.028C232.55 132.028 233.333 124.876 244.47 128.678C244.47 128.678 254.344 140.514 253.541 160.772C253.541 160.772 243.207 159.042 240.842 163.829C238.478 168.619 232.555 132.024 232.555 132.024L232.55 132.028Z" fill="#FF4F4E"/>
<path d="M85.0379 89.1198C67.4681 89.1198 47.8857 85.8903 47.8857 81.2562C47.8857 81.0586 48.1019 80.8969 48.3661 80.8969C48.6302 80.8969 48.8464 81.0586 48.8464 81.2562C48.8464 84.9311 66.4354 88.4013 85.0379 88.4013C102.392 88.4013 117.051 85.1287 117.051 81.2562C117.051 77.3837 102.392 74.111 85.0379 74.111C84.7738 74.111 84.5576 73.9494 84.5576 73.7518C84.5576 73.5542 84.7738 73.3926 85.0379 73.3926C103.53 73.3926 118.011 76.8484 118.011 81.2562C118.011 85.664 103.525 89.1198 85.0379 89.1198Z" fill="#00254D"/>
<path d="M47.4106 122.322C47.1834 122.322 46.9846 122.196 46.9468 122.015L40.8796 94.7972C40.837 94.5972 41.0074 94.4047 41.2629 94.3677C41.5232 94.3343 41.7646 94.4676 41.8119 94.6676L47.8791 121.885C47.9217 122.085 47.7513 122.278 47.4957 122.315C47.4674 122.315 47.439 122.318 47.4153 122.318L47.4106 122.322Z" fill="#00254D"/>
<path d="M206.793 195.711L140.85 191.323C139.753 191.249 138.937 190.334 139.061 189.309L148.058 115.193C148.177 114.222 149.093 113.513 150.133 113.59L209.722 117.879C210.757 117.953 211.544 118.776 211.511 119.746L208.873 193.962C208.835 194.991 207.895 195.781 206.798 195.711H206.793Z" fill="#DFE4EA"/>
<path d="M183.229 190.473C183.168 190.473 183.111 190.473 183.05 190.47L166.798 189.67C165.598 189.609 164.685 188.956 164.767 188.21L165.126 184.77C165.167 184.397 165.439 184.059 165.895 183.814C166.352 183.571 166.937 183.457 167.532 183.488L183.783 184.387C184.973 184.454 185.876 185.108 185.794 185.848L185.435 189.188C185.394 189.558 185.127 189.896 184.676 190.138C184.271 190.355 183.763 190.473 183.234 190.473H183.229ZM167.332 184.12C167.05 184.12 166.778 184.18 166.562 184.298C166.316 184.429 166.172 184.611 166.152 184.811L165.793 188.251C165.752 188.653 166.239 189.004 166.885 189.035L183.137 189.836C183.455 189.855 183.763 189.788 184.009 189.657C184.25 189.526 184.394 189.345 184.419 189.147L184.779 185.806C184.82 185.408 184.337 185.057 183.701 185.022L167.45 184.123C167.414 184.123 167.378 184.123 167.342 184.123L167.332 184.12Z" fill="#00254D"/>
<path d="M255.136 160.766C255.029 160.766 254.921 160.74 254.833 160.686C254.623 160.561 254.583 160.331 254.755 160.17L257.254 157.815C257.049 156.707 255.738 149.765 253.639 141.581C251.433 132.972 246.958 131.783 246.914 131.772C246.659 131.71 246.517 131.505 246.596 131.315C246.679 131.125 246.948 131.019 247.202 131.074C247.408 131.121 252.26 132.328 254.603 141.445C256.887 150.358 258.242 157.8 258.257 157.873C258.276 157.972 258.237 158.071 258.154 158.151L255.527 160.627C255.43 160.718 255.288 160.766 255.146 160.766H255.136Z" fill="#00254D"/>
</g>
</svg>
