<svg width="228" height="269" viewBox="0 0 228 269" fill="none" xmlns="http://www.w3.org/2000/svg">
<g clip-path="url(#clip0_485_67985)">
<path d="M26.7157 58.8407C-13.4419 119.504 7.06411 192.13 51.4938 233.997C95.9235 275.863 159.85 255.955 199.308 228.016C278.769 171.752 151.461 167.352 151.461 72.5113C151.461 -22.329 74.1268 -12.7803 26.7157 58.8407Z" fill="#54C5C1"/>
<mask id="mask0_485_67985" style="mask-type:alpha" maskUnits="userSpaceOnUse" x="4" y="-11" width="229" height="277">
<path d="M36.1143 40.8981C-10.8787 110.106 -2.31731 175.208 36.1143 219.472C104.364 298.078 169.274 259.553 206.998 219.472C248.01 175.896 243.946 142.392 165.986 64.8215C95.5888 -5.22279 99.2154 -52.0325 36.1143 40.8981Z" fill="#E7FAFF"/>
</mask>
<g mask="url(#mask0_485_67985)">
<path d="M198.706 145.798H-152.532V374.799H198.706V145.798Z" fill="#FCE6E5"/>
<path d="M-159.548 143.918L62.0353 75.0461L205.2 123.258V145.799L4.44437 244.093L-159.548 165.088V143.918Z" fill="#FCE6E5"/>
<path d="M46.5727 146.399L36.2896 76.849C36.1036 75.5907 36.3807 74.2884 37.2224 73.3348C48.3635 60.7114 79.3402 61.5073 91.4441 65.975C93.1459 66.6031 94.0781 68.3138 94.0421 70.1274L92.594 143.066C92.5795 143.796 92.2929 144.509 91.7854 145.033C74.3409 163.065 52.6685 152.807 47.3204 147.902C46.8928 147.509 46.6575 146.973 46.5727 146.399Z" fill="#E7FAFF"/>
<path d="M88.1195 98.031C68.9806 94.6133 51.0947 99.455 44.5442 102.303L51.3795 143.315C67.7844 154.252 82.7082 146.163 88.1195 140.752V98.031Z" fill="#66D3FB"/>
<path d="M5.03086 221.588L-159.548 143.917V165.087L4.44439 244.092L5.03086 221.588Z" fill="#DF8884"/>
<path d="M5.03105 221.589L205.2 123.257V145.799L4.44458 244.092L5.03105 221.589Z" fill="#DF8884"/>
<path d="M27.0742 312.455C26.7782 312.455 26.5361 312.211 26.5361 311.913V252.051C26.5361 251.845 26.6545 251.655 26.8374 251.563L182.565 175.752C182.834 175.622 183.157 175.736 183.286 176.007C183.415 176.278 183.302 176.598 183.033 176.728L27.6122 252.393V311.913C27.6122 312.211 27.3701 312.455 27.0742 312.455Z" fill="#00254D"/>
<path d="M47.175 300.972C46.8791 300.972 46.637 300.728 46.637 300.43V260.296C46.637 260.09 46.7499 259.906 46.9329 259.814L177.675 193.517C177.938 193.381 178.266 193.49 178.395 193.756C178.53 194.021 178.422 194.346 178.159 194.482L47.713 260.627V300.425C47.713 300.723 47.4709 300.967 47.175 300.967V300.972Z" fill="#00254D"/>
<path d="M96.2166 260.297L104.938 255.418C104.938 255.418 136.348 258.622 138.726 238.21L145.877 233.407V244.087L140.319 247.215C140.319 247.215 141.847 263.024 104.938 264.623L96.2166 269.827V260.297V260.297Z" fill="#F5C979"/>
<path d="M99.7138 266.487C98.6323 266.487 98.1373 264.741 98.1373 263.121C98.1373 261.5 98.6323 259.754 99.7138 259.754C100.01 259.754 100.252 259.998 100.252 260.296C100.252 260.594 100.031 260.816 99.7514 260.838C99.5846 260.963 99.2134 261.749 99.2134 263.121C99.2134 264.492 99.6008 265.322 99.7622 265.414C100.058 265.414 100.273 265.652 100.273 265.95C100.273 266.249 100.004 266.487 99.7084 266.487H99.7138Z" fill="#00254D"/>
<path d="M142.971 244.076C141.89 244.076 141.395 242.33 141.395 240.709C141.395 239.088 141.89 237.343 142.971 237.343C143.267 237.343 143.509 237.586 143.509 237.885C143.509 238.183 143.289 238.405 143.009 238.427C142.842 238.551 142.471 239.338 142.471 240.709C142.471 242.081 142.858 242.91 143.02 243.002C143.316 243.002 143.531 243.241 143.531 243.539C143.531 243.837 143.262 244.076 142.966 244.076H142.971Z" fill="#00254D"/>
<path d="M125.863 112.721L152.973 111.407L153.426 133.399C153.426 133.399 155.118 138.08 140.758 138.36C126.397 138.64 126.316 134.713 126.316 134.713L125.863 112.721Z" fill="#F5C979"/>
<ellipse rx="15.3332" ry="1.36489" transform="matrix(0.999952 -0.00980273 0.0409291 0.999162 139.298 107.337)" fill="white"/>
<ellipse rx="15.3332" ry="1.36489" transform="matrix(0.999952 -0.00980273 0.0409291 0.999162 139.521 112.792)" fill="white"/>
<rect width="30.6663" height="5.45957" transform="matrix(0.999952 -0.00980273 0.0409291 0.999162 123.966 107.488)" fill="white"/>
<path d="M125.833 112.299C129.151 112.749 137.447 113.305 144.082 111.925" stroke="black" stroke-width="0.5" stroke-linecap="round"/>
<path d="M110.892 105.737L131.665 104.568V137.291C131.665 137.291 132.887 144.303 121.889 144.303C110.892 144.303 110.892 138.459 110.892 138.459V105.737Z" fill="#F5C979"/>
<ellipse cx="121.299" cy="98.8921" rx="12.2987" ry="1.8921" fill="white"/>
<ellipse cx="121.299" cy="108.352" rx="12.2987" ry="1.8921" fill="white"/>
<rect x="109" y="98.8918" width="24.5973" height="9.46051" fill="white"/>
<path d="M110.892 106.46C113.609 107.449 120.44 109.131 126.029 107.944" stroke="black" stroke-width="0.5" stroke-linecap="round"/>
<path d="M130.909 122.823V136.068" stroke="#002650" stroke-width="0.5" stroke-linecap="round"/>
</g>
<path d="M49 103.909C54.2937 105.121 64.7429 105.909 78 103" stroke="black" stroke-width="0.5" stroke-linecap="round"/>
<path d="M75 75C59.4571 77.9086 46.7063 76.2119 40.5 75C43 72 51.8 66.8 67 66" stroke="black" stroke-width="0.5" stroke-linecap="round" stroke-linejoin="round"/>
</g>
<defs>
<clipPath id="clip0_485_67985">
<rect width="228" height="269" fill="white"/>
</clipPath>
</defs>
</svg>
