<svg width="24" height="24" viewBox="0 0 24 24" fill="none" xmlns="http://www.w3.org/2000/svg">
<path d="M10.4 24C9.9584 24 9.6 23.6416 9.6 23.2C9.6 22.7584 9.9584 22.4 10.4 22.4H13.6C14.0416 22.4 14.4 22.7584 14.4 23.2C14.4 23.6416 14.0416 24 13.6 24H10.4Z" fill="#54C5C1"/>
<path d="M10.4 20.8C9.9584 20.8 9.6 20.4416 9.6 20V18.7659C6.70613 17.7483 4.78933 15.0464 4.8 11.9509C4.81387 7.99573 8.04373 4.7776 12 4.7776C13.9499 4.784 15.7547 5.54027 17.1093 6.90453C18.464 8.2688 19.2064 10.08 19.2 12.0032C19.1947 15.0773 17.2779 17.7589 14.4 18.7669V20C14.4 20.4416 14.0416 20.8 13.6 20.8H10.4ZM12.8 19.2V18.1739C12.8 17.808 13.0475 17.4891 13.4016 17.3984C15.8688 16.7659 17.5957 14.5451 17.6 11.9979C17.6053 10.5013 17.0283 9.09227 15.9744 8.03093C14.9205 6.9696 13.5168 6.38187 12.0203 6.37653L11.9979 5.97653V6.37653C8.92267 6.37653 6.41173 8.88 6.40107 11.9563C6.39147 14.5195 8.1184 16.7573 10.6005 17.3984C10.9536 17.4891 11.2 17.808 11.2 18.1728V19.1989L12.8 19.2Z" fill="#54C5C1"/>
<path d="M12 3.2C11.5584 3.2 11.2 2.8416 11.2 2.4V0.8C11.2 0.3584 11.5584 0 12 0C12.4416 0 12.8 0.3584 12.8 0.8V2.4C12.8 2.8416 12.4416 3.2 12 3.2Z" fill="#54C5C1"/>
<path d="M21.6 11.2C21.1584 11.2 20.8 10.8416 20.8 10.4C20.8 9.9584 21.1584 9.6 21.6 9.6H23.2C23.6416 9.6 24 9.9584 24 10.4C24 10.8416 23.6416 11.2 23.2 11.2H21.6Z" fill="#54C5C1"/>
<path d="M0.8 12.8C0.3584 12.8 0 12.4416 0 12C0 11.5584 0.3584 11.2 0.8 11.2H2.4C2.8416 11.2 3.2 11.5584 3.2 12C3.2 12.4416 2.8416 12.8 2.4 12.8H0.8Z" fill="#54C5C1"/>
<path d="M19.92 19.92C19.7067 19.92 19.5051 19.8368 19.3547 19.6853L18.2229 18.5536C17.9115 18.2421 17.9115 17.7344 18.2229 17.4219C18.3744 17.2704 18.5749 17.1872 18.7883 17.1872C19.0016 17.1872 19.2032 17.2704 19.3536 17.4219L20.4853 18.5536C20.7968 18.8651 20.7968 19.3728 20.4853 19.6853C20.3349 19.8368 20.1333 19.92 19.92 19.92Z" fill="#54C5C1"/>
<path d="M5.21173 5.21173C4.9984 5.21173 4.7968 5.12853 4.6464 4.97707L3.51467 3.84533C3.3632 3.69493 3.28 3.49333 3.28 3.28C3.28 3.06667 3.3632 2.86507 3.51467 2.71467C3.66507 2.5632 3.86667 2.48 4.08 2.48C4.29333 2.48 4.49493 2.5632 4.64533 2.71467L5.77707 3.8464C5.92853 3.9968 6.01173 4.1984 6.01173 4.41173C6.01173 4.62507 5.92853 4.82667 5.77707 4.97707C5.62667 5.12853 5.42507 5.21173 5.21173 5.21173Z" fill="#54C5C1"/>
<path d="M18.7883 5.21173C18.5749 5.21173 18.3733 5.12853 18.2229 4.97707C18.0715 4.82667 17.9883 4.62507 17.9883 4.41173C17.9883 4.1984 18.0715 3.9968 18.2229 3.8464L19.3547 2.71467C19.5061 2.5632 19.7067 2.48 19.92 2.48C20.1333 2.48 20.3349 2.5632 20.4853 2.71467C20.6368 2.86507 20.72 3.06667 20.72 3.28C20.72 3.49333 20.6368 3.69493 20.4853 3.84533L19.3536 4.97707C19.2032 5.12853 19.0016 5.21173 18.7883 5.21173Z" fill="#54C5C1"/>
<path d="M4.08 19.92C3.86667 19.92 3.66507 19.8368 3.51467 19.6853C3.2032 19.3739 3.2032 18.8661 3.51467 18.5536L4.6464 17.4219C4.79787 17.2704 4.9984 17.1872 5.21173 17.1872C5.42507 17.1872 5.62667 17.2704 5.77707 17.4219C6.08853 17.7333 6.08853 18.2411 5.77707 18.5536L4.64533 19.6853C4.49493 19.8368 4.29333 19.92 4.08 19.92Z" fill="#54C5C1"/>
</svg>
