<svg width="41" height="104" viewBox="0 0 41 104" fill="none" xmlns="http://www.w3.org/2000/svg">
<ellipse cx="27" cy="51.5" rx="9" ry="47.5" fill="#B6E5E5"/>
<path d="M17.6876 17.9491C16.5951 19.3912 15.8516 20.5653 14.0272 21.0866C12.6161 21.4897 11.7715 22.574 10.6282 23.309C9.18049 24.2396 8.22004 25.1111 7.2292 26.5191C6.80967 27.1153 6.29159 27.9048 6.19788 28.6544C6.06572 29.7117 5.43652 30.6972 5.39898 31.7483C5.21045 37.0272 2 41.829 2 47.2035C2 48.8207 2 50.4379 2 52.055C2 54.1101 2.39209 55.3753 3.10394 57.2261C3.78919 59.0078 5.39898 58.1037 5.39898 56.4999C5.39898 55.3173 4.95454 54.2355 5.26825 53.2316C6.4726 49.3777 7.28613 45.4503 8.5365 41.6257C9.36489 39.0918 9.9114 36.3854 10.3667 33.7674C10.574 32.5755 10.5847 31.5127 10.6282 30.2958C10.6938 28.4585 11.1511 31.7659 11.1511 32.2277C11.1511 35.3991 11.1511 38.5705 11.1511 41.7419C11.1511 43.2213 10.8896 44.6739 10.8896 46.1722C10.8896 47.6369 10.1531 48.9938 10.1053 50.4282C10.0086 53.3281 9.8438 56.1935 9.8438 59.1145C9.8438 60.713 10.0794 62.2762 10.1053 63.8788C10.1299 65.4084 10.1417 67.3236 10.4974 68.8175C10.8517 70.3055 10.388 71.8805 10.7589 73.364C11.0654 74.5899 11.1511 75.6595 11.1511 76.9228C11.1511 79.8511 10.6282 82.7058 10.6282 85.6091C10.6282 88.1764 10.8896 90.7365 10.8896 93.264C10.8896 94.3799 11.4561 97.2229 10.2215 97.4474C9.41598 97.5938 8.53969 98.5345 7.73759 98.8854C6.71633 99.3322 5.40923 99.7758 4.6146 100.57C4.2096 100.975 3.25601 101.616 4.48387 101.616C5.60015 101.616 6.66361 101.384 7.75212 101.355C9.81126 101.299 11.6483 100.736 13.635 100.294C14.7858 100.039 14.8115 97.4978 14.8115 96.5323C14.8115 94.0974 15.2712 91.7299 15.3345 89.3276C15.4184 86.1379 16.4242 83.0117 16.6418 79.857C16.858 76.7216 18.5896 73.7451 18.9949 70.6042C19.6878 65.2343 21.348 59.8803 21.348 54.4518C21.348 54.3096 21.348 53.0336 21.348 53.435C21.348 54.9502 21.4278 56.442 21.5514 57.9524C21.8186 61.2184 22.3517 64.4497 22.6553 67.7136C22.9645 71.037 24.5754 74.2044 25.1392 77.4748C25.7465 80.997 25.2699 84.9662 25.2699 88.5432C25.2699 91.0911 25.0085 93.6206 25.0085 96.1837C25.0085 98.1692 25.7755 97.9603 27.4633 98.6094C29.322 99.3243 31.4082 99.4007 32.9975 100.701C33.7012 101.277 37.1501 102.447 35.4669 100.716C34.3742 99.5918 33.122 98.6024 32.0824 97.4329C31.6143 96.9063 30.2648 96.0415 30.2377 95.2831C30.1657 93.2683 30.0292 91.0438 30.2522 89.0371C30.5512 86.3465 31.3591 83.7971 31.5595 81.0916C31.7961 77.8977 32.3294 74.8387 32.3294 71.6064C32.3294 68.1358 31.545 64.7552 31.545 61.2642C31.545 57.3993 31.6504 53.2657 30.7606 49.484C29.9603 46.0826 29.7148 42.481 29.7148 38.9966C29.7148 37.354 29.7704 35.7605 30.1069 34.145C30.3821 32.8244 30.0589 31.4694 30.441 30.1796C30.6193 29.5779 30.46 28.2701 30.7751 27.7974C31.265 27.0626 31.2547 29.4998 31.4142 30.3684C31.7256 32.0637 31.9795 33.7035 32.5908 35.3216C33.9913 39.0289 33.5818 43.0145 34.2903 46.8404C34.6716 48.8996 34.421 51.1693 34.421 53.2607C34.421 56.1296 35.392 53.7736 36.0479 52.4618C36.639 51.2795 36.5127 54.377 36.5127 54.8149C36.5127 55.1772 36.4301 57.0687 37.2971 56.587C39.2267 55.515 38.4365 49.3996 38.2122 47.7845C37.9614 45.9786 37.5585 44.1463 37.5585 42.3229C37.5585 40.6612 37.5058 38.6794 37.1664 37.0502C36.5159 33.928 36.1015 30.7403 35.4088 27.6231C34.8122 24.9386 33.8002 23.1657 32.0679 21.1447C30.8882 19.7683 28.2459 18.472 26.4465 18.472C25.1036 18.472 24.1359 18.3399 23.3235 17.2954C22.4448 16.1656 24.2524 14.987 24.6889 14.2886C25.5111 12.9731 26.5772 12.0322 26.5772 10.3086C26.5772 7.68221 27.0254 5.57339 24.8632 3.69949C23.0805 2.1545 20.7086 2 18.472 2C16.7107 2 14.8591 4.2093 14.8115 5.9219C14.7691 7.45075 14.905 8.93888 15.073 10.3667C15.2191 11.6085 16.5702 12.478 16.6418 13.7657C16.6704 14.281 17.0228 14.5112 17.1502 14.9568C17.3761 15.7475 17.1647 16.8709 17.1647 17.6876" stroke="#00254D" stroke-width="3" stroke-linecap="round"/>
</svg>
