<svg width="255" height="234" viewBox="0 0 255 234" fill="none" xmlns="http://www.w3.org/2000/svg">
<g clip-path="url(#clip0_502_67239)">
<path d="M126.123 228.531C78.5499 228.531 17.5651 190.737 20.075 136.367C27.0119 -13.9005 91.4334 -18.2425 146.934 33.1832C202.436 84.6089 251 83.2719 251 149.39C251 215.508 188.561 228.531 126.123 228.531Z" fill="#66D3FB"/>
<mask id="mask0_502_67239" style="mask-type:alpha" maskUnits="userSpaceOnUse" x="-4" y="-11" width="256" height="240">
<path d="M251.269 148.904C251.269 214.78 193.366 227.118 130.5 228.5C94.7066 229.286 52.4154 214.911 27.4807 171.5C20.7188 159.727 8.73331 141.32 5 125C-36.6338 -56.9985 90.5713 -19.1136 146.466 32.1239C202.361 83.3614 251.269 83.0279 251.269 148.904Z" fill="#D9D9D9"/>
</mask>
<g mask="url(#mask0_502_67239)">
<path d="M257.258 106.707H27.6904V267.909H257.258V106.707Z" fill="#F0EDF8"/>
<path d="M14.1811 132.496C20.7085 135.385 37.1638 132.496 37.1638 132.496L40.797 162.379C40.797 162.379 45.1112 173.761 66.9022 175.126C88.6932 176.492 95.4821 162.154 95.4821 162.154L107.536 89.7786C107.764 79.7663 97.5499 73.1637 79.388 69.521C61.2261 65.8782 45.5638 72.023 36.4828 77.2602C27.4019 82.4932 29.2206 92.2806 29.2206 92.2806C29.2206 92.2806 11.7396 90.0034 5.83926 99.3371C-0.0610869 108.667 7.65379 129.607 14.1811 132.5V132.496ZM15.0614 102.285C17.7811 100.915 21.9749 100.041 27.5514 102.455C28.1368 102.709 28.5562 103.255 28.6434 103.887L30.8026 119.382C30.9977 120.79 30.0718 122.105 28.6849 122.388C24.6863 123.196 17.042 124.203 15.3437 120.586C13.878 117.463 12.678 112.143 11.9929 108.633C11.4905 106.069 12.7278 103.459 15.0572 102.289L15.0614 102.285Z" fill="#BAECD6"/>
<path d="M181.401 216.937C180.858 226.243 175.779 225.584 175.779 225.584C175.779 225.584 122.8 221.016 114.589 220.526C106.377 220.037 107.605 215.469 107.605 215.469L116.882 122.828L169.906 170.999L181.401 216.941V216.937Z" fill="#627692"/>
<path d="M122.062 114.787L175.532 119.743C175.532 119.743 179.492 120.291 180.813 123.043C182.135 125.795 180.813 215.51 180.813 215.51C180.813 215.51 179.934 221.563 173.332 221.563C167.516 221.563 122.216 216.861 111.544 215.743C110.312 215.612 109.412 214.24 109.55 212.704L117.786 121.114C117.786 121.114 117.899 114.399 122.057 114.783L122.062 114.787Z" fill="#A2AFC1"/>
<path d="M123.974 218.473C123.974 218.473 122.93 224.538 123.974 227.681C125.018 230.824 124.809 233.521 124.809 233.521C124.809 233.521 127.107 232.173 128.152 233.521C129.196 234.869 131.495 225.465 131.495 225.465V218.473C131.495 218.473 126.696 216.359 123.974 218.473Z" fill="#A2AFC1"/>
<path d="M216.172 246.482L201.363 178.652L206.423 169.173L212.275 175.028L227.314 244.033C227.314 244.033 225.24 255.121 216.172 246.478V246.482Z" fill="#7A231F"/>
<path d="M195.374 142.08C195.374 142.08 196.043 133.833 205.554 138.217C205.554 138.217 213.986 151.865 213.301 175.225C213.301 175.225 204.475 173.23 202.456 178.75C200.437 184.273 195.379 142.075 195.379 142.075L195.374 142.08Z" fill="#FF4F4E"/>
<path d="M69.3994 92.602C54.3948 92.602 37.6716 88.878 37.6716 83.5344C37.6716 83.3066 37.8562 83.1202 38.0818 83.1202C38.3074 83.1202 38.4919 83.3066 38.4919 83.5344C38.4919 87.772 53.5129 91.7735 69.3994 91.7735C84.2194 91.7735 96.7383 87.9998 96.7383 83.5344C96.7383 79.0689 84.2194 75.2953 69.3994 75.2953C69.1738 75.2953 68.9892 75.1089 68.9892 74.881C68.9892 74.6532 69.1738 74.4668 69.3994 74.4668C85.1916 74.4668 97.5587 78.4517 97.5587 83.5344C97.5587 88.6171 85.1875 92.602 69.3994 92.602Z" fill="#00254D"/>
<path d="M37.2659 130.888C37.0719 130.888 36.9021 130.743 36.8698 130.533L31.6884 99.1487C31.6521 98.9181 31.7976 98.696 32.0158 98.6533C32.2381 98.6149 32.4442 98.7686 32.4846 98.9992L37.666 130.384C37.7024 130.615 37.5569 130.837 37.3386 130.879C37.3144 130.879 37.2901 130.884 37.2699 130.884L37.2659 130.888Z" fill="#00254D"/>
<path d="M173.378 215.514L117.063 210.453C116.126 210.369 115.43 209.313 115.535 208.131L123.219 122.667C123.32 121.548 124.103 120.73 124.991 120.819L175.88 125.765C176.764 125.85 177.436 126.799 177.407 127.918L175.155 213.496C175.122 214.683 174.319 215.594 173.382 215.514H173.378Z" fill="#DFE4EA"/>
<path d="M153.255 209.474C153.202 209.474 153.154 209.474 153.101 209.47L139.223 208.547C138.198 208.477 137.418 207.724 137.488 206.864L137.794 202.897C137.83 202.467 138.062 202.078 138.452 201.795C138.842 201.515 139.341 201.383 139.849 201.42L153.728 202.456C154.744 202.533 155.515 203.287 155.445 204.14L155.138 207.992C155.103 208.419 154.876 208.808 154.49 209.088C154.144 209.338 153.71 209.474 153.259 209.474H153.255ZM139.678 202.147C139.437 202.147 139.205 202.217 139.021 202.353C138.811 202.504 138.688 202.714 138.671 202.945L138.364 206.912C138.329 207.375 138.745 207.779 139.297 207.816L153.176 208.738C153.447 208.761 153.71 208.683 153.921 208.533C154.126 208.382 154.249 208.172 154.271 207.944L154.578 204.092C154.613 203.633 154.201 203.228 153.658 203.188L139.779 202.151C139.748 202.151 139.718 202.151 139.687 202.151L139.678 202.147Z" fill="#00254D"/>
<path d="M214.664 175.218C214.572 175.218 214.48 175.188 214.405 175.125C214.225 174.982 214.192 174.716 214.338 174.53L216.472 171.815C216.297 170.537 215.177 162.533 213.385 153.095C211.501 143.168 207.679 141.797 207.642 141.785C207.424 141.713 207.303 141.477 207.37 141.257C207.441 141.038 207.671 140.916 207.888 140.979C208.063 141.034 212.207 142.426 214.208 152.939C216.159 163.216 217.316 171.798 217.329 171.882C217.345 171.996 217.312 172.11 217.241 172.203L214.998 175.058C214.914 175.163 214.793 175.218 214.672 175.218H214.664Z" fill="#00254D"/>
</g>
</g>
<defs>
<clipPath id="clip0_502_67239">
<rect width="255" height="234" fill="white"/>
</clipPath>
</defs>
</svg>
