<svg width="49" height="41" viewBox="0 0 49 41" fill="none" xmlns="http://www.w3.org/2000/svg">
<path d="M22.9026 39.9633C32.7917 43.4808 43.8975 37.7576 47.7101 27.1806C51.5227 16.6037 46.5971 5.17782 36.7081 1.6603C26.819 -1.85723 4.38095 -0.164976 0.568336 10.4138C-3.24428 20.9908 13.0117 36.4476 22.9007 39.9652L22.9026 39.9633Z" fill="#66D3FB"/>
<path d="M18 12H10V13H18V12Z" fill="#E6FEFE"/>
<path d="M10.5 16C10.2237 16 10 15.7147 10 15.3623V9.63771C10 9.28529 10.2237 9 10.5 9C10.7763 9 11 9.28529 11 9.63771V15.3623C11 15.7147 10.7763 16 10.5 16Z" fill="#E6FEFE"/>
<path d="M21 25H13V26H21V25Z" fill="#E6FEFE"/>
<path d="M13.5 29C13.2237 29 13 28.7147 13 28.3623V22.6377C13 22.2853 13.2237 22 13.5 22C13.7763 22 14 22.2853 14 22.6377V28.3623C14 28.7147 13.7763 29 13.5 29Z" fill="#E6FEFE"/>
<path fill-rule="evenodd" clip-rule="evenodd" d="M37.1693 8H19.8307C18.8241 8 18 8.8987 18 9.99645V16.0035C18 17.1013 18.8241 18 19.8307 18H37.1693C38.1759 18 39 17.1013 39 16.0035V9.99645C39 8.8987 38.1759 8 37.1693 8ZM29.1506 16.2677H20.7108C20.512 16.2677 20.3494 16.0903 20.3494 15.8735C20.3494 15.6567 20.512 15.4793 20.7108 15.4793H29.1506C29.3494 15.4793 29.512 15.6567 29.512 15.8735C29.512 16.0903 29.3494 16.2677 29.1506 16.2677ZM33.3108 14.4762H20.7108C20.512 14.4762 20.3494 14.2988 20.3494 14.082C20.3494 13.8652 20.512 13.6878 20.7108 13.6878H33.3108C33.5096 13.6878 33.6723 13.8652 33.6723 14.082C33.6723 14.2988 33.5096 14.4762 33.3108 14.4762ZM20.3494 12.4009C20.3494 12.1841 20.512 12.0067 20.7108 12.0067H30.7229C30.9217 12.0067 31.0843 12.1841 31.0843 12.4009C31.0843 12.6177 30.9217 12.795 30.7229 12.795H20.7108C20.512 12.795 20.3494 12.6177 20.3494 12.4009ZM35.1669 11.1139H20.7108C20.512 11.1139 20.3494 10.9365 20.3494 10.7198C20.3494 10.503 20.512 10.3256 20.7108 10.3256H35.1669C35.3657 10.3256 35.5283 10.503 35.5283 10.7198C35.5283 10.9365 35.3657 11.1139 35.1669 11.1139Z" fill="#E6FEFE"/>
<path fill-rule="evenodd" clip-rule="evenodd" d="M37.1993 21H22.8007C21.8106 21 21 21.8088 21 22.7968V28.2032C21 29.1912 21.8106 30 22.8007 30H37.1993C38.1894 30 39 29.1912 39 28.2032V22.7968C39 21.8088 38.1894 21 37.1993 21ZM31.0381 28.1748H23.8033C23.6077 28.1748 23.4478 28.0152 23.4478 27.8201C23.4478 27.625 23.6077 27.4653 23.8033 27.4653H31.0381C31.2336 27.4653 31.3936 27.625 31.3936 27.8201C31.3936 28.0152 31.2336 28.1748 31.0381 28.1748ZM34.6058 26.5625H23.8033C23.6077 26.5625 23.4478 26.4028 23.4478 26.2077C23.4478 26.0126 23.6077 25.853 23.8033 25.853H34.6058C34.8013 25.853 34.9613 26.0126 34.9613 26.2077C34.9613 26.4028 34.8013 26.5625 34.6058 26.5625ZM23.4478 24.6947C23.4478 24.4996 23.6077 24.34 23.8033 24.34H32.3873C32.5828 24.34 32.7428 24.4996 32.7428 24.6947C32.7428 24.8898 32.5828 25.0495 32.3873 25.0495H23.8033C23.6077 25.0495 23.4478 24.8898 23.4478 24.6947ZM36.1967 23.5365H23.8033C23.6077 23.5365 23.4478 23.3768 23.4478 23.1817C23.4478 22.9866 23.6077 22.827 23.8033 22.827H36.1967C36.3923 22.827 36.5522 22.9866 36.5522 23.1817C36.5522 23.3768 36.3923 23.5365 36.1967 23.5365Z" fill="#E6FEFE"/>
</svg>
