<svg width="142" height="143" viewBox="0 0 142 143" fill="none" xmlns="http://www.w3.org/2000/svg">
<circle cx="71" cy="71.1479" r="71" fill="#A8AED9"/>
<path d="M105.722 100.464C104.576 100.464 103.602 99.6058 103.459 98.4651L98.8782 61.8202L94.2972 98.4651C94.1542 99.6028 93.1809 100.464 92.0341 100.464H37.2812C36.6272 100.464 36.0036 100.184 35.5716 99.694C35.1367 99.2013 34.9359 98.5473 35.018 97.8994L41.8622 43.1464C42.0051 42.0057 42.9785 41.1479 44.1253 41.1479H98.8782C98.9178 41.1479 98.9725 41.151 99.0212 41.1571C99.079 41.1601 99.1429 41.1692 99.2037 41.1784C99.2828 41.1905 99.3619 41.2027 99.4379 41.224C99.5048 41.2392 99.5717 41.2635 99.6387 41.2879C99.733 41.3213 99.806 41.3487 99.8729 41.3822C99.9337 41.4126 100.001 41.4521 100.065 41.4917C100.141 41.5373 100.198 41.5738 100.256 41.6194C100.338 41.6833 100.408 41.7472 100.478 41.8172C100.49 41.8263 100.5 41.8354 100.509 41.8445C100.539 41.8719 100.557 41.8932 100.591 41.9297C100.591 41.9297 100.606 41.948 100.615 41.9571C100.706 42.0635 100.788 42.1822 100.858 42.3069C100.88 42.3464 100.916 42.4225 100.934 42.4651C100.968 42.532 101.011 42.6324 101.044 42.7358C101.059 42.7784 101.084 42.8909 101.093 42.9365C101.111 42.9974 101.126 43.0765 101.138 43.1616L107.982 97.9055C108.138 99.1556 107.249 100.296 106.002 100.451C105.908 100.458 105.814 100.464 105.722 100.464ZM90.0204 95.9009L91.1611 86.7754H77.5094L76.3687 95.9009H90.0204ZM71.7694 95.9009L72.9101 86.7754H59.2584L58.1177 95.9009H71.7694ZM53.5184 95.9009L54.6591 86.7754H41.0074L39.8667 95.9009H53.5184ZM91.7299 82.2127L92.8706 73.0872H79.2189L78.0782 82.2127H91.7299ZM73.4789 82.2127L74.6196 73.0872H60.9679L59.8272 82.2127H73.4789ZM55.228 82.2127L56.3686 73.0872H42.7169L41.5762 82.2127H55.228ZM93.4425 68.5244L94.5831 59.3989H80.9314L79.7907 68.5244H93.4425ZM75.1915 68.5244L76.3322 59.3989H62.6804L61.5397 68.5244H75.1915ZM56.9405 68.5244L58.0812 59.3989H44.4295L43.2888 68.5244H56.9405ZM95.152 54.8362L96.2927 45.7107H82.6409L81.5002 54.8362H95.152ZM76.901 54.8362L78.0417 45.7107H64.3899L63.2493 54.8362H76.901ZM58.65 54.8362L59.7907 45.7107H46.139L44.9983 54.8362H58.65Z" fill="white"/>
</svg>
