<svg width="149" height="92" viewBox="0 0 149 92" fill="none" xmlns="http://www.w3.org/2000/svg">
<path d="M56.0881 89.6737C80.3061 97.5667 107.504 84.7243 116.841 60.9907C126.178 37.2571 114.115 11.6185 89.8973 3.72555C65.6792 -4.16744 10.7289 -0.370191 1.39184 23.3676C-7.94518 47.1012 31.8654 81.7849 56.0834 89.6779L56.0881 89.6737Z" fill="#54C3BF"/>
<path d="M44 26H24V29H44V26Z" fill="#E5FFFF"/>
<path d="M51 57H34V60H51V57Z" fill="#E5FFFF"/>
<path d="M33.5 66C32.6711 66 32 65.348 32 64.5424V51.4576C32 50.6521 32.6711 50 33.5 50C34.3289 50 35 50.6521 35 51.4576V64.5424C35 65.348 34.3289 66 33.5 66Z" fill="#E5FFFF"/>
<path d="M23.5 35C22.6711 35 22 34.3887 22 33.6335V21.3665C22 20.6113 22.6711 20 23.5 20C24.3289 20 25 20.6113 25 21.3665V33.6335C25 34.3887 24.3289 35 23.5 35Z" fill="#E5FFFF"/>
<path fill-rule="evenodd" clip-rule="evenodd" d="M93.2924 16H48.7076C46.1191 16 44 18.1569 44 20.7915V35.2085C44 37.8431 46.1191 40 48.7076 40H93.2924C95.8809 40 98 37.8431 98 35.2085V20.7915C98 18.1569 95.8809 16 93.2924 16ZM72.673 35.8424H50.9707C50.4596 35.8424 50.0413 35.4167 50.0413 34.8964C50.0413 34.3761 50.4596 33.9504 50.9707 33.9504H72.673C73.1842 33.9504 73.6024 34.3761 73.6024 34.8964C73.6024 35.4167 73.1842 35.8424 72.673 35.8424ZM83.3707 31.5428H50.9707C50.4596 31.5428 50.0413 31.1171 50.0413 30.5968C50.0413 30.0765 50.4596 29.6508 50.9707 29.6508H83.3707C83.8819 29.6508 84.3002 30.0765 84.3002 30.5968C84.3002 31.1171 83.8819 31.5428 83.3707 31.5428ZM50.0413 26.5621C50.0413 26.0418 50.4596 25.6161 50.9707 25.6161H76.716C77.2272 25.6161 77.6455 26.0418 77.6455 26.5621C77.6455 27.0824 77.2272 27.5081 76.716 27.5081H50.9707C50.4596 27.5081 50.0413 27.0824 50.0413 26.5621ZM88.1434 23.4734H50.9707C50.4596 23.4734 50.0413 23.0477 50.0413 22.5274C50.0413 22.0071 50.4596 21.5814 50.9707 21.5814H88.1434C88.6546 21.5814 89.0728 22.0071 89.0728 22.5274C89.0728 23.0477 88.6546 23.4734 88.1434 23.4734Z" fill="#E5FFFF"/>
<path fill-rule="evenodd" clip-rule="evenodd" d="M93.2981 47H55.7019C53.1165 47 51 49.067 51 51.5918V65.4082C51 67.933 53.1165 70 55.7019 70H93.2981C95.8835 70 98 67.933 98 65.4082V51.5918C98 49.067 95.8835 47 93.2981 47ZM77.2106 65.3357H58.3197C57.8091 65.3357 57.3914 64.9277 57.3914 64.4291C57.3914 63.9305 57.8091 63.5225 58.3197 63.5225H77.2106C77.7212 63.5225 78.1389 63.9305 78.1389 64.4291C78.1389 64.9277 77.7212 65.3357 77.2106 65.3357ZM86.5262 61.2152H58.3197C57.8091 61.2152 57.3914 60.8072 57.3914 60.3086C57.3914 59.81 57.8091 59.402 58.3197 59.402H86.5262C87.0368 59.402 87.4545 59.81 87.4545 60.3086C87.4545 60.8072 87.0368 61.2152 86.5262 61.2152ZM57.3914 56.4421C57.3914 55.9435 57.8091 55.5355 58.3197 55.5355H80.7335C81.2441 55.5355 81.6618 55.9435 81.6618 56.4421C81.6618 56.9407 81.2441 57.3487 80.7335 57.3487H58.3197C57.8091 57.3487 57.3914 56.9407 57.3914 56.4421ZM90.6803 53.4821H58.3197C57.8091 53.4821 57.3914 53.0741 57.3914 52.5755C57.3914 52.0769 57.8091 51.6689 58.3197 51.6689H90.6803C91.1909 51.6689 91.6086 52.0769 91.6086 52.5755C91.6086 53.0741 91.1909 53.4821 90.6803 53.4821Z" fill="#E5FFFF"/>
<circle cx="125" cy="45" r="24" fill="#3B9592"/>
<path d="M120.177 50.576C121.969 49.0827 123.397 47.8413 124.461 46.852C125.525 45.844 126.412 44.7987 127.121 43.716C127.83 42.6333 128.185 41.5693 128.185 40.524C128.185 39.572 127.961 38.8253 127.513 38.284C127.065 37.7427 126.374 37.472 125.441 37.472C124.508 37.472 123.789 37.7893 123.285 38.424C122.781 39.04 122.52 39.8893 122.501 40.972H118.693C118.768 38.732 119.43 37.0333 120.681 35.876C121.95 34.7187 123.556 34.14 125.497 34.14C127.625 34.14 129.258 34.7093 130.397 35.848C131.536 36.968 132.105 38.452 132.105 40.3C132.105 41.756 131.713 43.1467 130.929 44.472C130.145 45.7973 129.249 46.9547 128.241 47.944C127.233 48.9147 125.917 50.0907 124.293 51.472H132.553V54.72H118.721V51.808L120.177 50.576Z" fill="white"/>
</svg>
