<svg width="24" height="24" viewBox="0 0 24 24" fill="none" xmlns="http://www.w3.org/2000/svg">
<path d="M19.065 23.981C18.561 23.981 18.066 23.807 17.673 23.492L14.045 20.47C13.914 20.36 13.748 20.3 13.578 20.3H9.80098C8.58898 20.299 7.40898 19.871 6.47798 19.095L2.86098 16.083C1.91598 15.296 1.78798 13.887 2.57498 12.942C2.99998 12.432 3.62498 12.14 4.29098 12.14C4.81098 12.14 5.31698 12.323 5.71698 12.656L9.33398 15.67C9.46498 15.78 9.63098 15.84 9.80098 15.84H10.642L11.288 14.332C10.362 14.204 9.47498 13.827 8.74398 13.243C8.74398 13.243 5.81098 10.898 5.78298 10.875C4.84098 10.08 4.71998 8.67 5.51198 7.729C5.93698 7.225 6.55898 6.936 7.21998 6.936C7.74498 6.936 8.25498 7.122 8.65598 7.46L11.534 9.76C11.663 9.863 11.825 9.92 11.99 9.92H14.301C14.288 9.919 14.276 9.917 14.263 9.916C12.724 9.738 11.515 8.508 11.334 6.994C10.028 6.757 8.93798 5.788 8.56798 4.499L8.40498 3.927C8.20398 3.227 7.55398 2.736 6.82398 2.734C6.59298 2.734 6.37898 2.823 6.21698 2.983C6.05498 3.144 5.96498 3.359 5.96398 3.588C5.96398 3.636 5.96798 3.684 5.97498 3.73C6.07898 4.341 5.93798 4.957 5.57898 5.462C5.21998 5.967 4.68498 6.304 4.07298 6.408C3.94598 6.429 3.81598 6.44 3.68798 6.44C2.61498 6.44 1.68698 5.714 1.42998 4.674C1.33698 4.303 1.02998 4.029 0.647982 3.976C0.237982 3.921 -0.0490182 3.542 0.00698178 3.132C0.0579818 2.762 0.376982 2.484 0.749982 2.484C0.783982 2.484 0.817982 2.486 0.851982 2.491C1.84398 2.627 2.64198 3.342 2.88598 4.312C2.97598 4.677 3.31198 4.941 3.68598 4.941C3.73198 4.941 3.77798 4.937 3.82298 4.929C4.03998 4.892 4.22998 4.773 4.35698 4.594C4.48398 4.415 4.53398 4.197 4.49698 3.98C4.47498 3.85 4.46398 3.717 4.46498 3.584C4.46898 2.288 5.52598 1.234 6.82198 1.234C8.22198 1.238 9.46298 2.175 9.84798 3.514L10.011 4.086C10.258 4.947 11.058 5.549 11.954 5.55C12.064 5.55 12.175 5.538 12.284 5.514C12.682 5.426 13.023 5.187 13.243 4.842C13.463 4.497 13.536 4.087 13.448 3.689C13.4 3.474 13.376 3.253 13.376 3.032C13.376 1.36 14.736 0 16.408 0C17.984 0 19.402 0.876 20.107 2.285L21.828 6.282C21.933 6.307 22.036 6.338 22.133 6.377C22.134 6.378 22.136 6.378 22.138 6.379C23.278 6.836 23.836 8.137 23.38 9.278L22.647 11.118C21.861 13.1 19.974 14.381 17.842 14.381H16.122L15.358 16.157C15.918 16.362 16.444 16.665 16.9 17.045L20.516 20.058C21.434 20.853 21.559 22.207 20.808 23.147C20.383 23.676 19.748 23.981 19.065 23.981ZM4.28998 13.639C4.07098 13.639 3.86698 13.735 3.72798 13.901C3.60298 14.051 3.54498 14.24 3.56198 14.435C3.57998 14.63 3.67198 14.806 3.82098 14.93L7.43798 17.942C8.09998 18.494 8.93898 18.798 9.80198 18.799H13.578C14.1 18.799 14.607 18.983 15.007 19.318L18.623 22.33C18.743 22.425 18.903 22.481 19.068 22.481C19.095 22.481 19.122 22.48 19.15 22.477C19.342 22.456 19.516 22.36 19.639 22.207C19.885 21.9 19.844 21.457 19.547 21.199L15.942 18.195C15.443 17.779 14.841 17.502 14.202 17.392C13.974 17.352 13.78 17.214 13.67 17.01C13.56 16.806 13.549 16.568 13.64 16.356L14.94 13.332C15.058 13.057 15.329 12.878 15.629 12.878H17.829C19.357 12.878 20.696 11.969 21.255 10.561L21.989 8.72C22.138 8.345 21.956 7.919 21.582 7.769C21.497 7.735 21.406 7.718 21.314 7.718C21.012 7.718 20.744 7.898 20.633 8.178L19.897 10.018C19.559 10.869 18.748 11.419 17.831 11.419H11.991C11.488 11.418 10.994 11.245 10.601 10.932L7.70498 8.62C7.56198 8.5 7.39198 8.437 7.21698 8.437C7.00098 8.437 6.79798 8.531 6.65998 8.696C6.39998 9.004 6.43998 9.466 6.74798 9.726L9.68098 12.072C10.333 12.593 11.152 12.88 11.987 12.881H12.404C12.657 12.881 12.891 13.007 13.03 13.218C13.169 13.429 13.193 13.694 13.093 13.926L11.825 16.886C11.707 17.162 11.436 17.341 11.136 17.341H9.80098C9.27898 17.341 8.77098 17.157 8.37198 16.822L4.75598 13.809C4.62498 13.699 4.45998 13.639 4.28998 13.639ZM17.824 9.92C18.126 9.92 18.391 9.741 18.501 9.463L19.238 7.622C19.438 7.121 19.807 6.718 20.278 6.474L18.747 2.917C18.312 2.05 17.412 1.5 16.408 1.5C15.563 1.5 14.876 2.187 14.876 3.032C14.876 3.111 14.882 3.19 14.894 3.267C14.94 3.27 14.986 3.275 15.032 3.28C15.918 3.383 16.712 3.824 17.266 4.523C17.82 5.222 18.069 6.095 17.966 6.981C17.784 8.549 16.537 9.759 14.998 9.919H17.824V9.92ZM12.838 6.918C12.977 7.706 13.621 8.331 14.437 8.426C14.509 8.434 14.58 8.438 14.651 8.438C15.584 8.438 16.369 7.738 16.476 6.809C16.533 6.321 16.396 5.84 16.09 5.455C15.79 5.076 15.363 4.835 14.885 4.773C14.621 5.79 13.842 6.609 12.838 6.918Z" fill="#54C5C1"/>
</svg>
