<svg width="1135" height="389" viewBox="0 0 1135 389" fill="none" xmlns="http://www.w3.org/2000/svg">
<path d="M467.718 359.002C732.841 389.545 994.837 372.749 1090.76 256.821C1267.34 11.2633 735.362 92.0698 671.255 91.9194C607.148 91.769 505.529 88.2855 278.965 117.886C-29.7191 158.214 1.37947 153.64 41.91 189.441C121.989 274.931 210.973 329.423 467.718 359.002Z" fill="#FFF0E3"/>
<path d="M628.773 28.1245C370.441 14.5397 116.372 -0.0267143 34.2091 118.195C-113.601 366.38 497.25 332.168 383.329 225.182C269.408 118.195 462.703 143.014 847.421 176.54C1155.19 203.362 1144.58 148.819 1100.81 118.195C1052.68 87.3246 887.105 41.7094 628.773 28.1245Z" fill="#FFF0E3"/>
</svg>
