<svg width="26" height="27" viewBox="0 0 26 27" fill="none" xmlns="http://www.w3.org/2000/svg">
<circle cx="3.74434" cy="3.37191" r="3.02938" fill="#00254D" fill-opacity="0.2"/>
<circle r="3.02938" transform="matrix(1 0 0 -1 3.74434 14.4797)" fill="#00254D" fill-opacity="0.2"/>
<circle r="3.02938" transform="matrix(1 0 0 -1 3.74434 23.2311)" fill="#00254D" fill-opacity="0.2"/>
<path d="M3.41882 3.23863C2.86781 4.0735 1.75823 5.84396 2.66755 6.86239C3.47698 7.76895 4.19158 8.07915 5.30804 8.50856C7.59967 9.38995 8.78818 6.94115 8.78818 5.12785C8.78818 3.79143 7.59325 2.81803 6.4018 2.2885C4.63594 1.50367 3.00685 3.1748 2.4245 4.63068" stroke="#00254D" stroke-width="1.00979" stroke-linecap="round"/>
<path d="M11.9698 5.02835C12.4714 4.54643 13.4975 3.24407 14.3562 3.76887C14.7925 4.0355 15.3626 5.11896 15.9692 4.98416C16.8261 4.79374 17.2675 3.67355 18.1236 3.45953C18.7053 3.3141 19.0226 4.22892 19.4273 4.50909C20.0638 4.94975 21.7116 4.63062 22.4655 4.63062C23.4864 4.63062 24.4224 4.67754 24.8961 5.62495" stroke="#00254D" stroke-width="1.00979" stroke-linecap="round"/>
<path d="M3.51779 13.2039C3.92479 12.3899 4.64239 12.2087 5.41571 12.1788C6.28185 11.3328 8.20878 12.4181 8.68829 13.2812C9.34217 14.4582 8.69311 16.4551 7.59453 17.0044C6.5947 17.5043 3.02063 18.1267 3.02063 16.1647C3.02063 15.1756 3.06525 14.1089 3.51779 13.2039Z" fill="#00254D" fill-opacity="0.2"/>
<path d="M6.6002 12.1874C5.44875 12.1874 4.13087 11.9777 3.51779 13.2039C3.06525 14.1089 3.02063 15.1756 3.02063 16.1647C3.02063 18.1267 6.5947 17.5043 7.59453 17.0044C8.69311 16.4551 9.34217 14.4582 8.68829 13.2812C8.20717 12.4152 6.26889 11.3256 5.40701 12.1874" stroke="#00254D" stroke-width="1.00979" stroke-linecap="round"/>
<path d="M13.3617 14.1762C13.7832 13.4481 14.1362 12.347 15.1515 12.4195C16.207 12.4949 16.1759 13.9227 16.9302 14.4413C17.5455 14.8643 18.2309 13.7164 18.6316 13.4028C19.462 12.753 19.7106 13.4537 20.2004 14.132C20.9419 15.1586 21.7951 12.1407 22.6642 13.7785C23.3862 15.1393 23.6513 13.3636 24.8959 13.7785" stroke="#00254D" stroke-width="1.00979" stroke-linecap="round"/>
<path d="M3.61752 22.2855C3.9347 21.5278 4.48566 21.1952 5.13419 21.0497C5.92466 20.1516 7.27693 20.1749 8.3019 20.8271C8.76279 21.1204 9.85097 21.3869 9.97016 22.0424C10.1513 23.0389 9.62902 23.7379 9.28518 24.6166C8.42898 26.8047 5.66497 26.3101 4.21412 25.1579C3.36274 24.4819 3.20514 23.2706 3.61752 22.2855Z" fill="#00254D" fill-opacity="0.2"/>
<path d="M6.6005 20.9376C5.37669 20.9376 4.15785 20.9947 3.61752 22.2855C3.20514 23.2706 3.36274 24.4819 4.21412 25.1579C5.66497 26.3101 8.42898 26.8047 9.28518 24.6166C9.62902 23.7379 10.1513 23.0389 9.97016 22.0424C9.85097 21.3869 8.76279 21.1204 8.3019 20.8271C7.11823 20.0739 5.49805 20.1595 4.81071 21.5342" stroke="#00254D" stroke-width="1.00979" stroke-linecap="round"/>
<path d="M14.7542 22.3296C15.3119 21.9757 16.4576 21.0115 17.1405 21.6225C17.5903 22.025 17.7509 22.6681 18.179 23.0809C19.1438 24.0112 20.5671 21.3396 20.8195 21.7883C21.5473 23.082 21.0369 23.5167 22.5209 22.8489C23.4061 22.4505 23.9771 22.9748 24.4985 21.9319" stroke="#00254D" stroke-width="1.00979" stroke-linecap="round"/>
</svg>
