<svg width="43" height="68" viewBox="0 0 43 68" fill="none" xmlns="http://www.w3.org/2000/svg">
<ellipse cx="26.5" cy="29.5" rx="16.5" ry="27.5" fill="#B6E5E5"/>
<path d="M19.2794 65.8843C18.1678 62.9771 16.3845 60.3957 14.9833 57.6149C13.0852 53.848 10.7861 50.2845 9.04821 46.4401C7.20042 42.3526 5.00139 38.6012 3.85814 34.2223C2.59967 29.4022 1.52263 24.2753 2.21917 19.2729C2.8797 14.5291 6.10281 10.546 9.97945 7.96157C14.8341 4.72513 19.7204 2.3019 25.6366 2.01409C34.7396 1.57124 38.7298 11.6606 39.2698 19.2978C39.8538 27.5574 35.9908 35.7562 32.8009 43.1994C31.46 46.3281 29.8091 49.341 28.2192 52.3503C27.2051 54.2699 26.3088 56.268 25.0903 58.0619C23.4747 60.4403 21.4056 62.9727 20.1733 65.4373" stroke="#00254D" stroke-width="3" stroke-linecap="round"/>
<path d="M22.1854 15.3742C18.7365 14.9066 16.4923 16.3992 15.6543 19.8441C14.9962 22.5499 18.5345 25.3324 21.1176 24.3637C23.135 23.6072 26.0356 20.2482 24.9542 17.8451C23.8116 15.3059 20.6506 15.0382 18.3859 16.0447" stroke="#00254D" stroke-width="3" stroke-linecap="round"/>
</svg>
