<svg width="58" height="66" viewBox="0 0 58 66" fill="none" xmlns="http://www.w3.org/2000/svg">
<path d="M2.39376 27.4754C-3.80653 40.4066 2.45302 56.3053 16.3786 62.9821C30.3041 69.659 46.6175 64.5895 52.8204 51.6583C59.0207 38.7271 59.8682 8.01154 45.9426 1.3347C32.0171 -5.34214 8.59663 14.5441 2.39376 27.4779V27.4754Z" fill="#66D3FB"/>
<path d="M39.1317 38.021C47.0784 23.7297 45.5432 13.0524 44.9739 10.4017C44.8992 10.0488 44.5334 9.84532 44.1934 9.96897C41.6406 10.886 31.7593 15.2136 23.8125 29.5049C22.6714 31.5579 21.7286 33.6058 20.9584 35.5918C16.6927 34.8345 12.584 37.6191 11.734 41.89C11.6618 42.2481 11.618 42.6036 11.5974 42.959C11.5614 43.5489 12.0997 44.0023 12.6664 43.8426C14.3047 43.3841 16.9271 42.7015 19.0909 42.06C19.0522 42.5855 19.2995 43.093 19.7683 43.3532L20.2912 43.6442L18.6272 44.6901C18.1249 45.0043 18.1455 45.7436 18.6632 46.0321L27.6971 51.0552C28.2148 51.3437 28.8536 50.9702 28.8562 50.3778L28.8665 48.4123L29.4976 48.7626C29.9793 49.0305 30.5589 48.9661 30.9891 48.6313C31.5867 50.8054 32.3904 53.3916 32.8618 55.0222C33.0267 55.5889 33.6964 55.8053 34.1781 55.4652C34.4666 55.2617 34.7474 55.0351 35.0127 54.7852C38.1914 51.81 38.3898 46.8487 35.4944 43.6236C36.7669 41.9338 37.9957 40.056 39.1291 38.0184L39.1317 38.021Z" fill="#E6FEFE"/>
<path d="M35.984 25.7337C34.3637 24.8322 33.779 22.7868 34.6805 21.1666C35.5821 19.5463 37.6274 18.9616 39.2477 19.8632C40.868 20.7647 41.4527 22.81 40.5511 24.4303C39.6495 26.0506 37.6042 26.6353 35.984 25.7337Z" fill="#66D3FB"/>
</svg>
