<svg width="1135" height="389" viewBox="0 0 1135 389" fill="none" xmlns="http://www.w3.org/2000/svg">
<g clip-path="url(#clip0_502_67299)">
<path d="M467.896 369.951C733.12 402.925 995.216 384.792 1091.18 259.637C1267.82 -5.4655 735.642 81.7727 671.51 81.6103C607.379 81.4479 505.721 77.6872 279.071 109.643C-29.7306 153.182 1.37968 148.243 41.9257 186.894C122.035 279.188 211.053 338.018 467.896 369.951Z" fill="#AEE2EE"/>
<path d="M629.013 12.7379C370.582 -1.92818 116.417 -17.654 34.2228 109.978C-113.643 377.916 497.44 340.982 383.476 225.48C269.511 109.978 462.88 136.771 847.744 172.967C1155.63 201.923 1145.02 143.039 1101.23 109.978C1053.08 76.6499 887.444 27.4041 629.013 12.7379Z" fill="#E7FAFF"/>
</g>
<defs>
<clipPath id="clip0_502_67299">
<rect width="1135" height="389" fill="white"/>
</clipPath>
</defs>
</svg>
