<svg width="53" height="65" viewBox="0 0 53 65" fill="none" xmlns="http://www.w3.org/2000/svg">
<path d="M0.12246 37.3303C-1.27197 50.8545 9.40237 63.0381 23.9645 64.54C38.5266 66.0418 51.4648 56.2955 52.8592 42.7713C54.2536 29.247 45.1789 1.56601 30.6143 0.0641308C16.0522 -1.43775 1.51444 23.806 0.120016 37.3303H0.12246Z" fill="#8C51E3"/>
<path d="M40.1067 21.1075L28.6728 16.9023C28.0843 16.6849 27.4372 16.6849 26.8462 16.9023L15.4124 21.1075C14.372 21.4909 13.6809 22.48 13.6809 23.5887V38.5342C13.6809 47.3843 23.3662 52.4077 26.6704 53.8632C27.3639 54.1684 28.1527 54.1636 28.8438 53.851C32.1406 52.3515 41.8406 47.206 41.8406 38.5342V23.5887C41.8406 22.48 41.1495 21.4885 40.1091 21.1075H40.1067Z" fill="#F2EDFA"/>
<path d="M36.3898 31.4029L26.3797 41.413C26.1159 41.6767 25.7594 41.8257 25.3858 41.8257C25.0121 41.8257 24.6556 41.6767 24.3918 41.413L19.1316 36.1503C18.5821 35.6008 18.5821 34.7119 19.1316 34.1625C19.6811 33.613 20.57 33.613 21.1194 34.1625L25.3882 38.4312L34.4044 29.415C34.9538 28.8656 35.8427 28.8656 36.3922 29.415C36.9417 29.9645 36.9417 30.8534 36.3922 31.4029H36.3898Z" fill="#8C51E3"/>
</svg>
