<svg width="60" height="60" viewBox="0 0 60 60" fill="none" xmlns="http://www.w3.org/2000/svg">
<path d="M7.01601 14.4262C-2.86967 24.3305 -2.23106 40.9833 8.44155 51.6188C19.1142 62.2542 35.778 62.8472 45.6637 52.9429C55.5493 43.0386 66.2345 15.0367 55.5619 4.39874C44.8893 -6.23669 16.8992 4.51935 7.01349 14.4236L7.01601 14.4262Z" fill="#66D3FB"/>
<path d="M44.42 30.4679C43.9033 30.4679 43.4814 30.0354 43.4814 29.5C43.4814 28.9646 43.9008 28.5321 44.42 28.5321H46C45.5332 20.174 39.0434 13.4814 30.9385 13V14.6294C30.9385 15.1622 30.5192 15.5973 30 15.5973C29.4808 15.5973 29.0615 15.1648 29.0615 14.6294V13C20.9566 13.4814 14.4668 20.174 14 28.5321H15.58C16.0967 28.5321 16.5186 28.9646 16.5186 29.5C16.5186 30.0354 16.0992 30.4679 15.58 30.4679H14C14.4668 38.826 20.9566 45.5186 29.0615 46V44.3706C29.0615 43.8378 29.4808 43.4027 30 43.4027C30.5192 43.4027 30.9385 43.8352 30.9385 44.3706V46C39.0434 45.5186 45.5332 38.826 46 30.4679H44.42Z" fill="#E6FEFE"/>
<path d="M29.371 29C29.1697 29 28.971 28.9017 28.8502 28.7155L23.1081 20.0084C22.9143 19.7136 22.9873 19.3102 23.2767 19.1111C23.5635 18.912 23.9561 18.987 24.1498 19.2843L29.8919 27.9915C30.0857 28.2863 30.0127 28.6897 29.7233 28.8888C29.6151 28.9638 29.4918 29 29.371 29V29Z" fill="#66D3FB"/>
<path d="M30.6799 29C30.5462 29 30.4097 28.9652 30.2924 28.8883C29.9841 28.6923 29.9076 28.3052 30.1205 28.0249L33.758 23.2659C33.9736 22.9855 34.3965 22.916 34.7076 23.1096C35.0159 23.3056 35.0924 23.6926 34.8795 23.973L31.242 28.732C31.1083 28.9057 30.8982 28.9975 30.6826 28.9975L30.6799 29Z" fill="#66D3FB"/>
<path d="M30 32C28.8974 32 28 31.1026 28 30C28 28.8974 28.8974 28 30 28C31.1026 28 32 28.8974 32 30C32 31.1026 31.1026 32 30 32ZM30 29.1251C29.5175 29.1251 29.1274 29.5175 29.1274 29.9977C29.1274 30.478 29.5197 30.8703 30 30.8703C30.4803 30.8703 30.8726 30.478 30.8726 29.9977C30.8726 29.5175 30.4803 29.1251 30 29.1251Z" fill="#66D3FB"/>
</svg>
