<svg width="62" height="57" viewBox="0 0 62 57" fill="none" xmlns="http://www.w3.org/2000/svg">
<g clip-path="url(#clip0_519_67677)">
<path d="M51.6912 48.5792C63.0883 40.6466 65.3871 24.2933 56.8231 12.0507C48.2591 -0.189327 32.0795 -3.68258 20.6825 4.25006C9.28537 12.1827 -6.07297 37.6264 2.49106 49.869C11.0551 62.1116 40.2941 56.5144 51.6912 48.5817V48.5792Z" fill="#8C51E3"/>
<path d="M38.7841 16.5801C36.0434 16.5801 33.5873 17.7652 31.8824 19.6426C29.968 17.5387 27.11 16.3012 23.9649 16.6349C19.6492 17.0905 16.1497 20.5887 15.7029 24.8937C15.6804 25.1028 15.658 25.312 15.658 25.5186C15.658 33.6231 27.7464 44.4215 31.8824 44.4215C35.6241 44.4215 48.1169 33.6903 48.1119 25.8846C48.1094 20.7456 43.936 16.5801 38.7841 16.5801V16.5801Z" fill="#F2EDFA"/>
</g>
<defs>
<clipPath id="clip0_519_67677">
<rect width="62" height="57" fill="white"/>
</clipPath>
</defs>
</svg>
