<svg width="54" height="62" viewBox="0 0 54 62" fill="none" xmlns="http://www.w3.org/2000/svg">
<path d="M4.1825 48.71C10.1178 60.847 25.5608 65.5223 38.6774 59.1519C51.7915 52.7815 57.61 37.7806 51.6747 25.6436C45.7394 13.5066 23.4923 -5.07591 10.3782 1.29449C-2.73595 7.66489 -1.75281 36.573 4.1825 48.71V48.71Z" fill="#54C3BF"/>
<path d="M45.5157 46H10V16.4828C10 16.2173 10.2179 16 10.4843 16C10.7507 16 10.9686 16.2173 10.9686 16.4828V45.0344H45.5157C45.7821 45.0344 46 45.2516 46 45.5172C46 45.7827 45.7821 46 45.5157 46Z" fill="#E5FFFF"/>
<path d="M20 22H15V46H20V22Z" fill="#E5FFFF"/>
<path d="M27 27H22V46H27V27Z" fill="#E5FFFF"/>
<path d="M34 24H29V46H34V24Z" fill="#E5FFFF"/>
<path d="M41 34H36V46H41V34Z" fill="#E5FFFF"/>
</svg>
