<svg width="55" height="63" viewBox="0 0 55 63" fill="none" xmlns="http://www.w3.org/2000/svg">
<path d="M2.28757 26.2564C-3.63765 38.614 2.34419 53.8073 15.6519 60.188C28.9597 66.5686 44.5494 61.7241 50.4771 49.3665C56.4023 37.009 57.2122 7.65611 43.9044 1.27549C30.5967 -5.10514 8.21525 13.8989 2.28757 26.2589V26.2564Z" fill="#54C3BF"/>
<path d="M37.3959 36.3344C44.9901 22.6771 43.523 12.4735 42.9789 9.94048C42.9076 9.60324 42.558 9.40877 42.2331 9.52693C39.7936 10.4033 30.3506 14.5389 22.7564 28.1962C21.6659 30.1581 20.7649 32.1151 20.0289 34.0131C15.9524 33.2893 12.026 35.9504 11.2137 40.0318C11.1447 40.374 11.1029 40.7137 11.0832 41.0534C11.0487 41.6171 11.5632 42.0504 12.1048 41.8978C13.6704 41.4596 16.1764 40.8073 18.2442 40.1943C18.2073 40.6965 18.4436 41.1814 18.8916 41.4301L19.3913 41.7082L17.8011 42.7077C17.321 43.008 17.3407 43.7145 17.8355 43.9902L26.4686 48.7904C26.9634 49.0661 27.5739 48.7092 27.5763 48.143L27.5862 46.2648L28.1893 46.5995C28.6496 46.8556 29.2035 46.794 29.6146 46.474C30.1857 48.5517 30.9537 51.0232 31.4042 52.5814C31.5618 53.123 32.2018 53.3297 32.6621 53.0048C32.9378 52.8103 33.2061 52.5937 33.4597 52.3549C36.4974 49.5117 36.6869 44.7705 33.92 41.6885C35.1361 40.0737 36.3103 38.2791 37.3934 36.332L37.3959 36.3344Z" fill="#E5FFFF"/>
<path d="M34.3878 24.5922C32.8394 23.7306 32.2806 21.776 33.1422 20.2276C34.0038 18.6793 35.9584 18.1205 37.5068 18.982C39.0551 19.8436 39.6139 21.7982 38.7523 23.3466C37.8908 24.895 35.9362 25.4538 34.3878 24.5922Z" fill="#54C3BF"/>
</svg>
