<svg width="109" height="110" viewBox="0 0 109 110" fill="none" xmlns="http://www.w3.org/2000/svg">
<path d="M18.7563 32.9305C11.6446 27.0009 4.09557 29.2403 1.13626 38.6324C-0.192672 42.8793 -0.421944 47.9275 0.800841 53.0727C2.02363 58.2179 4.49467 62.6335 7.59409 65.8429C14.4765 72.966 29.7274 74.6235 33.4169 66.1297L33.6632 45.338L18.7563 32.9347V32.9305Z" fill="#38827E"/>
<path d="M49.8567 50.9261C49.8567 50.9261 31.965 82.7335 12.2009 57.4166C7.03377 50.7954 4.49055 33.4451 4.49055 33.4451C4.49055 33.4451 -1.86964 44.5705 6.35445 59.6097C11.4197 68.871 17.3383 70.8574 24.1103 71.8105C28.5302 72.4347 29.8506 73.2444 33.9011 71.3804C52.3108 62.8992 49.8525 50.9261 49.8525 50.9261H49.8567Z" fill="#2C7773"/>
<path d="M55.7604 109.047C27.2087 111.505 9.66284 106.16 12.2522 98.858C15.8051 88.8388 84.0714 92.9521 94.1499 97.3296C97.6689 98.858 91.2706 105.99 55.7604 109.047Z" fill="#A3B0C2"/>
<path d="M25.8339 100.313C25.9401 100.313 26.0505 100.296 26.1566 100.262L36.079 97.1499C36.5248 97.0107 36.8305 96.5974 36.8305 96.1335V67.3584C36.8305 66.7679 36.3507 66.2914 35.7563 66.2914C35.1619 66.2914 34.6822 66.7679 34.6822 67.3584V95.3533L25.5113 98.2296C24.9466 98.4067 24.6324 99.0056 24.8107 99.5665C24.9551 100.022 25.3796 100.313 25.8339 100.313Z" fill="#F09600"/>
<path d="M28.211 103.155C28.4445 103.155 28.6823 103.079 28.8776 102.923L34.3631 98.5964L33.998 101.515C33.9258 102.101 34.3419 102.632 34.9321 102.704C35.518 102.776 36.0572 102.363 36.1294 101.776L36.8172 96.2684C36.8724 95.8383 36.6559 95.4165 36.278 95.2057C35.8959 94.9948 35.4246 95.0327 35.0849 95.3026L27.5402 101.258C27.0774 101.624 26.9967 102.295 27.3661 102.759C27.5784 103.025 27.8926 103.164 28.2068 103.164L28.211 103.155Z" fill="#F09600"/>
<path d="M52.4932 102.814C52.6036 102.814 52.7097 102.797 52.8201 102.763L62.7425 99.617C63.1883 99.4779 63.4897 99.0646 63.4897 98.6006V69.8592C63.4897 69.2688 63.01 68.7922 62.4156 68.7922C61.8212 68.7922 61.3414 69.2688 61.3414 69.8592V97.8204L52.1662 100.73C51.6016 100.912 51.2874 101.511 51.4699 102.072C51.6143 102.523 52.0389 102.814 52.4932 102.814Z" fill="#F09600"/>
<path d="M54.8702 105.652C55.1037 105.652 55.3415 105.576 55.5368 105.42L61.0223 101.093L60.6572 104.012C60.585 104.598 61.0011 105.129 61.5913 105.201C62.1814 105.268 62.7164 104.859 62.7886 104.273L63.4764 98.7651C63.5316 98.335 63.3151 97.9132 62.9372 97.7024C62.5551 97.4915 62.0838 97.5294 61.7441 97.7994L54.1994 103.754C53.7366 104.121 53.6559 104.792 54.0253 105.256C54.2376 105.521 54.5518 105.661 54.8659 105.661L54.8702 105.652Z" fill="#F09600"/>
<path d="M102.827 45.837C102.827 45.837 95.4093 73.3132 65.0859 85.067C40.0018 94.7754 11.2026 79.8965 5.39441 56.701C-2.06119 35.7701 6.86344 12.2372 34.3124 2.78604C77.4963 -10.912 102.827 45.837 102.827 45.837Z" fill="#54BBB7"/>
<path d="M35.7562 97.1667C35.9472 97.1667 36.1383 97.1161 36.3124 97.0107L41.4455 93.932C41.955 93.6283 42.1164 92.9704 41.8107 92.4686C41.505 91.9625 40.8426 91.8022 40.3374 92.1059L35.2042 95.1846C34.6947 95.4882 34.5334 96.1461 34.8391 96.648C35.0429 96.9812 35.3953 97.1625 35.7604 97.1625L35.7562 97.1667Z" fill="#F09600"/>
<path d="M62.4153 99.6972C62.6531 99.6972 62.8951 99.617 63.0947 99.4568L68.0877 95.4208C68.5463 95.0496 68.6184 94.3748 68.2448 93.9194C67.8712 93.4597 67.1919 93.3922 66.7333 93.7633L61.7403 97.7994C61.2817 98.1705 61.2095 98.8453 61.5832 99.3007C61.7955 99.558 62.1054 99.693 62.4153 99.693V99.6972Z" fill="#F09600"/>
<path d="M108.813 36.9932C108.813 36.9932 105.345 13.6712 82.9608 12.1993C68.0538 11.204 56.8237 21.119 58.9593 34.7707C59.4264 37.6132 60.2925 40.5654 61.6384 43.4922C68.3977 57.9873 75.7132 60.8088 89.2106 56.3173C112.282 47.0517 108.813 36.9975 108.813 36.9975V36.9932Z" fill="#38827E"/>
<path d="M14.1191 72.8535C14.4036 72.3896 14.7772 71.9173 15.2528 71.4407C21.2648 64.3513 36.1208 69.9267 36.1208 69.9267C36.1208 69.9267 48.0005 60.5936 58.6786 64.2037C67.8113 67.5312 70.6518 75.2448 68.8982 83.7259C68.8982 83.7259 56.4411 90.3303 39.1565 87.0577C23.566 84.1055 14.1191 72.8535 14.1191 72.8535Z" fill="#86DEDB"/>
<path d="M108.804 36.9637C108.804 36.9637 87.9871 65.625 68.2272 40.3123C63.0601 33.691 60.8905 22.8481 60.8905 22.8481C60.8905 22.8481 54.6322 31.595 62.8563 46.6299C67.9215 55.8913 73.1226 58.3837 79.8947 59.3369C84.3145 59.961 88.8066 59.2778 92.857 57.4137C111.267 48.9326 108.808 36.9595 108.808 36.9595L108.804 36.9637Z" fill="#2C7773"/>
<path d="M33.9519 27.3734C33.6972 27.4325 33.417 27.3692 33.2089 27.1794C32.8693 26.8715 32.848 26.3528 33.1537 26.0196C33.2726 25.8889 36.1555 22.806 40.0277 23.5314C40.4777 23.6157 40.7707 24.0459 40.6858 24.4929C40.6008 24.94 40.1678 25.231 39.7177 25.1466C36.7414 24.5899 34.3977 27.0993 34.3723 27.1246C34.2534 27.2511 34.1048 27.3355 33.9477 27.3734H33.9519Z" fill="#38827E"/>
<path d="M7.41581 36.5125C7.16106 36.5715 6.88084 36.5082 6.6728 36.3185C6.33314 36.0106 6.31191 35.4918 6.6176 35.1587C6.73649 35.0279 9.61937 31.945 13.4915 32.6704C13.9416 32.7548 14.2345 33.1849 14.1496 33.632C14.0647 34.079 13.6316 34.37 13.1816 34.2857C10.2053 33.729 7.86162 36.2383 7.83614 36.2636C7.71726 36.3902 7.56866 36.4745 7.41157 36.5125H7.41581Z" fill="#38827E"/>
<path d="M25.7279 63.1494C25.7279 63.1494 25.3755 59.9273 29.0439 53.9935C30.7592 51.2142 33.0179 44.2808 36.2532 46.883C40.5457 50.6786 40.5202 57.1354 38.8049 59.9147C35.5909 65.1147 25.7279 63.1494 25.7279 63.1494Z" fill="#F09600"/>
<path d="M22.3178 66.5064C22.3178 66.5064 26.0031 66.2787 32.7624 60.2816C35.9255 57.4728 40.3156 52.0324 37.3181 48.397C35.2929 44.5677 29.8243 42.9777 26.6612 45.7865C19.282 51.7456 22.3178 66.5022 22.3178 66.5022V66.5064Z" fill="#F09600"/>
<path d="M27.7607 63.9929C27.7607 63.9929 38.6809 56.5661 38.2351 49.27C38.2351 49.27 40.0226 52.7494 37.819 56.5829C35.6154 60.4208 32.6179 62.7192 27.7607 63.9929Z" fill="#C27E22"/>
<path d="M42.294 41.1489C43.4239 40.7598 43.3848 37.7077 42.2066 34.3318C41.0284 30.956 39.1573 28.5347 38.0273 28.9238C36.8974 29.3129 36.9366 32.365 38.1148 35.7409C39.293 39.1167 41.1641 41.538 42.294 41.1489Z" fill="#00264D"/>
<path d="M15.752 50.2877C16.8819 49.8986 16.8428 46.8465 15.6646 43.4706C14.4864 40.0948 12.6153 37.6735 11.4854 38.0626C10.3554 38.4517 10.3946 41.5038 11.5728 44.8797C12.751 48.2555 14.6221 50.6768 15.752 50.2877Z" fill="#00264D"/>
</svg>
