<svg width="139" height="138" viewBox="0 0 139 138" fill="none" xmlns="http://www.w3.org/2000/svg">
<path opacity="0.25" d="M119.496 89.8667C113.416 84.4856 103.08 83.929 103.08 83.929L38.3599 98.5931L34.7119 100.836L46.9572 108.788L36.4879 118.278L40.7919 125C40.7919 125 41.4266 129.215 44.7492 125.923C45.6559 125.022 43.2346 120.303 43.4746 120.033L52.1466 110.426C52.1466 110.426 65.1972 113.83 71.7466 112.133L63.2879 123.383L65.6186 132.794C65.6186 132.794 67.5599 133.965 68.6853 131.145C69.6346 128.77 66.8506 124.841 67.3306 124.316C70.5359 120.833 71.9599 119.874 73.2399 118.57C75.7199 116.051 79.5599 112.42 80.2426 110.755C91.7093 107.839 114.557 100.777 119.496 89.8614V89.8667Z" fill="#1B2948"/>
<path d="M41.1015 118.564L67.1602 94.267C67.9922 93.493 68.0348 92.1941 67.2561 91.3724C66.4775 90.5453 65.1708 90.5029 64.3442 91.2769L41.4641 112.611L41.9975 108.253C42.1361 107.129 41.3308 106.105 40.2001 105.968C39.0641 105.83 38.0401 106.63 37.9015 107.754L37.2988 112.685L30.7548 104.075C30.0668 103.168 28.7761 102.993 27.8695 103.677C26.9628 104.361 26.7815 105.644 27.4695 106.546L32.5095 113.178L27.3788 111.057C26.3228 110.617 25.1175 111.121 24.6855 112.165C24.2481 113.21 24.7495 114.408 25.8001 114.843L37.0855 119.497L39.1655 125.621C39.4588 126.474 40.2588 127.015 41.1175 127.015C41.3361 127.015 41.5601 126.978 41.7788 126.909C42.8561 126.548 43.4375 125.382 43.0748 124.311L41.1228 118.554L41.1015 118.564Z" fill="#F19800"/>
<path d="M89.3735 95.831C88.5362 95.0622 87.2348 95.11 86.4615 95.937L65.1122 118.787L65.3415 114.402C65.4002 113.273 64.5255 112.308 63.3895 112.25C62.2268 112.186 61.2828 113.061 61.2242 114.19L60.9628 119.153L53.8375 111.015C53.0908 110.161 51.7895 110.071 50.9308 110.813C50.0722 111.555 49.9815 112.849 50.7282 113.703L56.2162 119.974L50.9468 118.214C49.8695 117.854 48.6962 118.432 48.3335 119.503C47.9708 120.573 48.5522 121.735 49.6295 122.1L61.2082 125.976L63.7042 131.945C64.0348 132.73 64.8028 133.207 65.6082 133.207C65.8748 133.207 66.1415 133.154 66.3975 133.048C67.4482 132.613 67.9442 131.415 67.5068 130.366L65.1602 124.756L89.4748 98.7362C90.2482 97.9092 90.2002 96.6103 89.3682 95.8416L89.3735 95.831Z" fill="#F19800"/>
<path d="M35.4589 44.9941C29.9762 35.8806 20.9202 35.4883 14.1416 44.5911C11.0856 48.7105 8.92025 54.1234 8.29625 60.1725C7.67225 66.2269 8.68558 71.9579 10.8349 76.6127C15.6082 86.9402 31.5602 94.4579 38.7922 86.5956L46.9522 64.0692L35.4536 44.9888L35.4589 44.9941Z" fill="#3A827E"/>
<path d="M62.4396 76.2257C62.4396 76.2257 30.9196 104.117 19.0476 69.1799C15.9436 60.0399 19.7623 40.2173 19.7623 40.2173C19.7623 40.2173 8.6263 49.9351 11.8636 69.376C13.8583 81.3523 19.5383 85.7261 26.5356 89.2994C31.101 91.6321 32.2316 93.0105 37.341 92.5015C60.573 90.1741 62.4396 76.2257 62.4396 76.2257V76.2257Z" fill="#1F6158"/>
<path d="M124.296 80.308C124.296 80.308 105.805 107.415 68.3862 108.841C37.4369 110.002 11.7782 83.0277 14.2689 55.6185C14.1035 30.0542 32.7329 7.80347 66.1569 7.80347C118.296 9.08115 124.296 80.308 124.296 80.308Z" fill="#56BDB8"/>
<path d="M134.158 72.9282C134.158 72.9282 139.235 46.2612 115.464 36.273C99.6404 29.6089 83.6724 36.1828 80.8084 51.8331C80.2377 55.0989 80.0617 58.6351 80.4137 62.325C82.259 80.6208 89.1444 86.4366 105.518 86.6062C134.115 85.1748 134.158 72.9335 134.158 72.9335V72.9282Z" fill="#3A827E"/>
<path d="M73.1384 108.422C57.5117 110.039 34.653 107.118 21.5437 85.4027C19.309 81.7022 16.6477 77.5034 21.5437 73.665C29.4264 66.423 45.581 74.9109 45.581 74.9109C45.581 74.9109 60.4877 65.9406 72.157 71.5868C86.781 79.0938 84.509 95.4969 73.133 108.422H73.1384Z" fill="#B0DBD8"/>
<path d="M134.158 72.8909C134.158 72.8909 100.654 96.2709 88.7816 61.3282C85.6776 52.1882 87.4322 39.5811 87.4322 39.5811C87.4322 39.5811 77.3096 46.7488 80.5469 66.1897C82.5416 78.166 87.2456 82.8208 94.2429 86.3941C98.8082 88.7268 103.955 89.6705 109.059 89.1615C132.291 86.8341 134.158 72.8856 134.158 72.8856V72.8909Z" fill="#1F6158"/>
<path d="M60.5996 20.522C60.3116 20.4266 60.0769 20.1986 59.9863 19.8911C59.8369 19.3875 60.1303 18.8626 60.6316 18.7195C60.8289 18.6611 65.5169 17.3463 68.8823 20.3682C69.2716 20.7182 69.3036 21.3172 68.9516 21.7042C68.5996 22.0913 67.9969 22.1231 67.6076 21.7732C65.0209 19.4564 61.2023 20.5273 61.1649 20.5379C60.9729 20.5962 60.7756 20.5856 60.5996 20.5273V20.522Z" fill="#3A827E"/>
<path d="M27.6077 21.5823C27.3037 21.5664 27.0157 21.4074 26.845 21.137C26.5677 20.6916 26.7064 20.1085 27.1544 19.8328C27.3304 19.7268 31.4957 17.2191 35.549 19.239C36.0184 19.4723 36.2104 20.0395 35.9757 20.5114C35.741 20.9779 35.1704 21.1688 34.6957 20.9355C31.581 19.3875 28.189 21.4286 28.157 21.4498C27.9864 21.5558 27.7944 21.5982 27.6077 21.5876V21.5823Z" fill="#3A827E"/>
<path d="M36.7227 54.7701C36.7227 54.7701 38.216 51.3506 45.288 47.4911C48.5947 45.6832 54.8293 40.0211 56.5733 44.4585C58.6853 50.6826 54.9627 57.1293 51.6507 58.9372C45.4587 62.3196 36.7227 54.7701 36.7227 54.7701Z" fill="#F19800"/>
<path d="M31.3896 56.2016C31.3896 56.2016 35.203 58.0625 45.395 55.8888C50.1683 54.8709 57.6723 51.9126 56.7656 46.5792C56.9363 41.601 52.3816 36.9197 47.6083 37.9323C36.819 39.7137 31.3896 56.1963 31.3896 56.1963V56.2016Z" fill="#F19800"/>
<path d="M38.2695 56.7689C38.2695 56.7689 53.4429 55.523 57.1815 47.9683C57.1815 47.9683 56.9735 52.4587 52.5735 55.0512C48.1735 57.6437 43.8535 58.2427 38.2695 56.7689V56.7689Z" fill="#C27E22"/>
<path d="M62.9578 41.4155C64.3863 41.4155 65.5444 37.9548 65.5444 33.6858C65.5444 29.4168 64.3863 25.9561 62.9578 25.9561C61.5292 25.9561 60.3711 29.4168 60.3711 33.6858C60.3711 37.9548 61.5292 41.4155 62.9578 41.4155Z" fill="#1B2948"/>
<path d="M31.3894 41.4155C32.818 41.4155 33.9761 37.9548 33.9761 33.6858C33.9761 29.4168 32.818 25.9561 31.3894 25.9561C29.9608 25.9561 28.8027 29.4168 28.8027 33.6858C28.8027 37.9548 29.9608 41.4155 31.3894 41.4155Z" fill="#1B2948"/>
</svg>
