<svg width="546" height="41" viewBox="0 0 546 41" fill="none" xmlns="http://www.w3.org/2000/svg">
<path d="M10.2097 24.8419V27H3.06198V24.8419H10.2097ZM3.96582 13.5715V27H1.19897V13.5715H3.96582ZM9.27818 19.0407V21.1435H3.06198V19.0407H9.27818ZM10.2005 13.5715V15.7389H3.06198V13.5715H10.2005ZM13.7974 17.0209L15.4483 20.0552L17.1453 17.0209H19.9767L17.1545 21.8998L20.1058 27H17.2652L15.4667 23.7905L13.6683 27H10.8276L13.7789 21.8998L10.9567 17.0209H13.7974ZM25.206 25.1093C25.5319 25.1093 25.8209 25.0478 26.073 24.9249C26.3251 24.7957 26.5218 24.6174 26.6632 24.3899C26.8108 24.1563 26.8877 23.8827 26.8938 23.5691H29.3932C29.3871 24.27 29.1995 24.8941 28.8306 25.4413C28.4617 25.9824 27.9667 26.4097 27.3457 26.7233C26.7247 27.0307 26.0299 27.1845 25.2614 27.1845C24.4867 27.1845 23.8103 27.0553 23.2323 26.7971C22.6605 26.5389 22.184 26.1822 21.8028 25.7272C21.4216 25.2661 21.1357 24.7312 20.9451 24.1225C20.7545 23.5076 20.6592 22.8497 20.6592 22.1488V21.8813C20.6592 21.1742 20.7545 20.5163 20.9451 19.9076C21.1357 19.2928 21.4216 18.7579 21.8028 18.3029C22.184 17.8417 22.6605 17.482 23.2323 17.2238C23.8042 16.9655 24.4744 16.8364 25.2429 16.8364C26.0607 16.8364 26.777 16.9932 27.3918 17.3068C28.0129 17.6204 28.4986 18.0692 28.8491 18.6533C29.2057 19.2313 29.3871 19.9169 29.3932 20.71H26.8938C26.8877 20.378 26.817 20.0767 26.6817 19.8062C26.5526 19.5356 26.362 19.3204 26.1099 19.1606C25.8639 18.9946 25.5596 18.9116 25.1968 18.9116C24.8095 18.9116 24.4928 18.9946 24.2469 19.1606C24.0009 19.3204 23.8103 19.5418 23.675 19.8246C23.5398 20.1013 23.4445 20.418 23.3891 20.7746C23.3399 21.125 23.3154 21.494 23.3154 21.8813V22.1488C23.3154 22.5361 23.3399 22.9081 23.3891 23.2647C23.4383 23.6214 23.5306 23.938 23.6658 24.2147C23.8072 24.4914 24.0009 24.7097 24.2469 24.8695C24.4928 25.0294 24.8125 25.1093 25.206 25.1093ZM35.5264 27.1845C34.7517 27.1845 34.0569 27.0615 33.442 26.8155C32.8272 26.5635 32.3046 26.2161 31.8742 25.7734C31.4499 25.3307 31.124 24.8173 30.8965 24.2331C30.669 23.6429 30.5553 23.0157 30.5553 22.3517V21.9828C30.5553 21.2265 30.6629 20.5348 30.8781 19.9076C31.0933 19.2805 31.4007 18.7363 31.8004 18.2752C32.2062 17.814 32.6981 17.4605 33.276 17.2146C33.854 16.9625 34.5057 16.8364 35.2313 16.8364C35.9384 16.8364 36.5655 16.9532 37.1127 17.1869C37.6599 17.4205 38.118 17.7526 38.4869 18.183C38.862 18.6134 39.1448 19.1298 39.3354 19.7324C39.526 20.3288 39.6213 20.9929 39.6213 21.7245V22.8313H31.6897V21.0605H37.0113V20.8576C37.0113 20.4887 36.9436 20.1597 36.8084 19.8707C36.6793 19.5756 36.4825 19.342 36.2181 19.1698C35.9537 18.9976 35.6156 18.9116 35.2036 18.9116C34.8531 18.9116 34.5519 18.9884 34.2998 19.1421C34.0477 19.2959 33.8417 19.5111 33.6818 19.7877C33.5281 20.0644 33.4113 20.3903 33.3314 20.7654C33.2576 21.1343 33.2207 21.5401 33.2207 21.9828V22.3517C33.2207 22.7513 33.276 23.1203 33.3867 23.4584C33.5035 23.7966 33.6665 24.0887 33.8755 24.3346C34.0907 24.5805 34.3489 24.7711 34.6502 24.9064C34.9577 25.0417 35.3051 25.1093 35.6924 25.1093C36.172 25.1093 36.6178 25.0171 37.0297 24.8326C37.4478 24.642 37.8075 24.3561 38.1088 23.9749L39.4 25.3768C39.1909 25.6781 38.905 25.967 38.5423 26.2437C38.1857 26.5204 37.7553 26.7479 37.2511 26.9262C36.7469 27.0984 36.172 27.1845 35.5264 27.1845ZM43.9376 12.8337V27H41.2722V12.8337H43.9376ZM48.9364 12.8337V27H46.271V12.8337H48.9364ZM55.7244 27.1845C54.9497 27.1845 54.2549 27.0615 53.6401 26.8155C53.0252 26.5635 52.5026 26.2161 52.0722 25.7734C51.6479 25.3307 51.3221 24.8173 51.0946 24.2331C50.8671 23.6429 50.7533 23.0157 50.7533 22.3517V21.9828C50.7533 21.2265 50.8609 20.5348 51.0761 19.9076C51.2913 19.2805 51.5987 18.7363 51.9984 18.2752C52.4042 17.814 52.8961 17.4605 53.4741 17.2146C54.052 16.9625 54.7038 16.8364 55.4293 16.8364C56.1364 16.8364 56.7635 16.9532 57.3108 17.1869C57.858 17.4205 58.316 17.7526 58.685 18.183C59.06 18.6134 59.3429 19.1298 59.5335 19.7324C59.7241 20.3288 59.8194 20.9929 59.8194 21.7245V22.8313H51.8877V21.0605H57.2093V20.8576C57.2093 20.4887 57.1417 20.1597 57.0064 19.8707C56.8773 19.5756 56.6805 19.342 56.4161 19.1698C56.1518 18.9976 55.8136 18.9116 55.4016 18.9116C55.0512 18.9116 54.7499 18.9884 54.4978 19.1421C54.2457 19.2959 54.0397 19.5111 53.8799 19.7877C53.7261 20.0644 53.6093 20.3903 53.5294 20.7654C53.4556 21.1343 53.4187 21.5401 53.4187 21.9828V22.3517C53.4187 22.7513 53.4741 23.1203 53.5847 23.4584C53.7015 23.7966 53.8645 24.0887 54.0735 24.3346C54.2887 24.5805 54.547 24.7711 54.8483 24.9064C55.1557 25.0417 55.5031 25.1093 55.8904 25.1093C56.37 25.1093 56.8158 25.0171 57.2278 24.8326C57.6459 24.642 58.0055 24.3561 58.3068 23.9749L59.598 25.3768C59.389 25.6781 59.1031 25.967 58.7403 26.2437C58.3837 26.5204 57.9533 26.7479 57.4491 26.9262C56.9449 27.0984 56.37 27.1845 55.7244 27.1845ZM63.9328 19.1514V27H61.2766V17.0209H63.7667L63.9328 19.1514ZM63.5454 21.66H62.826C62.826 20.9221 62.9213 20.2581 63.1119 19.6678C63.3025 19.0714 63.57 18.5642 63.9143 18.1461C64.2586 17.7218 64.6675 17.399 65.141 17.1777C65.6205 16.9502 66.1555 16.8364 66.7457 16.8364C67.213 16.8364 67.6403 16.9041 68.0277 17.0393C68.4151 17.1746 68.7471 17.3898 69.0238 17.6849C69.3066 17.9801 69.5218 18.3705 69.6694 18.8562C69.8231 19.342 69.8999 19.9353 69.8999 20.6362V27H67.2253V20.627C67.2253 20.1843 67.1638 19.84 67.0409 19.5941C66.9179 19.3481 66.7365 19.176 66.4967 19.0776C66.2631 18.9731 65.9741 18.9208 65.6298 18.9208C65.2731 18.9208 64.9626 18.9915 64.6983 19.1329C64.44 19.2743 64.2248 19.4711 64.0527 19.7232C63.8866 19.9691 63.7606 20.2581 63.6745 20.5901C63.5884 20.9221 63.5454 21.2788 63.5454 21.66ZM76.8078 17.0209V18.9023H70.9975V17.0209H76.8078ZM72.4362 14.5584H75.0924V23.9934C75.0924 24.2823 75.1293 24.5037 75.2031 24.6574C75.283 24.8111 75.3998 24.9187 75.5535 24.9802C75.7073 25.0355 75.9009 25.0632 76.1346 25.0632C76.3006 25.0632 76.4482 25.0571 76.5773 25.0448C76.7125 25.0263 76.8263 25.0079 76.9185 24.9894L76.9277 26.9447C76.7002 27.0184 76.4543 27.0769 76.1899 27.1199C75.9255 27.1629 75.6335 27.1845 75.3137 27.1845C74.7296 27.1845 74.2193 27.0892 73.7828 26.8985C73.3524 26.7018 73.0203 26.3882 72.7867 25.9578C72.553 25.5274 72.4362 24.9618 72.4362 24.2608V14.5584Z" fill="black"/>
<path d="M129.245 4.72209H97.7646V36.2027H129.245V4.72209Z" fill="#00254D"/>
<path d="M163.35 4.72208H131.869V36.2027H163.35V4.72208Z" fill="#00254D"/>
<path d="M197.453 4.72208H165.973V36.2027H197.453V4.72208Z" fill="#00254D"/>
<path d="M231.557 4.72208H200.077V36.2027H231.557V4.72208Z" fill="#00254D"/>
<path d="M265.662 4.72208H234.181V36.2027H265.662V4.72208Z" fill="#00254D"/>
<path d="M113.505 25.9385L118.292 24.7252L120.293 30.8901L113.505 25.9385ZM124.523 17.97H116.095L113.505 10.0342L110.914 17.97H102.486L109.307 22.8888L106.717 30.8246L113.537 25.9057L117.735 22.8888L124.523 17.97Z" fill="white"/>
<path d="M147.609 25.9385L152.397 24.7252L154.397 30.8902L147.609 25.9385ZM158.627 17.97H150.2L147.609 10.0342L145.018 17.97H136.591L143.412 22.8888L140.821 30.8246L147.642 25.9057L151.839 22.8888L158.627 17.97Z" fill="white"/>
<path d="M181.713 25.9385L186.5 24.7252L188.501 30.8901L181.713 25.9385ZM192.731 17.97H184.303L181.713 10.0342L179.122 17.97H170.694L177.515 22.8888L174.925 30.8246L181.745 25.9057L185.943 22.8888L192.731 17.97Z" fill="white"/>
<path d="M215.817 25.9385L220.604 24.7252L222.605 30.8901L215.817 25.9385ZM226.835 17.97H218.407L215.817 10.0342L213.226 17.97H204.798L211.619 22.8888L209.029 30.8246L215.849 25.9057L220.047 22.8888L226.835 17.97Z" fill="white"/>
<path d="M249.921 25.9385L254.709 24.7252L256.709 30.8902L249.921 25.9385ZM260.939 17.97H252.512L249.921 10.0342L247.33 17.97H238.903L245.724 22.8888L243.133 30.8246L249.954 25.9057L254.151 22.8888L260.939 17.97Z" fill="white"/>
<path d="M293.521 13.5439V27H290.865V16.6058L287.673 17.6204V15.5268L293.235 13.5439H293.521ZM300.613 19.1329H302.033C302.488 19.1329 302.863 19.056 303.159 18.9023C303.454 18.7425 303.672 18.5211 303.813 18.2383C303.961 17.9493 304.035 17.6142 304.035 17.233C304.035 16.8887 303.967 16.5843 303.832 16.3199C303.703 16.0494 303.503 15.8403 303.232 15.6928C302.962 15.5391 302.621 15.4622 302.209 15.4622C301.883 15.4622 301.582 15.5268 301.305 15.6559C301.028 15.785 300.807 15.9664 300.641 16.2C300.475 16.4337 300.392 16.7165 300.392 17.0485H297.726C297.726 16.3107 297.923 15.6682 298.317 15.121C298.716 14.5737 299.251 14.1464 299.921 13.839C300.592 13.5316 301.329 13.3778 302.135 13.3778C303.045 13.3778 303.841 13.5254 304.524 13.8205C305.206 14.1095 305.738 14.5368 306.119 15.1025C306.5 15.6682 306.691 16.3691 306.691 17.2053C306.691 17.6296 306.593 18.0415 306.396 18.4412C306.199 18.8347 305.916 19.1913 305.547 19.511C305.185 19.8246 304.742 20.0767 304.219 20.2673C303.697 20.4518 303.109 20.544 302.458 20.544H300.613V19.1329ZM300.613 21.1527V19.7785H302.458C303.189 19.7785 303.832 19.8615 304.385 20.0275C304.939 20.1935 305.403 20.4333 305.778 20.7469C306.153 21.0543 306.436 21.4202 306.626 21.8444C306.817 22.2625 306.912 22.7267 306.912 23.2371C306.912 23.8642 306.792 24.4237 306.553 24.9156C306.313 25.4014 305.975 25.8133 305.538 26.1515C305.108 26.4897 304.604 26.7479 304.026 26.9262C303.448 27.0984 302.817 27.1844 302.135 27.1844C301.569 27.1844 301.013 27.1076 300.466 26.9539C299.924 26.794 299.433 26.5573 298.99 26.2437C298.553 25.924 298.203 25.5243 297.938 25.0447C297.68 24.559 297.551 23.9841 297.551 23.3201H300.217C300.217 23.6644 300.303 23.9718 300.475 24.2424C300.647 24.5129 300.884 24.725 301.185 24.8787C301.492 25.0324 301.834 25.1093 302.209 25.1093C302.633 25.1093 302.996 25.0324 303.297 24.8787C303.604 24.7189 303.838 24.4975 303.998 24.2147C304.164 23.9257 304.247 23.5906 304.247 23.2094C304.247 22.7175 304.158 22.324 303.979 22.0289C303.801 21.7276 303.546 21.5062 303.214 21.3648C302.882 21.2234 302.488 21.1527 302.033 21.1527H300.613ZM311.238 20.8852L309.117 20.378L309.882 13.5715H317.426V15.7204H312.068L311.736 18.6994C311.914 18.5949 312.185 18.4842 312.547 18.3674C312.91 18.2444 313.316 18.1829 313.765 18.1829C314.417 18.1829 314.995 18.2844 315.499 18.4873C316.003 18.6902 316.43 18.9853 316.781 19.3727C317.137 19.7601 317.408 20.2335 317.592 20.793C317.777 21.3525 317.869 21.9858 317.869 22.6929C317.869 23.2893 317.777 23.8581 317.592 24.3991C317.408 24.9341 317.128 25.4137 316.753 25.8379C316.378 26.256 315.908 26.585 315.342 26.8248C314.776 27.0645 314.106 27.1844 313.331 27.1844C312.753 27.1844 312.194 27.0984 311.653 26.9262C311.118 26.754 310.635 26.4989 310.205 26.1607C309.781 25.8225 309.439 25.4137 309.181 24.9341C308.929 24.4483 308.797 23.895 308.785 23.274H311.422C311.459 23.6552 311.558 23.9841 311.717 24.2608C311.883 24.5313 312.102 24.7404 312.372 24.888C312.643 25.0355 312.959 25.1093 313.322 25.1093C313.66 25.1093 313.949 25.0447 314.189 24.9156C314.429 24.7865 314.623 24.6082 314.77 24.3807C314.918 24.1471 315.025 23.8765 315.093 23.5691C315.167 23.2555 315.204 22.9173 315.204 22.5546C315.204 22.1918 315.161 21.8629 315.075 21.5677C314.988 21.2726 314.856 21.0174 314.678 20.8022C314.5 20.587 314.272 20.421 313.995 20.3042C313.725 20.1874 313.408 20.129 313.046 20.129C312.554 20.129 312.172 20.2058 311.902 20.3595C311.637 20.5133 311.416 20.6885 311.238 20.8852ZM326.373 18.5888V27H324.666V17.0209H326.326L326.373 18.5888ZM329.49 16.9655L329.481 18.5519C329.339 18.5211 329.204 18.5027 329.075 18.4965C328.952 18.4842 328.81 18.4781 328.651 18.4781C328.257 18.4781 327.91 18.5396 327.608 18.6625C327.307 18.7855 327.052 18.9577 326.843 19.179C326.634 19.4004 326.468 19.6647 326.345 19.9722C326.228 20.2735 326.151 20.6055 326.114 20.9682L325.635 21.2449C325.635 20.6424 325.693 20.0767 325.81 19.5479C325.933 19.0191 326.12 18.5519 326.373 18.1461C326.625 17.7341 326.944 17.4144 327.332 17.1869C327.725 16.9532 328.192 16.8364 328.734 16.8364C328.857 16.8364 328.998 16.8518 329.158 16.8825C329.318 16.9071 329.428 16.9348 329.49 16.9655ZM335.024 27.1844C334.329 27.1844 333.699 27.0676 333.133 26.834C332.573 26.5942 332.091 26.2591 331.685 25.8287C331.285 25.3983 330.978 24.888 330.763 24.2977C330.547 23.7074 330.44 23.0618 330.44 22.3609V21.9735C330.44 21.1619 330.56 20.4395 330.799 19.8062C331.039 19.1667 331.365 18.6256 331.777 18.1829C332.189 17.7402 332.656 17.4052 333.179 17.1777C333.702 16.9502 334.243 16.8364 334.802 16.8364C335.515 16.8364 336.13 16.9594 336.647 17.2053C337.169 17.4513 337.597 17.7956 337.929 18.2383C338.261 18.6748 338.507 19.1913 338.667 19.7877C338.826 20.378 338.906 21.0236 338.906 21.7245V22.49H331.454V21.0974H337.2V20.9682C337.176 20.5255 337.083 20.0951 336.923 19.677C336.77 19.2589 336.524 18.9146 336.186 18.6441C335.847 18.3736 335.386 18.2383 334.802 18.2383C334.415 18.2383 334.058 18.3213 333.732 18.4873C333.406 18.6472 333.127 18.887 332.893 19.2067C332.659 19.5264 332.478 19.9168 332.349 20.378C332.22 20.8391 332.155 21.371 332.155 21.9735V22.3609C332.155 22.8343 332.22 23.2801 332.349 23.6982C332.484 24.1102 332.678 24.4729 332.93 24.7865C333.188 25.1001 333.499 25.346 333.861 25.5243C334.23 25.7026 334.648 25.7918 335.116 25.7918C335.718 25.7918 336.229 25.6688 336.647 25.4229C337.065 25.1769 337.431 24.848 337.744 24.436L338.777 25.2569C338.562 25.5827 338.288 25.8932 337.956 26.1884C337.624 26.4835 337.216 26.7233 336.73 26.9078C336.25 27.0922 335.681 27.1844 335.024 27.1844ZM343.804 25.4598L346.534 17.0209H348.277L344.689 27H343.545L343.804 25.4598ZM341.526 17.0209L344.339 25.5059L344.532 27H343.389L339.773 17.0209H341.526ZM351.772 17.0209V27H350.057V17.0209H351.772ZM349.928 14.3739C349.928 14.0972 350.011 13.8636 350.177 13.673C350.349 13.4824 350.601 13.3871 350.933 13.3871C351.259 13.3871 351.508 13.4824 351.68 13.673C351.858 13.8636 351.947 14.0972 351.947 14.3739C351.947 14.6383 351.858 14.8658 351.68 15.0564C351.508 15.2409 351.259 15.3331 350.933 15.3331C350.601 15.3331 350.349 15.2409 350.177 15.0564C350.011 14.8658 349.928 14.6383 349.928 14.3739ZM358.652 27.1844C357.958 27.1844 357.327 27.0676 356.762 26.834C356.202 26.5942 355.72 26.2591 355.314 25.8287C354.914 25.3983 354.607 24.888 354.392 24.2977C354.176 23.7074 354.069 23.0618 354.069 22.3609V21.9735C354.069 21.1619 354.189 20.4395 354.428 19.8062C354.668 19.1667 354.994 18.6256 355.406 18.1829C355.818 17.7402 356.285 17.4052 356.808 17.1777C357.331 16.9502 357.872 16.8364 358.431 16.8364C359.144 16.8364 359.759 16.9594 360.276 17.2053C360.798 17.4513 361.226 17.7956 361.558 18.2383C361.89 18.6748 362.136 19.1913 362.296 19.7877C362.455 20.378 362.535 21.0236 362.535 21.7245V22.49H355.083V21.0974H360.829V20.9682C360.804 20.5255 360.712 20.0951 360.552 19.677C360.399 19.2589 360.153 18.9146 359.815 18.6441C359.476 18.3736 359.015 18.2383 358.431 18.2383C358.044 18.2383 357.687 18.3213 357.361 18.4873C357.035 18.6472 356.756 18.887 356.522 19.2067C356.288 19.5264 356.107 19.9168 355.978 20.378C355.849 20.8391 355.784 21.371 355.784 21.9735V22.3609C355.784 22.8343 355.849 23.2801 355.978 23.6982C356.113 24.1102 356.307 24.4729 356.559 24.7865C356.817 25.1001 357.128 25.346 357.49 25.5243C357.859 25.7026 358.277 25.7918 358.745 25.7918C359.347 25.7918 359.858 25.6688 360.276 25.4229C360.694 25.1769 361.06 24.848 361.373 24.436L362.406 25.2569C362.191 25.5827 361.917 25.8932 361.585 26.1884C361.253 26.4835 360.844 26.7233 360.359 26.9078C359.879 27.0922 359.31 27.1844 358.652 27.1844ZM367.054 25.2292L369.618 17.0209H370.744L370.522 18.6533L367.912 27H366.815L367.054 25.2292ZM365.33 17.0209L367.516 25.3214L367.672 27H366.52L363.624 17.0209H365.33ZM373.197 25.2569L375.281 17.0209H376.978L374.082 27H372.939L373.197 25.2569ZM370.993 17.0209L373.501 25.0909L373.787 27H372.699L370.015 18.6349L369.794 17.0209H370.993ZM384.541 24.353C384.541 24.1071 384.486 23.8796 384.375 23.6705C384.27 23.4553 384.052 23.2617 383.72 23.0895C383.394 22.9112 382.902 22.7575 382.245 22.6284C381.691 22.5115 381.19 22.3732 380.741 22.2133C380.298 22.0535 379.92 21.8598 379.607 21.6323C379.299 21.4048 379.063 21.1373 378.897 20.8299C378.731 20.5225 378.648 20.1628 378.648 19.7508C378.648 19.3573 378.734 18.9853 378.906 18.6349C379.084 18.2844 379.333 17.9739 379.653 17.7034C379.979 17.4328 380.369 17.2207 380.824 17.067C381.279 16.9133 381.786 16.8364 382.346 16.8364C383.145 16.8364 383.828 16.9778 384.393 17.2607C384.959 17.5435 385.393 17.9216 385.694 18.3951C385.995 18.8624 386.146 19.3819 386.146 19.9537H384.44C384.44 19.677 384.357 19.4096 384.191 19.1513C384.031 18.887 383.794 18.6687 383.48 18.4965C383.173 18.3244 382.795 18.2383 382.346 18.2383C381.873 18.2383 381.488 18.3121 381.193 18.4596C380.904 18.601 380.692 18.7824 380.557 19.0038C380.428 19.2251 380.363 19.4588 380.363 19.7047C380.363 19.8892 380.394 20.0552 380.455 20.2027C380.523 20.3442 380.64 20.4764 380.806 20.5993C380.972 20.7162 381.205 20.8268 381.507 20.9314C381.808 21.0359 382.192 21.1404 382.66 21.2449C383.477 21.4294 384.151 21.6507 384.679 21.909C385.208 22.1672 385.602 22.4839 385.86 22.8589C386.118 23.234 386.247 23.689 386.247 24.2239C386.247 24.6605 386.155 25.0601 385.971 25.4229C385.792 25.7856 385.531 26.0992 385.187 26.3636C384.848 26.6218 384.443 26.8248 383.969 26.9723C383.502 27.1137 382.976 27.1844 382.392 27.1844C381.513 27.1844 380.769 27.0277 380.16 26.7141C379.551 26.4005 379.09 25.9947 378.777 25.4967C378.463 24.9986 378.306 24.4729 378.306 23.9196H380.022C380.046 24.3868 380.182 24.7588 380.428 25.0355C380.674 25.3061 380.975 25.4997 381.331 25.6166C381.688 25.7272 382.042 25.7826 382.392 25.7826C382.859 25.7826 383.25 25.7211 383.563 25.5981C383.883 25.4751 384.126 25.3061 384.292 25.0909C384.458 24.8757 384.541 24.6297 384.541 24.353ZM392.722 22.1211V21.909C392.722 21.1896 392.826 20.5225 393.035 19.9076C393.244 19.2866 393.546 18.7486 393.939 18.2936C394.333 17.8325 394.809 17.4759 395.369 17.2238C395.928 16.9655 396.555 16.8364 397.25 16.8364C397.951 16.8364 398.581 16.9655 399.141 17.2238C399.706 17.4759 400.186 17.8325 400.58 18.2936C400.979 18.7486 401.284 19.2866 401.493 19.9076C401.702 20.5225 401.806 21.1896 401.806 21.909V22.1211C401.806 22.8405 401.702 23.5076 401.493 24.1225C401.284 24.7373 400.979 25.2753 400.58 25.7365C400.186 26.1914 399.71 26.5481 399.15 26.8063C398.597 27.0584 397.969 27.1844 397.269 27.1844C396.568 27.1844 395.937 27.0584 395.378 26.8063C394.818 26.5481 394.339 26.1914 393.939 25.7365C393.546 25.2753 393.244 24.7373 393.035 24.1225C392.826 23.5076 392.722 22.8405 392.722 22.1211ZM394.428 21.909V22.1211C394.428 22.6191 394.486 23.0895 394.603 23.5322C394.72 23.9687 394.895 24.3561 395.129 24.6943C395.369 25.0324 395.667 25.2999 396.023 25.4967C396.38 25.6873 396.795 25.7826 397.269 25.7826C397.736 25.7826 398.145 25.6873 398.495 25.4967C398.852 25.2999 399.147 25.0324 399.381 24.6943C399.614 24.3561 399.789 23.9687 399.906 23.5322C400.029 23.0895 400.091 22.6191 400.091 22.1211V21.909C400.091 21.4171 400.029 20.9529 399.906 20.5163C399.789 20.0736 399.611 19.6832 399.371 19.345C399.138 19.0007 398.843 18.7302 398.486 18.5334C398.135 18.3367 397.724 18.2383 397.25 18.2383C396.783 18.2383 396.371 18.3367 396.014 18.5334C395.664 18.7302 395.369 19.0007 395.129 19.345C394.895 19.6832 394.72 20.0736 394.603 20.5163C394.486 20.9529 394.428 21.4171 394.428 21.909ZM405.652 19.1513V27H403.946V17.0209H405.56L405.652 19.1513ZM405.246 21.6323L404.536 21.6046C404.542 20.9221 404.644 20.2919 404.84 19.7139C405.037 19.1298 405.314 18.6226 405.671 18.1922C406.027 17.7618 406.451 17.4297 406.943 17.1961C407.441 16.9563 407.992 16.8364 408.594 16.8364C409.086 16.8364 409.529 16.904 409.922 17.0393C410.316 17.1684 410.651 17.3775 410.928 17.6665C411.21 17.9554 411.426 18.3305 411.573 18.7917C411.721 19.2466 411.795 19.8031 411.795 20.461V27H410.079V20.4425C410.079 19.9199 410.002 19.5018 409.848 19.1882C409.695 18.8685 409.47 18.6379 409.175 18.4965C408.88 18.349 408.517 18.2752 408.087 18.2752C407.663 18.2752 407.275 18.3643 406.925 18.5426C406.581 18.7209 406.282 18.9669 406.03 19.2805C405.784 19.594 405.591 19.9537 405.449 20.3595C405.314 20.7592 405.246 21.1834 405.246 21.6323Z" fill="black"/>
<path d="M444.927 25.9387L449.714 24.7254L451.715 30.8904L444.927 25.9387ZM455.945 17.9702H447.517L444.927 10.0344L442.336 17.9702H433.908L440.729 22.889L438.139 30.8248L444.959 25.9059L449.157 22.889L455.945 17.9702Z" fill="#00254D"/>
<path d="M469.444 13.5715V27H466.686V13.5715H469.444ZM473.576 13.5715V15.7389H462.619V13.5715H473.576ZM476.997 19.1975V27H474.341V17.0209H476.841L476.997 19.1975ZM480.004 16.9563L479.958 19.4188C479.829 19.4004 479.672 19.385 479.488 19.3727C479.309 19.3542 479.146 19.345 478.999 19.345C478.624 19.345 478.298 19.3942 478.021 19.4926C477.751 19.5848 477.523 19.7232 477.339 19.9076C477.16 20.0921 477.025 20.3165 476.933 20.5809C476.847 20.8453 476.798 21.1466 476.785 21.4847L476.25 21.3187C476.25 20.6731 476.315 20.0798 476.444 19.5387C476.573 18.9915 476.761 18.515 477.007 18.1092C477.259 17.7034 477.566 17.3898 477.929 17.1684C478.292 16.9471 478.707 16.8364 479.174 16.8364C479.322 16.8364 479.472 16.8487 479.626 16.8733C479.78 16.8917 479.906 16.9194 480.004 16.9563ZM487.161 24.6113V17.0209H489.817V27H487.318L487.161 24.6113ZM487.456 22.5638L488.24 22.5454C488.24 23.2094 488.163 23.8273 488.009 24.3991C487.856 24.9648 487.625 25.4567 487.318 25.8748C487.01 26.2868 486.623 26.6096 486.156 26.8432C485.688 27.0707 485.138 27.1844 484.505 27.1844C484.019 27.1844 483.57 27.1168 483.158 26.9815C482.752 26.8401 482.402 26.6218 482.107 26.3267C481.818 26.0254 481.59 25.6412 481.424 25.1739C481.264 24.7004 481.185 24.1317 481.185 23.4676V17.0209H483.841V23.4861C483.841 23.7812 483.875 24.0302 483.942 24.2331C484.016 24.436 484.117 24.602 484.247 24.7312C484.376 24.8603 484.526 24.9525 484.698 25.0079C484.877 25.0632 485.074 25.0909 485.289 25.0909C485.836 25.0909 486.266 24.9802 486.58 24.7588C486.9 24.5375 487.124 24.2362 487.253 23.855C487.388 23.4676 487.456 23.0372 487.456 22.5638ZM497.242 24.2424C497.242 24.0517 497.186 23.8796 497.076 23.7259C496.965 23.5722 496.759 23.4307 496.458 23.3016C496.162 23.1664 495.735 23.0434 495.176 22.9327C494.671 22.822 494.201 22.6837 493.765 22.5177C493.334 22.3455 492.959 22.1395 492.639 21.8998C492.326 21.66 492.08 21.3771 491.902 21.0512C491.723 20.7192 491.634 20.3411 491.634 19.9168C491.634 19.4987 491.723 19.1052 491.902 18.7363C492.086 18.3674 492.347 18.0415 492.685 17.7587C493.03 17.4697 493.448 17.2453 493.94 17.0854C494.438 16.9194 494.997 16.8364 495.618 16.8364C496.485 16.8364 497.229 16.9748 497.85 17.2514C498.477 17.5281 498.957 17.9093 499.289 18.3951C499.627 18.8747 499.796 19.4219 499.796 20.0367H497.14C497.14 19.7785 497.085 19.5479 496.974 19.345C496.87 19.136 496.704 18.973 496.476 18.8562C496.255 18.7332 495.966 18.6718 495.609 18.6718C495.314 18.6718 495.059 18.724 494.844 18.8285C494.628 18.9269 494.462 19.0622 494.346 19.2343C494.235 19.4004 494.18 19.5848 494.18 19.7877C494.18 19.9414 494.21 20.0798 494.272 20.2027C494.339 20.3196 494.447 20.4272 494.595 20.5255C494.742 20.6239 494.933 20.7162 495.166 20.8022C495.406 20.8822 495.701 20.9559 496.052 21.0236C496.771 21.1711 497.414 21.3648 497.979 21.6046C498.545 21.8383 498.994 22.158 499.326 22.5638C499.658 22.9635 499.824 23.4892 499.824 24.1409C499.824 24.5836 499.726 24.9894 499.529 25.3583C499.332 25.7272 499.049 26.05 498.68 26.3267C498.311 26.5973 497.869 26.8094 497.352 26.9631C496.842 27.1107 496.267 27.1844 495.628 27.1844C494.699 27.1844 493.912 27.0184 493.266 26.6864C492.627 26.3544 492.141 25.9332 491.809 25.4229C491.483 24.9064 491.32 24.3776 491.32 23.8365H493.838C493.851 24.1993 493.943 24.4914 494.115 24.7127C494.293 24.9341 494.518 25.0939 494.788 25.1923C495.065 25.2907 495.363 25.3399 495.683 25.3399C496.027 25.3399 496.313 25.2938 496.541 25.2015C496.768 25.1032 496.94 24.974 497.057 24.8142C497.18 24.6482 497.242 24.4576 497.242 24.2424ZM506.437 17.0209V18.9023H500.626V17.0209H506.437ZM502.065 14.5584H504.721V23.9933C504.721 24.2823 504.758 24.5037 504.832 24.6574C504.912 24.8111 505.029 24.9187 505.182 24.9802C505.336 25.0355 505.53 25.0632 505.763 25.0632C505.929 25.0632 506.077 25.057 506.206 25.0447C506.341 25.0263 506.455 25.0079 506.547 24.9894L506.557 26.9446C506.329 27.0184 506.083 27.0768 505.819 27.1199C505.554 27.1629 505.262 27.1844 504.943 27.1844C504.358 27.1844 503.848 27.0891 503.412 26.8985C502.981 26.7018 502.649 26.3882 502.416 25.9578C502.182 25.5274 502.065 24.9617 502.065 24.2608V14.5584ZM510.605 18.9392V30.8367H507.949V17.0209H510.412L510.605 18.9392ZM516.923 21.8998V22.0934C516.923 22.819 516.837 23.4922 516.665 24.1132C516.499 24.7342 516.253 25.2753 515.927 25.7365C515.601 26.1914 515.195 26.5481 514.71 26.8063C514.23 27.0584 513.677 27.1844 513.049 27.1844C512.441 27.1844 511.912 27.0615 511.463 26.8155C511.014 26.5696 510.636 26.2253 510.329 25.7826C510.027 25.3337 509.785 24.8142 509.6 24.2239C509.416 23.6336 509.274 23.0003 509.176 22.324V21.8167C509.274 21.0912 509.416 20.4272 509.6 19.8246C509.785 19.2159 510.027 18.6902 510.329 18.2475C510.636 17.7987 511.011 17.4513 511.454 17.2053C511.903 16.9594 512.428 16.8364 513.031 16.8364C513.664 16.8364 514.221 16.9563 514.7 17.1961C515.186 17.4359 515.592 17.7802 515.918 18.2291C516.25 18.6779 516.499 19.2128 516.665 19.8338C516.837 20.4548 516.923 21.1435 516.923 21.8998ZM514.258 22.0934V21.8998C514.258 21.4755 514.221 21.0851 514.147 20.7285C514.079 20.3657 513.969 20.049 513.815 19.7785C513.667 19.508 513.471 19.2989 513.225 19.1513C512.985 18.9976 512.693 18.9208 512.349 18.9208C511.986 18.9208 511.675 18.9792 511.417 19.096C511.165 19.2128 510.959 19.3819 510.799 19.6033C510.639 19.8246 510.519 20.089 510.439 20.3964C510.36 20.7039 510.31 21.0512 510.292 21.4386V22.7206C510.323 23.1756 510.409 23.5845 510.55 23.9472C510.692 24.3038 510.91 24.5867 511.205 24.7957C511.5 25.0048 511.887 25.1093 512.367 25.1093C512.717 25.1093 513.013 25.0324 513.252 24.8787C513.492 24.7189 513.686 24.5006 513.833 24.2239C513.987 23.9472 514.095 23.6275 514.156 23.2647C514.224 22.902 514.258 22.5115 514.258 22.0934ZM521.378 17.0209V27H518.712V17.0209H521.378ZM518.546 14.42C518.546 14.0327 518.682 13.7129 518.952 13.4608C519.223 13.2088 519.585 13.0827 520.04 13.0827C520.489 13.0827 520.849 13.2088 521.119 13.4608C521.396 13.7129 521.535 14.0327 521.535 14.42C521.535 14.8074 521.396 15.1271 521.119 15.3792C520.849 15.6313 520.489 15.7573 520.04 15.7573C519.585 15.7573 519.223 15.6313 518.952 15.3792C518.682 15.1271 518.546 14.8074 518.546 14.42ZM526.377 12.8337V27H523.711V12.8337H526.377ZM528.147 22.1119V21.9182C528.147 21.1865 528.252 20.5133 528.461 19.8984C528.67 19.2774 528.974 18.7394 529.374 18.2844C529.774 17.8294 530.265 17.4759 530.85 17.2238C531.434 16.9655 532.104 16.8364 532.86 16.8364C533.616 16.8364 534.29 16.9655 534.88 17.2238C535.47 17.4759 535.965 17.8294 536.365 18.2844C536.771 18.7394 537.078 19.2774 537.287 19.8984C537.496 20.5133 537.601 21.1865 537.601 21.9182V22.1119C537.601 22.8374 537.496 23.5107 537.287 24.1317C537.078 24.7465 536.771 25.2845 536.365 25.7457C535.965 26.2007 535.473 26.5542 534.889 26.8063C534.305 27.0584 533.635 27.1844 532.879 27.1844C532.122 27.1844 531.449 27.0584 530.859 26.8063C530.275 26.5542 529.78 26.2007 529.374 25.7457C528.974 25.2845 528.67 24.7465 528.461 24.1317C528.252 23.5107 528.147 22.8374 528.147 22.1119ZM530.803 21.9182V22.1119C530.803 22.53 530.84 22.9204 530.914 23.2832C530.988 23.6459 531.105 23.9657 531.265 24.2424C531.431 24.5129 531.646 24.725 531.91 24.8787C532.175 25.0324 532.497 25.1093 532.879 25.1093C533.248 25.1093 533.564 25.0324 533.829 24.8787C534.093 24.725 534.305 24.5129 534.465 24.2424C534.625 23.9657 534.742 23.6459 534.815 23.2832C534.895 22.9204 534.935 22.53 534.935 22.1119V21.9182C534.935 21.5124 534.895 21.1312 534.815 20.7746C534.742 20.4118 534.622 20.0921 534.456 19.8154C534.296 19.5326 534.084 19.3112 533.819 19.1513C533.555 18.9915 533.235 18.9116 532.86 18.9116C532.485 18.9116 532.165 18.9915 531.901 19.1513C531.643 19.3112 531.431 19.5326 531.265 19.8154C531.105 20.0921 530.988 20.4118 530.914 20.7746C530.84 21.1312 530.803 21.5124 530.803 21.9182ZM544.121 17.0209V18.9023H538.311V17.0209H544.121ZM539.75 14.5584H542.406V23.9933C542.406 24.2823 542.443 24.5037 542.516 24.6574C542.596 24.8111 542.713 24.9187 542.867 24.9802C543.021 25.0355 543.214 25.0632 543.448 25.0632C543.614 25.0632 543.762 25.057 543.891 25.0447C544.026 25.0263 544.14 25.0079 544.232 24.9894L544.241 26.9446C544.014 27.0184 543.768 27.0768 543.503 27.1199C543.239 27.1629 542.947 27.1844 542.627 27.1844C542.043 27.1844 541.533 27.0891 541.096 26.8985C540.666 26.7018 540.334 26.3882 540.1 25.9578C539.866 25.5274 539.75 24.9617 539.75 24.2608V14.5584Z" fill="black"/>
</svg>
