<svg width="26" height="26" viewBox="0 0 26 26" fill="none" xmlns="http://www.w3.org/2000/svg">
<path d="M25.001 1L22.4965 1.27853C20.5322 1.49686 18.7007 2.37722 17.3032 3.77482L5.92188 15.1561L10.8425 20.0791L22.2261 8.69778C23.6242 7.30062 24.5046 5.46891 24.7224 3.50442L25.001 1Z" stroke="#54C5C1" stroke-width="1.5" stroke-linecap="round" stroke-linejoin="round"/>
<path d="M5.9198 15.1562L1.71636 13.7543C1.5756 13.7075 1.44914 13.6255 1.34901 13.5161C1.24889 13.4067 1.17844 13.2734 1.14435 13.1291C1.11027 12.9847 1.11369 12.834 1.1543 12.6914C1.1949 12.5487 1.27134 12.4188 1.37633 12.3141L1.64557 12.0448C2.55989 11.1303 3.71082 10.4885 4.96937 10.1913C6.22792 9.89407 7.54438 9.9532 8.77122 10.3621L10.2277 10.8472L5.9198 15.1562Z" stroke="#54C5C1" stroke-width="1.5" stroke-linecap="round" stroke-linejoin="round"/>
<path d="M10.8438 20.0792L12.2457 24.2826C12.2924 24.4234 12.3744 24.5498 12.4838 24.65C12.5933 24.7501 12.7265 24.8205 12.8709 24.8546C13.0152 24.8887 13.1659 24.8853 13.3086 24.8447C13.4512 24.8041 13.5811 24.7276 13.6859 24.6226L13.9563 24.3534C14.8706 23.439 15.5122 22.288 15.8092 21.0294C16.1062 19.7709 16.0469 18.4545 15.6379 17.2278L15.1551 15.7771L10.8438 20.0792Z" stroke="#54C5C1" stroke-width="1.5" stroke-linecap="round" stroke-linejoin="round"/>
<path d="M7.91559 20.6954C7.91603 21.0383 7.8487 21.378 7.71745 21.6949C7.5862 22.0117 7.39363 22.2995 7.1508 22.5418C6.13186 23.5607 1 25.0032 1 25.0032C1 25.0032 2.44254 19.8679 3.46148 18.8524C3.90909 18.4037 4.50485 18.1335 5.13728 18.0923" stroke="#54C5C1" stroke-width="1.5" stroke-linecap="round" stroke-linejoin="round"/>
</svg>
