<svg width="24" height="14" viewBox="0 0 24 14" fill="none" xmlns="http://www.w3.org/2000/svg">
<path d="M0.75 13.5C0.55 13.5 0.361 13.422 0.22 13.28C0.078 13.139 0 12.95 0 12.75C0 12.55 0.078 12.361 0.22 12.22L7.409 5.031C7.834 4.606 8.399 4.373 9.001 4.373C9.603 4.373 10.168 4.607 10.592 5.031L13.72 8.159C13.862 8.301 14.051 8.379 14.251 8.379C14.451 8.379 14.64 8.301 14.782 8.159L21.441 1.5H16.5C16.086 1.5 15.75 1.164 15.75 0.75C15.75 0.336 16.086 0 16.5 0H23.25C23.339 0 23.426 0.0159999 23.511 0.0479999C23.522 0.0519999 23.533 0.0559999 23.543 0.0599999C23.719 0.132 23.868 0.281 23.944 0.465C23.947 0.473 23.951 0.482 23.954 0.491C23.984 0.572 24 0.661 24 0.75V7.5C24 7.914 23.664 8.25 23.25 8.25C22.836 8.25 22.5 7.914 22.5 7.5V2.561L15.841 9.22C15.416 9.645 14.851 9.878 14.249 9.878C13.648 9.878 13.083 9.645 12.659 9.22L9.53 6.091C9.389 5.95 9.201 5.872 9 5.872C8.8 5.872 8.611 5.95 8.47 6.091L1.28 13.28C1.139 13.422 0.95 13.5 0.75 13.5Z" fill="#54C5C1"/>
</svg>
