<svg width="113" height="35" viewBox="0 0 113 35" fill="none" xmlns="http://www.w3.org/2000/svg">
<rect width="76" height="25" fill="#B6E5E5"/>
<path d="M84.7512 11.4142C73.9516 9.75276 62.6098 10.4305 51.6798 9.42677C42.993 8.629 34.3976 8.55228 25.6837 8.55228C21.5832 8.55228 11.3107 6.31761 9.46602 10.6987C8.20764 13.6874 8.19404 16.1985 8.19404 19.4436C8.19404 20.8493 7.35751 25.7515 8.35304 26.996C9.93138 28.9689 9.89119 29.8892 12.8845 30.5734C17.9408 31.7291 23.6119 32.0987 28.7842 32.1634C47.3536 32.3955 66.3748 32.8788 84.7512 32.8788C88.1062 32.8788 87.6131 24.2046 87.6131 21.4311C87.6131 19.4519 89.696 12.4557 87.6131 11.4142" stroke="#00254D" stroke-width="3" stroke-linecap="round"/>
<path d="M22.5039 22.1467C28.3933 18.0137 28.6553 18.897 34.8262 20.1592C36.8585 20.5749 38.7445 20.8303 40.8283 20.6759C42.1049 20.5814 48.4694 18.0786 48.9769 18.9667C51.1636 22.7934 55.7838 19.3642 58.954 19.3642C61.9088 19.3642 66.6186 19.6372 69.0106 21.4312" stroke="#00254D" stroke-width="3" stroke-linecap="round"/>
<path d="M102.639 28.5859C102.746 27.6762 104.63 11.4142 103.355 11.4142C102.24 11.4142 94.6925 16.0116 99.0617 13.2029C100.614 12.205 103.671 8.94772 105.819 11.0962C107.222 12.4991 109.695 15.5082 110.509 17.1381" stroke="#00254D" stroke-width="3" stroke-linecap="round"/>
</svg>
