<svg width="31" height="31" viewBox="0 0 31 31" fill="none" xmlns="http://www.w3.org/2000/svg">
<g clip-path="url(#clip0_485_67479)">
<path d="M3.62307 7.4525C-1.48289 12.5715 -1.15441 21.1747 4.36132 26.6707C9.87381 32.1667 18.4856 32.4722 23.5916 27.3532C28.6976 22.2342 34.2198 7.76776 28.7073 2.27175C23.1948 -3.22427 8.73229 2.3335 3.62633 7.4525H3.62307Z" fill="#F1A92B"/>
<path d="M23.0028 15.9876C22.7329 15.9876 22.515 15.7699 22.515 15.5001C22.515 15.2303 22.7329 15.0126 23.0028 15.0126H23.8256C23.5817 10.7971 20.2059 7.42345 15.9878 7.17969V8.00198C15.9878 8.27174 15.7699 8.4895 15.5 8.4895C15.23 8.4895 15.0121 8.27174 15.0121 8.00198V7.17969C10.794 7.42345 7.41823 10.7971 7.17432 15.0126H7.99712C8.26706 15.0126 8.48495 15.2303 8.48495 15.5001C8.48495 15.7699 8.26706 15.9876 7.99712 15.9876H7.17432C7.41823 20.2031 10.794 23.5767 15.0121 23.8205V22.9982C15.0121 22.7284 15.23 22.5107 15.5 22.5107C15.7699 22.5107 15.9878 22.7284 15.9878 22.9982V23.8205C20.2059 23.5767 23.5817 20.2031 23.8256 15.9876H23.0028ZM18.0594 12.6237L16.3423 15.1328C16.3911 15.2466 16.4203 15.3701 16.4203 15.5001C16.4203 16.0071 16.0073 16.4199 15.5 16.4199C14.9926 16.4199 14.5796 16.0071 14.5796 15.5001C14.5796 15.3701 14.6089 15.2466 14.6576 15.1328L11.8803 11.0864C11.7274 10.8654 11.7859 10.5599 12.0071 10.4071C12.2282 10.2543 12.5339 10.3128 12.6868 10.5338L15.4642 14.5835C15.4642 14.5835 15.4902 14.5803 15.5 14.5803C15.5097 14.5803 15.5227 14.5803 15.5357 14.5835L17.2529 12.0744C17.4057 11.8534 17.7082 11.7949 17.9294 11.9477C18.1505 12.1004 18.209 12.4027 18.0562 12.6237H18.0594Z" fill="white"/>
</g>
<defs>
<clipPath id="clip0_485_67479">
<rect width="31" height="31" fill="white"/>
</clipPath>
</defs>
</svg>
