<svg width="119" height="117" viewBox="0 0 119 117" fill="none" xmlns="http://www.w3.org/2000/svg">
<path d="M24.2432 67.2772C21.6124 91.7123 40.6273 113.838 66.716 116.695C92.8047 119.551 116.088 102.06 118.718 77.6251C121.349 53.1901 105.35 3.06625 79.2614 0.205561C53.1727 -2.65071 26.8739 42.8378 24.2432 67.2772V67.2772Z" fill="#54C3BF"/>
<path d="M72.6092 64.7354C73.3282 64.1223 73.4165 63.0371 72.8033 62.3137L71.0918 60.2979L68.4761 62.521L70.1876 64.5369C70.8007 65.2559 71.8858 65.3441 72.6092 64.731V64.7354Z" fill="#E5FFFF"/>
<path d="M55.353 87.3503C55.353 89.7235 57.2807 91.6511 59.6538 91.6511H85.7451C88.1183 91.6511 90.0459 89.7235 90.0459 87.3503V39.958H55.353V87.3503ZM70.8314 48.9477L75.0219 45.6174C76.7819 44.3205 79.2609 44.6955 80.5578 46.4555C81.8546 48.2155 81.4796 50.6945 79.7196 51.9914L75.2954 55.0041C74.6426 55.4849 73.8706 55.7363 73.0722 55.7363C72.8825 55.7363 72.6928 55.7231 72.4988 55.6966C71.5063 55.5467 70.6329 55.0173 70.033 54.2057C68.8023 52.5383 69.1596 50.1828 70.8314 48.9521V48.9477ZM65.4676 56.3362C67.135 54.9203 69.6316 55.1232 71.0476 56.7906L74.3603 60.9943C75.7012 62.5735 75.5115 64.951 73.9324 66.2963C73.2266 66.8962 72.3621 67.1918 71.5019 67.1918C70.4344 67.1918 69.3758 66.7419 68.6347 65.8685L65.0221 61.9206C63.6061 60.2532 63.809 57.7566 65.472 56.3406L65.4676 56.3362Z" fill="#E5FFFF"/>
<path d="M72.8032 53.6721C73.262 53.7427 73.7119 53.628 74.078 53.359L76.2086 51.793L74.1707 49.0273L72.0401 50.5932C71.2814 51.1578 71.1182 52.2342 71.6784 52.9929C71.9519 53.3634 72.3489 53.606 72.8032 53.6721V53.6721Z" fill="#E5FFFF"/>
<path d="M86.4132 30.3516H59.719C57.291 30.3516 55.3188 32.2455 55.3188 34.5719V37.6593H90.8134V34.5719C90.8134 32.2455 88.8412 30.3516 86.4132 30.3516Z" fill="#E5FFFF"/>
<path d="M79.6786 34.5274H70.6291C70.2445 34.5274 69.9341 34.0611 69.9341 33.4834C69.9341 32.9058 70.2445 32.4395 70.6291 32.4395H79.6786C80.0632 32.4395 80.3736 32.9058 80.3736 33.4834C80.3736 34.0611 80.0632 34.5274 79.6786 34.5274Z" fill="#54C3BF"/>
<path d="M84.9219 74.1983H61.2102C60.8386 74.1983 60.5386 73.9651 60.5386 73.6763C60.5386 73.3874 60.8386 73.1543 61.2102 73.1543H84.9219C85.2935 73.1543 85.5935 73.3874 85.5935 73.6763C85.5935 73.9651 85.2935 74.1983 84.9219 74.1983Z" fill="#54C3BF"/>
<path d="M84.9219 78.374H61.2102C60.8386 78.374 60.5386 78.1409 60.5386 77.8521C60.5386 77.5632 60.8386 77.3301 61.2102 77.3301H84.9219C85.2935 77.3301 85.5935 77.5632 85.5935 77.8521C85.5935 78.1409 85.2935 78.374 84.9219 78.374Z" fill="#54C3BF"/>
<path d="M84.9219 82.5498H61.2102C60.8386 82.5498 60.5386 82.3167 60.5386 82.0278C60.5386 81.739 60.8386 81.5059 61.2102 81.5059H84.9219C85.2935 81.5059 85.5935 81.739 85.5935 82.0278C85.5935 82.3167 85.2935 82.5498 84.9219 82.5498Z" fill="#54C3BF"/>
<path d="M66.2803 35.5713C67.1452 35.5713 67.8462 34.8702 67.8462 34.0054C67.8462 33.1405 67.1452 32.4395 66.2803 32.4395C65.4155 32.4395 64.7144 33.1405 64.7144 34.0054C64.7144 34.8702 65.4155 35.5713 66.2803 35.5713Z" fill="#54C3BF"/>
<circle cx="24" cy="50" r="24" fill="#3B9592"/>
<path d="M17.6591 44.964C17.7525 43.0973 18.4058 41.66 19.6191 40.652C20.8511 39.6253 22.4658 39.112 24.4631 39.112C25.8258 39.112 26.9925 39.3547 27.9631 39.84C28.9338 40.3067 29.6618 40.9507 30.1471 41.772C30.6511 42.5747 30.9031 43.4893 30.9031 44.516C30.9031 45.692 30.5951 46.6907 29.9791 47.512C29.3818 48.3147 28.6631 48.856 27.8231 49.136V49.248C28.9058 49.584 29.7458 50.1813 30.3431 51.04C30.9591 51.8987 31.2671 53 31.2671 54.344C31.2671 55.464 31.0058 56.4627 30.4831 57.34C29.9791 58.2173 29.2231 58.908 28.2151 59.412C27.2258 59.8973 26.0311 60.14 24.6311 60.14C22.5218 60.14 20.8045 59.608 19.4791 58.544C18.1538 57.48 17.4538 55.912 17.3791 53.84H21.1871C21.2245 54.7547 21.5325 55.492 22.1111 56.052C22.7085 56.5933 23.5205 56.864 24.5471 56.864C25.4991 56.864 26.2271 56.6027 26.7311 56.08C27.2538 55.5387 27.5151 54.848 27.5151 54.008C27.5151 52.888 27.1605 52.0853 26.4511 51.6C25.7418 51.1147 24.6405 50.872 23.1471 50.872H22.3351V47.652H23.1471C25.7978 47.652 27.1231 46.7653 27.1231 44.992C27.1231 44.1893 26.8805 43.564 26.3951 43.116C25.9285 42.668 25.2471 42.444 24.3511 42.444C23.4738 42.444 22.7925 42.6867 22.3071 43.172C21.8405 43.6387 21.5698 44.236 21.4951 44.964H17.6591Z" fill="white"/>
</svg>
