<svg width="39" height="41" viewBox="0 0 39 41" fill="none" xmlns="http://www.w3.org/2000/svg">
<ellipse cx="4.76056" cy="4.67546" rx="4.76056" ry="4.67534" fill="#F1A92B" fill-opacity="0.2"/>
<ellipse rx="4.76056" ry="4.67534" transform="matrix(1 0 0 -1 4.76056 21.8187)" fill="#F1A92B" fill-opacity="0.2"/>
<ellipse rx="4.76056" ry="4.67534" transform="matrix(1 0 0 -1 4.76056 35.3249)" fill="#F1A92B" fill-opacity="0.2"/>
<path d="M4.24887 4.47013C3.38297 5.75862 1.63932 8.49102 3.06828 10.0628C4.34026 11.4619 5.46323 11.9407 7.21771 12.6034C10.8189 13.9637 12.6866 10.1844 12.6866 7.38582C12.6866 5.32329 10.8088 3.821 8.93651 3.00376C6.16153 1.79251 3.60147 4.37163 2.68632 6.61854" stroke="#F1A92B" stroke-width="1.58685" stroke-linecap="round"/>
<path d="M17.687 7.23234C18.4752 6.48857 20.0876 4.47859 21.4371 5.28854C22.1228 5.70004 23.0186 7.37218 23.9719 7.16413C25.3185 6.87025 26.0121 5.14143 27.3574 4.81112C28.2716 4.58668 28.7702 5.99855 29.4061 6.43095C30.4064 7.11104 32.9959 6.61851 34.1806 6.61851C35.7849 6.61851 37.2557 6.69092 38.0001 8.15308" stroke="#F1A92B" stroke-width="1.58685" stroke-linecap="round"/>
<path d="M4.40432 19.8497C5.0439 18.5935 6.17158 18.3138 7.38682 18.2678C8.74794 16.9621 11.776 18.637 12.5296 19.9691C13.5571 21.7856 12.5371 24.8675 10.8108 25.7152C9.23957 26.4867 3.62305 27.4473 3.62305 24.4194C3.62305 22.8929 3.69316 21.2466 4.40432 19.8497Z" fill="#F1A92B" fill-opacity="0.2"/>
<path d="M9.24822 18.281C7.43875 18.281 5.36776 17.9574 4.40432 19.8497C3.69316 21.2466 3.62305 22.8929 3.62305 24.4194C3.62305 27.4473 9.23957 26.4867 10.8108 25.7152C12.5371 24.8675 13.5571 21.7856 12.5296 19.9691C11.7735 18.6325 8.72757 16.9509 7.37316 18.281" stroke="#F1A92B" stroke-width="1.58685" stroke-linecap="round"/>
<path d="M19.874 21.3505C20.5364 20.2268 21.0911 18.5275 22.6866 18.6394C24.3454 18.7558 24.2964 20.9593 25.4818 21.7597C26.4487 22.4126 27.5258 20.6409 28.1555 20.1569C29.4605 19.154 29.8511 20.2355 30.6209 21.2823C31.786 22.8667 33.1269 18.209 34.4925 20.7367C35.6272 22.8369 36.0437 20.0964 37.9996 20.7367" stroke="#F1A92B" stroke-width="1.58685" stroke-linecap="round"/>
<path d="M4.56072 33.8658C5.05914 32.6964 5.92496 32.1831 6.9441 31.9586C8.18629 30.5726 10.3113 30.6084 11.922 31.6151C12.6463 32.0677 14.3564 32.479 14.5437 33.4907C14.8284 35.0286 14.0076 36.1074 13.4672 37.4635C12.1218 40.8404 7.77821 40.0772 5.49824 38.299C4.16033 37.2556 3.91267 35.3862 4.56072 33.8658Z" fill="#F1A92B" fill-opacity="0.2"/>
<path d="M9.24836 31.7856C7.32519 31.7856 5.40983 31.8737 4.56072 33.8658C3.91267 35.3862 4.16033 37.2556 5.49824 38.299C7.77821 40.0772 12.1218 40.8404 13.4672 37.4635C14.0076 36.1074 14.8284 35.0286 14.5437 33.4907C14.3564 32.479 12.6463 32.0677 11.922 31.6151C10.0619 30.4526 7.51589 30.5848 6.43577 32.7063" stroke="#F1A92B" stroke-width="1.58685" stroke-linecap="round"/>
<path d="M22.0615 33.9337C22.938 33.3874 24.7384 31.8994 25.8116 32.8424C26.5185 33.4635 26.7708 34.456 27.4436 35.0931C28.9597 36.5289 31.1964 32.4057 31.5931 33.0982C32.7367 35.0949 31.9346 35.7657 34.2668 34.7351C35.6578 34.1203 36.555 34.9294 37.3745 33.3199" stroke="#F1A92B" stroke-width="1.58685" stroke-linecap="round"/>
</svg>
