<svg width="59" height="18" viewBox="0 0 59 18" fill="none" xmlns="http://www.w3.org/2000/svg">
<rect y="0.00012207" width="39.7932" height="13.0899" fill="#F1A92B" fill-opacity="0.2"/>
<path d="M44.3753 5.97669C38.7207 5.10675 32.7821 5.46163 27.0592 4.93606C22.5109 4.51835 18.0104 4.47819 13.4478 4.47819C11.3008 4.47819 5.9222 3.30812 4.95633 5.60206C4.29745 7.1669 4.29033 8.48171 4.29033 10.1808C4.29033 10.9168 3.85232 13.4836 4.37358 14.1352C5.19999 15.1682 5.17894 15.6501 6.7462 16.0083C9.39369 16.6135 12.363 16.807 15.0712 16.8408C24.7941 16.9624 34.7535 17.2155 44.3753 17.2155C46.132 17.2155 45.8738 12.6736 45.8738 11.2214C45.8738 10.1852 46.9643 6.52197 45.8738 5.97669" stroke="#F1A92B" stroke-width="1.57079" stroke-linecap="round"/>
<path d="M11.7832 11.5961C14.8669 9.43211 15.004 9.89457 18.2351 10.5555C19.2992 10.7731 20.2867 10.9068 21.3778 10.826C22.0462 10.7765 25.3786 9.46605 25.6443 9.93109C26.7893 11.9347 29.2084 10.1392 30.8683 10.1392C32.4154 10.1392 34.8814 10.2821 36.1339 11.2215" stroke="#F1A92B" stroke-width="1.57079" stroke-linecap="round"/>
<path d="M53.7414 14.9676C53.7975 14.4913 54.7838 5.97655 54.1161 5.97655C53.5323 5.97655 49.5807 8.38375 51.8683 6.91311C52.6811 6.39064 54.2815 4.68512 55.4065 5.81005C56.141 6.5446 57.4356 8.12016 57.8623 8.97355" stroke="#F1A92B" stroke-width="1.57079" stroke-linecap="round"/>
</svg>
