<svg width="39" height="38" viewBox="0 0 39 38" fill="none" xmlns="http://www.w3.org/2000/svg">
<path d="M1 33.9882C5.29508 33.9882 9.56231 34.4536 13.8585 34.5013C19.8702 34.5681 25.8694 34.2521 31.878 34.2521" stroke="#F1A92B" stroke-width="1.22854" stroke-linecap="round"/>
<path d="M1.26367 7.33285C7.72132 6.82636 14.2009 6.70784 20.6761 6.86366C24.9448 6.96639 29.1952 7.59676 33.4613 7.59676" stroke="#F1A92B" stroke-width="1.22854" stroke-linecap="round"/>
<path d="M9.44536 8.91607C4.64815 8.81817 4.40442 2.11918 8.91753 1.05728C11.3981 0.473608 11.5567 4.51173 11.5567 6.27692" stroke="#F1A92B" stroke-width="1.22854" stroke-linecap="round"/>
<path d="M25.808 8.91623C23.4578 8.85891 22.9589 7.4228 22.5091 5.35338C22.1123 3.52821 23.1876 2.28663 24.7523 1.52662C25.4008 1.21166 26.0109 1.2627 26.717 1.2627C27.5956 1.2627 27.2604 2.12082 27.5234 2.69957C27.9373 3.60997 27.8375 5.91279 27.3915 6.80491" stroke="#F1A92B" stroke-width="1.22854" stroke-linecap="round"/>
<path d="M2.84766 12.3472C9.70024 12.6121 16.5337 12.6762 23.389 12.4792C26.3646 12.3937 29.341 12.3092 32.3181 12.3619C33.0558 12.375 35.1773 12.2812 34.5174 12.6112" stroke="#F1A92B" stroke-width="1.22854" stroke-linecap="round"/>
<rect x="8.59277" y="12.3243" width="30.4071" height="25.3393" fill="#F1A92B" fill-opacity="0.2"/>
<path d="M2.05566 8.12463V32.9326" stroke="#F1A92B" stroke-width="1.22854" stroke-linecap="round"/>
<path d="M34.5178 7.33264C34.5178 15.7782 34.2539 24.2318 34.2539 32.6685" stroke="#F1A92B" stroke-width="1.22854" stroke-linecap="round"/>
<path d="M7.33398 12.3473C7.66079 19.823 7.5979 27.299 7.5979 34.7801" stroke="#F1A92B" stroke-width="1.22854" stroke-linecap="round"/>
<path d="M13.9317 13.6666C13.9317 20.5243 13.7242 27.416 14.1956 34.252" stroke="#F1A92B" stroke-width="1.22854" stroke-linecap="round"/>
<path d="M21.5852 12.8746C21.5852 19.3936 21.5539 25.8907 21.3213 32.4043" stroke="#F1A92B" stroke-width="1.22854" stroke-linecap="round"/>
<path d="M28.1833 12.3473C28.1833 19.4877 27.3916 26.599 27.3916 33.7244" stroke="#F1A92B" stroke-width="1.22854" stroke-linecap="round"/>
</svg>
