<svg width="39" height="38" viewBox="0 0 39 38" fill="none" xmlns="http://www.w3.org/2000/svg">
<path d="M26.1656 4.97803L9.66455 11.9044L22.9062 37.1653L38.9998 30.8501L26.1656 4.97803Z" fill="#F1A92B" fill-opacity="0.2"/>
<path d="M1 8.26017C5.80964 6.73241 10.7654 5.76802 15.526 4.04611C16.9554 3.52909 18.2931 2.86374 19.6856 2.27119C20.1082 2.09139 19.791 2.26629 19.6203 2.38008" stroke="#F1A92B" stroke-width="1.22859" stroke-linecap="round"/>
<path d="M1.19629 8.65186C5.66498 14.681 8.17452 22.0561 11.8893 28.5571C13.0389 30.5687 14.2756 32.5178 15.5045 34.4807C15.8089 34.9669 16.1102 35.7062 16.6805 35.8963" stroke="#F1A92B" stroke-width="1.22859" stroke-linecap="round"/>
<path d="M16.8765 35.8966C20.7927 34.6366 24.3055 32.6434 28.0051 30.8877C29.3068 30.2699 30.6731 29.2325 32.1647 29.2325" stroke="#F1A92B" stroke-width="1.22859" stroke-linecap="round"/>
<path d="M19.4238 1.40015C21.9011 4.40536 23.3563 8.17621 25.0861 11.6359C26.8564 15.1763 28.6797 18.6831 30.3891 22.2527C31.2604 24.0722 31.8906 26.0191 33.34 27.4686" stroke="#F1A92B" stroke-width="1.22859" stroke-linecap="round"/>
<path d="M7.07617 11.2001C7.47455 12.1609 7.8629 13.2431 8.45908 11.8644C8.60967 11.5162 9.77405 9.19395 10.0162 9.43612" stroke="#F1A92B" stroke-width="1.22859" stroke-linecap="round"/>
<path d="M11.584 20.8041C12.5613 21.1616 12.6991 21.1083 12.9996 20.129C13.278 19.2214 13.5533 18.3331 13.936 17.472" stroke="#F1A92B" stroke-width="1.22859" stroke-linecap="round"/>
<path d="M16.0923 29.0366C16.2034 29.1832 17.3943 30.8878 17.6603 30.4739C18.4146 29.3006 18.2142 27.7158 19.0323 26.4885" stroke="#F1A92B" stroke-width="1.22859" stroke-linecap="round"/>
<path d="M13.5439 9.63199C14.6223 9.01757 15.7223 8.49659 16.876 8.06396" stroke="#F1A92B" stroke-width="1.22859" stroke-linecap="round"/>
<path d="M17.0723 15.5122L20.0123 14.3362" stroke="#F1A92B" stroke-width="1.22859" stroke-linecap="round"/>
<path d="M22.5601 27.0765C23.9285 26.2857 25.3003 25.5021 26.6761 24.7245" stroke="#F1A92B" stroke-width="1.22859" stroke-linecap="round"/>
<path d="M7.66406 6.10407C7.4279 4.94952 6.91555 3.45122 7.55517 2.33645C8.14877 1.3019 9.28595 0.770232 10.4517 1.0951C11.8937 1.49699 13.2736 2.94027 13.7402 4.34004" stroke="#F1A92B" stroke-width="1.22859" stroke-linecap="round"/>
</svg>
