<svg width="199" height="69" viewBox="0 0 199 69" fill="none" xmlns="http://www.w3.org/2000/svg">
<path d="M196.773 17.0901C197.085 17.217 197.44 17.0676 197.567 16.7564C197.694 16.4451 197.544 16.0899 197.233 15.963L196.773 17.0901ZM119.19 61.5364L119.448 62.0875L119.449 62.0874L119.19 61.5364ZM88.6406 9.30643L88.4613 9.88802L88.4614 9.88805L88.6406 9.30643ZM0.425259 67.3005C0.315009 67.618 0.483035 67.9648 0.800555 68.075C1.11807 68.1853 1.46485 68.0173 1.5751 67.6997L0.425259 67.3005ZM196.122 5.37436C196.053 5.04534 195.731 4.8343 195.402 4.903C195.073 4.97169 194.862 5.29411 194.931 5.62313L196.122 5.37436ZM197.937 17.0457L198.196 17.5964C198.451 17.4765 198.591 17.1972 198.533 16.9213L197.937 17.0457ZM186.608 21.9632C186.319 22.1352 186.225 22.5087 186.396 22.7975C186.568 23.0863 186.942 23.1811 187.231 23.0091L186.608 21.9632ZM197.003 16.5266C197.233 15.963 197.233 15.9629 197.232 15.9626C197.231 15.9623 197.23 15.962 197.229 15.9615C197.227 15.9605 197.223 15.9591 197.219 15.9572C197.209 15.9534 197.196 15.9478 197.177 15.9405C197.141 15.9259 197.087 15.9042 197.016 15.8758C196.874 15.819 196.664 15.7354 196.388 15.6275C195.837 15.4117 195.026 15.0988 193.983 14.7094C191.899 13.9305 188.888 12.8456 185.182 11.6194C177.77 9.16742 167.569 6.1486 156.418 3.88448C145.271 1.62111 133.152 0.107237 121.91 0.677891C110.676 1.24816 100.251 3.90366 92.5598 10.0439L93.3192 10.9951C100.729 5.07912 110.863 2.45743 121.972 1.89351C133.074 1.32997 145.083 2.82488 156.176 5.07733C167.266 7.32902 177.418 10.333 184.799 12.775C188.489 13.9957 191.485 15.0754 193.557 15.8496C194.594 16.2366 195.399 16.5473 195.944 16.7609C196.217 16.8677 196.425 16.9503 196.564 17.006C196.634 17.0339 196.687 17.055 196.722 17.0691C196.739 17.0762 196.752 17.0815 196.761 17.085C196.765 17.0868 196.768 17.0881 196.77 17.0889C196.771 17.0893 196.772 17.0896 196.773 17.0899C196.773 17.09 196.773 17.0901 197.003 16.5266ZM92.5598 10.0439C84.892 16.1655 81.7388 22.9558 81.6435 29.6136C81.5486 36.2453 84.4891 42.6422 88.8047 48.0089C93.1221 53.378 98.854 57.7655 104.441 60.384C109.991 62.9855 115.556 63.9107 119.448 62.0875L118.932 60.9852C115.544 62.572 110.413 61.8392 104.957 59.2819C99.5375 56.7416 93.9537 52.4698 89.7532 47.2462C85.5508 42.0202 82.771 35.8911 82.8606 29.631C82.9498 23.397 85.8858 16.9296 93.3192 10.9951L92.5598 10.0439ZM119.449 62.0874C123.397 60.2366 124.908 56.2977 124.662 51.5429C124.417 46.7969 122.429 41.1059 119.229 35.4365C112.833 24.1053 101.45 12.6159 88.8198 8.72482L88.4614 9.88805C100.698 13.6579 111.868 24.872 118.169 36.0348C121.317 41.6124 123.214 47.1161 123.447 51.6058C123.679 56.0867 122.261 59.4247 118.932 60.9853L119.449 62.0874ZM88.8199 8.72484C82.4533 6.76239 74.5224 7.21653 66.0576 9.51675C57.5833 11.8196 48.5208 15.9866 39.8583 21.5168C22.5471 32.5684 6.73481 49.129 0.425259 67.3005L1.5751 67.6997C7.76554 49.8713 23.344 33.5037 40.5133 22.5428C49.091 17.0667 58.0412 12.9565 66.3768 10.6913C74.722 8.42362 82.3985 8.01919 88.4613 9.88802L88.8199 8.72484ZM194.931 5.62313L197.341 17.1701L198.533 16.9213L196.122 5.37436L194.931 5.62313ZM197.937 17.0457C197.678 16.4949 197.678 16.4949 197.678 16.495C197.678 16.495 197.678 16.4951 197.678 16.4951C197.678 16.4953 197.677 16.4954 197.677 16.4957C197.675 16.4962 197.674 16.497 197.672 16.498C197.667 16.5001 197.661 16.5031 197.652 16.5071C197.635 16.5151 197.61 16.527 197.577 16.5426C197.511 16.5738 197.414 16.6196 197.289 16.6783C197.041 16.7958 196.683 16.9649 196.247 17.1717C195.376 17.5853 194.193 18.1499 192.944 18.7533C190.461 19.9532 187.677 21.3268 186.608 21.9632L187.231 23.0091C188.243 22.4064 190.968 21.0598 193.474 19.8492C194.719 19.2474 195.9 18.6841 196.769 18.2713C197.204 18.0649 197.561 17.8961 197.809 17.7789C197.933 17.7204 198.03 17.6747 198.096 17.6437C198.129 17.6282 198.154 17.6164 198.171 17.6084C198.179 17.6045 198.185 17.6014 198.19 17.5994C198.192 17.5984 198.193 17.5977 198.195 17.5972C198.195 17.5969 198.195 17.5967 198.196 17.5966C198.196 17.5966 198.196 17.5965 198.196 17.5965C198.196 17.5964 198.196 17.5964 197.937 17.0457Z" fill="#F1A92B" fill-opacity="0.75"/>
</svg>
