<svg width="86" height="100" viewBox="0 0 86 100" fill="none" xmlns="http://www.w3.org/2000/svg">
<path d="M3.5933 41.6773C-5.714 61.2922 3.68224 85.4082 24.586 95.536C45.4897 105.664 69.9779 97.9742 79.2891 78.3594C88.5964 58.7446 89.8685 12.1536 68.9648 2.02576C48.0611 -8.10595 12.9045 22.0625 3.5933 41.6773Z" fill="#54C3BF"/>
<path d="M58.7451 57.6734C70.674 35.9955 68.3694 19.7996 67.5149 15.779C67.4028 15.2437 66.8537 14.935 66.3433 15.1225C62.5113 16.5135 47.6784 23.0779 35.7494 44.7557C34.0364 47.8699 32.6212 50.9762 31.465 53.9887C25.0617 52.84 18.8942 57.0638 17.6182 63.5422C17.5099 64.0853 17.4442 64.6245 17.4132 65.1637C17.3591 66.0585 18.1672 66.7462 19.0179 66.5039C21.4772 65.8084 25.4136 64.773 28.6616 63.8C28.6036 64.5971 28.9748 65.3669 29.6786 65.7615L30.4636 66.2031L27.9656 67.7894C27.2116 68.2661 27.2425 69.3875 28.0198 69.8252L41.5805 77.4445C42.3577 77.8821 43.3167 77.3155 43.3205 76.4168L43.336 73.4355L44.2834 73.9669C45.0065 74.3733 45.8765 74.2756 46.5222 73.7677C47.4193 77.0654 48.6257 80.9884 49.3334 83.4617C49.5808 84.3214 50.5862 84.6496 51.3093 84.1338C51.7424 83.8251 52.1638 83.4813 52.5621 83.1023C57.3337 78.5893 57.6314 71.0638 53.2852 66.1718C55.1954 63.6086 57.0398 60.7602 58.7412 57.6695L58.7451 57.6734Z" fill="#E5FFFF"/>
<path d="M56.4598 40.075C55.5473 40.075 54.6502 39.8406 53.8304 39.3795C52.5621 38.6684 51.6457 37.5001 51.2474 36.0895C50.8492 34.679 51.0193 33.1981 51.7231 31.9204C53.177 29.279 56.4869 28.3217 59.1047 29.7909C61.7186 31.2601 62.666 34.6086 61.2121 37.25C60.5083 38.5316 59.3522 39.4576 57.9563 39.8601C57.4613 40.0047 56.9586 40.075 56.4598 40.075Z" fill="#54C3BF"/>
</svg>
