<svg width="101" height="87" viewBox="0 0 101 87" fill="none" xmlns="http://www.w3.org/2000/svg">
<path d="M78.1039 81.4929C98.1086 72.6286 106.615 47.9088 97.1072 26.2803C87.5997 4.65192 63.6796 -5.69107 43.6748 3.17323C23.6701 12.0375 -7.75867 46.9151 1.74889 68.5435C11.2565 90.1719 58.0991 90.3572 78.1039 81.4929V81.4929Z" fill="#54C3BF"/>
<path d="M81.8667 50.4466L76.8603 39.148C78.8031 38.0857 79.571 35.2975 77.6204 31.1631C75.6698 27.0288 73.2578 25.6174 71.1676 26.3039L66.5645 15.9143C66.2233 15.1434 65.312 14.7905 64.5325 15.128C64.1602 15.2891 63.8732 15.5806 63.722 15.9526C62.6517 18.6104 57.56 29.8937 46.4615 34.703C39.0431 37.9169 38 38.3733 38 38.3733L45.8101 56C45.8101 56 46.8571 55.5474 54.2716 52.3297C65.3701 47.5165 77.2093 51.4591 79.9122 52.4831C80.2883 52.625 80.7033 52.6135 81.0755 52.4524C81.855 52.1149 82.2118 51.2137 81.8705 50.4428L81.8667 50.4466Z" fill="#E5FFFF"/>
<path d="M48.6712 70.3098C48.3619 70.1861 48.0374 70.1514 47.7128 70.1977C47.1668 69.4286 45.8762 66.9937 44.3794 64.0139C45.3684 63.8129 46.6972 63.3722 47.0255 62.4331C47.1592 62.0543 47.1859 61.4591 46.5559 60.7943C45.4791 59.658 44.7002 58.2821 44.284 57.4782L45.9182 56.7516L38.1938 39C38.1938 39 26.4181 44.3182 23.4322 45.5511C20.8739 46.6062 19.8125 49.0914 20.305 51.5069C18.8923 52.5582 18.5639 55.1129 19.6292 57.5787C20.7976 60.2803 23.1917 61.8302 24.9863 61.0572C25.8989 62.4717 27.4376 63.2911 29.0451 63.2911C29.5912 63.2911 30.1371 63.1906 30.6755 62.9974L39.3126 77L50 71.9756L49.7136 71.3147C49.5113 70.8509 49.1447 70.4914 48.675 70.3059L48.6712 70.3098Z" fill="#E5FFFF"/>
<path d="M26.1704 59.225L22.3389 51.6616C21.9171 50.6542 21.8897 49.5909 22.253 48.6674C22.6006 47.7839 23.284 47.1123 24.2292 46.7166C26.5062 45.7652 33.97 42.3752 36.993 41L43 55.0316L30.3143 60.7241C29.9042 60.908 29.4707 61 29.0254 61C27.8186 61 26.725 60.3204 26.1704 59.2211V59.225Z" fill="#54C3BF"/>
<path d="M40.243 74L33 62.3316L40.554 59C44.9123 68.0837 46.2963 70.3908 47 70.8444L40.2469 74H40.243Z" fill="#54C3BF"/>
</svg>
