<svg width="114" height="96" viewBox="0 0 114 96" fill="none" xmlns="http://www.w3.org/2000/svg">
<path d="M85.0624 92.3417C108.115 84.3012 119.795 57.6283 111.149 32.7645C102.503 7.90079 76.8068 -5.73429 53.7542 2.31064C30.7016 10.3512 -7.38905 46.2415 1.25238 71.1008C9.89819 95.9646 62.0098 100.382 85.058 92.3417H85.0624Z" fill="#54C3BF"/>
<path d="M83.7115 26H30.4914C28.6752 26 27.2073 27.4765 27.2073 29.2935L27.0001 63.9089C26.9912 65.0628 27.9214 66 29.0719 66H84.7209C85.8627 66 86.7884 65.076 86.7928 63.9354L87 29.2935C87 27.4721 85.5277 26 83.7159 26H83.7115Z" fill="#E5FFFF"/>
<path d="M95.0528 72.9956H18.9472C17.8723 72.9956 17 71.9835 17 70.7673V71.7749C17 70.5498 17.4273 69.5022 18.0089 69.2891L25.7053 66.4749C26.5732 66.1598 27.4543 66 28.3354 66H85.4707C86.3342 66 87.1933 66.1509 88.0436 66.4572L95.9867 69.298C96.5727 69.5066 97 70.5586 97 71.7837V70.7717C97 72.2454 96.1277 73 95.0528 73V72.9956Z" fill="#E5FFFF"/>
<path d="M83.3762 29.0044C83.7193 29.0044 83.9955 29.2795 84 29.6211L83.7995 62.3035C83.7995 62.6895 83.4832 63 83.0956 63H30.704C30.3119 63 30 62.685 30 62.2946L30.2005 29.6389V29.6211C30.2005 29.2795 30.4812 29 30.8243 29H83.3762" fill="#54C3BF"/>
</svg>
