<svg width="86" height="105" viewBox="0 0 86 105" fill="none" xmlns="http://www.w3.org/2000/svg">
<g clip-path="url(#clip0_2217_23482)">
<path d="M0.371895 67.339C1.41809 89.0133 21.4236 105.515 45.0558 104.195C68.6881 102.875 86.9931 84.2316 85.9461 62.5574C84.8991 40.8795 63.6928 -0.460271 40.0656 0.862029C16.4333 2.18184 -0.671804 45.6599 0.375696 67.3378L0.371895 67.339Z" fill="#54C5C1"/>
<path d="M63.9429 54C63.9429 65.2902 54.5728 74.5 42.9429 74.5C31.3129 74.5 21.9429 65.2902 21.9429 54C21.9429 42.7098 31.3129 33.5 42.9429 33.5C54.5728 33.5 63.9429 42.7098 63.9429 54Z" stroke="#E5FFFF" stroke-width="3"/>
<path d="M46.4608 53.4818C47.2868 53.6358 47.9658 54.0488 48.4978 54.7208C49.0298 55.3928 49.2958 56.1628 49.2958 57.0308C49.2958 57.8148 49.0998 58.5078 48.7078 59.1098C48.3298 59.6978 47.7768 60.1598 47.0488 60.4958C46.3208 60.8318 45.4598 60.9998 44.4658 60.9998H38.1448V46.3418H44.1928C45.1868 46.3418 46.0408 46.5028 46.7548 46.8248C47.4828 47.1468 48.0288 47.5948 48.3928 48.1688C48.7708 48.7428 48.9598 49.3938 48.9598 50.1218C48.9598 50.9758 48.7288 51.6898 48.2668 52.2638C47.8188 52.8378 47.2168 53.2438 46.4608 53.4818ZM41.0848 52.3898H43.7728C44.4728 52.3898 45.0118 52.2358 45.3898 51.9278C45.7678 51.6058 45.9568 51.1508 45.9568 50.5628C45.9568 49.9748 45.7678 49.5198 45.3898 49.1978C45.0118 48.8758 44.4728 48.7148 43.7728 48.7148H41.0848V52.3898ZM44.0458 58.6058C44.7598 58.6058 45.3128 58.4378 45.7048 58.1018C46.1108 57.7658 46.3138 57.2898 46.3138 56.6738C46.3138 56.0438 46.1038 55.5538 45.6838 55.2038C45.2638 54.8398 44.6968 54.6578 43.9828 54.6578H41.0848V58.6058H44.0458Z" fill="#E5FFFF"/>
<path d="M25.2307 24.2C25.2307 23.6507 25.3534 23.16 25.5987 22.728C25.8494 22.2907 26.188 21.952 26.6147 21.712C27.0467 21.4667 27.5294 21.344 28.0627 21.344C28.6867 21.344 29.2334 21.504 29.7027 21.824C30.172 22.144 30.5 22.5867 30.6867 23.152H29.3987C29.2707 22.8853 29.0894 22.6853 28.8547 22.552C28.6254 22.4187 28.3587 22.352 28.0547 22.352C27.7294 22.352 27.4387 22.4293 27.1827 22.584C26.932 22.7333 26.7347 22.9467 26.5907 23.224C26.452 23.5013 26.3827 23.8267 26.3827 24.2C26.3827 24.568 26.452 24.8933 26.5907 25.176C26.7347 25.4533 26.932 25.6693 27.1827 25.824C27.4387 25.9733 27.7294 26.048 28.0547 26.048C28.3587 26.048 28.6254 25.9813 28.8547 25.848C29.0894 25.7093 29.2707 25.5067 29.3987 25.24H30.6867C30.5 25.8107 30.172 26.256 29.7027 26.576C29.2387 26.8907 28.692 27.048 28.0627 27.048C27.5294 27.048 27.0467 26.928 26.6147 26.688C26.188 26.4427 25.8494 26.104 25.5987 25.672C25.3534 25.24 25.2307 24.7493 25.2307 24.2ZM35.7633 24.688C35.7633 24.848 35.7526 24.992 35.7313 25.12H32.4913C32.518 25.44 32.63 25.6907 32.8273 25.872C33.0246 26.0533 33.2673 26.144 33.5553 26.144C33.9713 26.144 34.2673 25.9653 34.4433 25.608H35.6513C35.5233 26.0347 35.278 26.3867 34.9153 26.664C34.5526 26.936 34.1073 27.072 33.5793 27.072C33.1526 27.072 32.7686 26.9787 32.4273 26.792C32.0913 26.6 31.8273 26.3307 31.6353 25.984C31.4486 25.6373 31.3553 25.2373 31.3553 24.784C31.3553 24.3253 31.4486 23.9227 31.6353 23.576C31.822 23.2293 32.0833 22.9627 32.4193 22.776C32.7553 22.5893 33.142 22.496 33.5793 22.496C34.0006 22.496 34.3766 22.5867 34.7073 22.768C35.0433 22.9493 35.302 23.208 35.4833 23.544C35.67 23.8747 35.7633 24.256 35.7633 24.688ZM34.6033 24.368C34.598 24.08 34.494 23.8507 34.2913 23.68C34.0886 23.504 33.8406 23.416 33.5473 23.416C33.27 23.416 33.0353 23.5013 32.8433 23.672C32.6566 23.8373 32.542 24.0693 32.4993 24.368H34.6033ZM37.7008 23.256C37.8448 23.0213 38.0315 22.8373 38.2608 22.704C38.4955 22.5707 38.7621 22.504 39.0608 22.504V23.68H38.7648C38.4128 23.68 38.1461 23.7627 37.9648 23.928C37.7888 24.0933 37.7008 24.3813 37.7008 24.792V27H36.5808V22.568H37.7008V23.256ZM41.1192 23.488V25.632C41.1192 25.7813 41.1539 25.8907 41.2232 25.96C41.2979 26.024 41.4205 26.056 41.5912 26.056H42.1112V27H41.4072C40.4632 27 39.9912 26.5413 39.9912 25.624V23.488H39.4632V22.568H39.9912V21.472H41.1192V22.568H42.1112V23.488H41.1192ZM43.4847 22.04C43.2874 22.04 43.1221 21.9787 42.9887 21.856C42.8607 21.728 42.7967 21.5707 42.7967 21.384C42.7967 21.1973 42.8607 21.0427 42.9887 20.92C43.1221 20.792 43.2874 20.728 43.4847 20.728C43.6821 20.728 43.8447 20.792 43.9727 20.92C44.1061 21.0427 44.1727 21.1973 44.1727 21.384C44.1727 21.5707 44.1061 21.728 43.9727 21.856C43.8447 21.9787 43.6821 22.04 43.4847 22.04ZM44.0367 22.568V27H42.9167V22.568H44.0367ZM47.1753 23.488H46.3993V27H45.2633V23.488H44.7593V22.568H45.2633V22.344C45.2633 21.8 45.418 21.4 45.7273 21.144C46.0366 20.888 46.5033 20.768 47.1273 20.784V21.728C46.8553 21.7227 46.666 21.768 46.5593 21.864C46.4526 21.96 46.3993 22.1333 46.3993 22.384V22.568H47.1753V23.488ZM48.4691 22.04C48.2718 22.04 48.1065 21.9787 47.9731 21.856C47.8451 21.728 47.7811 21.5707 47.7811 21.384C47.7811 21.1973 47.8451 21.0427 47.9731 20.92C48.1065 20.792 48.2718 20.728 48.4691 20.728C48.6665 20.728 48.8291 20.792 48.9571 20.92C49.0905 21.0427 49.1571 21.1973 49.1571 21.384C49.1571 21.5707 49.0905 21.728 48.9571 21.856C48.8291 21.9787 48.6665 22.04 48.4691 22.04ZM49.0211 22.568V27H47.9011V22.568H49.0211ZM54.2477 24.688C54.2477 24.848 54.237 24.992 54.2157 25.12H50.9757C51.0024 25.44 51.1144 25.6907 51.3117 25.872C51.509 26.0533 51.7517 26.144 52.0397 26.144C52.4557 26.144 52.7517 25.9653 52.9277 25.608H54.1357C54.0077 26.0347 53.7624 26.3867 53.3997 26.664C53.037 26.936 52.5917 27.072 52.0637 27.072C51.637 27.072 51.253 26.9787 50.9117 26.792C50.5757 26.6 50.3117 26.3307 50.1197 25.984C49.933 25.6373 49.8397 25.2373 49.8397 24.784C49.8397 24.3253 49.933 23.9227 50.1197 23.576C50.3064 23.2293 50.5677 22.9627 50.9037 22.776C51.2397 22.5893 51.6264 22.496 52.0637 22.496C52.485 22.496 52.861 22.5867 53.1917 22.768C53.5277 22.9493 53.7864 23.208 53.9677 23.544C54.1544 23.8747 54.2477 24.256 54.2477 24.688ZM53.0877 24.368C53.0824 24.08 52.9784 23.8507 52.7757 23.68C52.573 23.504 52.325 23.416 52.0317 23.416C51.7544 23.416 51.5197 23.5013 51.3277 23.672C51.141 23.8373 51.0264 24.0693 50.9837 24.368H53.0877ZM54.7772 24.768C54.7772 24.32 54.8652 23.9227 55.0412 23.576C55.2225 23.2293 55.4679 22.9627 55.7772 22.776C56.0865 22.5893 56.4305 22.496 56.8092 22.496C57.0972 22.496 57.3719 22.56 57.6332 22.688C57.8945 22.8107 58.1025 22.976 58.2572 23.184V21.08H59.3932V27H58.2572V26.344C58.1185 26.5627 57.9239 26.7387 57.6732 26.872C57.4225 27.0053 57.1319 27.072 56.8012 27.072C56.4279 27.072 56.0865 26.976 55.7772 26.784C55.4679 26.592 55.2225 26.3227 55.0412 25.976C54.8652 25.624 54.7772 25.2213 54.7772 24.768ZM58.2652 24.784C58.2652 24.512 58.2119 24.28 58.1052 24.088C57.9985 23.8907 57.8545 23.7413 57.6732 23.64C57.4919 23.5333 57.2972 23.48 57.0892 23.48C56.8812 23.48 56.6892 23.5307 56.5132 23.632C56.3372 23.7333 56.1932 23.8827 56.0812 24.08C55.9745 24.272 55.9212 24.5013 55.9212 24.768C55.9212 25.0347 55.9745 25.2693 56.0812 25.472C56.1932 25.6693 56.3372 25.8213 56.5132 25.928C56.6945 26.0347 56.8865 26.088 57.0892 26.088C57.2972 26.088 57.4919 26.0373 57.6732 25.936C57.8545 25.8293 57.9985 25.68 58.1052 25.488C58.2119 25.2907 58.2652 25.056 58.2652 24.784Z" fill="#E5FFFF"/>
<path d="M18.5354 84.2C18.5354 83.6507 18.658 83.16 18.9034 82.728C19.154 82.2907 19.4927 81.952 19.9194 81.712C20.3514 81.4667 20.834 81.344 21.3674 81.344C21.9914 81.344 22.538 81.504 23.0074 81.824C23.4767 82.144 23.8047 82.5867 23.9914 83.152H22.7034C22.5754 82.8853 22.394 82.6853 22.1594 82.552C21.93 82.4187 21.6634 82.352 21.3594 82.352C21.034 82.352 20.7434 82.4293 20.4874 82.584C20.2367 82.7333 20.0394 82.9467 19.8954 83.224C19.7567 83.5013 19.6874 83.8267 19.6874 84.2C19.6874 84.568 19.7567 84.8933 19.8954 85.176C20.0394 85.4533 20.2367 85.6693 20.4874 85.824C20.7434 85.9733 21.034 86.048 21.3594 86.048C21.6634 86.048 21.93 85.9813 22.1594 85.848C22.394 85.7093 22.5754 85.5067 22.7034 85.24H23.9914C23.8047 85.8107 23.4767 86.256 23.0074 86.576C22.5434 86.8907 21.9967 87.048 21.3674 87.048C20.834 87.048 20.3514 86.928 19.9194 86.688C19.4927 86.4427 19.154 86.104 18.9034 85.672C18.658 85.24 18.5354 84.7493 18.5354 84.2ZM26.916 87.072C26.4893 87.072 26.1053 86.9787 25.764 86.792C25.4227 86.6 25.1533 86.3307 24.956 85.984C24.764 85.6373 24.668 85.2373 24.668 84.784C24.668 84.3307 24.7667 83.9307 24.964 83.584C25.1667 83.2373 25.4413 82.9707 25.788 82.784C26.1347 82.592 26.5213 82.496 26.948 82.496C27.3747 82.496 27.7613 82.592 28.108 82.784C28.4547 82.9707 28.7267 83.2373 28.924 83.584C29.1267 83.9307 29.228 84.3307 29.228 84.784C29.228 85.2373 29.124 85.6373 28.916 85.984C28.7133 86.3307 28.436 86.6 28.084 86.792C27.7373 86.9787 27.348 87.072 26.916 87.072ZM26.916 86.096C27.1187 86.096 27.308 86.048 27.484 85.952C27.6653 85.8507 27.8093 85.7013 27.916 85.504C28.0227 85.3067 28.076 85.0667 28.076 84.784C28.076 84.3627 27.964 84.04 27.74 83.816C27.5213 83.5867 27.252 83.472 26.932 83.472C26.612 83.472 26.3427 83.5867 26.124 83.816C25.9107 84.04 25.804 84.3627 25.804 84.784C25.804 85.2053 25.908 85.5307 26.116 85.76C26.3293 85.984 26.596 86.096 26.916 86.096ZM31.1696 83.256C31.3136 83.0213 31.5002 82.8373 31.7296 82.704C31.9642 82.5707 32.2309 82.504 32.5296 82.504V83.68H32.2336C31.8816 83.68 31.6149 83.7627 31.4336 83.928C31.2576 84.0933 31.1696 84.3813 31.1696 84.792V87H30.0496V82.568H31.1696V83.256ZM34.4039 83.208C34.5479 83.0053 34.7453 82.8373 34.9959 82.704C35.2519 82.5653 35.5426 82.496 35.8679 82.496C36.2466 82.496 36.5879 82.5893 36.8919 82.776C37.2013 82.9627 37.4439 83.2293 37.6199 83.576C37.8013 83.9173 37.8919 84.3147 37.8919 84.768C37.8919 85.2213 37.8013 85.624 37.6199 85.976C37.4439 86.3227 37.2013 86.592 36.8919 86.784C36.5879 86.976 36.2466 87.072 35.8679 87.072C35.5426 87.072 35.2546 87.0053 35.0039 86.872C34.7586 86.7387 34.5586 86.5707 34.4039 86.368V89.112H33.2839V82.568H34.4039V83.208ZM36.7479 84.768C36.7479 84.5013 36.6919 84.272 36.5799 84.08C36.4733 83.8827 36.3293 83.7333 36.1479 83.632C35.9719 83.5307 35.7799 83.48 35.5719 83.48C35.3693 83.48 35.1773 83.5333 34.9959 83.64C34.8199 83.7413 34.6759 83.8907 34.5639 84.088C34.4573 84.2853 34.4039 84.5173 34.4039 84.784C34.4039 85.0507 34.4573 85.2827 34.5639 85.48C34.6759 85.6773 34.8199 85.8293 34.9959 85.936C35.1773 86.0373 35.3693 86.088 35.5719 86.088C35.7799 86.088 35.9719 86.0347 36.1479 85.928C36.3293 85.8213 36.4733 85.6693 36.5799 85.472C36.6919 85.2747 36.7479 85.04 36.7479 84.768ZM40.6738 87.072C40.2471 87.072 39.8631 86.9787 39.5218 86.792C39.1805 86.6 38.9111 86.3307 38.7138 85.984C38.5218 85.6373 38.4258 85.2373 38.4258 84.784C38.4258 84.3307 38.5245 83.9307 38.7218 83.584C38.9245 83.2373 39.1991 82.9707 39.5458 82.784C39.8925 82.592 40.2791 82.496 40.7058 82.496C41.1325 82.496 41.5191 82.592 41.8658 82.784C42.2125 82.9707 42.4845 83.2373 42.6818 83.584C42.8845 83.9307 42.9858 84.3307 42.9858 84.784C42.9858 85.2373 42.8818 85.6373 42.6738 85.984C42.4711 86.3307 42.1938 86.6 41.8418 86.792C41.4951 86.9787 41.1058 87.072 40.6738 87.072ZM40.6738 86.096C40.8765 86.096 41.0658 86.048 41.2418 85.952C41.4231 85.8507 41.5671 85.7013 41.6738 85.504C41.7805 85.3067 41.8338 85.0667 41.8338 84.784C41.8338 84.3627 41.7218 84.04 41.4978 83.816C41.2791 83.5867 41.0098 83.472 40.6898 83.472C40.3698 83.472 40.1005 83.5867 39.8818 83.816C39.6685 84.04 39.5618 84.3627 39.5618 84.784C39.5618 85.2053 39.6658 85.5307 39.8738 85.76C40.0871 85.984 40.3538 86.096 40.6738 86.096ZM44.9274 83.256C45.0714 83.0213 45.258 82.8373 45.4874 82.704C45.722 82.5707 45.9887 82.504 46.2874 82.504V83.68H45.9914C45.6394 83.68 45.3727 83.7627 45.1914 83.928C45.0154 84.0933 44.9274 84.3813 44.9274 84.792V87H43.8074V82.568H44.9274V83.256ZM46.7537 84.768C46.7537 84.32 46.8417 83.9227 47.0177 83.576C47.1991 83.2293 47.4417 82.9627 47.7457 82.776C48.0551 82.5893 48.3991 82.496 48.7777 82.496C49.1084 82.496 49.3964 82.5627 49.6417 82.696C49.8924 82.8293 50.0924 82.9973 50.2417 83.2V82.568H51.3697V87H50.2417V86.352C50.0977 86.56 49.8977 86.7333 49.6417 86.872C49.3911 87.0053 49.1004 87.072 48.7697 87.072C48.3964 87.072 48.0551 86.976 47.7457 86.784C47.4417 86.592 47.1991 86.3227 47.0177 85.976C46.8417 85.624 46.7537 85.2213 46.7537 84.768ZM50.2417 84.784C50.2417 84.512 50.1884 84.28 50.0817 84.088C49.9751 83.8907 49.8311 83.7413 49.6497 83.64C49.4684 83.5333 49.2737 83.48 49.0657 83.48C48.8577 83.48 48.6657 83.5307 48.4897 83.632C48.3137 83.7333 48.1697 83.8827 48.0577 84.08C47.9511 84.272 47.8977 84.5013 47.8977 84.768C47.8977 85.0347 47.9511 85.2693 48.0577 85.472C48.1697 85.6693 48.3137 85.8213 48.4897 85.928C48.6711 86.0347 48.8631 86.088 49.0657 86.088C49.2737 86.088 49.4684 86.0373 49.6497 85.936C49.8311 85.8293 49.9751 85.68 50.0817 85.488C50.1884 85.2907 50.2417 85.056 50.2417 84.784ZM53.7676 83.488V85.632C53.7676 85.7813 53.8023 85.8907 53.8716 85.96C53.9463 86.024 54.069 86.056 54.2396 86.056H54.7596V87H54.0556C53.1116 87 52.6396 86.5413 52.6396 85.624V83.488H52.1116V82.568H52.6396V81.472H53.7676V82.568H54.7596V83.488H53.7676ZM56.1332 82.04C55.9359 82.04 55.7705 81.9787 55.6372 81.856C55.5092 81.728 55.4452 81.5707 55.4452 81.384C55.4452 81.1973 55.5092 81.0427 55.6372 80.92C55.7705 80.792 55.9359 80.728 56.1332 80.728C56.3305 80.728 56.4932 80.792 56.6212 80.92C56.7545 81.0427 56.8212 81.1973 56.8212 81.384C56.8212 81.5707 56.7545 81.728 56.6212 81.856C56.4932 81.9787 56.3305 82.04 56.1332 82.04ZM56.6852 82.568V87H55.5652V82.568H56.6852ZM59.7597 87.072C59.3331 87.072 58.9491 86.9787 58.6077 86.792C58.2664 86.6 57.9971 86.3307 57.7997 85.984C57.6077 85.6373 57.5117 85.2373 57.5117 84.784C57.5117 84.3307 57.6104 83.9307 57.8077 83.584C58.0104 83.2373 58.2851 82.9707 58.6317 82.784C58.9784 82.592 59.3651 82.496 59.7917 82.496C60.2184 82.496 60.6051 82.592 60.9517 82.784C61.2984 82.9707 61.5704 83.2373 61.7677 83.584C61.9704 83.9307 62.0717 84.3307 62.0717 84.784C62.0717 85.2373 61.9677 85.6373 61.7597 85.984C61.5571 86.3307 61.2797 86.6 60.9277 86.792C60.5811 86.9787 60.1917 87.072 59.7597 87.072ZM59.7597 86.096C59.9624 86.096 60.1517 86.048 60.3277 85.952C60.5091 85.8507 60.6531 85.7013 60.7597 85.504C60.8664 85.3067 60.9197 85.0667 60.9197 84.784C60.9197 84.3627 60.8077 84.04 60.5837 83.816C60.3651 83.5867 60.0957 83.472 59.7757 83.472C59.4557 83.472 59.1864 83.5867 58.9677 83.816C58.7544 84.04 58.6477 84.3627 58.6477 84.784C58.6477 85.2053 58.7517 85.5307 58.9597 85.76C59.1731 85.984 59.4397 86.096 59.7597 86.096ZM65.3493 82.504C65.8773 82.504 66.304 82.672 66.6293 83.008C66.9546 83.3387 67.1173 83.8027 67.1173 84.4V87H65.9973V84.552C65.9973 84.2 65.9093 83.9307 65.7333 83.744C65.5573 83.552 65.3173 83.456 65.0133 83.456C64.704 83.456 64.4586 83.552 64.2773 83.744C64.1013 83.9307 64.0133 84.2 64.0133 84.552V87H62.8933V82.568H64.0133V83.12C64.1626 82.928 64.352 82.7787 64.5813 82.672C64.816 82.56 65.072 82.504 65.3493 82.504Z" fill="#E5FFFF"/>
</g>
<defs>
<clipPath id="clip0_2217_23482">
<rect width="86" height="105" fill="white"/>
</clipPath>
</defs>
</svg>
